<?xml version="1.0" encoding="UTF-8"?>
<!DOCTYPE xmeml>
<xmeml version="4">
<project>
	<name>SPAHIPSMAY</name>
	<children>
		<sequence id="Edit2 ">
			<uuid>A0326223-DE6F-45A1-8F3C-BF2F343092AB</uuid>
			<updatebehavior>add</updatebehavior>
			<name>Edit2</name>
			<duration>2921</duration>
			<rate>
				<ntsc>FALSE</ntsc>
				<timebase>25</timebase>
			</rate>
			<timecode>
				<rate>
					<ntsc>FALSE</ntsc>
					<timebase>25</timebase>
				</rate>
				<string>01:00:00:00</string>
				<frame>90000</frame>
				<source>source</source>
				<displayformat>NDF</displayformat>
			</timecode>
			<in>-1</in>
			<out>-1</out>
			<media>
				<video>
					<format>
						<samplecharacteristics>
							<width>1920</width>
							<height>1080</height>
							<anamorphic>FALSE</anamorphic>
							<pixelaspectratio>Square</pixelaspectratio>
							<fielddominance>upper</fielddominance>
							<rate>
								<ntsc>FALSE</ntsc>
								<timebase>25</timebase>
							</rate>
							<colordepth>24</colordepth>
							<codec>
								<name>Apple ProRes 422 (HQ)</name>
								<appspecificdata>
									<appname>Final Cut Pro</appname>
									<appmanufacturer>Apple Inc.</appmanufacturer>
									<appversion>7.0</appversion>
									<data>
										<qtcodec>
											<codecname>Apple ProRes 422 (HQ)</codecname>
											<codectypename>Apple ProRes 422 (HQ)</codectypename>
											<codectypecode>apch</codectypecode>
											<codecvendorcode>appl</codecvendorcode>
											<spatialquality>1023</spatialquality>
											<temporalquality>0</temporalquality>
											<keyframerate>0</keyframerate>
											<datarate>0</datarate>
										</qtcodec>
									</data>
								</appspecificdata>
							</codec>
						</samplecharacteristics>
						<appspecificdata>
							<appname>Final Cut Pro</appname>
							<appmanufacturer>Apple Inc.</appmanufacturer>
							<appversion>7.0</appversion>
							<data>
								<fcpimageprocessing>
									<useyuv>TRUE</useyuv>
									<usesuperwhite>FALSE</usesuperwhite>
									<rendermode>Float10BPP</rendermode>
								</fcpimageprocessing>
							</data>
						</appspecificdata>
					</format>
					<track>
						<clipitem id="The-one">
							<name>The-one</name>
							<duration>5477</duration>
							<rate>
								<ntsc>FALSE</ntsc>
								<timebase>25</timebase>
							</rate>
							<in>223</in>
							<out>277</out>
							<start>0</start>
							<end>54</end>
							<pixelaspectratio>Square</pixelaspectratio>
							<anamorphic>FALSE</anamorphic>
							<alphatype>none</alphatype>
							<masterclipid>The-one1</masterclipid>
							<logginginfo>
								<scene/>
								<shottake/>
								<lognote/>
								<good>FALSE</good>
							</logginginfo>
							<labels>
								<label2/>
							</labels>
							<comments>
								<mastercomment1/>
								<mastercomment2/>
								<mastercomment3/>
								<mastercomment4/>
							</comments>
							<file id="The-one2">
								<name>The-one.mov</name>
								<pathurl>file://localhost/Users/PIPS/Desktop/The-one.mov</pathurl>
								<rate>
									<timebase>25</timebase>
								</rate>
								<duration>5477</duration>
								<metadata>
									<storage>QuickTime</storage>
									<key>com.apple.finalcutstudio.media.uuid</key>
									<size>36</size>
									<type>UTF8</type>
									<value>543E8209-E692-4A4A-B3C5-3DB6DF35452D</value>
								</metadata>
								<timecode>
									<rate>
										<timebase>25</timebase>
									</rate>
									<string>01:00:00:00</string>
									<frame>90000</frame>
									<displayformat>NDF</displayformat>
									<source>source</source>
								</timecode>
								<media>
									<video>
										<duration>5477</duration>
										<samplecharacteristics>
											<width>1920</width>
											<height>1080</height>
										</samplecharacteristics>
									</video>
									<audio>
										<samplecharacteristics>
											<samplerate>48000</samplerate>
											<depth>16</depth>
										</samplecharacteristics>
										<channelcount>2</channelcount>
									</audio>
								</media>
							</file>
							<sourcetrack>
								<mediatype>video</mediatype>
							</sourcetrack>
							<link>
								<linkclipref>The-one</linkclipref>
								<mediatype>video</mediatype>
								<trackindex>1</trackindex>
								<clipindex>1</clipindex>
							</link>
							<link>
								<linkclipref>The-one3</linkclipref>
								<mediatype>audio</mediatype>
								<trackindex>1</trackindex>
								<clipindex>1</clipindex>
								<groupindex>1</groupindex>
							</link>
							<link>
								<linkclipref>The-one4</linkclipref>
								<mediatype>audio</mediatype>
								<trackindex>2</trackindex>
								<clipindex>1</clipindex>
								<groupindex>1</groupindex>
							</link>
							<fielddominance>upper</fielddominance>
							<itemhistory>
								<uuid>1168A0EC-6D50-49CA-A91F-3DBAB9497405</uuid>
							</itemhistory>
						</clipitem>
						<clipitem id="The-one5">
							<name>The-one</name>
							<duration>5477</duration>
							<rate>
								<ntsc>FALSE</ntsc>
								<timebase>25</timebase>
							</rate>
							<in>335</in>
							<out>399</out>
							<start>54</start>
							<end>118</end>
							<pixelaspectratio>Square</pixelaspectratio>
							<anamorphic>FALSE</anamorphic>
							<alphatype>none</alphatype>
							<masterclipid>The-one1</masterclipid>
							<logginginfo>
								<scene/>
								<shottake/>
								<lognote/>
								<good>FALSE</good>
							</logginginfo>
							<labels>
								<label2/>
							</labels>
							<comments>
								<mastercomment1/>
								<mastercomment2/>
								<mastercomment3/>
								<mastercomment4/>
							</comments>
							<file id="The-one2"/>
							<sourcetrack>
								<mediatype>video</mediatype>
							</sourcetrack>
							<link>
								<linkclipref>The-one5</linkclipref>
								<mediatype>video</mediatype>
								<trackindex>1</trackindex>
								<clipindex>2</clipindex>
							</link>
							<link>
								<linkclipref>The-one6</linkclipref>
								<mediatype>audio</mediatype>
								<trackindex>1</trackindex>
								<clipindex>2</clipindex>
								<groupindex>1</groupindex>
							</link>
							<link>
								<linkclipref>The-one7</linkclipref>
								<mediatype>audio</mediatype>
								<trackindex>2</trackindex>
								<clipindex>2</clipindex>
								<groupindex>1</groupindex>
							</link>
							<fielddominance>upper</fielddominance>
							<itemhistory>
								<uuid>ADEC6DFD-C415-404D-8B39-133CAC65AC7E</uuid>
							</itemhistory>
						</clipitem>
						<clipitem id="The-one8">
							<name>The-one</name>
							<duration>5477</duration>
							<rate>
								<ntsc>FALSE</ntsc>
								<timebase>25</timebase>
							</rate>
							<in>450</in>
							<out>509</out>
							<start>118</start>
							<end>177</end>
							<pixelaspectratio>Square</pixelaspectratio>
							<enabled>TRUE</enabled>
							<anamorphic>FALSE</anamorphic>
							<alphatype>none</alphatype>
							<masterclipid>The-one1</masterclipid>
							<logginginfo>
								<scene/>
								<shottake/>
								<lognote/>
								<good>FALSE</good>
							</logginginfo>
							<labels>
								<label2/>
							</labels>
							<comments>
								<mastercomment1/>
								<mastercomment2/>
								<mastercomment3/>
								<mastercomment4/>
							</comments>
							<file id="The-one2"/>
							<sourcetrack>
								<mediatype>video</mediatype>
							</sourcetrack>
							<link>
								<linkclipref>The-one8</linkclipref>
								<mediatype>video</mediatype>
								<trackindex>1</trackindex>
								<clipindex>3</clipindex>
							</link>
							<link>
								<linkclipref>The-one9</linkclipref>
								<mediatype>audio</mediatype>
								<trackindex>1</trackindex>
								<clipindex>3</clipindex>
								<groupindex>1</groupindex>
							</link>
							<link>
								<linkclipref>The-one10</linkclipref>
								<mediatype>audio</mediatype>
								<trackindex>2</trackindex>
								<clipindex>3</clipindex>
								<groupindex>1</groupindex>
							</link>
							<fielddominance>upper</fielddominance>
							<itemhistory>
								<uuid>4067C4F1-7C7D-463B-99CC-BAA5656176C8</uuid>
							</itemhistory>
						</clipitem>
						<clipitem id="The-one11">
							<name>The-one</name>
							<duration>5477</duration>
							<rate>
								<ntsc>FALSE</ntsc>
								<timebase>25</timebase>
							</rate>
							<in>563</in>
							<out>614</out>
							<start>177</start>
							<end>228</end>
							<pixelaspectratio>Square</pixelaspectratio>
							<enabled>TRUE</enabled>
							<anamorphic>FALSE</anamorphic>
							<alphatype>none</alphatype>
							<masterclipid>The-one1</masterclipid>
							<logginginfo>
								<scene/>
								<shottake/>
								<lognote/>
								<good>FALSE</good>
							</logginginfo>
							<labels>
								<label2/>
							</labels>
							<comments>
								<mastercomment1/>
								<mastercomment2/>
								<mastercomment3/>
								<mastercomment4/>
							</comments>
							<file id="The-one2"/>
							<sourcetrack>
								<mediatype>video</mediatype>
							</sourcetrack>
							<link>
								<linkclipref>The-one11</linkclipref>
								<mediatype>video</mediatype>
								<trackindex>1</trackindex>
								<clipindex>4</clipindex>
							</link>
							<link>
								<linkclipref>The-one12</linkclipref>
								<mediatype>audio</mediatype>
								<trackindex>1</trackindex>
								<clipindex>4</clipindex>
								<groupindex>1</groupindex>
							</link>
							<link>
								<linkclipref>The-one13</linkclipref>
								<mediatype>audio</mediatype>
								<trackindex>2</trackindex>
								<clipindex>4</clipindex>
								<groupindex>1</groupindex>
							</link>
							<fielddominance>upper</fielddominance>
							<itemhistory>
								<uuid>904DE8E0-2500-4B57-9402-87E1D3E7A378</uuid>
							</itemhistory>
						</clipitem>
						<clipitem id="The-one14">
							<name>The-one</name>
							<duration>5477</duration>
							<rate>
								<ntsc>FALSE</ntsc>
								<timebase>25</timebase>
							</rate>
							<in>715</in>
							<out>749</out>
							<start>228</start>
							<end>262</end>
							<pixelaspectratio>Square</pixelaspectratio>
							<enabled>TRUE</enabled>
							<anamorphic>FALSE</anamorphic>
							<alphatype>none</alphatype>
							<masterclipid>The-one1</masterclipid>
							<logginginfo>
								<scene/>
								<shottake/>
								<lognote/>
								<good>FALSE</good>
							</logginginfo>
							<labels>
								<label2/>
							</labels>
							<comments>
								<mastercomment1/>
								<mastercomment2/>
								<mastercomment3/>
								<mastercomment4/>
							</comments>
							<file id="The-one2"/>
							<sourcetrack>
								<mediatype>video</mediatype>
							</sourcetrack>
							<link>
								<linkclipref>The-one14</linkclipref>
								<mediatype>video</mediatype>
								<trackindex>1</trackindex>
								<clipindex>5</clipindex>
							</link>
							<link>
								<linkclipref>The-one15</linkclipref>
								<mediatype>audio</mediatype>
								<trackindex>1</trackindex>
								<clipindex>5</clipindex>
								<groupindex>1</groupindex>
							</link>
							<link>
								<linkclipref>The-one16</linkclipref>
								<mediatype>audio</mediatype>
								<trackindex>2</trackindex>
								<clipindex>5</clipindex>
								<groupindex>1</groupindex>
							</link>
							<fielddominance>upper</fielddominance>
							<itemhistory>
								<uuid>B94435D2-7425-4A4B-B4E0-EB182F68CD90</uuid>
							</itemhistory>
						</clipitem>
						<clipitem id="The-one17">
							<name>The-one</name>
							<duration>5477</duration>
							<rate>
								<ntsc>FALSE</ntsc>
								<timebase>25</timebase>
							</rate>
							<in>1131</in>
							<out>1197</out>
							<start>262</start>
							<end>328</end>
							<pixelaspectratio>Square</pixelaspectratio>
							<enabled>TRUE</enabled>
							<anamorphic>FALSE</anamorphic>
							<alphatype>none</alphatype>
							<masterclipid>The-one1</masterclipid>
							<logginginfo>
								<scene/>
								<shottake/>
								<lognote/>
								<good>FALSE</good>
							</logginginfo>
							<labels>
								<label2/>
							</labels>
							<comments>
								<mastercomment1/>
								<mastercomment2/>
								<mastercomment3/>
								<mastercomment4/>
							</comments>
							<file id="The-one2"/>
							<sourcetrack>
								<mediatype>video</mediatype>
							</sourcetrack>
							<link>
								<linkclipref>The-one17</linkclipref>
								<mediatype>video</mediatype>
								<trackindex>1</trackindex>
								<clipindex>6</clipindex>
							</link>
							<link>
								<linkclipref>The-one18</linkclipref>
								<mediatype>audio</mediatype>
								<trackindex>1</trackindex>
								<clipindex>6</clipindex>
								<groupindex>1</groupindex>
							</link>
							<link>
								<linkclipref>The-one19</linkclipref>
								<mediatype>audio</mediatype>
								<trackindex>2</trackindex>
								<clipindex>6</clipindex>
								<groupindex>1</groupindex>
							</link>
							<fielddominance>upper</fielddominance>
							<itemhistory>
								<uuid>81774881-88EB-4FAE-B18D-4567F8B94A38</uuid>
							</itemhistory>
						</clipitem>
						<clipitem id="The-one20">
							<name>The-one</name>
							<duration>5477</duration>
							<rate>
								<ntsc>FALSE</ntsc>
								<timebase>25</timebase>
							</rate>
							<in>1359</in>
							<out>1414</out>
							<start>328</start>
							<end>383</end>
							<pixelaspectratio>Square</pixelaspectratio>
							<enabled>TRUE</enabled>
							<anamorphic>FALSE</anamorphic>
							<alphatype>none</alphatype>
							<masterclipid>The-one1</masterclipid>
							<logginginfo>
								<scene/>
								<shottake/>
								<lognote/>
								<good>FALSE</good>
							</logginginfo>
							<labels>
								<label2/>
							</labels>
							<comments>
								<mastercomment1/>
								<mastercomment2/>
								<mastercomment3/>
								<mastercomment4/>
							</comments>
							<file id="The-one2"/>
							<sourcetrack>
								<mediatype>video</mediatype>
							</sourcetrack>
							<link>
								<linkclipref>The-one20</linkclipref>
								<mediatype>video</mediatype>
								<trackindex>1</trackindex>
								<clipindex>7</clipindex>
							</link>
							<link>
								<linkclipref>The-one21</linkclipref>
								<mediatype>audio</mediatype>
								<trackindex>1</trackindex>
								<clipindex>7</clipindex>
								<groupindex>1</groupindex>
							</link>
							<link>
								<linkclipref>The-one22</linkclipref>
								<mediatype>audio</mediatype>
								<trackindex>2</trackindex>
								<clipindex>7</clipindex>
								<groupindex>1</groupindex>
							</link>
							<fielddominance>upper</fielddominance>
							<itemhistory>
								<uuid>758237D9-852B-4978-9F3B-D6F2B6FB75F6</uuid>
							</itemhistory>
						</clipitem>
						<clipitem id="The-one23">
							<name>The-one</name>
							<duration>5477</duration>
							<rate>
								<ntsc>FALSE</ntsc>
								<timebase>25</timebase>
							</rate>
							<in>2435</in>
							<out>2492</out>
							<start>383</start>
							<end>440</end>
							<pixelaspectratio>Square</pixelaspectratio>
							<enabled>TRUE</enabled>
							<anamorphic>FALSE</anamorphic>
							<alphatype>none</alphatype>
							<masterclipid>The-one1</masterclipid>
							<logginginfo>
								<scene/>
								<shottake/>
								<lognote/>
								<good>FALSE</good>
							</logginginfo>
							<labels>
								<label2/>
							</labels>
							<comments>
								<mastercomment1/>
								<mastercomment2/>
								<mastercomment3/>
								<mastercomment4/>
							</comments>
							<file id="The-one2"/>
							<sourcetrack>
								<mediatype>video</mediatype>
							</sourcetrack>
							<link>
								<linkclipref>The-one23</linkclipref>
								<mediatype>video</mediatype>
								<trackindex>1</trackindex>
								<clipindex>8</clipindex>
							</link>
							<link>
								<linkclipref>The-one24</linkclipref>
								<mediatype>audio</mediatype>
								<trackindex>1</trackindex>
								<clipindex>8</clipindex>
								<groupindex>1</groupindex>
							</link>
							<link>
								<linkclipref>The-one25</linkclipref>
								<mediatype>audio</mediatype>
								<trackindex>2</trackindex>
								<clipindex>8</clipindex>
								<groupindex>1</groupindex>
							</link>
							<fielddominance>upper</fielddominance>
							<itemhistory>
								<uuid>38C4C010-DD99-4601-8BD1-C8563585F406</uuid>
							</itemhistory>
						</clipitem>
						<clipitem id="The-one26">
							<name>The-one</name>
							<duration>5477</duration>
							<rate>
								<ntsc>FALSE</ntsc>
								<timebase>25</timebase>
							</rate>
							<in>1469</in>
							<out>1530</out>
							<start>440</start>
							<end>501</end>
							<pixelaspectratio>Square</pixelaspectratio>
							<enabled>TRUE</enabled>
							<anamorphic>FALSE</anamorphic>
							<alphatype>none</alphatype>
							<masterclipid>The-one1</masterclipid>
							<logginginfo>
								<scene/>
								<shottake/>
								<lognote/>
								<good>FALSE</good>
							</logginginfo>
							<labels>
								<label2/>
							</labels>
							<comments>
								<mastercomment1/>
								<mastercomment2/>
								<mastercomment3/>
								<mastercomment4/>
							</comments>
							<file id="The-one2"/>
							<sourcetrack>
								<mediatype>video</mediatype>
							</sourcetrack>
							<link>
								<linkclipref>The-one26</linkclipref>
								<mediatype>video</mediatype>
								<trackindex>1</trackindex>
								<clipindex>9</clipindex>
							</link>
							<link>
								<linkclipref>The-one27</linkclipref>
								<mediatype>audio</mediatype>
								<trackindex>1</trackindex>
								<clipindex>9</clipindex>
								<groupindex>1</groupindex>
							</link>
							<link>
								<linkclipref>The-one28</linkclipref>
								<mediatype>audio</mediatype>
								<trackindex>2</trackindex>
								<clipindex>9</clipindex>
								<groupindex>1</groupindex>
							</link>
							<fielddominance>upper</fielddominance>
							<itemhistory>
								<uuid>5201C375-CE25-43FB-B2B0-C2FB30610061</uuid>
							</itemhistory>
						</clipitem>
						<clipitem id="The-one29">
							<name>The-one</name>
							<duration>5477</duration>
							<rate>
								<ntsc>FALSE</ntsc>
								<timebase>25</timebase>
							</rate>
							<in>2886</in>
							<out>2945</out>
							<start>501</start>
							<end>560</end>
							<pixelaspectratio>Square</pixelaspectratio>
							<enabled>TRUE</enabled>
							<anamorphic>FALSE</anamorphic>
							<alphatype>none</alphatype>
							<masterclipid>The-one1</masterclipid>
							<logginginfo>
								<scene/>
								<shottake/>
								<lognote/>
								<good>FALSE</good>
							</logginginfo>
							<labels>
								<label2/>
							</labels>
							<comments>
								<mastercomment1/>
								<mastercomment2/>
								<mastercomment3/>
								<mastercomment4/>
							</comments>
							<file id="The-one2"/>
							<sourcetrack>
								<mediatype>video</mediatype>
							</sourcetrack>
							<link>
								<linkclipref>The-one29</linkclipref>
								<mediatype>video</mediatype>
								<trackindex>1</trackindex>
								<clipindex>10</clipindex>
							</link>
							<link>
								<linkclipref>The-one30</linkclipref>
								<mediatype>audio</mediatype>
								<trackindex>1</trackindex>
								<clipindex>10</clipindex>
								<groupindex>1</groupindex>
							</link>
							<link>
								<linkclipref>The-one31</linkclipref>
								<mediatype>audio</mediatype>
								<trackindex>2</trackindex>
								<clipindex>10</clipindex>
								<groupindex>1</groupindex>
							</link>
							<fielddominance>upper</fielddominance>
							<itemhistory>
								<uuid>4E2F60EB-C884-4685-B7BC-3160FFBC3BC5</uuid>
							</itemhistory>
						</clipitem>
						<clipitem id="The-one32">
							<name>The-one</name>
							<duration>5477</duration>
							<rate>
								<ntsc>FALSE</ntsc>
								<timebase>25</timebase>
							</rate>
							<in>1697</in>
							<out>1743</out>
							<start>560</start>
							<end>606</end>
							<pixelaspectratio>Square</pixelaspectratio>
							<enabled>TRUE</enabled>
							<anamorphic>FALSE</anamorphic>
							<alphatype>none</alphatype>
							<masterclipid>The-one1</masterclipid>
							<logginginfo>
								<scene/>
								<shottake/>
								<lognote/>
								<good>FALSE</good>
							</logginginfo>
							<labels>
								<label2/>
							</labels>
							<comments>
								<mastercomment1/>
								<mastercomment2/>
								<mastercomment3/>
								<mastercomment4/>
							</comments>
							<file id="The-one2"/>
							<sourcetrack>
								<mediatype>video</mediatype>
							</sourcetrack>
							<link>
								<linkclipref>The-one32</linkclipref>
								<mediatype>video</mediatype>
								<trackindex>1</trackindex>
								<clipindex>11</clipindex>
							</link>
							<link>
								<linkclipref>The-one33</linkclipref>
								<mediatype>audio</mediatype>
								<trackindex>1</trackindex>
								<clipindex>11</clipindex>
								<groupindex>1</groupindex>
							</link>
							<link>
								<linkclipref>The-one34</linkclipref>
								<mediatype>audio</mediatype>
								<trackindex>2</trackindex>
								<clipindex>11</clipindex>
								<groupindex>1</groupindex>
							</link>
							<fielddominance>upper</fielddominance>
							<itemhistory>
								<uuid>21A86EEE-8D9D-41E9-ACAE-3B79162988D6</uuid>
							</itemhistory>
						</clipitem>
						<clipitem id="The-one35">
							<name>The-one</name>
							<duration>5477</duration>
							<rate>
								<ntsc>FALSE</ntsc>
								<timebase>25</timebase>
							</rate>
							<in>1244</in>
							<out>1302</out>
							<start>606</start>
							<end>664</end>
							<pixelaspectratio>Square</pixelaspectratio>
							<enabled>TRUE</enabled>
							<anamorphic>FALSE</anamorphic>
							<alphatype>none</alphatype>
							<masterclipid>The-one1</masterclipid>
							<logginginfo>
								<scene/>
								<shottake/>
								<lognote/>
								<good>FALSE</good>
							</logginginfo>
							<labels>
								<label2/>
							</labels>
							<comments>
								<mastercomment1/>
								<mastercomment2/>
								<mastercomment3/>
								<mastercomment4/>
							</comments>
							<file id="The-one2"/>
							<sourcetrack>
								<mediatype>video</mediatype>
							</sourcetrack>
							<link>
								<linkclipref>The-one35</linkclipref>
								<mediatype>video</mediatype>
								<trackindex>1</trackindex>
								<clipindex>12</clipindex>
							</link>
							<link>
								<linkclipref>The-one36</linkclipref>
								<mediatype>audio</mediatype>
								<trackindex>1</trackindex>
								<clipindex>12</clipindex>
								<groupindex>1</groupindex>
							</link>
							<link>
								<linkclipref>The-one37</linkclipref>
								<mediatype>audio</mediatype>
								<trackindex>2</trackindex>
								<clipindex>12</clipindex>
								<groupindex>1</groupindex>
							</link>
							<fielddominance>upper</fielddominance>
							<itemhistory>
								<uuid>F133D948-A3EF-45A7-9FB2-4A1566438966</uuid>
							</itemhistory>
						</clipitem>
						<clipitem id="The-one38">
							<name>The-one</name>
							<duration>5477</duration>
							<rate>
								<ntsc>FALSE</ntsc>
								<timebase>25</timebase>
							</rate>
							<in>2109</in>
							<out>2158</out>
							<start>664</start>
							<end>713</end>
							<pixelaspectratio>Square</pixelaspectratio>
							<enabled>TRUE</enabled>
							<anamorphic>FALSE</anamorphic>
							<alphatype>none</alphatype>
							<masterclipid>The-one1</masterclipid>
							<logginginfo>
								<scene/>
								<shottake/>
								<lognote/>
								<good>FALSE</good>
							</logginginfo>
							<labels>
								<label2/>
							</labels>
							<comments>
								<mastercomment1/>
								<mastercomment2/>
								<mastercomment3/>
								<mastercomment4/>
							</comments>
							<file id="The-one2"/>
							<sourcetrack>
								<mediatype>video</mediatype>
							</sourcetrack>
							<link>
								<linkclipref>The-one38</linkclipref>
								<mediatype>video</mediatype>
								<trackindex>1</trackindex>
								<clipindex>13</clipindex>
							</link>
							<link>
								<linkclipref>The-one39</linkclipref>
								<mediatype>audio</mediatype>
								<trackindex>1</trackindex>
								<clipindex>13</clipindex>
								<groupindex>1</groupindex>
							</link>
							<link>
								<linkclipref>The-one40</linkclipref>
								<mediatype>audio</mediatype>
								<trackindex>2</trackindex>
								<clipindex>13</clipindex>
								<groupindex>1</groupindex>
							</link>
							<fielddominance>upper</fielddominance>
							<itemhistory>
								<uuid>55CCC157-D3C7-44DC-94BA-EB12AA314069</uuid>
							</itemhistory>
						</clipitem>
						<clipitem id="The-one41">
							<name>The-one</name>
							<duration>5477</duration>
							<rate>
								<ntsc>FALSE</ntsc>
								<timebase>25</timebase>
							</rate>
							<in>2771</in>
							<out>2827</out>
							<start>713</start>
							<end>769</end>
							<pixelaspectratio>Square</pixelaspectratio>
							<enabled>TRUE</enabled>
							<anamorphic>FALSE</anamorphic>
							<alphatype>none</alphatype>
							<masterclipid>The-one1</masterclipid>
							<logginginfo>
								<scene/>
								<shottake/>
								<lognote/>
								<good>FALSE</good>
							</logginginfo>
							<labels>
								<label2/>
							</labels>
							<comments>
								<mastercomment1/>
								<mastercomment2/>
								<mastercomment3/>
								<mastercomment4/>
							</comments>
							<file id="The-one2"/>
							<sourcetrack>
								<mediatype>video</mediatype>
							</sourcetrack>
							<link>
								<linkclipref>The-one41</linkclipref>
								<mediatype>video</mediatype>
								<trackindex>1</trackindex>
								<clipindex>14</clipindex>
							</link>
							<link>
								<linkclipref>The-one42</linkclipref>
								<mediatype>audio</mediatype>
								<trackindex>1</trackindex>
								<clipindex>14</clipindex>
								<groupindex>1</groupindex>
							</link>
							<link>
								<linkclipref>The-one43</linkclipref>
								<mediatype>audio</mediatype>
								<trackindex>2</trackindex>
								<clipindex>14</clipindex>
								<groupindex>1</groupindex>
							</link>
							<fielddominance>upper</fielddominance>
							<itemhistory>
								<uuid>BE3D3827-EBF4-4863-877F-3F6F24B483BC</uuid>
							</itemhistory>
						</clipitem>
						<clipitem id="The-one44">
							<name>The-one</name>
							<duration>5477</duration>
							<rate>
								<ntsc>FALSE</ntsc>
								<timebase>25</timebase>
							</rate>
							<in>2995</in>
							<out>3055</out>
							<start>769</start>
							<end>829</end>
							<pixelaspectratio>Square</pixelaspectratio>
							<enabled>TRUE</enabled>
							<anamorphic>FALSE</anamorphic>
							<alphatype>none</alphatype>
							<masterclipid>The-one1</masterclipid>
							<logginginfo>
								<scene/>
								<shottake/>
								<lognote/>
								<good>FALSE</good>
							</logginginfo>
							<labels>
								<label2/>
							</labels>
							<comments>
								<mastercomment1/>
								<mastercomment2/>
								<mastercomment3/>
								<mastercomment4/>
							</comments>
							<file id="The-one2"/>
							<sourcetrack>
								<mediatype>video</mediatype>
							</sourcetrack>
							<link>
								<linkclipref>The-one44</linkclipref>
								<mediatype>video</mediatype>
								<trackindex>1</trackindex>
								<clipindex>15</clipindex>
							</link>
							<link>
								<linkclipref>The-one45</linkclipref>
								<mediatype>audio</mediatype>
								<trackindex>1</trackindex>
								<clipindex>15</clipindex>
								<groupindex>1</groupindex>
							</link>
							<link>
								<linkclipref>The-one46</linkclipref>
								<mediatype>audio</mediatype>
								<trackindex>2</trackindex>
								<clipindex>15</clipindex>
								<groupindex>1</groupindex>
							</link>
							<fielddominance>upper</fielddominance>
							<itemhistory>
								<uuid>8C5C963E-E70C-40FD-BBFA-24D717AB0BC2</uuid>
							</itemhistory>
						</clipitem>
						<clipitem id="The-one47">
							<name>The-one</name>
							<duration>5477</duration>
							<rate>
								<ntsc>FALSE</ntsc>
								<timebase>25</timebase>
							</rate>
							<in>3588</in>
							<out>3693</out>
							<start>829</start>
							<end>934</end>
							<pixelaspectratio>Square</pixelaspectratio>
							<enabled>TRUE</enabled>
							<anamorphic>FALSE</anamorphic>
							<alphatype>none</alphatype>
							<masterclipid>The-one1</masterclipid>
							<logginginfo>
								<scene/>
								<shottake/>
								<lognote/>
								<good>FALSE</good>
							</logginginfo>
							<labels>
								<label2/>
							</labels>
							<comments>
								<mastercomment1/>
								<mastercomment2/>
								<mastercomment3/>
								<mastercomment4/>
							</comments>
							<file id="The-one2"/>
							<sourcetrack>
								<mediatype>video</mediatype>
							</sourcetrack>
							<link>
								<linkclipref>The-one47</linkclipref>
								<mediatype>video</mediatype>
								<trackindex>1</trackindex>
								<clipindex>16</clipindex>
							</link>
							<link>
								<linkclipref>The-one48</linkclipref>
								<mediatype>audio</mediatype>
								<trackindex>1</trackindex>
								<clipindex>16</clipindex>
								<groupindex>1</groupindex>
							</link>
							<link>
								<linkclipref>The-one49</linkclipref>
								<mediatype>audio</mediatype>
								<trackindex>2</trackindex>
								<clipindex>16</clipindex>
								<groupindex>1</groupindex>
							</link>
							<fielddominance>upper</fielddominance>
							<itemhistory>
								<uuid>2E2166DC-3078-439F-827B-3E5AC4F90124</uuid>
							</itemhistory>
						</clipitem>
						<clipitem id="The-one50">
							<name>The-one</name>
							<duration>5477</duration>
							<rate>
								<ntsc>FALSE</ntsc>
								<timebase>25</timebase>
							</rate>
							<in>3905</in>
							<out>3960</out>
							<start>934</start>
							<end>989</end>
							<pixelaspectratio>Square</pixelaspectratio>
							<enabled>TRUE</enabled>
							<anamorphic>FALSE</anamorphic>
							<alphatype>none</alphatype>
							<masterclipid>The-one1</masterclipid>
							<logginginfo>
								<scene/>
								<shottake/>
								<lognote/>
								<good>FALSE</good>
							</logginginfo>
							<labels>
								<label2/>
							</labels>
							<comments>
								<mastercomment1/>
								<mastercomment2/>
								<mastercomment3/>
								<mastercomment4/>
							</comments>
							<file id="The-one2"/>
							<sourcetrack>
								<mediatype>video</mediatype>
							</sourcetrack>
							<link>
								<linkclipref>The-one50</linkclipref>
								<mediatype>video</mediatype>
								<trackindex>1</trackindex>
								<clipindex>17</clipindex>
							</link>
							<link>
								<linkclipref>The-one51</linkclipref>
								<mediatype>audio</mediatype>
								<trackindex>1</trackindex>
								<clipindex>17</clipindex>
								<groupindex>1</groupindex>
							</link>
							<link>
								<linkclipref>The-one52</linkclipref>
								<mediatype>audio</mediatype>
								<trackindex>2</trackindex>
								<clipindex>17</clipindex>
								<groupindex>1</groupindex>
							</link>
							<fielddominance>upper</fielddominance>
							<itemhistory>
								<uuid>5F803A38-A6A4-4673-9340-26393520CB34</uuid>
							</itemhistory>
						</clipitem>
						<clipitem id="The-one53">
							<name>The-one</name>
							<duration>5477</duration>
							<rate>
								<ntsc>FALSE</ntsc>
								<timebase>25</timebase>
							</rate>
							<in>4260</in>
							<out>4309</out>
							<start>989</start>
							<end>1038</end>
							<pixelaspectratio>Square</pixelaspectratio>
							<enabled>TRUE</enabled>
							<anamorphic>FALSE</anamorphic>
							<alphatype>none</alphatype>
							<masterclipid>The-one1</masterclipid>
							<logginginfo>
								<scene/>
								<shottake/>
								<lognote/>
								<good>FALSE</good>
							</logginginfo>
							<labels>
								<label2/>
							</labels>
							<comments>
								<mastercomment1/>
								<mastercomment2/>
								<mastercomment3/>
								<mastercomment4/>
							</comments>
							<file id="The-one2"/>
							<sourcetrack>
								<mediatype>video</mediatype>
							</sourcetrack>
							<link>
								<linkclipref>The-one53</linkclipref>
								<mediatype>video</mediatype>
								<trackindex>1</trackindex>
								<clipindex>18</clipindex>
							</link>
							<link>
								<linkclipref>The-one54</linkclipref>
								<mediatype>audio</mediatype>
								<trackindex>1</trackindex>
								<clipindex>18</clipindex>
								<groupindex>1</groupindex>
							</link>
							<link>
								<linkclipref>The-one55</linkclipref>
								<mediatype>audio</mediatype>
								<trackindex>2</trackindex>
								<clipindex>18</clipindex>
								<groupindex>1</groupindex>
							</link>
							<fielddominance>upper</fielddominance>
							<itemhistory>
								<uuid>90314FA1-351F-4284-AD53-D9F41E40488C</uuid>
							</itemhistory>
						</clipitem>
						<clipitem id="The-one56">
							<name>The-one</name>
							<duration>5477</duration>
							<rate>
								<ntsc>FALSE</ntsc>
								<timebase>25</timebase>
							</rate>
							<in>4481</in>
							<out>4534</out>
							<start>1038</start>
							<end>1091</end>
							<pixelaspectratio>Square</pixelaspectratio>
							<enabled>TRUE</enabled>
							<anamorphic>FALSE</anamorphic>
							<alphatype>none</alphatype>
							<masterclipid>The-one1</masterclipid>
							<logginginfo>
								<scene/>
								<shottake/>
								<lognote/>
								<good>FALSE</good>
							</logginginfo>
							<labels>
								<label2/>
							</labels>
							<comments>
								<mastercomment1/>
								<mastercomment2/>
								<mastercomment3/>
								<mastercomment4/>
							</comments>
							<file id="The-one2"/>
							<sourcetrack>
								<mediatype>video</mediatype>
							</sourcetrack>
							<link>
								<linkclipref>The-one56</linkclipref>
								<mediatype>video</mediatype>
								<trackindex>1</trackindex>
								<clipindex>19</clipindex>
							</link>
							<link>
								<linkclipref>The-one57</linkclipref>
								<mediatype>audio</mediatype>
								<trackindex>1</trackindex>
								<clipindex>19</clipindex>
								<groupindex>1</groupindex>
							</link>
							<link>
								<linkclipref>The-one58</linkclipref>
								<mediatype>audio</mediatype>
								<trackindex>2</trackindex>
								<clipindex>19</clipindex>
								<groupindex>1</groupindex>
							</link>
							<fielddominance>upper</fielddominance>
							<itemhistory>
								<uuid>A050A7A6-1A0C-48DF-B153-51553774011B</uuid>
							</itemhistory>
						</clipitem>
						<clipitem id="The-one59">
							<name>The-one</name>
							<duration>5477</duration>
							<rate>
								<ntsc>FALSE</ntsc>
								<timebase>25</timebase>
							</rate>
							<in>4599</in>
							<out>4712</out>
							<start>1091</start>
							<end>1204</end>
							<pixelaspectratio>Square</pixelaspectratio>
							<enabled>TRUE</enabled>
							<anamorphic>FALSE</anamorphic>
							<alphatype>none</alphatype>
							<masterclipid>The-one1</masterclipid>
							<logginginfo>
								<scene/>
								<shottake/>
								<lognote/>
								<good>FALSE</good>
							</logginginfo>
							<labels>
								<label2/>
							</labels>
							<comments>
								<mastercomment1/>
								<mastercomment2/>
								<mastercomment3/>
								<mastercomment4/>
							</comments>
							<file id="The-one2"/>
							<sourcetrack>
								<mediatype>video</mediatype>
							</sourcetrack>
							<link>
								<linkclipref>The-one59</linkclipref>
								<mediatype>video</mediatype>
								<trackindex>1</trackindex>
								<clipindex>20</clipindex>
							</link>
							<link>
								<linkclipref>The-one60</linkclipref>
								<mediatype>audio</mediatype>
								<trackindex>1</trackindex>
								<clipindex>20</clipindex>
								<groupindex>1</groupindex>
							</link>
							<link>
								<linkclipref>The-one61</linkclipref>
								<mediatype>audio</mediatype>
								<trackindex>2</trackindex>
								<clipindex>20</clipindex>
								<groupindex>1</groupindex>
							</link>
							<fielddominance>upper</fielddominance>
							<itemhistory>
								<uuid>56505B18-9F4D-4B07-80BC-6E5B2035FBB0</uuid>
							</itemhistory>
						</clipitem>
						<clipitem id="The-one62">
							<name>The-one</name>
							<duration>5477</duration>
							<rate>
								<ntsc>FALSE</ntsc>
								<timebase>25</timebase>
							</rate>
							<in>4359</in>
							<out>4416</out>
							<start>1204</start>
							<end>1261</end>
							<pixelaspectratio>Square</pixelaspectratio>
							<enabled>TRUE</enabled>
							<anamorphic>FALSE</anamorphic>
							<alphatype>none</alphatype>
							<masterclipid>The-one1</masterclipid>
							<logginginfo>
								<scene/>
								<shottake/>
								<lognote/>
								<good>FALSE</good>
							</logginginfo>
							<labels>
								<label2/>
							</labels>
							<comments>
								<mastercomment1/>
								<mastercomment2/>
								<mastercomment3/>
								<mastercomment4/>
							</comments>
							<file id="The-one2"/>
							<sourcetrack>
								<mediatype>video</mediatype>
							</sourcetrack>
							<link>
								<linkclipref>The-one62</linkclipref>
								<mediatype>video</mediatype>
								<trackindex>1</trackindex>
								<clipindex>21</clipindex>
							</link>
							<link>
								<linkclipref>The-one63</linkclipref>
								<mediatype>audio</mediatype>
								<trackindex>1</trackindex>
								<clipindex>21</clipindex>
								<groupindex>1</groupindex>
							</link>
							<link>
								<linkclipref>The-one64</linkclipref>
								<mediatype>audio</mediatype>
								<trackindex>2</trackindex>
								<clipindex>21</clipindex>
								<groupindex>1</groupindex>
							</link>
							<fielddominance>upper</fielddominance>
							<itemhistory>
								<uuid>2AC0B164-A270-444C-B786-4252B90927A6</uuid>
							</itemhistory>
						</clipitem>
						<clipitem id="The-one65">
							<name>The-one</name>
							<duration>5477</duration>
							<rate>
								<ntsc>FALSE</ntsc>
								<timebase>25</timebase>
							</rate>
							<in>4754</in>
							<out>4855</out>
							<start>1261</start>
							<end>1362</end>
							<pixelaspectratio>Square</pixelaspectratio>
							<enabled>TRUE</enabled>
							<anamorphic>FALSE</anamorphic>
							<alphatype>none</alphatype>
							<masterclipid>The-one1</masterclipid>
							<logginginfo>
								<scene/>
								<shottake/>
								<lognote/>
								<good>FALSE</good>
							</logginginfo>
							<labels>
								<label2/>
							</labels>
							<comments>
								<mastercomment1/>
								<mastercomment2/>
								<mastercomment3/>
								<mastercomment4/>
							</comments>
							<file id="The-one2"/>
							<sourcetrack>
								<mediatype>video</mediatype>
							</sourcetrack>
							<link>
								<linkclipref>The-one65</linkclipref>
								<mediatype>video</mediatype>
								<trackindex>1</trackindex>
								<clipindex>22</clipindex>
							</link>
							<link>
								<linkclipref>The-one66</linkclipref>
								<mediatype>audio</mediatype>
								<trackindex>1</trackindex>
								<clipindex>22</clipindex>
								<groupindex>1</groupindex>
							</link>
							<link>
								<linkclipref>The-one67</linkclipref>
								<mediatype>audio</mediatype>
								<trackindex>2</trackindex>
								<clipindex>22</clipindex>
								<groupindex>1</groupindex>
							</link>
							<fielddominance>upper</fielddominance>
							<itemhistory>
								<uuid>8214AA02-7039-483F-A6B8-3F0B20EDBFFA</uuid>
							</itemhistory>
						</clipitem>
						<clipitem id="The-one68">
							<name>The-one</name>
							<duration>5477</duration>
							<rate>
								<ntsc>FALSE</ntsc>
								<timebase>25</timebase>
							</rate>
							<in>1019</in>
							<out>1073</out>
							<start>1362</start>
							<end>1416</end>
							<pixelaspectratio>Square</pixelaspectratio>
							<enabled>TRUE</enabled>
							<anamorphic>FALSE</anamorphic>
							<alphatype>none</alphatype>
							<masterclipid>The-one1</masterclipid>
							<logginginfo>
								<scene/>
								<shottake/>
								<lognote/>
								<good>FALSE</good>
							</logginginfo>
							<labels>
								<label2/>
							</labels>
							<comments>
								<mastercomment1/>
								<mastercomment2/>
								<mastercomment3/>
								<mastercomment4/>
							</comments>
							<file id="The-one2"/>
							<sourcetrack>
								<mediatype>video</mediatype>
							</sourcetrack>
							<link>
								<linkclipref>The-one68</linkclipref>
								<mediatype>video</mediatype>
								<trackindex>1</trackindex>
								<clipindex>23</clipindex>
							</link>
							<link>
								<linkclipref>The-one69</linkclipref>
								<mediatype>audio</mediatype>
								<trackindex>1</trackindex>
								<clipindex>23</clipindex>
								<groupindex>1</groupindex>
							</link>
							<link>
								<linkclipref>The-one70</linkclipref>
								<mediatype>audio</mediatype>
								<trackindex>2</trackindex>
								<clipindex>23</clipindex>
								<groupindex>1</groupindex>
							</link>
							<fielddominance>upper</fielddominance>
							<itemhistory>
								<uuid>69B6680B-A2F8-40A0-A2A3-2D73F03340AC</uuid>
							</itemhistory>
						</clipitem>
						<clipitem id="The-one71">
							<name>The-one</name>
							<duration>5477</duration>
							<rate>
								<ntsc>FALSE</ntsc>
								<timebase>25</timebase>
							</rate>
							<in>1583</in>
							<out>1641</out>
							<start>1416</start>
							<end>1474</end>
							<pixelaspectratio>Square</pixelaspectratio>
							<enabled>TRUE</enabled>
							<anamorphic>FALSE</anamorphic>
							<alphatype>none</alphatype>
							<masterclipid>The-one1</masterclipid>
							<logginginfo>
								<scene/>
								<shottake/>
								<lognote/>
								<good>FALSE</good>
							</logginginfo>
							<labels>
								<label2/>
							</labels>
							<comments>
								<mastercomment1/>
								<mastercomment2/>
								<mastercomment3/>
								<mastercomment4/>
							</comments>
							<file id="The-one2"/>
							<sourcetrack>
								<mediatype>video</mediatype>
							</sourcetrack>
							<link>
								<linkclipref>The-one71</linkclipref>
								<mediatype>video</mediatype>
								<trackindex>1</trackindex>
								<clipindex>24</clipindex>
							</link>
							<link>
								<linkclipref>The-one72</linkclipref>
								<mediatype>audio</mediatype>
								<trackindex>1</trackindex>
								<clipindex>24</clipindex>
								<groupindex>1</groupindex>
							</link>
							<link>
								<linkclipref>The-one73</linkclipref>
								<mediatype>audio</mediatype>
								<trackindex>2</trackindex>
								<clipindex>24</clipindex>
								<groupindex>1</groupindex>
							</link>
							<fielddominance>upper</fielddominance>
							<itemhistory>
								<uuid>8C9B0059-06D5-4E90-A18F-F3DEE2CF8136</uuid>
							</itemhistory>
						</clipitem>
						<clipitem id="The-one74">
							<name>The-one</name>
							<duration>5477</duration>
							<rate>
								<ntsc>FALSE</ntsc>
								<timebase>25</timebase>
							</rate>
							<in>1925</in>
							<out>2026</out>
							<start>1474</start>
							<end>1575</end>
							<pixelaspectratio>Square</pixelaspectratio>
							<enabled>TRUE</enabled>
							<anamorphic>FALSE</anamorphic>
							<alphatype>none</alphatype>
							<masterclipid>The-one1</masterclipid>
							<logginginfo>
								<scene/>
								<shottake/>
								<lognote/>
								<good>FALSE</good>
							</logginginfo>
							<labels>
								<label2/>
							</labels>
							<comments>
								<mastercomment1/>
								<mastercomment2/>
								<mastercomment3/>
								<mastercomment4/>
							</comments>
							<file id="The-one2"/>
							<sourcetrack>
								<mediatype>video</mediatype>
							</sourcetrack>
							<link>
								<linkclipref>The-one74</linkclipref>
								<mediatype>video</mediatype>
								<trackindex>1</trackindex>
								<clipindex>25</clipindex>
							</link>
							<link>
								<linkclipref>The-one75</linkclipref>
								<mediatype>audio</mediatype>
								<trackindex>1</trackindex>
								<clipindex>25</clipindex>
								<groupindex>1</groupindex>
							</link>
							<link>
								<linkclipref>The-one76</linkclipref>
								<mediatype>audio</mediatype>
								<trackindex>2</trackindex>
								<clipindex>25</clipindex>
								<groupindex>1</groupindex>
							</link>
							<fielddominance>upper</fielddominance>
							<itemhistory>
								<uuid>60C15028-187B-486B-AC80-5DF221435874</uuid>
							</itemhistory>
						</clipitem>
						<clipitem id="The-one77">
							<name>The-one</name>
							<duration>5477</duration>
							<rate>
								<ntsc>FALSE</ntsc>
								<timebase>25</timebase>
							</rate>
							<in>3223</in>
							<out>3284</out>
							<start>1575</start>
							<end>1636</end>
							<pixelaspectratio>Square</pixelaspectratio>
							<enabled>TRUE</enabled>
							<anamorphic>FALSE</anamorphic>
							<alphatype>none</alphatype>
							<masterclipid>The-one1</masterclipid>
							<logginginfo>
								<scene/>
								<shottake/>
								<lognote/>
								<good>FALSE</good>
							</logginginfo>
							<labels>
								<label2/>
							</labels>
							<comments>
								<mastercomment1/>
								<mastercomment2/>
								<mastercomment3/>
								<mastercomment4/>
							</comments>
							<file id="The-one2"/>
							<sourcetrack>
								<mediatype>video</mediatype>
							</sourcetrack>
							<link>
								<linkclipref>The-one77</linkclipref>
								<mediatype>video</mediatype>
								<trackindex>1</trackindex>
								<clipindex>26</clipindex>
							</link>
							<link>
								<linkclipref>The-one78</linkclipref>
								<mediatype>audio</mediatype>
								<trackindex>1</trackindex>
								<clipindex>26</clipindex>
								<groupindex>1</groupindex>
							</link>
							<link>
								<linkclipref>The-one79</linkclipref>
								<mediatype>audio</mediatype>
								<trackindex>2</trackindex>
								<clipindex>26</clipindex>
								<groupindex>1</groupindex>
							</link>
							<fielddominance>upper</fielddominance>
							<itemhistory>
								<uuid>30EF65AF-1704-4F21-9F54-0A7991A20DC8</uuid>
							</itemhistory>
						</clipitem>
						<clipitem id="The-one80">
							<name>The-one</name>
							<duration>5477</duration>
							<rate>
								<ntsc>FALSE</ntsc>
								<timebase>25</timebase>
							</rate>
							<in>3338</in>
							<out>3394</out>
							<start>1636</start>
							<end>1692</end>
							<pixelaspectratio>Square</pixelaspectratio>
							<enabled>TRUE</enabled>
							<anamorphic>FALSE</anamorphic>
							<alphatype>none</alphatype>
							<masterclipid>The-one1</masterclipid>
							<logginginfo>
								<scene/>
								<shottake/>
								<lognote/>
								<good>FALSE</good>
							</logginginfo>
							<labels>
								<label2/>
							</labels>
							<comments>
								<mastercomment1/>
								<mastercomment2/>
								<mastercomment3/>
								<mastercomment4/>
							</comments>
							<file id="The-one2"/>
							<sourcetrack>
								<mediatype>video</mediatype>
							</sourcetrack>
							<link>
								<linkclipref>The-one80</linkclipref>
								<mediatype>video</mediatype>
								<trackindex>1</trackindex>
								<clipindex>27</clipindex>
							</link>
							<link>
								<linkclipref>The-one81</linkclipref>
								<mediatype>audio</mediatype>
								<trackindex>1</trackindex>
								<clipindex>27</clipindex>
								<groupindex>1</groupindex>
							</link>
							<link>
								<linkclipref>The-one82</linkclipref>
								<mediatype>audio</mediatype>
								<trackindex>2</trackindex>
								<clipindex>27</clipindex>
								<groupindex>1</groupindex>
							</link>
							<fielddominance>upper</fielddominance>
							<itemhistory>
								<uuid>41956EDA-ED63-4664-8085-7CFB79D327A6</uuid>
							</itemhistory>
						</clipitem>
						<clipitem id="The-one83">
							<name>The-one</name>
							<duration>5477</duration>
							<rate>
								<ntsc>FALSE</ntsc>
								<timebase>25</timebase>
							</rate>
							<in>3452</in>
							<out>3507</out>
							<start>1692</start>
							<end>1747</end>
							<pixelaspectratio>Square</pixelaspectratio>
							<enabled>TRUE</enabled>
							<anamorphic>FALSE</anamorphic>
							<alphatype>none</alphatype>
							<masterclipid>The-one1</masterclipid>
							<logginginfo>
								<scene/>
								<shottake/>
								<lognote/>
								<good>FALSE</good>
							</logginginfo>
							<labels>
								<label2/>
							</labels>
							<comments>
								<mastercomment1/>
								<mastercomment2/>
								<mastercomment3/>
								<mastercomment4/>
							</comments>
							<file id="The-one2"/>
							<sourcetrack>
								<mediatype>video</mediatype>
							</sourcetrack>
							<link>
								<linkclipref>The-one83</linkclipref>
								<mediatype>video</mediatype>
								<trackindex>1</trackindex>
								<clipindex>28</clipindex>
							</link>
							<link>
								<linkclipref>The-one84</linkclipref>
								<mediatype>audio</mediatype>
								<trackindex>1</trackindex>
								<clipindex>28</clipindex>
								<groupindex>1</groupindex>
							</link>
							<link>
								<linkclipref>The-one85</linkclipref>
								<mediatype>audio</mediatype>
								<trackindex>2</trackindex>
								<clipindex>28</clipindex>
								<groupindex>1</groupindex>
							</link>
							<fielddominance>upper</fielddominance>
							<itemhistory>
								<uuid>D1920ACB-FEE8-426F-9A09-2E5929A043F9</uuid>
							</itemhistory>
						</clipitem>
						<clipitem id="The-one86">
							<name>The-one</name>
							<duration>5477</duration>
							<rate>
								<ntsc>FALSE</ntsc>
								<timebase>25</timebase>
							</rate>
							<in>799</in>
							<out>849</out>
							<start>1747</start>
							<end>1797</end>
							<pixelaspectratio>Square</pixelaspectratio>
							<enabled>TRUE</enabled>
							<anamorphic>FALSE</anamorphic>
							<alphatype>none</alphatype>
							<masterclipid>The-one1</masterclipid>
							<logginginfo>
								<scene/>
								<shottake/>
								<lognote/>
								<good>FALSE</good>
							</logginginfo>
							<labels>
								<label2/>
							</labels>
							<comments>
								<mastercomment1/>
								<mastercomment2/>
								<mastercomment3/>
								<mastercomment4/>
							</comments>
							<file id="The-one2"/>
							<sourcetrack>
								<mediatype>video</mediatype>
							</sourcetrack>
							<link>
								<linkclipref>The-one86</linkclipref>
								<mediatype>video</mediatype>
								<trackindex>1</trackindex>
								<clipindex>29</clipindex>
							</link>
							<link>
								<linkclipref>The-one87</linkclipref>
								<mediatype>audio</mediatype>
								<trackindex>1</trackindex>
								<clipindex>29</clipindex>
								<groupindex>1</groupindex>
							</link>
							<link>
								<linkclipref>The-one88</linkclipref>
								<mediatype>audio</mediatype>
								<trackindex>2</trackindex>
								<clipindex>29</clipindex>
								<groupindex>1</groupindex>
							</link>
							<fielddominance>upper</fielddominance>
							<itemhistory>
								<uuid>0E622E05-AFD4-4742-B714-C8A685690961</uuid>
							</itemhistory>
						</clipitem>
						<clipitem id="The-one89">
							<name>The-one</name>
							<duration>5477</duration>
							<rate>
								<ntsc>FALSE</ntsc>
								<timebase>25</timebase>
							</rate>
							<in>1019</in>
							<out>1073</out>
							<start>1797</start>
							<end>1851</end>
							<pixelaspectratio>Square</pixelaspectratio>
							<enabled>TRUE</enabled>
							<anamorphic>FALSE</anamorphic>
							<alphatype>none</alphatype>
							<masterclipid>The-one1</masterclipid>
							<logginginfo>
								<scene/>
								<shottake/>
								<lognote/>
								<good>FALSE</good>
							</logginginfo>
							<labels>
								<label2/>
							</labels>
							<comments>
								<mastercomment1/>
								<mastercomment2/>
								<mastercomment3/>
								<mastercomment4/>
							</comments>
							<file id="The-one2"/>
							<sourcetrack>
								<mediatype>video</mediatype>
							</sourcetrack>
							<link>
								<linkclipref>The-one89</linkclipref>
								<mediatype>video</mediatype>
								<trackindex>1</trackindex>
								<clipindex>30</clipindex>
							</link>
							<link>
								<linkclipref>The-one90</linkclipref>
								<mediatype>audio</mediatype>
								<trackindex>1</trackindex>
								<clipindex>30</clipindex>
								<groupindex>1</groupindex>
							</link>
							<link>
								<linkclipref>The-one91</linkclipref>
								<mediatype>audio</mediatype>
								<trackindex>2</trackindex>
								<clipindex>30</clipindex>
								<groupindex>1</groupindex>
							</link>
							<fielddominance>upper</fielddominance>
							<itemhistory>
								<uuid>6D501256-0956-4582-81FC-72A2859A3A91</uuid>
							</itemhistory>
						</clipitem>
						<clipitem id="The-one92">
							<name>The-one</name>
							<duration>5477</duration>
							<rate>
								<ntsc>FALSE</ntsc>
								<timebase>25</timebase>
							</rate>
							<in>2655</in>
							<out>2714</out>
							<start>1851</start>
							<end>1910</end>
							<pixelaspectratio>Square</pixelaspectratio>
							<enabled>TRUE</enabled>
							<anamorphic>FALSE</anamorphic>
							<alphatype>none</alphatype>
							<masterclipid>The-one1</masterclipid>
							<logginginfo>
								<scene/>
								<shottake/>
								<lognote/>
								<good>FALSE</good>
							</logginginfo>
							<labels>
								<label2/>
							</labels>
							<comments>
								<mastercomment1/>
								<mastercomment2/>
								<mastercomment3/>
								<mastercomment4/>
							</comments>
							<file id="The-one2"/>
							<sourcetrack>
								<mediatype>video</mediatype>
							</sourcetrack>
							<link>
								<linkclipref>The-one92</linkclipref>
								<mediatype>video</mediatype>
								<trackindex>1</trackindex>
								<clipindex>31</clipindex>
							</link>
							<link>
								<linkclipref>The-one93</linkclipref>
								<mediatype>audio</mediatype>
								<trackindex>1</trackindex>
								<clipindex>31</clipindex>
								<groupindex>1</groupindex>
							</link>
							<link>
								<linkclipref>The-one94</linkclipref>
								<mediatype>audio</mediatype>
								<trackindex>2</trackindex>
								<clipindex>31</clipindex>
								<groupindex>1</groupindex>
							</link>
							<fielddominance>upper</fielddominance>
							<itemhistory>
								<uuid>AE204F77-879A-4BE9-970A-E97FFF9F347C</uuid>
							</itemhistory>
						</clipitem>
						<clipitem id="The-one95">
							<name>The-one</name>
							<duration>5477</duration>
							<rate>
								<ntsc>FALSE</ntsc>
								<timebase>25</timebase>
							</rate>
							<in>2544</in>
							<out>2601</out>
							<start>1910</start>
							<end>1967</end>
							<pixelaspectratio>Square</pixelaspectratio>
							<enabled>TRUE</enabled>
							<anamorphic>FALSE</anamorphic>
							<alphatype>none</alphatype>
							<masterclipid>The-one1</masterclipid>
							<logginginfo>
								<scene/>
								<shottake/>
								<lognote/>
								<good>FALSE</good>
							</logginginfo>
							<labels>
								<label2/>
							</labels>
							<comments>
								<mastercomment1/>
								<mastercomment2/>
								<mastercomment3/>
								<mastercomment4/>
							</comments>
							<file id="The-one2"/>
							<sourcetrack>
								<mediatype>video</mediatype>
							</sourcetrack>
							<link>
								<linkclipref>The-one95</linkclipref>
								<mediatype>video</mediatype>
								<trackindex>1</trackindex>
								<clipindex>32</clipindex>
							</link>
							<link>
								<linkclipref>The-one96</linkclipref>
								<mediatype>audio</mediatype>
								<trackindex>1</trackindex>
								<clipindex>32</clipindex>
								<groupindex>1</groupindex>
							</link>
							<link>
								<linkclipref>The-one97</linkclipref>
								<mediatype>audio</mediatype>
								<trackindex>2</trackindex>
								<clipindex>32</clipindex>
								<groupindex>1</groupindex>
							</link>
							<fielddominance>upper</fielddominance>
							<itemhistory>
								<uuid>210ED98F-D3EC-4463-94CC-0D0C3E80005B</uuid>
							</itemhistory>
						</clipitem>
						<clipitem id="The-one98">
							<name>The-one</name>
							<duration>5477</duration>
							<rate>
								<ntsc>FALSE</ntsc>
								<timebase>25</timebase>
							</rate>
							<in>903</in>
							<out>961</out>
							<start>1967</start>
							<end>2025</end>
							<pixelaspectratio>Square</pixelaspectratio>
							<enabled>TRUE</enabled>
							<anamorphic>FALSE</anamorphic>
							<alphatype>none</alphatype>
							<masterclipid>The-one1</masterclipid>
							<logginginfo>
								<scene/>
								<shottake/>
								<lognote/>
								<good>FALSE</good>
							</logginginfo>
							<labels>
								<label2/>
							</labels>
							<comments>
								<mastercomment1/>
								<mastercomment2/>
								<mastercomment3/>
								<mastercomment4/>
							</comments>
							<file id="The-one2"/>
							<sourcetrack>
								<mediatype>video</mediatype>
							</sourcetrack>
							<link>
								<linkclipref>The-one98</linkclipref>
								<mediatype>video</mediatype>
								<trackindex>1</trackindex>
								<clipindex>33</clipindex>
							</link>
							<link>
								<linkclipref>The-one99</linkclipref>
								<mediatype>audio</mediatype>
								<trackindex>1</trackindex>
								<clipindex>33</clipindex>
								<groupindex>1</groupindex>
							</link>
							<link>
								<linkclipref>The-one100</linkclipref>
								<mediatype>audio</mediatype>
								<trackindex>2</trackindex>
								<clipindex>33</clipindex>
								<groupindex>1</groupindex>
							</link>
							<fielddominance>upper</fielddominance>
							<itemhistory>
								<uuid>F0EA2D77-E0DA-4DD5-9EC1-E6D4F270D710</uuid>
							</itemhistory>
						</clipitem>
						<clipitem id="The-one101">
							<name>The-one</name>
							<duration>5477</duration>
							<rate>
								<ntsc>FALSE</ntsc>
								<timebase>25</timebase>
							</rate>
							<in>3111</in>
							<out>3169</out>
							<start>2025</start>
							<end>2083</end>
							<pixelaspectratio>Square</pixelaspectratio>
							<enabled>TRUE</enabled>
							<anamorphic>FALSE</anamorphic>
							<alphatype>none</alphatype>
							<masterclipid>The-one1</masterclipid>
							<logginginfo>
								<scene/>
								<shottake/>
								<lognote/>
								<good>FALSE</good>
							</logginginfo>
							<labels>
								<label2/>
							</labels>
							<comments>
								<mastercomment1/>
								<mastercomment2/>
								<mastercomment3/>
								<mastercomment4/>
							</comments>
							<file id="The-one2"/>
							<sourcetrack>
								<mediatype>video</mediatype>
							</sourcetrack>
							<link>
								<linkclipref>The-one101</linkclipref>
								<mediatype>video</mediatype>
								<trackindex>1</trackindex>
								<clipindex>34</clipindex>
							</link>
							<link>
								<linkclipref>The-one102</linkclipref>
								<mediatype>audio</mediatype>
								<trackindex>1</trackindex>
								<clipindex>34</clipindex>
								<groupindex>1</groupindex>
							</link>
							<link>
								<linkclipref>The-one103</linkclipref>
								<mediatype>audio</mediatype>
								<trackindex>2</trackindex>
								<clipindex>34</clipindex>
								<groupindex>1</groupindex>
							</link>
							<fielddominance>upper</fielddominance>
							<itemhistory>
								<uuid>BDDA514C-9901-49FA-855B-0F36DB884D11</uuid>
							</itemhistory>
						</clipitem>
						<clipitem id="The-one104">
							<name>The-one</name>
							<duration>5477</duration>
							<rate>
								<ntsc>FALSE</ntsc>
								<timebase>25</timebase>
							</rate>
							<in>2995</in>
							<out>3055</out>
							<start>2083</start>
							<end>2143</end>
							<pixelaspectratio>Square</pixelaspectratio>
							<enabled>TRUE</enabled>
							<anamorphic>FALSE</anamorphic>
							<alphatype>none</alphatype>
							<masterclipid>The-one1</masterclipid>
							<logginginfo>
								<scene/>
								<shottake/>
								<lognote/>
								<good>FALSE</good>
							</logginginfo>
							<labels>
								<label2/>
							</labels>
							<comments>
								<mastercomment1/>
								<mastercomment2/>
								<mastercomment3/>
								<mastercomment4/>
							</comments>
							<file id="The-one2"/>
							<sourcetrack>
								<mediatype>video</mediatype>
							</sourcetrack>
							<link>
								<linkclipref>The-one104</linkclipref>
								<mediatype>video</mediatype>
								<trackindex>1</trackindex>
								<clipindex>35</clipindex>
							</link>
							<link>
								<linkclipref>The-one105</linkclipref>
								<mediatype>audio</mediatype>
								<trackindex>1</trackindex>
								<clipindex>35</clipindex>
								<groupindex>1</groupindex>
							</link>
							<link>
								<linkclipref>The-one106</linkclipref>
								<mediatype>audio</mediatype>
								<trackindex>2</trackindex>
								<clipindex>35</clipindex>
								<groupindex>1</groupindex>
							</link>
							<fielddominance>upper</fielddominance>
							<itemhistory>
								<uuid>81581D2F-59CE-4493-A2DA-196619485892</uuid>
							</itemhistory>
						</clipitem>
						<clipitem id="The-one107">
							<name>The-one</name>
							<duration>5477</duration>
							<rate>
								<ntsc>FALSE</ntsc>
								<timebase>25</timebase>
							</rate>
							<in>4599</in>
							<out>4712</out>
							<start>2143</start>
							<end>2256</end>
							<pixelaspectratio>Square</pixelaspectratio>
							<enabled>TRUE</enabled>
							<anamorphic>FALSE</anamorphic>
							<alphatype>none</alphatype>
							<masterclipid>The-one1</masterclipid>
							<logginginfo>
								<scene/>
								<shottake/>
								<lognote/>
								<good>FALSE</good>
							</logginginfo>
							<labels>
								<label2/>
							</labels>
							<comments>
								<mastercomment1/>
								<mastercomment2/>
								<mastercomment3/>
								<mastercomment4/>
							</comments>
							<file id="The-one2"/>
							<sourcetrack>
								<mediatype>video</mediatype>
							</sourcetrack>
							<link>
								<linkclipref>The-one107</linkclipref>
								<mediatype>video</mediatype>
								<trackindex>1</trackindex>
								<clipindex>36</clipindex>
							</link>
							<link>
								<linkclipref>The-one108</linkclipref>
								<mediatype>audio</mediatype>
								<trackindex>1</trackindex>
								<clipindex>36</clipindex>
								<groupindex>1</groupindex>
							</link>
							<link>
								<linkclipref>The-one109</linkclipref>
								<mediatype>audio</mediatype>
								<trackindex>2</trackindex>
								<clipindex>36</clipindex>
								<groupindex>1</groupindex>
							</link>
							<fielddominance>upper</fielddominance>
							<itemhistory>
								<uuid>4CBB4F9C-9376-4EB0-8AEB-AC50BD96B860</uuid>
							</itemhistory>
						</clipitem>
						<clipitem id="The-one110">
							<name>The-one</name>
							<duration>5477</duration>
							<rate>
								<ntsc>FALSE</ntsc>
								<timebase>25</timebase>
							</rate>
							<in>4017</in>
							<out>4074</out>
							<start>2256</start>
							<end>2313</end>
							<pixelaspectratio>Square</pixelaspectratio>
							<enabled>TRUE</enabled>
							<anamorphic>FALSE</anamorphic>
							<alphatype>none</alphatype>
							<masterclipid>The-one1</masterclipid>
							<logginginfo>
								<scene/>
								<shottake/>
								<lognote/>
								<good>FALSE</good>
							</logginginfo>
							<labels>
								<label2/>
							</labels>
							<comments>
								<mastercomment1/>
								<mastercomment2/>
								<mastercomment3/>
								<mastercomment4/>
							</comments>
							<file id="The-one2"/>
							<sourcetrack>
								<mediatype>video</mediatype>
							</sourcetrack>
							<link>
								<linkclipref>The-one110</linkclipref>
								<mediatype>video</mediatype>
								<trackindex>1</trackindex>
								<clipindex>37</clipindex>
							</link>
							<link>
								<linkclipref>The-one111</linkclipref>
								<mediatype>audio</mediatype>
								<trackindex>1</trackindex>
								<clipindex>37</clipindex>
								<groupindex>1</groupindex>
							</link>
							<link>
								<linkclipref>The-one112</linkclipref>
								<mediatype>audio</mediatype>
								<trackindex>2</trackindex>
								<clipindex>37</clipindex>
								<groupindex>1</groupindex>
							</link>
							<fielddominance>upper</fielddominance>
							<itemhistory>
								<uuid>8BDB3296-7367-42A2-835F-C9B33E8C0E9E</uuid>
							</itemhistory>
						</clipitem>
						<clipitem id="The-one113">
							<name>The-one</name>
							<duration>5477</duration>
							<rate>
								<ntsc>FALSE</ntsc>
								<timebase>25</timebase>
							</rate>
							<in>4125</in>
							<out>4189</out>
							<start>2313</start>
							<end>2377</end>
							<pixelaspectratio>Square</pixelaspectratio>
							<enabled>TRUE</enabled>
							<anamorphic>FALSE</anamorphic>
							<alphatype>none</alphatype>
							<masterclipid>The-one1</masterclipid>
							<logginginfo>
								<scene/>
								<shottake/>
								<lognote/>
								<good>FALSE</good>
							</logginginfo>
							<labels>
								<label2/>
							</labels>
							<comments>
								<mastercomment1/>
								<mastercomment2/>
								<mastercomment3/>
								<mastercomment4/>
							</comments>
							<file id="The-one2"/>
							<sourcetrack>
								<mediatype>video</mediatype>
							</sourcetrack>
							<link>
								<linkclipref>The-one113</linkclipref>
								<mediatype>video</mediatype>
								<trackindex>1</trackindex>
								<clipindex>38</clipindex>
							</link>
							<link>
								<linkclipref>The-one114</linkclipref>
								<mediatype>audio</mediatype>
								<trackindex>1</trackindex>
								<clipindex>38</clipindex>
								<groupindex>1</groupindex>
							</link>
							<link>
								<linkclipref>The-one115</linkclipref>
								<mediatype>audio</mediatype>
								<trackindex>2</trackindex>
								<clipindex>38</clipindex>
								<groupindex>1</groupindex>
							</link>
							<fielddominance>upper</fielddominance>
							<itemhistory>
								<uuid>1D3B9A50-09C8-498A-A3F9-B95A27169912</uuid>
							</itemhistory>
						</clipitem>
						<clipitem id="The-one116">
							<name>The-one</name>
							<duration>5477</duration>
							<rate>
								<ntsc>FALSE</ntsc>
								<timebase>25</timebase>
							</rate>
							<in>4909</in>
							<out>5031</out>
							<start>2377</start>
							<end>2499</end>
							<pixelaspectratio>Square</pixelaspectratio>
							<enabled>TRUE</enabled>
							<anamorphic>FALSE</anamorphic>
							<alphatype>none</alphatype>
							<masterclipid>The-one1</masterclipid>
							<logginginfo>
								<scene/>
								<shottake/>
								<lognote/>
								<good>FALSE</good>
							</logginginfo>
							<labels>
								<label2/>
							</labels>
							<comments>
								<mastercomment1/>
								<mastercomment2/>
								<mastercomment3/>
								<mastercomment4/>
							</comments>
							<file id="The-one2"/>
							<sourcetrack>
								<mediatype>video</mediatype>
							</sourcetrack>
							<link>
								<linkclipref>The-one116</linkclipref>
								<mediatype>video</mediatype>
								<trackindex>1</trackindex>
								<clipindex>39</clipindex>
							</link>
							<link>
								<linkclipref>The-one117</linkclipref>
								<mediatype>audio</mediatype>
								<trackindex>1</trackindex>
								<clipindex>39</clipindex>
								<groupindex>1</groupindex>
							</link>
							<link>
								<linkclipref>The-one118</linkclipref>
								<mediatype>audio</mediatype>
								<trackindex>2</trackindex>
								<clipindex>39</clipindex>
								<groupindex>1</groupindex>
							</link>
							<fielddominance>upper</fielddominance>
							<itemhistory>
								<uuid>F96255B4-2A43-4324-910B-76918ED4FB77</uuid>
							</itemhistory>
						</clipitem>
						<clipitem id="The-one119">
							<name>The-one</name>
							<duration>5477</duration>
							<rate>
								<ntsc>FALSE</ntsc>
								<timebase>25</timebase>
							</rate>
							<in>2092</in>
							<out>2163</out>
							<start>2499</start>
							<end>2570</end>
							<pixelaspectratio>Square</pixelaspectratio>
							<enabled>TRUE</enabled>
							<anamorphic>FALSE</anamorphic>
							<alphatype>none</alphatype>
							<masterclipid>The-one1</masterclipid>
							<logginginfo>
								<scene/>
								<shottake/>
								<lognote/>
								<good>FALSE</good>
							</logginginfo>
							<labels>
								<label2/>
							</labels>
							<comments>
								<mastercomment1/>
								<mastercomment2/>
								<mastercomment3/>
								<mastercomment4/>
							</comments>
							<file id="The-one2"/>
							<sourcetrack>
								<mediatype>video</mediatype>
							</sourcetrack>
							<link>
								<linkclipref>The-one119</linkclipref>
								<mediatype>video</mediatype>
								<trackindex>1</trackindex>
								<clipindex>40</clipindex>
							</link>
							<link>
								<linkclipref>The-one120</linkclipref>
								<mediatype>audio</mediatype>
								<trackindex>1</trackindex>
								<clipindex>40</clipindex>
								<groupindex>1</groupindex>
							</link>
							<link>
								<linkclipref>The-one121</linkclipref>
								<mediatype>audio</mediatype>
								<trackindex>2</trackindex>
								<clipindex>40</clipindex>
								<groupindex>1</groupindex>
							</link>
							<fielddominance>upper</fielddominance>
							<itemhistory>
								<uuid>099030F9-2F8A-42BE-B158-3F6394DFAB5F</uuid>
							</itemhistory>
						</clipitem>
						<clipitem id="The-one122">
							<name>The-one</name>
							<duration>5477</duration>
							<rate>
								<ntsc>FALSE</ntsc>
								<timebase>25</timebase>
							</rate>
							<in>1812</in>
							<out>1869</out>
							<start>2570</start>
							<end>2627</end>
							<pixelaspectratio>Square</pixelaspectratio>
							<enabled>TRUE</enabled>
							<anamorphic>FALSE</anamorphic>
							<alphatype>none</alphatype>
							<masterclipid>The-one1</masterclipid>
							<logginginfo>
								<scene/>
								<shottake/>
								<lognote/>
								<good>FALSE</good>
							</logginginfo>
							<labels>
								<label2/>
							</labels>
							<comments>
								<mastercomment1/>
								<mastercomment2/>
								<mastercomment3/>
								<mastercomment4/>
							</comments>
							<file id="The-one2"/>
							<sourcetrack>
								<mediatype>video</mediatype>
							</sourcetrack>
							<link>
								<linkclipref>The-one122</linkclipref>
								<mediatype>video</mediatype>
								<trackindex>1</trackindex>
								<clipindex>41</clipindex>
							</link>
							<link>
								<linkclipref>The-one123</linkclipref>
								<mediatype>audio</mediatype>
								<trackindex>1</trackindex>
								<clipindex>41</clipindex>
								<groupindex>1</groupindex>
							</link>
							<link>
								<linkclipref>The-one124</linkclipref>
								<mediatype>audio</mediatype>
								<trackindex>2</trackindex>
								<clipindex>41</clipindex>
								<groupindex>1</groupindex>
							</link>
							<fielddominance>upper</fielddominance>
							<itemhistory>
								<uuid>8AF8F7AC-F003-4B37-B2E1-940EF9490D15</uuid>
							</itemhistory>
						</clipitem>
						<clipitem id="The-one125">
							<name>The-one</name>
							<duration>5477</duration>
							<rate>
								<ntsc>FALSE</ntsc>
								<timebase>25</timebase>
							</rate>
							<in>2163</in>
							<out>2225</out>
							<start>2627</start>
							<end>2689</end>
							<pixelaspectratio>Square</pixelaspectratio>
							<enabled>TRUE</enabled>
							<anamorphic>FALSE</anamorphic>
							<alphatype>none</alphatype>
							<masterclipid>The-one1</masterclipid>
							<logginginfo>
								<scene/>
								<shottake/>
								<lognote/>
								<good>FALSE</good>
							</logginginfo>
							<labels>
								<label2/>
							</labels>
							<comments>
								<mastercomment1/>
								<mastercomment2/>
								<mastercomment3/>
								<mastercomment4/>
							</comments>
							<file id="The-one2"/>
							<sourcetrack>
								<mediatype>video</mediatype>
							</sourcetrack>
							<link>
								<linkclipref>The-one125</linkclipref>
								<mediatype>video</mediatype>
								<trackindex>1</trackindex>
								<clipindex>42</clipindex>
							</link>
							<link>
								<linkclipref>The-one126</linkclipref>
								<mediatype>audio</mediatype>
								<trackindex>1</trackindex>
								<clipindex>42</clipindex>
								<groupindex>1</groupindex>
							</link>
							<link>
								<linkclipref>The-one127</linkclipref>
								<mediatype>audio</mediatype>
								<trackindex>2</trackindex>
								<clipindex>42</clipindex>
								<groupindex>1</groupindex>
							</link>
							<fielddominance>upper</fielddominance>
							<itemhistory>
								<uuid>39AC5122-87BD-481D-B1D4-F28B841B3CFB</uuid>
							</itemhistory>
						</clipitem>
						<clipitem id="The-one128">
							<name>The-one</name>
							<duration>5477</duration>
							<rate>
								<ntsc>FALSE</ntsc>
								<timebase>25</timebase>
							</rate>
							<in>2771</in>
							<out>2827</out>
							<start>2689</start>
							<end>2745</end>
							<pixelaspectratio>Square</pixelaspectratio>
							<enabled>TRUE</enabled>
							<anamorphic>FALSE</anamorphic>
							<alphatype>none</alphatype>
							<masterclipid>The-one1</masterclipid>
							<logginginfo>
								<scene/>
								<shottake/>
								<lognote/>
								<good>FALSE</good>
							</logginginfo>
							<labels>
								<label2/>
							</labels>
							<comments>
								<mastercomment1/>
								<mastercomment2/>
								<mastercomment3/>
								<mastercomment4/>
							</comments>
							<file id="The-one2"/>
							<sourcetrack>
								<mediatype>video</mediatype>
							</sourcetrack>
							<link>
								<linkclipref>The-one128</linkclipref>
								<mediatype>video</mediatype>
								<trackindex>1</trackindex>
								<clipindex>43</clipindex>
							</link>
							<link>
								<linkclipref>The-one129</linkclipref>
								<mediatype>audio</mediatype>
								<trackindex>1</trackindex>
								<clipindex>43</clipindex>
								<groupindex>1</groupindex>
							</link>
							<link>
								<linkclipref>The-one130</linkclipref>
								<mediatype>audio</mediatype>
								<trackindex>2</trackindex>
								<clipindex>43</clipindex>
								<groupindex>1</groupindex>
							</link>
							<fielddominance>upper</fielddominance>
							<itemhistory>
								<uuid>FB4696CA-A977-4C43-823F-395E64877D9D</uuid>
							</itemhistory>
						</clipitem>
						<clipitem id="The-one131">
							<name>The-one</name>
							<duration>5477</duration>
							<rate>
								<ntsc>FALSE</ntsc>
								<timebase>25</timebase>
							</rate>
							<in>2995</in>
							<out>3055</out>
							<start>2745</start>
							<end>2805</end>
							<pixelaspectratio>Square</pixelaspectratio>
							<enabled>TRUE</enabled>
							<anamorphic>FALSE</anamorphic>
							<alphatype>none</alphatype>
							<masterclipid>The-one1</masterclipid>
							<logginginfo>
								<scene/>
								<shottake/>
								<lognote/>
								<good>FALSE</good>
							</logginginfo>
							<labels>
								<label2/>
							</labels>
							<comments>
								<mastercomment1/>
								<mastercomment2/>
								<mastercomment3/>
								<mastercomment4/>
							</comments>
							<file id="The-one2"/>
							<sourcetrack>
								<mediatype>video</mediatype>
							</sourcetrack>
							<link>
								<linkclipref>The-one131</linkclipref>
								<mediatype>video</mediatype>
								<trackindex>1</trackindex>
								<clipindex>44</clipindex>
							</link>
							<link>
								<linkclipref>The-one132</linkclipref>
								<mediatype>audio</mediatype>
								<trackindex>1</trackindex>
								<clipindex>44</clipindex>
								<groupindex>1</groupindex>
							</link>
							<link>
								<linkclipref>The-one133</linkclipref>
								<mediatype>audio</mediatype>
								<trackindex>2</trackindex>
								<clipindex>44</clipindex>
								<groupindex>1</groupindex>
							</link>
							<fielddominance>upper</fielddominance>
							<itemhistory>
								<uuid>57690F97-647F-4691-8947-26230B146855</uuid>
							</itemhistory>
						</clipitem>
						<clipitem id="The-one134">
							<name>The-one</name>
							<duration>5477</duration>
							<rate>
								<ntsc>FALSE</ntsc>
								<timebase>25</timebase>
							</rate>
							<in>5090</in>
							<out>5206</out>
							<start>2805</start>
							<end>2921</end>
							<pixelaspectratio>Square</pixelaspectratio>
							<anamorphic>FALSE</anamorphic>
							<alphatype>none</alphatype>
							<masterclipid>The-one1</masterclipid>
							<logginginfo>
								<scene/>
								<shottake/>
								<lognote/>
								<good>FALSE</good>
							</logginginfo>
							<labels>
								<label2/>
							</labels>
							<comments>
								<mastercomment1/>
								<mastercomment2/>
								<mastercomment3/>
								<mastercomment4/>
							</comments>
							<file id="The-one2"/>
							<sourcetrack>
								<mediatype>video</mediatype>
							</sourcetrack>
							<link>
								<linkclipref>The-one134</linkclipref>
								<mediatype>video</mediatype>
								<trackindex>1</trackindex>
								<clipindex>45</clipindex>
							</link>
							<link>
								<linkclipref>The-one135</linkclipref>
								<mediatype>audio</mediatype>
								<trackindex>1</trackindex>
								<clipindex>45</clipindex>
								<groupindex>1</groupindex>
							</link>
							<link>
								<linkclipref>The-one136</linkclipref>
								<mediatype>audio</mediatype>
								<trackindex>2</trackindex>
								<clipindex>45</clipindex>
								<groupindex>1</groupindex>
							</link>
							<fielddominance>upper</fielddominance>
							<itemhistory>
								<uuid>C00DDD12-E8C0-42EA-9162-B5C253A43D41</uuid>
							</itemhistory>
						</clipitem>
						<enabled>TRUE</enabled>
						<locked>FALSE</locked>
					</track>
					<track>
						<enabled>TRUE</enabled>
						<locked>FALSE</locked>
					</track>
				</video>
				<audio>
					<format>
						<samplecharacteristics>
							<depth>16</depth>
							<samplerate>48000</samplerate>
						</samplecharacteristics>
					</format>
					<outputs>
						<group>
							<index>1</index>
							<numchannels>2</numchannels>
							<downmix>0</downmix>
							<channel>
								<index>1</index>
							</channel>
							<channel>
								<index>2</index>
							</channel>
						</group>
					</outputs>
					<in>-1</in>
					<out>-1</out>
					<track>
						<clipitem id="The-one3">
							<name>The-one</name>
							<duration>5477</duration>
							<rate>
								<ntsc>FALSE</ntsc>
								<timebase>25</timebase>
							</rate>
							<in>223</in>
							<out>277</out>
							<start>0</start>
							<end>54</end>
							<subframeoffset>0</subframeoffset>
							<masterclipid>The-one1</masterclipid>
							<logginginfo>
								<scene/>
								<shottake/>
								<lognote/>
								<good>FALSE</good>
							</logginginfo>
							<labels>
								<label2/>
							</labels>
							<comments>
								<mastercomment1/>
								<mastercomment2/>
								<mastercomment3/>
								<mastercomment4/>
							</comments>
							<file id="The-one2"/>
							<filter>
								<effect>
									<name>Audio Levels</name>
									<effectid>audiolevels</effectid>
									<effectcategory>audiolevels</effectcategory>
									<effecttype>audiolevels</effecttype>
									<mediatype>audio</mediatype>
									<parameter>
										<name>Level</name>
										<parameterid>level</parameterid>
										<valuemin>0</valuemin>
										<valuemax>3.98109</valuemax>
										<value>1</value>
									</parameter>
								</effect>
							</filter>
							<filter>
								<effect>
									<name>Audio Pan</name>
									<effectid>audiopan</effectid>
									<effectcategory>audiopan</effectcategory>
									<effecttype>audiopan</effecttype>
									<mediatype>audio</mediatype>
									<parameter>
										<name>Pan</name>
										<parameterid>pan</parameterid>
										<valuemin>-1</valuemin>
										<valuemax>1</valuemax>
										<value>-1</value>
									</parameter>
								</effect>
							</filter>
							<sourcetrack>
								<mediatype>audio</mediatype>
								<trackindex>1</trackindex>
							</sourcetrack>
							<link>
								<linkclipref>The-one</linkclipref>
								<mediatype>video</mediatype>
								<trackindex>1</trackindex>
								<clipindex>1</clipindex>
							</link>
							<link>
								<linkclipref>The-one3</linkclipref>
								<mediatype>audio</mediatype>
								<trackindex>1</trackindex>
								<clipindex>1</clipindex>
								<groupindex>1</groupindex>
							</link>
							<link>
								<linkclipref>The-one4</linkclipref>
								<mediatype>audio</mediatype>
								<trackindex>2</trackindex>
								<clipindex>1</clipindex>
								<groupindex>1</groupindex>
							</link>
							<itemhistory>
								<uuid>BABE5D72-4513-4EAB-BAE3-E0A0C8552D15</uuid>
							</itemhistory>
						</clipitem>
						<clipitem id="The-one6">
							<name>The-one</name>
							<duration>5477</duration>
							<rate>
								<ntsc>FALSE</ntsc>
								<timebase>25</timebase>
							</rate>
							<in>335</in>
							<out>399</out>
							<start>54</start>
							<end>118</end>
							<subframeoffset>0</subframeoffset>
							<masterclipid>The-one1</masterclipid>
							<logginginfo>
								<scene/>
								<shottake/>
								<lognote/>
								<good>FALSE</good>
							</logginginfo>
							<labels>
								<label2/>
							</labels>
							<comments>
								<mastercomment1/>
								<mastercomment2/>
								<mastercomment3/>
								<mastercomment4/>
							</comments>
							<file id="The-one2"/>
							<filter>
								<effect>
									<name>Audio Levels</name>
									<effectid>audiolevels</effectid>
									<effectcategory>audiolevels</effectcategory>
									<effecttype>audiolevels</effecttype>
									<mediatype>audio</mediatype>
									<parameter>
										<name>Level</name>
										<parameterid>level</parameterid>
										<valuemin>0</valuemin>
										<valuemax>3.98109</valuemax>
										<value>1</value>
									</parameter>
								</effect>
							</filter>
							<filter>
								<effect>
									<name>Audio Pan</name>
									<effectid>audiopan</effectid>
									<effectcategory>audiopan</effectcategory>
									<effecttype>audiopan</effecttype>
									<mediatype>audio</mediatype>
									<parameter>
										<name>Pan</name>
										<parameterid>pan</parameterid>
										<valuemin>-1</valuemin>
										<valuemax>1</valuemax>
										<value>-1</value>
									</parameter>
								</effect>
							</filter>
							<sourcetrack>
								<mediatype>audio</mediatype>
								<trackindex>1</trackindex>
							</sourcetrack>
							<link>
								<linkclipref>The-one5</linkclipref>
								<mediatype>video</mediatype>
								<trackindex>1</trackindex>
								<clipindex>2</clipindex>
							</link>
							<link>
								<linkclipref>The-one6</linkclipref>
								<mediatype>audio</mediatype>
								<trackindex>1</trackindex>
								<clipindex>2</clipindex>
								<groupindex>1</groupindex>
							</link>
							<link>
								<linkclipref>The-one7</linkclipref>
								<mediatype>audio</mediatype>
								<trackindex>2</trackindex>
								<clipindex>2</clipindex>
								<groupindex>1</groupindex>
							</link>
							<itemhistory>
								<uuid>5D0B391D-F6D2-4CC3-994E-37D02B63D20E</uuid>
							</itemhistory>
						</clipitem>
						<clipitem id="The-one9">
							<name>The-one</name>
							<duration>5477</duration>
							<rate>
								<ntsc>FALSE</ntsc>
								<timebase>25</timebase>
							</rate>
							<in>450</in>
							<out>509</out>
							<start>118</start>
							<end>177</end>
							<subframeoffset>0</subframeoffset>
							<masterclipid>The-one1</masterclipid>
							<logginginfo>
								<scene/>
								<shottake/>
								<lognote/>
								<good>FALSE</good>
							</logginginfo>
							<labels>
								<label2/>
							</labels>
							<comments>
								<mastercomment1/>
								<mastercomment2/>
								<mastercomment3/>
								<mastercomment4/>
							</comments>
							<file id="The-one2"/>
							<filter>
								<effect>
									<name>Audio Levels</name>
									<effectid>audiolevels</effectid>
									<effectcategory>audiolevels</effectcategory>
									<effecttype>audiolevels</effecttype>
									<mediatype>audio</mediatype>
									<parameter>
										<name>Level</name>
										<parameterid>level</parameterid>
										<valuemin>0</valuemin>
										<valuemax>3.98109</valuemax>
										<value>1</value>
									</parameter>
								</effect>
							</filter>
							<filter>
								<effect>
									<name>Audio Pan</name>
									<effectid>audiopan</effectid>
									<effectcategory>audiopan</effectcategory>
									<effecttype>audiopan</effecttype>
									<mediatype>audio</mediatype>
									<parameter>
										<name>Pan</name>
										<parameterid>pan</parameterid>
										<valuemin>-1</valuemin>
										<valuemax>1</valuemax>
										<value>-1</value>
									</parameter>
								</effect>
							</filter>
							<sourcetrack>
								<mediatype>audio</mediatype>
								<trackindex>1</trackindex>
							</sourcetrack>
							<link>
								<linkclipref>The-one8</linkclipref>
								<mediatype>video</mediatype>
								<trackindex>1</trackindex>
								<clipindex>3</clipindex>
							</link>
							<link>
								<linkclipref>The-one9</linkclipref>
								<mediatype>audio</mediatype>
								<trackindex>1</trackindex>
								<clipindex>3</clipindex>
								<groupindex>1</groupindex>
							</link>
							<link>
								<linkclipref>The-one10</linkclipref>
								<mediatype>audio</mediatype>
								<trackindex>2</trackindex>
								<clipindex>3</clipindex>
								<groupindex>1</groupindex>
							</link>
							<itemhistory>
								<uuid>CD29A320-4957-4683-BAC0-AA90E0D742AF</uuid>
							</itemhistory>
						</clipitem>
						<clipitem id="The-one12">
							<name>The-one</name>
							<duration>5477</duration>
							<rate>
								<ntsc>FALSE</ntsc>
								<timebase>25</timebase>
							</rate>
							<in>563</in>
							<out>614</out>
							<start>177</start>
							<end>228</end>
							<subframeoffset>0</subframeoffset>
							<masterclipid>The-one1</masterclipid>
							<logginginfo>
								<scene/>
								<shottake/>
								<lognote/>
								<good>FALSE</good>
							</logginginfo>
							<labels>
								<label2/>
							</labels>
							<comments>
								<mastercomment1/>
								<mastercomment2/>
								<mastercomment3/>
								<mastercomment4/>
							</comments>
							<file id="The-one2"/>
							<filter>
								<effect>
									<name>Audio Levels</name>
									<effectid>audiolevels</effectid>
									<effectcategory>audiolevels</effectcategory>
									<effecttype>audiolevels</effecttype>
									<mediatype>audio</mediatype>
									<parameter>
										<name>Level</name>
										<parameterid>level</parameterid>
										<valuemin>0</valuemin>
										<valuemax>3.98109</valuemax>
										<value>1</value>
									</parameter>
								</effect>
							</filter>
							<filter>
								<effect>
									<name>Audio Pan</name>
									<effectid>audiopan</effectid>
									<effectcategory>audiopan</effectcategory>
									<effecttype>audiopan</effecttype>
									<mediatype>audio</mediatype>
									<parameter>
										<name>Pan</name>
										<parameterid>pan</parameterid>
										<valuemin>-1</valuemin>
										<valuemax>1</valuemax>
										<value>-1</value>
									</parameter>
								</effect>
							</filter>
							<sourcetrack>
								<mediatype>audio</mediatype>
								<trackindex>1</trackindex>
							</sourcetrack>
							<link>
								<linkclipref>The-one11</linkclipref>
								<mediatype>video</mediatype>
								<trackindex>1</trackindex>
								<clipindex>4</clipindex>
							</link>
							<link>
								<linkclipref>The-one12</linkclipref>
								<mediatype>audio</mediatype>
								<trackindex>1</trackindex>
								<clipindex>4</clipindex>
								<groupindex>1</groupindex>
							</link>
							<link>
								<linkclipref>The-one13</linkclipref>
								<mediatype>audio</mediatype>
								<trackindex>2</trackindex>
								<clipindex>4</clipindex>
								<groupindex>1</groupindex>
							</link>
							<itemhistory>
								<uuid>2DC922A5-7DAA-4F26-BE74-3E66D7967297</uuid>
							</itemhistory>
						</clipitem>
						<clipitem id="The-one15">
							<name>The-one</name>
							<duration>5477</duration>
							<rate>
								<ntsc>FALSE</ntsc>
								<timebase>25</timebase>
							</rate>
							<in>715</in>
							<out>749</out>
							<start>228</start>
							<end>262</end>
							<subframeoffset>0</subframeoffset>
							<masterclipid>The-one1</masterclipid>
							<logginginfo>
								<scene/>
								<shottake/>
								<lognote/>
								<good>FALSE</good>
							</logginginfo>
							<labels>
								<label2/>
							</labels>
							<comments>
								<mastercomment1/>
								<mastercomment2/>
								<mastercomment3/>
								<mastercomment4/>
							</comments>
							<file id="The-one2"/>
							<filter>
								<effect>
									<name>Audio Levels</name>
									<effectid>audiolevels</effectid>
									<effectcategory>audiolevels</effectcategory>
									<effecttype>audiolevels</effecttype>
									<mediatype>audio</mediatype>
									<parameter>
										<name>Level</name>
										<parameterid>level</parameterid>
										<valuemin>0</valuemin>
										<valuemax>3.98109</valuemax>
										<value>1</value>
									</parameter>
								</effect>
							</filter>
							<filter>
								<effect>
									<name>Audio Pan</name>
									<effectid>audiopan</effectid>
									<effectcategory>audiopan</effectcategory>
									<effecttype>audiopan</effecttype>
									<mediatype>audio</mediatype>
									<parameter>
										<name>Pan</name>
										<parameterid>pan</parameterid>
										<valuemin>-1</valuemin>
										<valuemax>1</valuemax>
										<value>-1</value>
									</parameter>
								</effect>
							</filter>
							<sourcetrack>
								<mediatype>audio</mediatype>
								<trackindex>1</trackindex>
							</sourcetrack>
							<link>
								<linkclipref>The-one14</linkclipref>
								<mediatype>video</mediatype>
								<trackindex>1</trackindex>
								<clipindex>5</clipindex>
							</link>
							<link>
								<linkclipref>The-one15</linkclipref>
								<mediatype>audio</mediatype>
								<trackindex>1</trackindex>
								<clipindex>5</clipindex>
								<groupindex>1</groupindex>
							</link>
							<link>
								<linkclipref>The-one16</linkclipref>
								<mediatype>audio</mediatype>
								<trackindex>2</trackindex>
								<clipindex>5</clipindex>
								<groupindex>1</groupindex>
							</link>
							<itemhistory>
								<uuid>6B5B15B2-A7CE-418C-915E-7202C916047C</uuid>
							</itemhistory>
						</clipitem>
						<clipitem id="The-one18">
							<name>The-one</name>
							<duration>5477</duration>
							<rate>
								<ntsc>FALSE</ntsc>
								<timebase>25</timebase>
							</rate>
							<in>1131</in>
							<out>1197</out>
							<start>262</start>
							<end>328</end>
							<subframeoffset>0</subframeoffset>
							<masterclipid>The-one1</masterclipid>
							<logginginfo>
								<scene/>
								<shottake/>
								<lognote/>
								<good>FALSE</good>
							</logginginfo>
							<labels>
								<label2/>
							</labels>
							<comments>
								<mastercomment1/>
								<mastercomment2/>
								<mastercomment3/>
								<mastercomment4/>
							</comments>
							<file id="The-one2"/>
							<filter>
								<effect>
									<name>Audio Levels</name>
									<effectid>audiolevels</effectid>
									<effectcategory>audiolevels</effectcategory>
									<effecttype>audiolevels</effecttype>
									<mediatype>audio</mediatype>
									<parameter>
										<name>Level</name>
										<parameterid>level</parameterid>
										<valuemin>0</valuemin>
										<valuemax>3.98109</valuemax>
										<value>1</value>
									</parameter>
								</effect>
							</filter>
							<filter>
								<effect>
									<name>Audio Pan</name>
									<effectid>audiopan</effectid>
									<effectcategory>audiopan</effectcategory>
									<effecttype>audiopan</effecttype>
									<mediatype>audio</mediatype>
									<parameter>
										<name>Pan</name>
										<parameterid>pan</parameterid>
										<valuemin>-1</valuemin>
										<valuemax>1</valuemax>
										<value>-1</value>
									</parameter>
								</effect>
							</filter>
							<sourcetrack>
								<mediatype>audio</mediatype>
								<trackindex>1</trackindex>
							</sourcetrack>
							<link>
								<linkclipref>The-one17</linkclipref>
								<mediatype>video</mediatype>
								<trackindex>1</trackindex>
								<clipindex>6</clipindex>
							</link>
							<link>
								<linkclipref>The-one18</linkclipref>
								<mediatype>audio</mediatype>
								<trackindex>1</trackindex>
								<clipindex>6</clipindex>
								<groupindex>1</groupindex>
							</link>
							<link>
								<linkclipref>The-one19</linkclipref>
								<mediatype>audio</mediatype>
								<trackindex>2</trackindex>
								<clipindex>6</clipindex>
								<groupindex>1</groupindex>
							</link>
							<itemhistory>
								<uuid>AC7BBD2E-D379-4CEB-811F-266F263B3317</uuid>
							</itemhistory>
						</clipitem>
						<clipitem id="The-one21">
							<name>The-one</name>
							<duration>5477</duration>
							<rate>
								<ntsc>FALSE</ntsc>
								<timebase>25</timebase>
							</rate>
							<in>1359</in>
							<out>1414</out>
							<start>328</start>
							<end>383</end>
							<subframeoffset>0</subframeoffset>
							<masterclipid>The-one1</masterclipid>
							<logginginfo>
								<scene/>
								<shottake/>
								<lognote/>
								<good>FALSE</good>
							</logginginfo>
							<labels>
								<label2/>
							</labels>
							<comments>
								<mastercomment1/>
								<mastercomment2/>
								<mastercomment3/>
								<mastercomment4/>
							</comments>
							<file id="The-one2"/>
							<filter>
								<effect>
									<name>Audio Levels</name>
									<effectid>audiolevels</effectid>
									<effectcategory>audiolevels</effectcategory>
									<effecttype>audiolevels</effecttype>
									<mediatype>audio</mediatype>
									<parameter>
										<name>Level</name>
										<parameterid>level</parameterid>
										<valuemin>0</valuemin>
										<valuemax>3.98109</valuemax>
										<value>1</value>
									</parameter>
								</effect>
							</filter>
							<filter>
								<effect>
									<name>Audio Pan</name>
									<effectid>audiopan</effectid>
									<effectcategory>audiopan</effectcategory>
									<effecttype>audiopan</effecttype>
									<mediatype>audio</mediatype>
									<parameter>
										<name>Pan</name>
										<parameterid>pan</parameterid>
										<valuemin>-1</valuemin>
										<valuemax>1</valuemax>
										<value>-1</value>
									</parameter>
								</effect>
							</filter>
							<sourcetrack>
								<mediatype>audio</mediatype>
								<trackindex>1</trackindex>
							</sourcetrack>
							<link>
								<linkclipref>The-one20</linkclipref>
								<mediatype>video</mediatype>
								<trackindex>1</trackindex>
								<clipindex>7</clipindex>
							</link>
							<link>
								<linkclipref>The-one21</linkclipref>
								<mediatype>audio</mediatype>
								<trackindex>1</trackindex>
								<clipindex>7</clipindex>
								<groupindex>1</groupindex>
							</link>
							<link>
								<linkclipref>The-one22</linkclipref>
								<mediatype>audio</mediatype>
								<trackindex>2</trackindex>
								<clipindex>7</clipindex>
								<groupindex>1</groupindex>
							</link>
							<itemhistory>
								<uuid>0CE53D0A-11D3-4DBC-970A-C858F02E5A69</uuid>
							</itemhistory>
						</clipitem>
						<clipitem id="The-one24">
							<name>The-one</name>
							<duration>5477</duration>
							<rate>
								<ntsc>FALSE</ntsc>
								<timebase>25</timebase>
							</rate>
							<in>2435</in>
							<out>2492</out>
							<start>383</start>
							<end>440</end>
							<subframeoffset>0</subframeoffset>
							<masterclipid>The-one1</masterclipid>
							<logginginfo>
								<scene/>
								<shottake/>
								<lognote/>
								<good>FALSE</good>
							</logginginfo>
							<labels>
								<label2/>
							</labels>
							<comments>
								<mastercomment1/>
								<mastercomment2/>
								<mastercomment3/>
								<mastercomment4/>
							</comments>
							<file id="The-one2"/>
							<filter>
								<effect>
									<name>Audio Levels</name>
									<effectid>audiolevels</effectid>
									<effectcategory>audiolevels</effectcategory>
									<effecttype>audiolevels</effecttype>
									<mediatype>audio</mediatype>
									<parameter>
										<name>Level</name>
										<parameterid>level</parameterid>
										<valuemin>0</valuemin>
										<valuemax>3.98109</valuemax>
										<value>1</value>
									</parameter>
								</effect>
							</filter>
							<filter>
								<effect>
									<name>Audio Pan</name>
									<effectid>audiopan</effectid>
									<effectcategory>audiopan</effectcategory>
									<effecttype>audiopan</effecttype>
									<mediatype>audio</mediatype>
									<parameter>
										<name>Pan</name>
										<parameterid>pan</parameterid>
										<valuemin>-1</valuemin>
										<valuemax>1</valuemax>
										<value>-1</value>
									</parameter>
								</effect>
							</filter>
							<sourcetrack>
								<mediatype>audio</mediatype>
								<trackindex>1</trackindex>
							</sourcetrack>
							<link>
								<linkclipref>The-one23</linkclipref>
								<mediatype>video</mediatype>
								<trackindex>1</trackindex>
								<clipindex>8</clipindex>
							</link>
							<link>
								<linkclipref>The-one24</linkclipref>
								<mediatype>audio</mediatype>
								<trackindex>1</trackindex>
								<clipindex>8</clipindex>
								<groupindex>1</groupindex>
							</link>
							<link>
								<linkclipref>The-one25</linkclipref>
								<mediatype>audio</mediatype>
								<trackindex>2</trackindex>
								<clipindex>8</clipindex>
								<groupindex>1</groupindex>
							</link>
							<itemhistory>
								<uuid>46835D7E-9082-4AEB-8708-4ED4502D6F1F</uuid>
							</itemhistory>
						</clipitem>
						<clipitem id="The-one27">
							<name>The-one</name>
							<duration>5477</duration>
							<rate>
								<ntsc>FALSE</ntsc>
								<timebase>25</timebase>
							</rate>
							<in>1469</in>
							<out>1530</out>
							<start>440</start>
							<end>501</end>
							<subframeoffset>0</subframeoffset>
							<masterclipid>The-one1</masterclipid>
							<logginginfo>
								<scene/>
								<shottake/>
								<lognote/>
								<good>FALSE</good>
							</logginginfo>
							<labels>
								<label2/>
							</labels>
							<comments>
								<mastercomment1/>
								<mastercomment2/>
								<mastercomment3/>
								<mastercomment4/>
							</comments>
							<file id="The-one2"/>
							<filter>
								<effect>
									<name>Audio Levels</name>
									<effectid>audiolevels</effectid>
									<effectcategory>audiolevels</effectcategory>
									<effecttype>audiolevels</effecttype>
									<mediatype>audio</mediatype>
									<parameter>
										<name>Level</name>
										<parameterid>level</parameterid>
										<valuemin>0</valuemin>
										<valuemax>3.98109</valuemax>
										<value>1</value>
									</parameter>
								</effect>
							</filter>
							<filter>
								<effect>
									<name>Audio Pan</name>
									<effectid>audiopan</effectid>
									<effectcategory>audiopan</effectcategory>
									<effecttype>audiopan</effecttype>
									<mediatype>audio</mediatype>
									<parameter>
										<name>Pan</name>
										<parameterid>pan</parameterid>
										<valuemin>-1</valuemin>
										<valuemax>1</valuemax>
										<value>-1</value>
									</parameter>
								</effect>
							</filter>
							<sourcetrack>
								<mediatype>audio</mediatype>
								<trackindex>1</trackindex>
							</sourcetrack>
							<link>
								<linkclipref>The-one26</linkclipref>
								<mediatype>video</mediatype>
								<trackindex>1</trackindex>
								<clipindex>9</clipindex>
							</link>
							<link>
								<linkclipref>The-one27</linkclipref>
								<mediatype>audio</mediatype>
								<trackindex>1</trackindex>
								<clipindex>9</clipindex>
								<groupindex>1</groupindex>
							</link>
							<link>
								<linkclipref>The-one28</linkclipref>
								<mediatype>audio</mediatype>
								<trackindex>2</trackindex>
								<clipindex>9</clipindex>
								<groupindex>1</groupindex>
							</link>
							<itemhistory>
								<uuid>D3218CAB-9FC4-47E0-954E-B6C23EBF72D5</uuid>
							</itemhistory>
						</clipitem>
						<clipitem id="The-one30">
							<name>The-one</name>
							<duration>5477</duration>
							<rate>
								<ntsc>FALSE</ntsc>
								<timebase>25</timebase>
							</rate>
							<in>2886</in>
							<out>2945</out>
							<start>501</start>
							<end>560</end>
							<subframeoffset>0</subframeoffset>
							<enabled>TRUE</enabled>
							<masterclipid>The-one1</masterclipid>
							<logginginfo>
								<scene/>
								<shottake/>
								<lognote/>
								<good>FALSE</good>
							</logginginfo>
							<labels>
								<label2/>
							</labels>
							<comments>
								<mastercomment1/>
								<mastercomment2/>
								<mastercomment3/>
								<mastercomment4/>
							</comments>
							<file id="The-one2"/>
							<filter>
								<effect>
									<name>Audio Levels</name>
									<effectid>audiolevels</effectid>
									<effectcategory>audiolevels</effectcategory>
									<effecttype>audiolevels</effecttype>
									<mediatype>audio</mediatype>
									<parameter>
										<name>Level</name>
										<parameterid>level</parameterid>
										<valuemin>0</valuemin>
										<valuemax>3.98109</valuemax>
										<value>1</value>
									</parameter>
								</effect>
							</filter>
							<filter>
								<effect>
									<name>Audio Pan</name>
									<effectid>audiopan</effectid>
									<effectcategory>audiopan</effectcategory>
									<effecttype>audiopan</effecttype>
									<mediatype>audio</mediatype>
									<parameter>
										<name>Pan</name>
										<parameterid>pan</parameterid>
										<valuemin>-1</valuemin>
										<valuemax>1</valuemax>
										<value>-1</value>
									</parameter>
								</effect>
							</filter>
							<sourcetrack>
								<mediatype>audio</mediatype>
								<trackindex>1</trackindex>
							</sourcetrack>
							<link>
								<linkclipref>The-one29</linkclipref>
								<mediatype>video</mediatype>
								<trackindex>1</trackindex>
								<clipindex>10</clipindex>
							</link>
							<link>
								<linkclipref>The-one30</linkclipref>
								<mediatype>audio</mediatype>
								<trackindex>1</trackindex>
								<clipindex>10</clipindex>
								<groupindex>1</groupindex>
							</link>
							<link>
								<linkclipref>The-one31</linkclipref>
								<mediatype>audio</mediatype>
								<trackindex>2</trackindex>
								<clipindex>10</clipindex>
								<groupindex>1</groupindex>
							</link>
							<itemhistory>
								<uuid>538442F8-1943-4D4D-A09D-351F9D80075F</uuid>
							</itemhistory>
						</clipitem>
						<clipitem id="The-one33">
							<name>The-one</name>
							<duration>5477</duration>
							<rate>
								<ntsc>FALSE</ntsc>
								<timebase>25</timebase>
							</rate>
							<in>1697</in>
							<out>1743</out>
							<start>560</start>
							<end>606</end>
							<subframeoffset>0</subframeoffset>
							<masterclipid>The-one1</masterclipid>
							<logginginfo>
								<scene/>
								<shottake/>
								<lognote/>
								<good>FALSE</good>
							</logginginfo>
							<labels>
								<label2/>
							</labels>
							<comments>
								<mastercomment1/>
								<mastercomment2/>
								<mastercomment3/>
								<mastercomment4/>
							</comments>
							<file id="The-one2"/>
							<filter>
								<effect>
									<name>Audio Levels</name>
									<effectid>audiolevels</effectid>
									<effectcategory>audiolevels</effectcategory>
									<effecttype>audiolevels</effecttype>
									<mediatype>audio</mediatype>
									<parameter>
										<name>Level</name>
										<parameterid>level</parameterid>
										<valuemin>0</valuemin>
										<valuemax>3.98109</valuemax>
										<value>1</value>
									</parameter>
								</effect>
							</filter>
							<filter>
								<effect>
									<name>Audio Pan</name>
									<effectid>audiopan</effectid>
									<effectcategory>audiopan</effectcategory>
									<effecttype>audiopan</effecttype>
									<mediatype>audio</mediatype>
									<parameter>
										<name>Pan</name>
										<parameterid>pan</parameterid>
										<valuemin>-1</valuemin>
										<valuemax>1</valuemax>
										<value>-1</value>
									</parameter>
								</effect>
							</filter>
							<sourcetrack>
								<mediatype>audio</mediatype>
								<trackindex>1</trackindex>
							</sourcetrack>
							<link>
								<linkclipref>The-one32</linkclipref>
								<mediatype>video</mediatype>
								<trackindex>1</trackindex>
								<clipindex>11</clipindex>
							</link>
							<link>
								<linkclipref>The-one33</linkclipref>
								<mediatype>audio</mediatype>
								<trackindex>1</trackindex>
								<clipindex>11</clipindex>
								<groupindex>1</groupindex>
							</link>
							<link>
								<linkclipref>The-one34</linkclipref>
								<mediatype>audio</mediatype>
								<trackindex>2</trackindex>
								<clipindex>11</clipindex>
								<groupindex>1</groupindex>
							</link>
							<itemhistory>
								<uuid>EA5560B2-28D8-4FD4-AD85-5BB9A23759BF</uuid>
							</itemhistory>
						</clipitem>
						<clipitem id="The-one36">
							<name>The-one</name>
							<duration>5477</duration>
							<rate>
								<ntsc>FALSE</ntsc>
								<timebase>25</timebase>
							</rate>
							<in>1244</in>
							<out>1302</out>
							<start>606</start>
							<end>664</end>
							<subframeoffset>0</subframeoffset>
							<masterclipid>The-one1</masterclipid>
							<logginginfo>
								<scene/>
								<shottake/>
								<lognote/>
								<good>FALSE</good>
							</logginginfo>
							<labels>
								<label2/>
							</labels>
							<comments>
								<mastercomment1/>
								<mastercomment2/>
								<mastercomment3/>
								<mastercomment4/>
							</comments>
							<file id="The-one2"/>
							<filter>
								<effect>
									<name>Audio Levels</name>
									<effectid>audiolevels</effectid>
									<effectcategory>audiolevels</effectcategory>
									<effecttype>audiolevels</effecttype>
									<mediatype>audio</mediatype>
									<parameter>
										<name>Level</name>
										<parameterid>level</parameterid>
										<valuemin>0</valuemin>
										<valuemax>3.98109</valuemax>
										<value>1</value>
									</parameter>
								</effect>
							</filter>
							<filter>
								<effect>
									<name>Audio Pan</name>
									<effectid>audiopan</effectid>
									<effectcategory>audiopan</effectcategory>
									<effecttype>audiopan</effecttype>
									<mediatype>audio</mediatype>
									<parameter>
										<name>Pan</name>
										<parameterid>pan</parameterid>
										<valuemin>-1</valuemin>
										<valuemax>1</valuemax>
										<value>-1</value>
									</parameter>
								</effect>
							</filter>
							<sourcetrack>
								<mediatype>audio</mediatype>
								<trackindex>1</trackindex>
							</sourcetrack>
							<link>
								<linkclipref>The-one35</linkclipref>
								<mediatype>video</mediatype>
								<trackindex>1</trackindex>
								<clipindex>12</clipindex>
							</link>
							<link>
								<linkclipref>The-one36</linkclipref>
								<mediatype>audio</mediatype>
								<trackindex>1</trackindex>
								<clipindex>12</clipindex>
								<groupindex>1</groupindex>
							</link>
							<link>
								<linkclipref>The-one37</linkclipref>
								<mediatype>audio</mediatype>
								<trackindex>2</trackindex>
								<clipindex>12</clipindex>
								<groupindex>1</groupindex>
							</link>
							<itemhistory>
								<uuid>51CBA173-3C88-4646-B76A-BD80ED18F3A2</uuid>
							</itemhistory>
						</clipitem>
						<clipitem id="The-one39">
							<name>The-one</name>
							<duration>5477</duration>
							<rate>
								<ntsc>FALSE</ntsc>
								<timebase>25</timebase>
							</rate>
							<in>2109</in>
							<out>2158</out>
							<start>664</start>
							<end>713</end>
							<subframeoffset>0</subframeoffset>
							<masterclipid>The-one1</masterclipid>
							<logginginfo>
								<scene/>
								<shottake/>
								<lognote/>
								<good>FALSE</good>
							</logginginfo>
							<labels>
								<label2/>
							</labels>
							<comments>
								<mastercomment1/>
								<mastercomment2/>
								<mastercomment3/>
								<mastercomment4/>
							</comments>
							<file id="The-one2"/>
							<filter>
								<effect>
									<name>Audio Levels</name>
									<effectid>audiolevels</effectid>
									<effectcategory>audiolevels</effectcategory>
									<effecttype>audiolevels</effecttype>
									<mediatype>audio</mediatype>
									<parameter>
										<name>Level</name>
										<parameterid>level</parameterid>
										<valuemin>0</valuemin>
										<valuemax>3.98109</valuemax>
										<value>1</value>
									</parameter>
								</effect>
							</filter>
							<filter>
								<effect>
									<name>Audio Pan</name>
									<effectid>audiopan</effectid>
									<effectcategory>audiopan</effectcategory>
									<effecttype>audiopan</effecttype>
									<mediatype>audio</mediatype>
									<parameter>
										<name>Pan</name>
										<parameterid>pan</parameterid>
										<valuemin>-1</valuemin>
										<valuemax>1</valuemax>
										<value>-1</value>
									</parameter>
								</effect>
							</filter>
							<sourcetrack>
								<mediatype>audio</mediatype>
								<trackindex>1</trackindex>
							</sourcetrack>
							<link>
								<linkclipref>The-one38</linkclipref>
								<mediatype>video</mediatype>
								<trackindex>1</trackindex>
								<clipindex>13</clipindex>
							</link>
							<link>
								<linkclipref>The-one39</linkclipref>
								<mediatype>audio</mediatype>
								<trackindex>1</trackindex>
								<clipindex>13</clipindex>
								<groupindex>1</groupindex>
							</link>
							<link>
								<linkclipref>The-one40</linkclipref>
								<mediatype>audio</mediatype>
								<trackindex>2</trackindex>
								<clipindex>13</clipindex>
								<groupindex>1</groupindex>
							</link>
							<itemhistory>
								<uuid>69EFB436-D882-4D77-8112-13B5928DDDE0</uuid>
							</itemhistory>
						</clipitem>
						<clipitem id="The-one42">
							<name>The-one</name>
							<duration>5477</duration>
							<rate>
								<ntsc>FALSE</ntsc>
								<timebase>25</timebase>
							</rate>
							<in>2771</in>
							<out>2827</out>
							<start>713</start>
							<end>769</end>
							<subframeoffset>0</subframeoffset>
							<enabled>TRUE</enabled>
							<masterclipid>The-one1</masterclipid>
							<logginginfo>
								<scene/>
								<shottake/>
								<lognote/>
								<good>FALSE</good>
							</logginginfo>
							<labels>
								<label2/>
							</labels>
							<comments>
								<mastercomment1/>
								<mastercomment2/>
								<mastercomment3/>
								<mastercomment4/>
							</comments>
							<file id="The-one2"/>
							<filter>
								<effect>
									<name>Audio Levels</name>
									<effectid>audiolevels</effectid>
									<effectcategory>audiolevels</effectcategory>
									<effecttype>audiolevels</effecttype>
									<mediatype>audio</mediatype>
									<parameter>
										<name>Level</name>
										<parameterid>level</parameterid>
										<valuemin>0</valuemin>
										<valuemax>3.98109</valuemax>
										<value>1</value>
									</parameter>
								</effect>
							</filter>
							<filter>
								<effect>
									<name>Audio Pan</name>
									<effectid>audiopan</effectid>
									<effectcategory>audiopan</effectcategory>
									<effecttype>audiopan</effecttype>
									<mediatype>audio</mediatype>
									<parameter>
										<name>Pan</name>
										<parameterid>pan</parameterid>
										<valuemin>-1</valuemin>
										<valuemax>1</valuemax>
										<value>-1</value>
									</parameter>
								</effect>
							</filter>
							<sourcetrack>
								<mediatype>audio</mediatype>
								<trackindex>1</trackindex>
							</sourcetrack>
							<link>
								<linkclipref>The-one41</linkclipref>
								<mediatype>video</mediatype>
								<trackindex>1</trackindex>
								<clipindex>14</clipindex>
							</link>
							<link>
								<linkclipref>The-one42</linkclipref>
								<mediatype>audio</mediatype>
								<trackindex>1</trackindex>
								<clipindex>14</clipindex>
								<groupindex>1</groupindex>
							</link>
							<link>
								<linkclipref>The-one43</linkclipref>
								<mediatype>audio</mediatype>
								<trackindex>2</trackindex>
								<clipindex>14</clipindex>
								<groupindex>1</groupindex>
							</link>
							<itemhistory>
								<uuid>A3298A65-AE88-4480-985F-97E2429C1757</uuid>
							</itemhistory>
						</clipitem>
						<clipitem id="The-one45">
							<name>The-one</name>
							<duration>5477</duration>
							<rate>
								<ntsc>FALSE</ntsc>
								<timebase>25</timebase>
							</rate>
							<in>2995</in>
							<out>3055</out>
							<start>769</start>
							<end>829</end>
							<subframeoffset>0</subframeoffset>
							<enabled>TRUE</enabled>
							<masterclipid>The-one1</masterclipid>
							<logginginfo>
								<scene/>
								<shottake/>
								<lognote/>
								<good>FALSE</good>
							</logginginfo>
							<labels>
								<label2/>
							</labels>
							<comments>
								<mastercomment1/>
								<mastercomment2/>
								<mastercomment3/>
								<mastercomment4/>
							</comments>
							<file id="The-one2"/>
							<filter>
								<effect>
									<name>Audio Levels</name>
									<effectid>audiolevels</effectid>
									<effectcategory>audiolevels</effectcategory>
									<effecttype>audiolevels</effecttype>
									<mediatype>audio</mediatype>
									<parameter>
										<name>Level</name>
										<parameterid>level</parameterid>
										<valuemin>0</valuemin>
										<valuemax>3.98109</valuemax>
										<value>1</value>
									</parameter>
								</effect>
							</filter>
							<filter>
								<effect>
									<name>Audio Pan</name>
									<effectid>audiopan</effectid>
									<effectcategory>audiopan</effectcategory>
									<effecttype>audiopan</effecttype>
									<mediatype>audio</mediatype>
									<parameter>
										<name>Pan</name>
										<parameterid>pan</parameterid>
										<valuemin>-1</valuemin>
										<valuemax>1</valuemax>
										<value>-1</value>
									</parameter>
								</effect>
							</filter>
							<sourcetrack>
								<mediatype>audio</mediatype>
								<trackindex>1</trackindex>
							</sourcetrack>
							<link>
								<linkclipref>The-one44</linkclipref>
								<mediatype>video</mediatype>
								<trackindex>1</trackindex>
								<clipindex>15</clipindex>
							</link>
							<link>
								<linkclipref>The-one45</linkclipref>
								<mediatype>audio</mediatype>
								<trackindex>1</trackindex>
								<clipindex>15</clipindex>
								<groupindex>1</groupindex>
							</link>
							<link>
								<linkclipref>The-one46</linkclipref>
								<mediatype>audio</mediatype>
								<trackindex>2</trackindex>
								<clipindex>15</clipindex>
								<groupindex>1</groupindex>
							</link>
							<itemhistory>
								<uuid>F5500D8C-B8E2-4DF7-9A14-80674364C368</uuid>
							</itemhistory>
						</clipitem>
						<clipitem id="The-one48">
							<name>The-one</name>
							<duration>5477</duration>
							<rate>
								<ntsc>FALSE</ntsc>
								<timebase>25</timebase>
							</rate>
							<in>3588</in>
							<out>3693</out>
							<start>829</start>
							<end>934</end>
							<subframeoffset>0</subframeoffset>
							<enabled>TRUE</enabled>
							<masterclipid>The-one1</masterclipid>
							<logginginfo>
								<scene/>
								<shottake/>
								<lognote/>
								<good>FALSE</good>
							</logginginfo>
							<labels>
								<label2/>
							</labels>
							<comments>
								<mastercomment1/>
								<mastercomment2/>
								<mastercomment3/>
								<mastercomment4/>
							</comments>
							<file id="The-one2"/>
							<filter>
								<effect>
									<name>Audio Levels</name>
									<effectid>audiolevels</effectid>
									<effectcategory>audiolevels</effectcategory>
									<effecttype>audiolevels</effecttype>
									<mediatype>audio</mediatype>
									<parameter>
										<name>Level</name>
										<parameterid>level</parameterid>
										<valuemin>0</valuemin>
										<valuemax>3.98109</valuemax>
										<value>1</value>
									</parameter>
								</effect>
							</filter>
							<filter>
								<effect>
									<name>Audio Pan</name>
									<effectid>audiopan</effectid>
									<effectcategory>audiopan</effectcategory>
									<effecttype>audiopan</effecttype>
									<mediatype>audio</mediatype>
									<parameter>
										<name>Pan</name>
										<parameterid>pan</parameterid>
										<valuemin>-1</valuemin>
										<valuemax>1</valuemax>
										<value>-1</value>
									</parameter>
								</effect>
							</filter>
							<sourcetrack>
								<mediatype>audio</mediatype>
								<trackindex>1</trackindex>
							</sourcetrack>
							<link>
								<linkclipref>The-one47</linkclipref>
								<mediatype>video</mediatype>
								<trackindex>1</trackindex>
								<clipindex>16</clipindex>
							</link>
							<link>
								<linkclipref>The-one48</linkclipref>
								<mediatype>audio</mediatype>
								<trackindex>1</trackindex>
								<clipindex>16</clipindex>
								<groupindex>1</groupindex>
							</link>
							<link>
								<linkclipref>The-one49</linkclipref>
								<mediatype>audio</mediatype>
								<trackindex>2</trackindex>
								<clipindex>16</clipindex>
								<groupindex>1</groupindex>
							</link>
							<itemhistory>
								<uuid>C4823F30-DC17-4854-856E-EC60FE4ACC8A</uuid>
							</itemhistory>
						</clipitem>
						<clipitem id="The-one51">
							<name>The-one</name>
							<duration>5477</duration>
							<rate>
								<ntsc>FALSE</ntsc>
								<timebase>25</timebase>
							</rate>
							<in>3905</in>
							<out>3960</out>
							<start>934</start>
							<end>989</end>
							<subframeoffset>0</subframeoffset>
							<masterclipid>The-one1</masterclipid>
							<logginginfo>
								<scene/>
								<shottake/>
								<lognote/>
								<good>FALSE</good>
							</logginginfo>
							<labels>
								<label2/>
							</labels>
							<comments>
								<mastercomment1/>
								<mastercomment2/>
								<mastercomment3/>
								<mastercomment4/>
							</comments>
							<file id="The-one2"/>
							<filter>
								<effect>
									<name>Audio Levels</name>
									<effectid>audiolevels</effectid>
									<effectcategory>audiolevels</effectcategory>
									<effecttype>audiolevels</effecttype>
									<mediatype>audio</mediatype>
									<parameter>
										<name>Level</name>
										<parameterid>level</parameterid>
										<valuemin>0</valuemin>
										<valuemax>3.98109</valuemax>
										<value>1</value>
									</parameter>
								</effect>
							</filter>
							<filter>
								<effect>
									<name>Audio Pan</name>
									<effectid>audiopan</effectid>
									<effectcategory>audiopan</effectcategory>
									<effecttype>audiopan</effecttype>
									<mediatype>audio</mediatype>
									<parameter>
										<name>Pan</name>
										<parameterid>pan</parameterid>
										<valuemin>-1</valuemin>
										<valuemax>1</valuemax>
										<value>-1</value>
									</parameter>
								</effect>
							</filter>
							<sourcetrack>
								<mediatype>audio</mediatype>
								<trackindex>1</trackindex>
							</sourcetrack>
							<link>
								<linkclipref>The-one50</linkclipref>
								<mediatype>video</mediatype>
								<trackindex>1</trackindex>
								<clipindex>17</clipindex>
							</link>
							<link>
								<linkclipref>The-one51</linkclipref>
								<mediatype>audio</mediatype>
								<trackindex>1</trackindex>
								<clipindex>17</clipindex>
								<groupindex>1</groupindex>
							</link>
							<link>
								<linkclipref>The-one52</linkclipref>
								<mediatype>audio</mediatype>
								<trackindex>2</trackindex>
								<clipindex>17</clipindex>
								<groupindex>1</groupindex>
							</link>
							<itemhistory>
								<uuid>29FCC16A-1494-4B9D-8F1F-31E6D664CB8F</uuid>
							</itemhistory>
						</clipitem>
						<clipitem id="The-one54">
							<name>The-one</name>
							<duration>5477</duration>
							<rate>
								<ntsc>FALSE</ntsc>
								<timebase>25</timebase>
							</rate>
							<in>4260</in>
							<out>4309</out>
							<start>989</start>
							<end>1038</end>
							<subframeoffset>0</subframeoffset>
							<enabled>TRUE</enabled>
							<masterclipid>The-one1</masterclipid>
							<logginginfo>
								<scene/>
								<shottake/>
								<lognote/>
								<good>FALSE</good>
							</logginginfo>
							<labels>
								<label2/>
							</labels>
							<comments>
								<mastercomment1/>
								<mastercomment2/>
								<mastercomment3/>
								<mastercomment4/>
							</comments>
							<file id="The-one2"/>
							<filter>
								<effect>
									<name>Audio Levels</name>
									<effectid>audiolevels</effectid>
									<effectcategory>audiolevels</effectcategory>
									<effecttype>audiolevels</effecttype>
									<mediatype>audio</mediatype>
									<parameter>
										<name>Level</name>
										<parameterid>level</parameterid>
										<valuemin>0</valuemin>
										<valuemax>3.98109</valuemax>
										<value>1</value>
									</parameter>
								</effect>
							</filter>
							<filter>
								<effect>
									<name>Audio Pan</name>
									<effectid>audiopan</effectid>
									<effectcategory>audiopan</effectcategory>
									<effecttype>audiopan</effecttype>
									<mediatype>audio</mediatype>
									<parameter>
										<name>Pan</name>
										<parameterid>pan</parameterid>
										<valuemin>-1</valuemin>
										<valuemax>1</valuemax>
										<value>-1</value>
									</parameter>
								</effect>
							</filter>
							<sourcetrack>
								<mediatype>audio</mediatype>
								<trackindex>1</trackindex>
							</sourcetrack>
							<link>
								<linkclipref>The-one53</linkclipref>
								<mediatype>video</mediatype>
								<trackindex>1</trackindex>
								<clipindex>18</clipindex>
							</link>
							<link>
								<linkclipref>The-one54</linkclipref>
								<mediatype>audio</mediatype>
								<trackindex>1</trackindex>
								<clipindex>18</clipindex>
								<groupindex>1</groupindex>
							</link>
							<link>
								<linkclipref>The-one55</linkclipref>
								<mediatype>audio</mediatype>
								<trackindex>2</trackindex>
								<clipindex>18</clipindex>
								<groupindex>1</groupindex>
							</link>
							<itemhistory>
								<uuid>45BA378D-FD26-4450-8100-30EC3D8C35A7</uuid>
							</itemhistory>
						</clipitem>
						<clipitem id="The-one57">
							<name>The-one</name>
							<duration>5477</duration>
							<rate>
								<ntsc>FALSE</ntsc>
								<timebase>25</timebase>
							</rate>
							<in>4481</in>
							<out>4534</out>
							<start>1038</start>
							<end>1091</end>
							<subframeoffset>0</subframeoffset>
							<enabled>TRUE</enabled>
							<masterclipid>The-one1</masterclipid>
							<logginginfo>
								<scene/>
								<shottake/>
								<lognote/>
								<good>FALSE</good>
							</logginginfo>
							<labels>
								<label2/>
							</labels>
							<comments>
								<mastercomment1/>
								<mastercomment2/>
								<mastercomment3/>
								<mastercomment4/>
							</comments>
							<file id="The-one2"/>
							<filter>
								<effect>
									<name>Audio Levels</name>
									<effectid>audiolevels</effectid>
									<effectcategory>audiolevels</effectcategory>
									<effecttype>audiolevels</effecttype>
									<mediatype>audio</mediatype>
									<parameter>
										<name>Level</name>
										<parameterid>level</parameterid>
										<valuemin>0</valuemin>
										<valuemax>3.98109</valuemax>
										<value>1</value>
									</parameter>
								</effect>
							</filter>
							<filter>
								<effect>
									<name>Audio Pan</name>
									<effectid>audiopan</effectid>
									<effectcategory>audiopan</effectcategory>
									<effecttype>audiopan</effecttype>
									<mediatype>audio</mediatype>
									<parameter>
										<name>Pan</name>
										<parameterid>pan</parameterid>
										<valuemin>-1</valuemin>
										<valuemax>1</valuemax>
										<value>-1</value>
									</parameter>
								</effect>
							</filter>
							<sourcetrack>
								<mediatype>audio</mediatype>
								<trackindex>1</trackindex>
							</sourcetrack>
							<link>
								<linkclipref>The-one56</linkclipref>
								<mediatype>video</mediatype>
								<trackindex>1</trackindex>
								<clipindex>19</clipindex>
							</link>
							<link>
								<linkclipref>The-one57</linkclipref>
								<mediatype>audio</mediatype>
								<trackindex>1</trackindex>
								<clipindex>19</clipindex>
								<groupindex>1</groupindex>
							</link>
							<link>
								<linkclipref>The-one58</linkclipref>
								<mediatype>audio</mediatype>
								<trackindex>2</trackindex>
								<clipindex>19</clipindex>
								<groupindex>1</groupindex>
							</link>
							<itemhistory>
								<uuid>6803152B-701D-4768-8976-A8457DC5FC04</uuid>
							</itemhistory>
						</clipitem>
						<clipitem id="The-one60">
							<name>The-one</name>
							<duration>5477</duration>
							<rate>
								<ntsc>FALSE</ntsc>
								<timebase>25</timebase>
							</rate>
							<in>4599</in>
							<out>4712</out>
							<start>1091</start>
							<end>1204</end>
							<subframeoffset>0</subframeoffset>
							<enabled>TRUE</enabled>
							<masterclipid>The-one1</masterclipid>
							<logginginfo>
								<scene/>
								<shottake/>
								<lognote/>
								<good>FALSE</good>
							</logginginfo>
							<labels>
								<label2/>
							</labels>
							<comments>
								<mastercomment1/>
								<mastercomment2/>
								<mastercomment3/>
								<mastercomment4/>
							</comments>
							<file id="The-one2"/>
							<filter>
								<effect>
									<name>Audio Levels</name>
									<effectid>audiolevels</effectid>
									<effectcategory>audiolevels</effectcategory>
									<effecttype>audiolevels</effecttype>
									<mediatype>audio</mediatype>
									<parameter>
										<name>Level</name>
										<parameterid>level</parameterid>
										<valuemin>0</valuemin>
										<valuemax>3.98109</valuemax>
										<value>1</value>
									</parameter>
								</effect>
							</filter>
							<filter>
								<effect>
									<name>Audio Pan</name>
									<effectid>audiopan</effectid>
									<effectcategory>audiopan</effectcategory>
									<effecttype>audiopan</effecttype>
									<mediatype>audio</mediatype>
									<parameter>
										<name>Pan</name>
										<parameterid>pan</parameterid>
										<valuemin>-1</valuemin>
										<valuemax>1</valuemax>
										<value>-1</value>
									</parameter>
								</effect>
							</filter>
							<sourcetrack>
								<mediatype>audio</mediatype>
								<trackindex>1</trackindex>
							</sourcetrack>
							<link>
								<linkclipref>The-one59</linkclipref>
								<mediatype>video</mediatype>
								<trackindex>1</trackindex>
								<clipindex>20</clipindex>
							</link>
							<link>
								<linkclipref>The-one60</linkclipref>
								<mediatype>audio</mediatype>
								<trackindex>1</trackindex>
								<clipindex>20</clipindex>
								<groupindex>1</groupindex>
							</link>
							<link>
								<linkclipref>The-one61</linkclipref>
								<mediatype>audio</mediatype>
								<trackindex>2</trackindex>
								<clipindex>20</clipindex>
								<groupindex>1</groupindex>
							</link>
							<itemhistory>
								<uuid>47A24D9C-CEE9-499A-9608-26F2AA49035F</uuid>
							</itemhistory>
						</clipitem>
						<clipitem id="The-one63">
							<name>The-one</name>
							<duration>5477</duration>
							<rate>
								<ntsc>FALSE</ntsc>
								<timebase>25</timebase>
							</rate>
							<in>4359</in>
							<out>4416</out>
							<start>1204</start>
							<end>1261</end>
							<subframeoffset>0</subframeoffset>
							<enabled>TRUE</enabled>
							<masterclipid>The-one1</masterclipid>
							<logginginfo>
								<scene/>
								<shottake/>
								<lognote/>
								<good>FALSE</good>
							</logginginfo>
							<labels>
								<label2/>
							</labels>
							<comments>
								<mastercomment1/>
								<mastercomment2/>
								<mastercomment3/>
								<mastercomment4/>
							</comments>
							<file id="The-one2"/>
							<filter>
								<effect>
									<name>Audio Levels</name>
									<effectid>audiolevels</effectid>
									<effectcategory>audiolevels</effectcategory>
									<effecttype>audiolevels</effecttype>
									<mediatype>audio</mediatype>
									<parameter>
										<name>Level</name>
										<parameterid>level</parameterid>
										<valuemin>0</valuemin>
										<valuemax>3.98109</valuemax>
										<value>1</value>
									</parameter>
								</effect>
							</filter>
							<filter>
								<effect>
									<name>Audio Pan</name>
									<effectid>audiopan</effectid>
									<effectcategory>audiopan</effectcategory>
									<effecttype>audiopan</effecttype>
									<mediatype>audio</mediatype>
									<parameter>
										<name>Pan</name>
										<parameterid>pan</parameterid>
										<valuemin>-1</valuemin>
										<valuemax>1</valuemax>
										<value>-1</value>
									</parameter>
								</effect>
							</filter>
							<sourcetrack>
								<mediatype>audio</mediatype>
								<trackindex>1</trackindex>
							</sourcetrack>
							<link>
								<linkclipref>The-one62</linkclipref>
								<mediatype>video</mediatype>
								<trackindex>1</trackindex>
								<clipindex>21</clipindex>
							</link>
							<link>
								<linkclipref>The-one63</linkclipref>
								<mediatype>audio</mediatype>
								<trackindex>1</trackindex>
								<clipindex>21</clipindex>
								<groupindex>1</groupindex>
							</link>
							<link>
								<linkclipref>The-one64</linkclipref>
								<mediatype>audio</mediatype>
								<trackindex>2</trackindex>
								<clipindex>21</clipindex>
								<groupindex>1</groupindex>
							</link>
							<itemhistory>
								<uuid>6D5B90B9-26AD-4B91-BCFF-36794287C5E1</uuid>
							</itemhistory>
						</clipitem>
						<clipitem id="The-one66">
							<name>The-one</name>
							<duration>5477</duration>
							<rate>
								<ntsc>FALSE</ntsc>
								<timebase>25</timebase>
							</rate>
							<in>4754</in>
							<out>4855</out>
							<start>1261</start>
							<end>1362</end>
							<subframeoffset>0</subframeoffset>
							<enabled>TRUE</enabled>
							<masterclipid>The-one1</masterclipid>
							<logginginfo>
								<scene/>
								<shottake/>
								<lognote/>
								<good>FALSE</good>
							</logginginfo>
							<labels>
								<label2/>
							</labels>
							<comments>
								<mastercomment1/>
								<mastercomment2/>
								<mastercomment3/>
								<mastercomment4/>
							</comments>
							<file id="The-one2"/>
							<filter>
								<effect>
									<name>Audio Levels</name>
									<effectid>audiolevels</effectid>
									<effectcategory>audiolevels</effectcategory>
									<effecttype>audiolevels</effecttype>
									<mediatype>audio</mediatype>
									<parameter>
										<name>Level</name>
										<parameterid>level</parameterid>
										<valuemin>0</valuemin>
										<valuemax>3.98109</valuemax>
										<value>1</value>
									</parameter>
								</effect>
							</filter>
							<filter>
								<effect>
									<name>Audio Pan</name>
									<effectid>audiopan</effectid>
									<effectcategory>audiopan</effectcategory>
									<effecttype>audiopan</effecttype>
									<mediatype>audio</mediatype>
									<parameter>
										<name>Pan</name>
										<parameterid>pan</parameterid>
										<valuemin>-1</valuemin>
										<valuemax>1</valuemax>
										<value>-1</value>
									</parameter>
								</effect>
							</filter>
							<sourcetrack>
								<mediatype>audio</mediatype>
								<trackindex>1</trackindex>
							</sourcetrack>
							<link>
								<linkclipref>The-one65</linkclipref>
								<mediatype>video</mediatype>
								<trackindex>1</trackindex>
								<clipindex>22</clipindex>
							</link>
							<link>
								<linkclipref>The-one66</linkclipref>
								<mediatype>audio</mediatype>
								<trackindex>1</trackindex>
								<clipindex>22</clipindex>
								<groupindex>1</groupindex>
							</link>
							<link>
								<linkclipref>The-one67</linkclipref>
								<mediatype>audio</mediatype>
								<trackindex>2</trackindex>
								<clipindex>22</clipindex>
								<groupindex>1</groupindex>
							</link>
							<itemhistory>
								<uuid>16679DE5-13F3-441D-B823-1164A19DA4CC</uuid>
							</itemhistory>
						</clipitem>
						<clipitem id="The-one69">
							<name>The-one</name>
							<duration>5477</duration>
							<rate>
								<ntsc>FALSE</ntsc>
								<timebase>25</timebase>
							</rate>
							<in>1019</in>
							<out>1073</out>
							<start>1362</start>
							<end>1416</end>
							<subframeoffset>0</subframeoffset>
							<masterclipid>The-one1</masterclipid>
							<logginginfo>
								<scene/>
								<shottake/>
								<lognote/>
								<good>FALSE</good>
							</logginginfo>
							<labels>
								<label2/>
							</labels>
							<comments>
								<mastercomment1/>
								<mastercomment2/>
								<mastercomment3/>
								<mastercomment4/>
							</comments>
							<file id="The-one2"/>
							<filter>
								<effect>
									<name>Audio Levels</name>
									<effectid>audiolevels</effectid>
									<effectcategory>audiolevels</effectcategory>
									<effecttype>audiolevels</effecttype>
									<mediatype>audio</mediatype>
									<parameter>
										<name>Level</name>
										<parameterid>level</parameterid>
										<valuemin>0</valuemin>
										<valuemax>3.98109</valuemax>
										<value>1</value>
									</parameter>
								</effect>
							</filter>
							<filter>
								<effect>
									<name>Audio Pan</name>
									<effectid>audiopan</effectid>
									<effectcategory>audiopan</effectcategory>
									<effecttype>audiopan</effecttype>
									<mediatype>audio</mediatype>
									<parameter>
										<name>Pan</name>
										<parameterid>pan</parameterid>
										<valuemin>-1</valuemin>
										<valuemax>1</valuemax>
										<value>-1</value>
									</parameter>
								</effect>
							</filter>
							<sourcetrack>
								<mediatype>audio</mediatype>
								<trackindex>1</trackindex>
							</sourcetrack>
							<link>
								<linkclipref>The-one68</linkclipref>
								<mediatype>video</mediatype>
								<trackindex>1</trackindex>
								<clipindex>23</clipindex>
							</link>
							<link>
								<linkclipref>The-one69</linkclipref>
								<mediatype>audio</mediatype>
								<trackindex>1</trackindex>
								<clipindex>23</clipindex>
								<groupindex>1</groupindex>
							</link>
							<link>
								<linkclipref>The-one70</linkclipref>
								<mediatype>audio</mediatype>
								<trackindex>2</trackindex>
								<clipindex>23</clipindex>
								<groupindex>1</groupindex>
							</link>
							<itemhistory>
								<uuid>C8EB8700-D106-4313-9B6F-428608A8C870</uuid>
							</itemhistory>
						</clipitem>
						<clipitem id="The-one72">
							<name>The-one</name>
							<duration>5477</duration>
							<rate>
								<ntsc>FALSE</ntsc>
								<timebase>25</timebase>
							</rate>
							<in>1583</in>
							<out>1641</out>
							<start>1416</start>
							<end>1474</end>
							<subframeoffset>0</subframeoffset>
							<masterclipid>The-one1</masterclipid>
							<logginginfo>
								<scene/>
								<shottake/>
								<lognote/>
								<good>FALSE</good>
							</logginginfo>
							<labels>
								<label2/>
							</labels>
							<comments>
								<mastercomment1/>
								<mastercomment2/>
								<mastercomment3/>
								<mastercomment4/>
							</comments>
							<file id="The-one2"/>
							<filter>
								<effect>
									<name>Audio Levels</name>
									<effectid>audiolevels</effectid>
									<effectcategory>audiolevels</effectcategory>
									<effecttype>audiolevels</effecttype>
									<mediatype>audio</mediatype>
									<parameter>
										<name>Level</name>
										<parameterid>level</parameterid>
										<valuemin>0</valuemin>
										<valuemax>3.98109</valuemax>
										<value>1</value>
									</parameter>
								</effect>
							</filter>
							<filter>
								<effect>
									<name>Audio Pan</name>
									<effectid>audiopan</effectid>
									<effectcategory>audiopan</effectcategory>
									<effecttype>audiopan</effecttype>
									<mediatype>audio</mediatype>
									<parameter>
										<name>Pan</name>
										<parameterid>pan</parameterid>
										<valuemin>-1</valuemin>
										<valuemax>1</valuemax>
										<value>-1</value>
									</parameter>
								</effect>
							</filter>
							<sourcetrack>
								<mediatype>audio</mediatype>
								<trackindex>1</trackindex>
							</sourcetrack>
							<link>
								<linkclipref>The-one71</linkclipref>
								<mediatype>video</mediatype>
								<trackindex>1</trackindex>
								<clipindex>24</clipindex>
							</link>
							<link>
								<linkclipref>The-one72</linkclipref>
								<mediatype>audio</mediatype>
								<trackindex>1</trackindex>
								<clipindex>24</clipindex>
								<groupindex>1</groupindex>
							</link>
							<link>
								<linkclipref>The-one73</linkclipref>
								<mediatype>audio</mediatype>
								<trackindex>2</trackindex>
								<clipindex>24</clipindex>
								<groupindex>1</groupindex>
							</link>
							<itemhistory>
								<uuid>5267A71F-4CA8-45AE-910A-0DDD0CFEE1DA</uuid>
							</itemhistory>
						</clipitem>
						<clipitem id="The-one75">
							<name>The-one</name>
							<duration>5477</duration>
							<rate>
								<ntsc>FALSE</ntsc>
								<timebase>25</timebase>
							</rate>
							<in>1925</in>
							<out>2026</out>
							<start>1474</start>
							<end>1575</end>
							<subframeoffset>0</subframeoffset>
							<masterclipid>The-one1</masterclipid>
							<logginginfo>
								<scene/>
								<shottake/>
								<lognote/>
								<good>FALSE</good>
							</logginginfo>
							<labels>
								<label2/>
							</labels>
							<comments>
								<mastercomment1/>
								<mastercomment2/>
								<mastercomment3/>
								<mastercomment4/>
							</comments>
							<file id="The-one2"/>
							<filter>
								<effect>
									<name>Audio Levels</name>
									<effectid>audiolevels</effectid>
									<effectcategory>audiolevels</effectcategory>
									<effecttype>audiolevels</effecttype>
									<mediatype>audio</mediatype>
									<parameter>
										<name>Level</name>
										<parameterid>level</parameterid>
										<valuemin>0</valuemin>
										<valuemax>3.98109</valuemax>
										<value>1</value>
									</parameter>
								</effect>
							</filter>
							<filter>
								<effect>
									<name>Audio Pan</name>
									<effectid>audiopan</effectid>
									<effectcategory>audiopan</effectcategory>
									<effecttype>audiopan</effecttype>
									<mediatype>audio</mediatype>
									<parameter>
										<name>Pan</name>
										<parameterid>pan</parameterid>
										<valuemin>-1</valuemin>
										<valuemax>1</valuemax>
										<value>-1</value>
									</parameter>
								</effect>
							</filter>
							<sourcetrack>
								<mediatype>audio</mediatype>
								<trackindex>1</trackindex>
							</sourcetrack>
							<link>
								<linkclipref>The-one74</linkclipref>
								<mediatype>video</mediatype>
								<trackindex>1</trackindex>
								<clipindex>25</clipindex>
							</link>
							<link>
								<linkclipref>The-one75</linkclipref>
								<mediatype>audio</mediatype>
								<trackindex>1</trackindex>
								<clipindex>25</clipindex>
								<groupindex>1</groupindex>
							</link>
							<link>
								<linkclipref>The-one76</linkclipref>
								<mediatype>audio</mediatype>
								<trackindex>2</trackindex>
								<clipindex>25</clipindex>
								<groupindex>1</groupindex>
							</link>
							<itemhistory>
								<uuid>59B4B757-4EB7-4E2A-B977-D4C92D955F87</uuid>
							</itemhistory>
						</clipitem>
						<clipitem id="The-one78">
							<name>The-one</name>
							<duration>5477</duration>
							<rate>
								<ntsc>FALSE</ntsc>
								<timebase>25</timebase>
							</rate>
							<in>3223</in>
							<out>3284</out>
							<start>1575</start>
							<end>1636</end>
							<subframeoffset>0</subframeoffset>
							<enabled>TRUE</enabled>
							<masterclipid>The-one1</masterclipid>
							<logginginfo>
								<scene/>
								<shottake/>
								<lognote/>
								<good>FALSE</good>
							</logginginfo>
							<labels>
								<label2/>
							</labels>
							<comments>
								<mastercomment1/>
								<mastercomment2/>
								<mastercomment3/>
								<mastercomment4/>
							</comments>
							<file id="The-one2"/>
							<filter>
								<effect>
									<name>Audio Levels</name>
									<effectid>audiolevels</effectid>
									<effectcategory>audiolevels</effectcategory>
									<effecttype>audiolevels</effecttype>
									<mediatype>audio</mediatype>
									<parameter>
										<name>Level</name>
										<parameterid>level</parameterid>
										<valuemin>0</valuemin>
										<valuemax>3.98109</valuemax>
										<value>1</value>
									</parameter>
								</effect>
							</filter>
							<filter>
								<effect>
									<name>Audio Pan</name>
									<effectid>audiopan</effectid>
									<effectcategory>audiopan</effectcategory>
									<effecttype>audiopan</effecttype>
									<mediatype>audio</mediatype>
									<parameter>
										<name>Pan</name>
										<parameterid>pan</parameterid>
										<valuemin>-1</valuemin>
										<valuemax>1</valuemax>
										<value>-1</value>
									</parameter>
								</effect>
							</filter>
							<sourcetrack>
								<mediatype>audio</mediatype>
								<trackindex>1</trackindex>
							</sourcetrack>
							<link>
								<linkclipref>The-one77</linkclipref>
								<mediatype>video</mediatype>
								<trackindex>1</trackindex>
								<clipindex>26</clipindex>
							</link>
							<link>
								<linkclipref>The-one78</linkclipref>
								<mediatype>audio</mediatype>
								<trackindex>1</trackindex>
								<clipindex>26</clipindex>
								<groupindex>1</groupindex>
							</link>
							<link>
								<linkclipref>The-one79</linkclipref>
								<mediatype>audio</mediatype>
								<trackindex>2</trackindex>
								<clipindex>26</clipindex>
								<groupindex>1</groupindex>
							</link>
							<itemhistory>
								<uuid>F4396B4E-2706-43DA-95C6-3C21CB4EF754</uuid>
							</itemhistory>
						</clipitem>
						<clipitem id="The-one81">
							<name>The-one</name>
							<duration>5477</duration>
							<rate>
								<ntsc>FALSE</ntsc>
								<timebase>25</timebase>
							</rate>
							<in>3338</in>
							<out>3394</out>
							<start>1636</start>
							<end>1692</end>
							<subframeoffset>0</subframeoffset>
							<masterclipid>The-one1</masterclipid>
							<logginginfo>
								<scene/>
								<shottake/>
								<lognote/>
								<good>FALSE</good>
							</logginginfo>
							<labels>
								<label2/>
							</labels>
							<comments>
								<mastercomment1/>
								<mastercomment2/>
								<mastercomment3/>
								<mastercomment4/>
							</comments>
							<file id="The-one2"/>
							<filter>
								<effect>
									<name>Audio Levels</name>
									<effectid>audiolevels</effectid>
									<effectcategory>audiolevels</effectcategory>
									<effecttype>audiolevels</effecttype>
									<mediatype>audio</mediatype>
									<parameter>
										<name>Level</name>
										<parameterid>level</parameterid>
										<valuemin>0</valuemin>
										<valuemax>3.98109</valuemax>
										<value>1</value>
									</parameter>
								</effect>
							</filter>
							<filter>
								<effect>
									<name>Audio Pan</name>
									<effectid>audiopan</effectid>
									<effectcategory>audiopan</effectcategory>
									<effecttype>audiopan</effecttype>
									<mediatype>audio</mediatype>
									<parameter>
										<name>Pan</name>
										<parameterid>pan</parameterid>
										<valuemin>-1</valuemin>
										<valuemax>1</valuemax>
										<value>-1</value>
									</parameter>
								</effect>
							</filter>
							<sourcetrack>
								<mediatype>audio</mediatype>
								<trackindex>1</trackindex>
							</sourcetrack>
							<link>
								<linkclipref>The-one80</linkclipref>
								<mediatype>video</mediatype>
								<trackindex>1</trackindex>
								<clipindex>27</clipindex>
							</link>
							<link>
								<linkclipref>The-one81</linkclipref>
								<mediatype>audio</mediatype>
								<trackindex>1</trackindex>
								<clipindex>27</clipindex>
								<groupindex>1</groupindex>
							</link>
							<link>
								<linkclipref>The-one82</linkclipref>
								<mediatype>audio</mediatype>
								<trackindex>2</trackindex>
								<clipindex>27</clipindex>
								<groupindex>1</groupindex>
							</link>
							<itemhistory>
								<uuid>4EB074AE-2D3D-48FB-9D89-56E9DDF1F01F</uuid>
							</itemhistory>
						</clipitem>
						<clipitem id="The-one84">
							<name>The-one</name>
							<duration>5477</duration>
							<rate>
								<ntsc>FALSE</ntsc>
								<timebase>25</timebase>
							</rate>
							<in>3452</in>
							<out>3507</out>
							<start>1692</start>
							<end>1747</end>
							<subframeoffset>0</subframeoffset>
							<masterclipid>The-one1</masterclipid>
							<logginginfo>
								<scene/>
								<shottake/>
								<lognote/>
								<good>FALSE</good>
							</logginginfo>
							<labels>
								<label2/>
							</labels>
							<comments>
								<mastercomment1/>
								<mastercomment2/>
								<mastercomment3/>
								<mastercomment4/>
							</comments>
							<file id="The-one2"/>
							<filter>
								<effect>
									<name>Audio Levels</name>
									<effectid>audiolevels</effectid>
									<effectcategory>audiolevels</effectcategory>
									<effecttype>audiolevels</effecttype>
									<mediatype>audio</mediatype>
									<parameter>
										<name>Level</name>
										<parameterid>level</parameterid>
										<valuemin>0</valuemin>
										<valuemax>3.98109</valuemax>
										<value>1</value>
									</parameter>
								</effect>
							</filter>
							<filter>
								<effect>
									<name>Audio Pan</name>
									<effectid>audiopan</effectid>
									<effectcategory>audiopan</effectcategory>
									<effecttype>audiopan</effecttype>
									<mediatype>audio</mediatype>
									<parameter>
										<name>Pan</name>
										<parameterid>pan</parameterid>
										<valuemin>-1</valuemin>
										<valuemax>1</valuemax>
										<value>-1</value>
									</parameter>
								</effect>
							</filter>
							<sourcetrack>
								<mediatype>audio</mediatype>
								<trackindex>1</trackindex>
							</sourcetrack>
							<link>
								<linkclipref>The-one83</linkclipref>
								<mediatype>video</mediatype>
								<trackindex>1</trackindex>
								<clipindex>28</clipindex>
							</link>
							<link>
								<linkclipref>The-one84</linkclipref>
								<mediatype>audio</mediatype>
								<trackindex>1</trackindex>
								<clipindex>28</clipindex>
								<groupindex>1</groupindex>
							</link>
							<link>
								<linkclipref>The-one85</linkclipref>
								<mediatype>audio</mediatype>
								<trackindex>2</trackindex>
								<clipindex>28</clipindex>
								<groupindex>1</groupindex>
							</link>
							<itemhistory>
								<uuid>52D9AC8B-9E7E-436A-BF63-15EFEDE973A6</uuid>
							</itemhistory>
						</clipitem>
						<clipitem id="The-one87">
							<name>The-one</name>
							<duration>5477</duration>
							<rate>
								<ntsc>FALSE</ntsc>
								<timebase>25</timebase>
							</rate>
							<in>799</in>
							<out>849</out>
							<start>1747</start>
							<end>1797</end>
							<subframeoffset>0</subframeoffset>
							<masterclipid>The-one1</masterclipid>
							<logginginfo>
								<scene/>
								<shottake/>
								<lognote/>
								<good>FALSE</good>
							</logginginfo>
							<labels>
								<label2/>
							</labels>
							<comments>
								<mastercomment1/>
								<mastercomment2/>
								<mastercomment3/>
								<mastercomment4/>
							</comments>
							<file id="The-one2"/>
							<filter>
								<effect>
									<name>Audio Levels</name>
									<effectid>audiolevels</effectid>
									<effectcategory>audiolevels</effectcategory>
									<effecttype>audiolevels</effecttype>
									<mediatype>audio</mediatype>
									<parameter>
										<name>Level</name>
										<parameterid>level</parameterid>
										<valuemin>0</valuemin>
										<valuemax>3.98109</valuemax>
										<value>1</value>
									</parameter>
								</effect>
							</filter>
							<filter>
								<effect>
									<name>Audio Pan</name>
									<effectid>audiopan</effectid>
									<effectcategory>audiopan</effectcategory>
									<effecttype>audiopan</effecttype>
									<mediatype>audio</mediatype>
									<parameter>
										<name>Pan</name>
										<parameterid>pan</parameterid>
										<valuemin>-1</valuemin>
										<valuemax>1</valuemax>
										<value>-1</value>
									</parameter>
								</effect>
							</filter>
							<sourcetrack>
								<mediatype>audio</mediatype>
								<trackindex>1</trackindex>
							</sourcetrack>
							<link>
								<linkclipref>The-one86</linkclipref>
								<mediatype>video</mediatype>
								<trackindex>1</trackindex>
								<clipindex>29</clipindex>
							</link>
							<link>
								<linkclipref>The-one87</linkclipref>
								<mediatype>audio</mediatype>
								<trackindex>1</trackindex>
								<clipindex>29</clipindex>
								<groupindex>1</groupindex>
							</link>
							<link>
								<linkclipref>The-one88</linkclipref>
								<mediatype>audio</mediatype>
								<trackindex>2</trackindex>
								<clipindex>29</clipindex>
								<groupindex>1</groupindex>
							</link>
							<itemhistory>
								<uuid>79FEBD4F-BFB7-48CF-BEA7-858EFB19173A</uuid>
							</itemhistory>
						</clipitem>
						<clipitem id="The-one90">
							<name>The-one</name>
							<duration>5477</duration>
							<rate>
								<ntsc>FALSE</ntsc>
								<timebase>25</timebase>
							</rate>
							<in>1019</in>
							<out>1073</out>
							<start>1797</start>
							<end>1851</end>
							<subframeoffset>0</subframeoffset>
							<masterclipid>The-one1</masterclipid>
							<logginginfo>
								<scene/>
								<shottake/>
								<lognote/>
								<good>FALSE</good>
							</logginginfo>
							<labels>
								<label2/>
							</labels>
							<comments>
								<mastercomment1/>
								<mastercomment2/>
								<mastercomment3/>
								<mastercomment4/>
							</comments>
							<file id="The-one2"/>
							<filter>
								<effect>
									<name>Audio Levels</name>
									<effectid>audiolevels</effectid>
									<effectcategory>audiolevels</effectcategory>
									<effecttype>audiolevels</effecttype>
									<mediatype>audio</mediatype>
									<parameter>
										<name>Level</name>
										<parameterid>level</parameterid>
										<valuemin>0</valuemin>
										<valuemax>3.98109</valuemax>
										<value>1</value>
									</parameter>
								</effect>
							</filter>
							<filter>
								<effect>
									<name>Audio Pan</name>
									<effectid>audiopan</effectid>
									<effectcategory>audiopan</effectcategory>
									<effecttype>audiopan</effecttype>
									<mediatype>audio</mediatype>
									<parameter>
										<name>Pan</name>
										<parameterid>pan</parameterid>
										<valuemin>-1</valuemin>
										<valuemax>1</valuemax>
										<value>-1</value>
									</parameter>
								</effect>
							</filter>
							<sourcetrack>
								<mediatype>audio</mediatype>
								<trackindex>1</trackindex>
							</sourcetrack>
							<link>
								<linkclipref>The-one89</linkclipref>
								<mediatype>video</mediatype>
								<trackindex>1</trackindex>
								<clipindex>30</clipindex>
							</link>
							<link>
								<linkclipref>The-one90</linkclipref>
								<mediatype>audio</mediatype>
								<trackindex>1</trackindex>
								<clipindex>30</clipindex>
								<groupindex>1</groupindex>
							</link>
							<link>
								<linkclipref>The-one91</linkclipref>
								<mediatype>audio</mediatype>
								<trackindex>2</trackindex>
								<clipindex>30</clipindex>
								<groupindex>1</groupindex>
							</link>
							<itemhistory>
								<uuid>E834B604-C956-4044-93F9-30F44095A33C</uuid>
							</itemhistory>
						</clipitem>
						<clipitem id="The-one93">
							<name>The-one</name>
							<duration>5477</duration>
							<rate>
								<ntsc>FALSE</ntsc>
								<timebase>25</timebase>
							</rate>
							<in>2655</in>
							<out>2714</out>
							<start>1851</start>
							<end>1910</end>
							<subframeoffset>0</subframeoffset>
							<masterclipid>The-one1</masterclipid>
							<logginginfo>
								<scene/>
								<shottake/>
								<lognote/>
								<good>FALSE</good>
							</logginginfo>
							<labels>
								<label2/>
							</labels>
							<comments>
								<mastercomment1/>
								<mastercomment2/>
								<mastercomment3/>
								<mastercomment4/>
							</comments>
							<file id="The-one2"/>
							<filter>
								<effect>
									<name>Audio Levels</name>
									<effectid>audiolevels</effectid>
									<effectcategory>audiolevels</effectcategory>
									<effecttype>audiolevels</effecttype>
									<mediatype>audio</mediatype>
									<parameter>
										<name>Level</name>
										<parameterid>level</parameterid>
										<valuemin>0</valuemin>
										<valuemax>3.98109</valuemax>
										<value>1</value>
									</parameter>
								</effect>
							</filter>
							<filter>
								<effect>
									<name>Audio Pan</name>
									<effectid>audiopan</effectid>
									<effectcategory>audiopan</effectcategory>
									<effecttype>audiopan</effecttype>
									<mediatype>audio</mediatype>
									<parameter>
										<name>Pan</name>
										<parameterid>pan</parameterid>
										<valuemin>-1</valuemin>
										<valuemax>1</valuemax>
										<value>-1</value>
									</parameter>
								</effect>
							</filter>
							<sourcetrack>
								<mediatype>audio</mediatype>
								<trackindex>1</trackindex>
							</sourcetrack>
							<link>
								<linkclipref>The-one92</linkclipref>
								<mediatype>video</mediatype>
								<trackindex>1</trackindex>
								<clipindex>31</clipindex>
							</link>
							<link>
								<linkclipref>The-one93</linkclipref>
								<mediatype>audio</mediatype>
								<trackindex>1</trackindex>
								<clipindex>31</clipindex>
								<groupindex>1</groupindex>
							</link>
							<link>
								<linkclipref>The-one94</linkclipref>
								<mediatype>audio</mediatype>
								<trackindex>2</trackindex>
								<clipindex>31</clipindex>
								<groupindex>1</groupindex>
							</link>
							<itemhistory>
								<uuid>3A6E14E5-1EFB-4E1A-9097-DFFFA6039D70</uuid>
							</itemhistory>
						</clipitem>
						<clipitem id="The-one96">
							<name>The-one</name>
							<duration>5477</duration>
							<rate>
								<ntsc>FALSE</ntsc>
								<timebase>25</timebase>
							</rate>
							<in>2544</in>
							<out>2601</out>
							<start>1910</start>
							<end>1967</end>
							<subframeoffset>0</subframeoffset>
							<masterclipid>The-one1</masterclipid>
							<logginginfo>
								<scene/>
								<shottake/>
								<lognote/>
								<good>FALSE</good>
							</logginginfo>
							<labels>
								<label2/>
							</labels>
							<comments>
								<mastercomment1/>
								<mastercomment2/>
								<mastercomment3/>
								<mastercomment4/>
							</comments>
							<file id="The-one2"/>
							<filter>
								<effect>
									<name>Audio Levels</name>
									<effectid>audiolevels</effectid>
									<effectcategory>audiolevels</effectcategory>
									<effecttype>audiolevels</effecttype>
									<mediatype>audio</mediatype>
									<parameter>
										<name>Level</name>
										<parameterid>level</parameterid>
										<valuemin>0</valuemin>
										<valuemax>3.98109</valuemax>
										<value>1</value>
									</parameter>
								</effect>
							</filter>
							<filter>
								<effect>
									<name>Audio Pan</name>
									<effectid>audiopan</effectid>
									<effectcategory>audiopan</effectcategory>
									<effecttype>audiopan</effecttype>
									<mediatype>audio</mediatype>
									<parameter>
										<name>Pan</name>
										<parameterid>pan</parameterid>
										<valuemin>-1</valuemin>
										<valuemax>1</valuemax>
										<value>-1</value>
									</parameter>
								</effect>
							</filter>
							<sourcetrack>
								<mediatype>audio</mediatype>
								<trackindex>1</trackindex>
							</sourcetrack>
							<link>
								<linkclipref>The-one95</linkclipref>
								<mediatype>video</mediatype>
								<trackindex>1</trackindex>
								<clipindex>32</clipindex>
							</link>
							<link>
								<linkclipref>The-one96</linkclipref>
								<mediatype>audio</mediatype>
								<trackindex>1</trackindex>
								<clipindex>32</clipindex>
								<groupindex>1</groupindex>
							</link>
							<link>
								<linkclipref>The-one97</linkclipref>
								<mediatype>audio</mediatype>
								<trackindex>2</trackindex>
								<clipindex>32</clipindex>
								<groupindex>1</groupindex>
							</link>
							<itemhistory>
								<uuid>35669E12-5059-4AA1-A32D-5285696FA7FB</uuid>
							</itemhistory>
						</clipitem>
						<clipitem id="The-one99">
							<name>The-one</name>
							<duration>5477</duration>
							<rate>
								<ntsc>FALSE</ntsc>
								<timebase>25</timebase>
							</rate>
							<in>903</in>
							<out>961</out>
							<start>1967</start>
							<end>2025</end>
							<subframeoffset>0</subframeoffset>
							<masterclipid>The-one1</masterclipid>
							<logginginfo>
								<scene/>
								<shottake/>
								<lognote/>
								<good>FALSE</good>
							</logginginfo>
							<labels>
								<label2/>
							</labels>
							<comments>
								<mastercomment1/>
								<mastercomment2/>
								<mastercomment3/>
								<mastercomment4/>
							</comments>
							<file id="The-one2"/>
							<filter>
								<effect>
									<name>Audio Levels</name>
									<effectid>audiolevels</effectid>
									<effectcategory>audiolevels</effectcategory>
									<effecttype>audiolevels</effecttype>
									<mediatype>audio</mediatype>
									<parameter>
										<name>Level</name>
										<parameterid>level</parameterid>
										<valuemin>0</valuemin>
										<valuemax>3.98109</valuemax>
										<value>1</value>
									</parameter>
								</effect>
							</filter>
							<filter>
								<effect>
									<name>Audio Pan</name>
									<effectid>audiopan</effectid>
									<effectcategory>audiopan</effectcategory>
									<effecttype>audiopan</effecttype>
									<mediatype>audio</mediatype>
									<parameter>
										<name>Pan</name>
										<parameterid>pan</parameterid>
										<valuemin>-1</valuemin>
										<valuemax>1</valuemax>
										<value>-1</value>
									</parameter>
								</effect>
							</filter>
							<sourcetrack>
								<mediatype>audio</mediatype>
								<trackindex>1</trackindex>
							</sourcetrack>
							<link>
								<linkclipref>The-one98</linkclipref>
								<mediatype>video</mediatype>
								<trackindex>1</trackindex>
								<clipindex>33</clipindex>
							</link>
							<link>
								<linkclipref>The-one99</linkclipref>
								<mediatype>audio</mediatype>
								<trackindex>1</trackindex>
								<clipindex>33</clipindex>
								<groupindex>1</groupindex>
							</link>
							<link>
								<linkclipref>The-one100</linkclipref>
								<mediatype>audio</mediatype>
								<trackindex>2</trackindex>
								<clipindex>33</clipindex>
								<groupindex>1</groupindex>
							</link>
							<itemhistory>
								<uuid>46485685-F749-40C8-9EA3-60C269D2B54D</uuid>
							</itemhistory>
						</clipitem>
						<clipitem id="The-one102">
							<name>The-one</name>
							<duration>5477</duration>
							<rate>
								<ntsc>FALSE</ntsc>
								<timebase>25</timebase>
							</rate>
							<in>3111</in>
							<out>3169</out>
							<start>2025</start>
							<end>2083</end>
							<subframeoffset>0</subframeoffset>
							<masterclipid>The-one1</masterclipid>
							<logginginfo>
								<scene/>
								<shottake/>
								<lognote/>
								<good>FALSE</good>
							</logginginfo>
							<labels>
								<label2/>
							</labels>
							<comments>
								<mastercomment1/>
								<mastercomment2/>
								<mastercomment3/>
								<mastercomment4/>
							</comments>
							<file id="The-one2"/>
							<filter>
								<effect>
									<name>Audio Levels</name>
									<effectid>audiolevels</effectid>
									<effectcategory>audiolevels</effectcategory>
									<effecttype>audiolevels</effecttype>
									<mediatype>audio</mediatype>
									<parameter>
										<name>Level</name>
										<parameterid>level</parameterid>
										<valuemin>0</valuemin>
										<valuemax>3.98109</valuemax>
										<value>1</value>
									</parameter>
								</effect>
							</filter>
							<filter>
								<effect>
									<name>Audio Pan</name>
									<effectid>audiopan</effectid>
									<effectcategory>audiopan</effectcategory>
									<effecttype>audiopan</effecttype>
									<mediatype>audio</mediatype>
									<parameter>
										<name>Pan</name>
										<parameterid>pan</parameterid>
										<valuemin>-1</valuemin>
										<valuemax>1</valuemax>
										<value>-1</value>
									</parameter>
								</effect>
							</filter>
							<sourcetrack>
								<mediatype>audio</mediatype>
								<trackindex>1</trackindex>
							</sourcetrack>
							<link>
								<linkclipref>The-one101</linkclipref>
								<mediatype>video</mediatype>
								<trackindex>1</trackindex>
								<clipindex>34</clipindex>
							</link>
							<link>
								<linkclipref>The-one102</linkclipref>
								<mediatype>audio</mediatype>
								<trackindex>1</trackindex>
								<clipindex>34</clipindex>
								<groupindex>1</groupindex>
							</link>
							<link>
								<linkclipref>The-one103</linkclipref>
								<mediatype>audio</mediatype>
								<trackindex>2</trackindex>
								<clipindex>34</clipindex>
								<groupindex>1</groupindex>
							</link>
							<itemhistory>
								<uuid>606580EE-68EA-4FDC-9B1F-F0FAB03EB478</uuid>
							</itemhistory>
						</clipitem>
						<clipitem id="The-one105">
							<name>The-one</name>
							<duration>5477</duration>
							<rate>
								<ntsc>FALSE</ntsc>
								<timebase>25</timebase>
							</rate>
							<in>2995</in>
							<out>3055</out>
							<start>2083</start>
							<end>2143</end>
							<subframeoffset>0</subframeoffset>
							<enabled>TRUE</enabled>
							<masterclipid>The-one1</masterclipid>
							<logginginfo>
								<scene/>
								<shottake/>
								<lognote/>
								<good>FALSE</good>
							</logginginfo>
							<labels>
								<label2/>
							</labels>
							<comments>
								<mastercomment1/>
								<mastercomment2/>
								<mastercomment3/>
								<mastercomment4/>
							</comments>
							<file id="The-one2"/>
							<filter>
								<effect>
									<name>Audio Levels</name>
									<effectid>audiolevels</effectid>
									<effectcategory>audiolevels</effectcategory>
									<effecttype>audiolevels</effecttype>
									<mediatype>audio</mediatype>
									<parameter>
										<name>Level</name>
										<parameterid>level</parameterid>
										<valuemin>0</valuemin>
										<valuemax>3.98109</valuemax>
										<value>1</value>
									</parameter>
								</effect>
							</filter>
							<filter>
								<effect>
									<name>Audio Pan</name>
									<effectid>audiopan</effectid>
									<effectcategory>audiopan</effectcategory>
									<effecttype>audiopan</effecttype>
									<mediatype>audio</mediatype>
									<parameter>
										<name>Pan</name>
										<parameterid>pan</parameterid>
										<valuemin>-1</valuemin>
										<valuemax>1</valuemax>
										<value>-1</value>
									</parameter>
								</effect>
							</filter>
							<sourcetrack>
								<mediatype>audio</mediatype>
								<trackindex>1</trackindex>
							</sourcetrack>
							<link>
								<linkclipref>The-one104</linkclipref>
								<mediatype>video</mediatype>
								<trackindex>1</trackindex>
								<clipindex>35</clipindex>
							</link>
							<link>
								<linkclipref>The-one105</linkclipref>
								<mediatype>audio</mediatype>
								<trackindex>1</trackindex>
								<clipindex>35</clipindex>
								<groupindex>1</groupindex>
							</link>
							<link>
								<linkclipref>The-one106</linkclipref>
								<mediatype>audio</mediatype>
								<trackindex>2</trackindex>
								<clipindex>35</clipindex>
								<groupindex>1</groupindex>
							</link>
							<itemhistory>
								<uuid>E219C327-6D63-42F4-A585-FDA4896CFC95</uuid>
							</itemhistory>
						</clipitem>
						<clipitem id="The-one108">
							<name>The-one</name>
							<duration>5477</duration>
							<rate>
								<ntsc>FALSE</ntsc>
								<timebase>25</timebase>
							</rate>
							<in>4599</in>
							<out>4712</out>
							<start>2143</start>
							<end>2256</end>
							<subframeoffset>0</subframeoffset>
							<enabled>TRUE</enabled>
							<masterclipid>The-one1</masterclipid>
							<logginginfo>
								<scene/>
								<shottake/>
								<lognote/>
								<good>FALSE</good>
							</logginginfo>
							<labels>
								<label2/>
							</labels>
							<comments>
								<mastercomment1/>
								<mastercomment2/>
								<mastercomment3/>
								<mastercomment4/>
							</comments>
							<file id="The-one2"/>
							<filter>
								<effect>
									<name>Audio Levels</name>
									<effectid>audiolevels</effectid>
									<effectcategory>audiolevels</effectcategory>
									<effecttype>audiolevels</effecttype>
									<mediatype>audio</mediatype>
									<parameter>
										<name>Level</name>
										<parameterid>level</parameterid>
										<valuemin>0</valuemin>
										<valuemax>3.98109</valuemax>
										<value>1</value>
									</parameter>
								</effect>
							</filter>
							<filter>
								<effect>
									<name>Audio Pan</name>
									<effectid>audiopan</effectid>
									<effectcategory>audiopan</effectcategory>
									<effecttype>audiopan</effecttype>
									<mediatype>audio</mediatype>
									<parameter>
										<name>Pan</name>
										<parameterid>pan</parameterid>
										<valuemin>-1</valuemin>
										<valuemax>1</valuemax>
										<value>-1</value>
									</parameter>
								</effect>
							</filter>
							<sourcetrack>
								<mediatype>audio</mediatype>
								<trackindex>1</trackindex>
							</sourcetrack>
							<link>
								<linkclipref>The-one107</linkclipref>
								<mediatype>video</mediatype>
								<trackindex>1</trackindex>
								<clipindex>36</clipindex>
							</link>
							<link>
								<linkclipref>The-one108</linkclipref>
								<mediatype>audio</mediatype>
								<trackindex>1</trackindex>
								<clipindex>36</clipindex>
								<groupindex>1</groupindex>
							</link>
							<link>
								<linkclipref>The-one109</linkclipref>
								<mediatype>audio</mediatype>
								<trackindex>2</trackindex>
								<clipindex>36</clipindex>
								<groupindex>1</groupindex>
							</link>
							<itemhistory>
								<uuid>B9948FE7-6072-43B3-AF89-699817359C47</uuid>
							</itemhistory>
						</clipitem>
						<clipitem id="The-one111">
							<name>The-one</name>
							<duration>5477</duration>
							<rate>
								<ntsc>FALSE</ntsc>
								<timebase>25</timebase>
							</rate>
							<in>4017</in>
							<out>4074</out>
							<start>2256</start>
							<end>2313</end>
							<subframeoffset>0</subframeoffset>
							<masterclipid>The-one1</masterclipid>
							<logginginfo>
								<scene/>
								<shottake/>
								<lognote/>
								<good>FALSE</good>
							</logginginfo>
							<labels>
								<label2/>
							</labels>
							<comments>
								<mastercomment1/>
								<mastercomment2/>
								<mastercomment3/>
								<mastercomment4/>
							</comments>
							<file id="The-one2"/>
							<filter>
								<effect>
									<name>Audio Levels</name>
									<effectid>audiolevels</effectid>
									<effectcategory>audiolevels</effectcategory>
									<effecttype>audiolevels</effecttype>
									<mediatype>audio</mediatype>
									<parameter>
										<name>Level</name>
										<parameterid>level</parameterid>
										<valuemin>0</valuemin>
										<valuemax>3.98109</valuemax>
										<value>1</value>
									</parameter>
								</effect>
							</filter>
							<filter>
								<effect>
									<name>Audio Pan</name>
									<effectid>audiopan</effectid>
									<effectcategory>audiopan</effectcategory>
									<effecttype>audiopan</effecttype>
									<mediatype>audio</mediatype>
									<parameter>
										<name>Pan</name>
										<parameterid>pan</parameterid>
										<valuemin>-1</valuemin>
										<valuemax>1</valuemax>
										<value>-1</value>
									</parameter>
								</effect>
							</filter>
							<sourcetrack>
								<mediatype>audio</mediatype>
								<trackindex>1</trackindex>
							</sourcetrack>
							<link>
								<linkclipref>The-one110</linkclipref>
								<mediatype>video</mediatype>
								<trackindex>1</trackindex>
								<clipindex>37</clipindex>
							</link>
							<link>
								<linkclipref>The-one111</linkclipref>
								<mediatype>audio</mediatype>
								<trackindex>1</trackindex>
								<clipindex>37</clipindex>
								<groupindex>1</groupindex>
							</link>
							<link>
								<linkclipref>The-one112</linkclipref>
								<mediatype>audio</mediatype>
								<trackindex>2</trackindex>
								<clipindex>37</clipindex>
								<groupindex>1</groupindex>
							</link>
							<itemhistory>
								<uuid>6FF1A8ED-CE70-48AF-9E0B-182F5B29C51D</uuid>
							</itemhistory>
						</clipitem>
						<clipitem id="The-one114">
							<name>The-one</name>
							<duration>5477</duration>
							<rate>
								<ntsc>FALSE</ntsc>
								<timebase>25</timebase>
							</rate>
							<in>4125</in>
							<out>4189</out>
							<start>2313</start>
							<end>2377</end>
							<subframeoffset>0</subframeoffset>
							<masterclipid>The-one1</masterclipid>
							<logginginfo>
								<scene/>
								<shottake/>
								<lognote/>
								<good>FALSE</good>
							</logginginfo>
							<labels>
								<label2/>
							</labels>
							<comments>
								<mastercomment1/>
								<mastercomment2/>
								<mastercomment3/>
								<mastercomment4/>
							</comments>
							<file id="The-one2"/>
							<filter>
								<effect>
									<name>Audio Levels</name>
									<effectid>audiolevels</effectid>
									<effectcategory>audiolevels</effectcategory>
									<effecttype>audiolevels</effecttype>
									<mediatype>audio</mediatype>
									<parameter>
										<name>Level</name>
										<parameterid>level</parameterid>
										<valuemin>0</valuemin>
										<valuemax>3.98109</valuemax>
										<value>1</value>
									</parameter>
								</effect>
							</filter>
							<filter>
								<effect>
									<name>Audio Pan</name>
									<effectid>audiopan</effectid>
									<effectcategory>audiopan</effectcategory>
									<effecttype>audiopan</effecttype>
									<mediatype>audio</mediatype>
									<parameter>
										<name>Pan</name>
										<parameterid>pan</parameterid>
										<valuemin>-1</valuemin>
										<valuemax>1</valuemax>
										<value>-1</value>
									</parameter>
								</effect>
							</filter>
							<sourcetrack>
								<mediatype>audio</mediatype>
								<trackindex>1</trackindex>
							</sourcetrack>
							<link>
								<linkclipref>The-one113</linkclipref>
								<mediatype>video</mediatype>
								<trackindex>1</trackindex>
								<clipindex>38</clipindex>
							</link>
							<link>
								<linkclipref>The-one114</linkclipref>
								<mediatype>audio</mediatype>
								<trackindex>1</trackindex>
								<clipindex>38</clipindex>
								<groupindex>1</groupindex>
							</link>
							<link>
								<linkclipref>The-one115</linkclipref>
								<mediatype>audio</mediatype>
								<trackindex>2</trackindex>
								<clipindex>38</clipindex>
								<groupindex>1</groupindex>
							</link>
							<itemhistory>
								<uuid>C8C70D91-728E-4443-9406-83D8D30885A3</uuid>
							</itemhistory>
						</clipitem>
						<clipitem id="The-one117">
							<name>The-one</name>
							<duration>5477</duration>
							<rate>
								<ntsc>FALSE</ntsc>
								<timebase>25</timebase>
							</rate>
							<in>4909</in>
							<out>5031</out>
							<start>2377</start>
							<end>2499</end>
							<subframeoffset>0</subframeoffset>
							<masterclipid>The-one1</masterclipid>
							<logginginfo>
								<scene/>
								<shottake/>
								<lognote/>
								<good>FALSE</good>
							</logginginfo>
							<labels>
								<label2/>
							</labels>
							<comments>
								<mastercomment1/>
								<mastercomment2/>
								<mastercomment3/>
								<mastercomment4/>
							</comments>
							<file id="The-one2"/>
							<filter>
								<effect>
									<name>Audio Levels</name>
									<effectid>audiolevels</effectid>
									<effectcategory>audiolevels</effectcategory>
									<effecttype>audiolevels</effecttype>
									<mediatype>audio</mediatype>
									<parameter>
										<name>Level</name>
										<parameterid>level</parameterid>
										<valuemin>0</valuemin>
										<valuemax>3.98109</valuemax>
										<value>1</value>
									</parameter>
								</effect>
							</filter>
							<filter>
								<effect>
									<name>Audio Pan</name>
									<effectid>audiopan</effectid>
									<effectcategory>audiopan</effectcategory>
									<effecttype>audiopan</effecttype>
									<mediatype>audio</mediatype>
									<parameter>
										<name>Pan</name>
										<parameterid>pan</parameterid>
										<valuemin>-1</valuemin>
										<valuemax>1</valuemax>
										<value>-1</value>
									</parameter>
								</effect>
							</filter>
							<sourcetrack>
								<mediatype>audio</mediatype>
								<trackindex>1</trackindex>
							</sourcetrack>
							<link>
								<linkclipref>The-one116</linkclipref>
								<mediatype>video</mediatype>
								<trackindex>1</trackindex>
								<clipindex>39</clipindex>
							</link>
							<link>
								<linkclipref>The-one117</linkclipref>
								<mediatype>audio</mediatype>
								<trackindex>1</trackindex>
								<clipindex>39</clipindex>
								<groupindex>1</groupindex>
							</link>
							<link>
								<linkclipref>The-one118</linkclipref>
								<mediatype>audio</mediatype>
								<trackindex>2</trackindex>
								<clipindex>39</clipindex>
								<groupindex>1</groupindex>
							</link>
							<itemhistory>
								<uuid>507F2431-B709-4BC5-A55A-AB735D3B16A3</uuid>
							</itemhistory>
						</clipitem>
						<clipitem id="The-one120">
							<name>The-one</name>
							<duration>5477</duration>
							<rate>
								<ntsc>FALSE</ntsc>
								<timebase>25</timebase>
							</rate>
							<in>2092</in>
							<out>2163</out>
							<start>2499</start>
							<end>2570</end>
							<subframeoffset>0</subframeoffset>
							<masterclipid>The-one1</masterclipid>
							<logginginfo>
								<scene/>
								<shottake/>
								<lognote/>
								<good>FALSE</good>
							</logginginfo>
							<labels>
								<label2/>
							</labels>
							<comments>
								<mastercomment1/>
								<mastercomment2/>
								<mastercomment3/>
								<mastercomment4/>
							</comments>
							<file id="The-one2"/>
							<filter>
								<effect>
									<name>Audio Levels</name>
									<effectid>audiolevels</effectid>
									<effectcategory>audiolevels</effectcategory>
									<effecttype>audiolevels</effecttype>
									<mediatype>audio</mediatype>
									<parameter>
										<name>Level</name>
										<parameterid>level</parameterid>
										<valuemin>0</valuemin>
										<valuemax>3.98109</valuemax>
										<value>1</value>
									</parameter>
								</effect>
							</filter>
							<filter>
								<effect>
									<name>Audio Pan</name>
									<effectid>audiopan</effectid>
									<effectcategory>audiopan</effectcategory>
									<effecttype>audiopan</effecttype>
									<mediatype>audio</mediatype>
									<parameter>
										<name>Pan</name>
										<parameterid>pan</parameterid>
										<valuemin>-1</valuemin>
										<valuemax>1</valuemax>
										<value>-1</value>
									</parameter>
								</effect>
							</filter>
							<sourcetrack>
								<mediatype>audio</mediatype>
								<trackindex>1</trackindex>
							</sourcetrack>
							<link>
								<linkclipref>The-one119</linkclipref>
								<mediatype>video</mediatype>
								<trackindex>1</trackindex>
								<clipindex>40</clipindex>
							</link>
							<link>
								<linkclipref>The-one120</linkclipref>
								<mediatype>audio</mediatype>
								<trackindex>1</trackindex>
								<clipindex>40</clipindex>
								<groupindex>1</groupindex>
							</link>
							<link>
								<linkclipref>The-one121</linkclipref>
								<mediatype>audio</mediatype>
								<trackindex>2</trackindex>
								<clipindex>40</clipindex>
								<groupindex>1</groupindex>
							</link>
							<itemhistory>
								<uuid>6573249C-4D16-4A99-A340-A98EC0C20871</uuid>
							</itemhistory>
						</clipitem>
						<clipitem id="The-one123">
							<name>The-one</name>
							<duration>5477</duration>
							<rate>
								<ntsc>FALSE</ntsc>
								<timebase>25</timebase>
							</rate>
							<in>1812</in>
							<out>1869</out>
							<start>2570</start>
							<end>2627</end>
							<subframeoffset>0</subframeoffset>
							<masterclipid>The-one1</masterclipid>
							<logginginfo>
								<scene/>
								<shottake/>
								<lognote/>
								<good>FALSE</good>
							</logginginfo>
							<labels>
								<label2/>
							</labels>
							<comments>
								<mastercomment1/>
								<mastercomment2/>
								<mastercomment3/>
								<mastercomment4/>
							</comments>
							<file id="The-one2"/>
							<filter>
								<effect>
									<name>Audio Levels</name>
									<effectid>audiolevels</effectid>
									<effectcategory>audiolevels</effectcategory>
									<effecttype>audiolevels</effecttype>
									<mediatype>audio</mediatype>
									<parameter>
										<name>Level</name>
										<parameterid>level</parameterid>
										<valuemin>0</valuemin>
										<valuemax>3.98109</valuemax>
										<value>1</value>
									</parameter>
								</effect>
							</filter>
							<filter>
								<effect>
									<name>Audio Pan</name>
									<effectid>audiopan</effectid>
									<effectcategory>audiopan</effectcategory>
									<effecttype>audiopan</effecttype>
									<mediatype>audio</mediatype>
									<parameter>
										<name>Pan</name>
										<parameterid>pan</parameterid>
										<valuemin>-1</valuemin>
										<valuemax>1</valuemax>
										<value>-1</value>
									</parameter>
								</effect>
							</filter>
							<sourcetrack>
								<mediatype>audio</mediatype>
								<trackindex>1</trackindex>
							</sourcetrack>
							<link>
								<linkclipref>The-one122</linkclipref>
								<mediatype>video</mediatype>
								<trackindex>1</trackindex>
								<clipindex>41</clipindex>
							</link>
							<link>
								<linkclipref>The-one123</linkclipref>
								<mediatype>audio</mediatype>
								<trackindex>1</trackindex>
								<clipindex>41</clipindex>
								<groupindex>1</groupindex>
							</link>
							<link>
								<linkclipref>The-one124</linkclipref>
								<mediatype>audio</mediatype>
								<trackindex>2</trackindex>
								<clipindex>41</clipindex>
								<groupindex>1</groupindex>
							</link>
							<itemhistory>
								<uuid>EB6D8983-1E99-46CD-BF04-9DFB5DBA00D3</uuid>
							</itemhistory>
						</clipitem>
						<clipitem id="The-one126">
							<name>The-one</name>
							<duration>5477</duration>
							<rate>
								<ntsc>FALSE</ntsc>
								<timebase>25</timebase>
							</rate>
							<in>2163</in>
							<out>2225</out>
							<start>2627</start>
							<end>2689</end>
							<subframeoffset>0</subframeoffset>
							<masterclipid>The-one1</masterclipid>
							<logginginfo>
								<scene/>
								<shottake/>
								<lognote/>
								<good>FALSE</good>
							</logginginfo>
							<labels>
								<label2/>
							</labels>
							<comments>
								<mastercomment1/>
								<mastercomment2/>
								<mastercomment3/>
								<mastercomment4/>
							</comments>
							<file id="The-one2"/>
							<filter>
								<effect>
									<name>Audio Levels</name>
									<effectid>audiolevels</effectid>
									<effectcategory>audiolevels</effectcategory>
									<effecttype>audiolevels</effecttype>
									<mediatype>audio</mediatype>
									<parameter>
										<name>Level</name>
										<parameterid>level</parameterid>
										<valuemin>0</valuemin>
										<valuemax>3.98109</valuemax>
										<value>1</value>
									</parameter>
								</effect>
							</filter>
							<filter>
								<effect>
									<name>Audio Pan</name>
									<effectid>audiopan</effectid>
									<effectcategory>audiopan</effectcategory>
									<effecttype>audiopan</effecttype>
									<mediatype>audio</mediatype>
									<parameter>
										<name>Pan</name>
										<parameterid>pan</parameterid>
										<valuemin>-1</valuemin>
										<valuemax>1</valuemax>
										<value>-1</value>
									</parameter>
								</effect>
							</filter>
							<sourcetrack>
								<mediatype>audio</mediatype>
								<trackindex>1</trackindex>
							</sourcetrack>
							<link>
								<linkclipref>The-one125</linkclipref>
								<mediatype>video</mediatype>
								<trackindex>1</trackindex>
								<clipindex>42</clipindex>
							</link>
							<link>
								<linkclipref>The-one126</linkclipref>
								<mediatype>audio</mediatype>
								<trackindex>1</trackindex>
								<clipindex>42</clipindex>
								<groupindex>1</groupindex>
							</link>
							<link>
								<linkclipref>The-one127</linkclipref>
								<mediatype>audio</mediatype>
								<trackindex>2</trackindex>
								<clipindex>42</clipindex>
								<groupindex>1</groupindex>
							</link>
							<itemhistory>
								<uuid>6313B66A-D949-48F0-BDBE-5A0564C8FBE8</uuid>
							</itemhistory>
						</clipitem>
						<clipitem id="The-one129">
							<name>The-one</name>
							<duration>5477</duration>
							<rate>
								<ntsc>FALSE</ntsc>
								<timebase>25</timebase>
							</rate>
							<in>2771</in>
							<out>2827</out>
							<start>2689</start>
							<end>2745</end>
							<subframeoffset>0</subframeoffset>
							<enabled>TRUE</enabled>
							<masterclipid>The-one1</masterclipid>
							<logginginfo>
								<scene/>
								<shottake/>
								<lognote/>
								<good>FALSE</good>
							</logginginfo>
							<labels>
								<label2/>
							</labels>
							<comments>
								<mastercomment1/>
								<mastercomment2/>
								<mastercomment3/>
								<mastercomment4/>
							</comments>
							<file id="The-one2"/>
							<filter>
								<effect>
									<name>Audio Levels</name>
									<effectid>audiolevels</effectid>
									<effectcategory>audiolevels</effectcategory>
									<effecttype>audiolevels</effecttype>
									<mediatype>audio</mediatype>
									<parameter>
										<name>Level</name>
										<parameterid>level</parameterid>
										<valuemin>0</valuemin>
										<valuemax>3.98109</valuemax>
										<value>1</value>
									</parameter>
								</effect>
							</filter>
							<filter>
								<effect>
									<name>Audio Pan</name>
									<effectid>audiopan</effectid>
									<effectcategory>audiopan</effectcategory>
									<effecttype>audiopan</effecttype>
									<mediatype>audio</mediatype>
									<parameter>
										<name>Pan</name>
										<parameterid>pan</parameterid>
										<valuemin>-1</valuemin>
										<valuemax>1</valuemax>
										<value>-1</value>
									</parameter>
								</effect>
							</filter>
							<sourcetrack>
								<mediatype>audio</mediatype>
								<trackindex>1</trackindex>
							</sourcetrack>
							<link>
								<linkclipref>The-one128</linkclipref>
								<mediatype>video</mediatype>
								<trackindex>1</trackindex>
								<clipindex>43</clipindex>
							</link>
							<link>
								<linkclipref>The-one129</linkclipref>
								<mediatype>audio</mediatype>
								<trackindex>1</trackindex>
								<clipindex>43</clipindex>
								<groupindex>1</groupindex>
							</link>
							<link>
								<linkclipref>The-one130</linkclipref>
								<mediatype>audio</mediatype>
								<trackindex>2</trackindex>
								<clipindex>43</clipindex>
								<groupindex>1</groupindex>
							</link>
							<itemhistory>
								<uuid>1ECE7822-8498-422A-B3D5-494F71D722D3</uuid>
							</itemhistory>
						</clipitem>
						<clipitem id="The-one132">
							<name>The-one</name>
							<duration>5477</duration>
							<rate>
								<ntsc>FALSE</ntsc>
								<timebase>25</timebase>
							</rate>
							<in>2995</in>
							<out>3055</out>
							<start>2745</start>
							<end>2805</end>
							<subframeoffset>0</subframeoffset>
							<enabled>TRUE</enabled>
							<masterclipid>The-one1</masterclipid>
							<logginginfo>
								<scene/>
								<shottake/>
								<lognote/>
								<good>FALSE</good>
							</logginginfo>
							<labels>
								<label2/>
							</labels>
							<comments>
								<mastercomment1/>
								<mastercomment2/>
								<mastercomment3/>
								<mastercomment4/>
							</comments>
							<file id="The-one2"/>
							<filter>
								<effect>
									<name>Audio Levels</name>
									<effectid>audiolevels</effectid>
									<effectcategory>audiolevels</effectcategory>
									<effecttype>audiolevels</effecttype>
									<mediatype>audio</mediatype>
									<parameter>
										<name>Level</name>
										<parameterid>level</parameterid>
										<valuemin>0</valuemin>
										<valuemax>3.98109</valuemax>
										<value>1</value>
									</parameter>
								</effect>
							</filter>
							<filter>
								<effect>
									<name>Audio Pan</name>
									<effectid>audiopan</effectid>
									<effectcategory>audiopan</effectcategory>
									<effecttype>audiopan</effecttype>
									<mediatype>audio</mediatype>
									<parameter>
										<name>Pan</name>
										<parameterid>pan</parameterid>
										<valuemin>-1</valuemin>
										<valuemax>1</valuemax>
										<value>-1</value>
									</parameter>
								</effect>
							</filter>
							<sourcetrack>
								<mediatype>audio</mediatype>
								<trackindex>1</trackindex>
							</sourcetrack>
							<link>
								<linkclipref>The-one131</linkclipref>
								<mediatype>video</mediatype>
								<trackindex>1</trackindex>
								<clipindex>44</clipindex>
							</link>
							<link>
								<linkclipref>The-one132</linkclipref>
								<mediatype>audio</mediatype>
								<trackindex>1</trackindex>
								<clipindex>44</clipindex>
								<groupindex>1</groupindex>
							</link>
							<link>
								<linkclipref>The-one133</linkclipref>
								<mediatype>audio</mediatype>
								<trackindex>2</trackindex>
								<clipindex>44</clipindex>
								<groupindex>1</groupindex>
							</link>
							<itemhistory>
								<uuid>8240AEB9-48DF-44D5-A9A9-D0E6A97CB30C</uuid>
							</itemhistory>
						</clipitem>
						<clipitem id="The-one135">
							<name>The-one</name>
							<duration>5477</duration>
							<rate>
								<ntsc>FALSE</ntsc>
								<timebase>25</timebase>
							</rate>
							<in>5090</in>
							<out>5206</out>
							<start>2805</start>
							<end>2921</end>
							<subframeoffset>0</subframeoffset>
							<masterclipid>The-one1</masterclipid>
							<logginginfo>
								<scene/>
								<shottake/>
								<lognote/>
								<good>FALSE</good>
							</logginginfo>
							<labels>
								<label2/>
							</labels>
							<comments>
								<mastercomment1/>
								<mastercomment2/>
								<mastercomment3/>
								<mastercomment4/>
							</comments>
							<file id="The-one2"/>
							<filter>
								<effect>
									<name>Audio Levels</name>
									<effectid>audiolevels</effectid>
									<effectcategory>audiolevels</effectcategory>
									<effecttype>audiolevels</effecttype>
									<mediatype>audio</mediatype>
									<parameter>
										<name>Level</name>
										<parameterid>level</parameterid>
										<valuemin>0</valuemin>
										<valuemax>3.98109</valuemax>
										<value>1</value>
									</parameter>
								</effect>
							</filter>
							<filter>
								<effect>
									<name>Audio Pan</name>
									<effectid>audiopan</effectid>
									<effectcategory>audiopan</effectcategory>
									<effecttype>audiopan</effecttype>
									<mediatype>audio</mediatype>
									<parameter>
										<name>Pan</name>
										<parameterid>pan</parameterid>
										<valuemin>-1</valuemin>
										<valuemax>1</valuemax>
										<value>-1</value>
									</parameter>
								</effect>
							</filter>
							<sourcetrack>
								<mediatype>audio</mediatype>
								<trackindex>1</trackindex>
							</sourcetrack>
							<link>
								<linkclipref>The-one134</linkclipref>
								<mediatype>video</mediatype>
								<trackindex>1</trackindex>
								<clipindex>45</clipindex>
							</link>
							<link>
								<linkclipref>The-one135</linkclipref>
								<mediatype>audio</mediatype>
								<trackindex>1</trackindex>
								<clipindex>45</clipindex>
								<groupindex>1</groupindex>
							</link>
							<link>
								<linkclipref>The-one136</linkclipref>
								<mediatype>audio</mediatype>
								<trackindex>2</trackindex>
								<clipindex>45</clipindex>
								<groupindex>1</groupindex>
							</link>
							<itemhistory>
								<uuid>E5AE9537-5791-4932-8AA8-31C7DE777D74</uuid>
							</itemhistory>
						</clipitem>
						<enabled>TRUE</enabled>
						<locked>FALSE</locked>
						<outputchannelindex>1</outputchannelindex>
					</track>
					<track>
						<clipitem id="The-one4">
							<name>The-one</name>
							<duration>5477</duration>
							<rate>
								<ntsc>FALSE</ntsc>
								<timebase>25</timebase>
							</rate>
							<in>223</in>
							<out>277</out>
							<start>0</start>
							<end>54</end>
							<subframeoffset>0</subframeoffset>
							<masterclipid>The-one1</masterclipid>
							<logginginfo>
								<scene/>
								<shottake/>
								<lognote/>
								<good>FALSE</good>
							</logginginfo>
							<labels>
								<label2/>
							</labels>
							<comments>
								<mastercomment1/>
								<mastercomment2/>
								<mastercomment3/>
								<mastercomment4/>
							</comments>
							<file id="The-one2"/>
							<filter>
								<effect>
									<name>Audio Levels</name>
									<effectid>audiolevels</effectid>
									<effectcategory>audiolevels</effectcategory>
									<effecttype>audiolevels</effecttype>
									<mediatype>audio</mediatype>
									<parameter>
										<name>Level</name>
										<parameterid>level</parameterid>
										<valuemin>0</valuemin>
										<valuemax>3.98109</valuemax>
										<value>1</value>
									</parameter>
								</effect>
							</filter>
							<filter>
								<effect>
									<name>Audio Pan</name>
									<effectid>audiopan</effectid>
									<effectcategory>audiopan</effectcategory>
									<effecttype>audiopan</effecttype>
									<mediatype>audio</mediatype>
									<parameter>
										<name>Pan</name>
										<parameterid>pan</parameterid>
										<valuemin>-1</valuemin>
										<valuemax>1</valuemax>
										<value>1</value>
									</parameter>
								</effect>
							</filter>
							<sourcetrack>
								<mediatype>audio</mediatype>
								<trackindex>2</trackindex>
							</sourcetrack>
							<link>
								<linkclipref>The-one</linkclipref>
								<mediatype>video</mediatype>
								<trackindex>1</trackindex>
								<clipindex>1</clipindex>
							</link>
							<link>
								<linkclipref>The-one3</linkclipref>
								<mediatype>audio</mediatype>
								<trackindex>1</trackindex>
								<clipindex>1</clipindex>
								<groupindex>1</groupindex>
							</link>
							<link>
								<linkclipref>The-one4</linkclipref>
								<mediatype>audio</mediatype>
								<trackindex>2</trackindex>
								<clipindex>1</clipindex>
								<groupindex>1</groupindex>
							</link>
							<itemhistory>
								<uuid>E6FEE3AD-E84E-4634-BBFF-BB972F929413</uuid>
							</itemhistory>
						</clipitem>
						<clipitem id="The-one7">
							<name>The-one</name>
							<duration>5477</duration>
							<rate>
								<ntsc>FALSE</ntsc>
								<timebase>25</timebase>
							</rate>
							<in>335</in>
							<out>399</out>
							<start>54</start>
							<end>118</end>
							<subframeoffset>0</subframeoffset>
							<masterclipid>The-one1</masterclipid>
							<logginginfo>
								<scene/>
								<shottake/>
								<lognote/>
								<good>FALSE</good>
							</logginginfo>
							<labels>
								<label2/>
							</labels>
							<comments>
								<mastercomment1/>
								<mastercomment2/>
								<mastercomment3/>
								<mastercomment4/>
							</comments>
							<file id="The-one2"/>
							<filter>
								<effect>
									<name>Audio Levels</name>
									<effectid>audiolevels</effectid>
									<effectcategory>audiolevels</effectcategory>
									<effecttype>audiolevels</effecttype>
									<mediatype>audio</mediatype>
									<parameter>
										<name>Level</name>
										<parameterid>level</parameterid>
										<valuemin>0</valuemin>
										<valuemax>3.98109</valuemax>
										<value>1</value>
									</parameter>
								</effect>
							</filter>
							<filter>
								<effect>
									<name>Audio Pan</name>
									<effectid>audiopan</effectid>
									<effectcategory>audiopan</effectcategory>
									<effecttype>audiopan</effecttype>
									<mediatype>audio</mediatype>
									<parameter>
										<name>Pan</name>
										<parameterid>pan</parameterid>
										<valuemin>-1</valuemin>
										<valuemax>1</valuemax>
										<value>1</value>
									</parameter>
								</effect>
							</filter>
							<sourcetrack>
								<mediatype>audio</mediatype>
								<trackindex>2</trackindex>
							</sourcetrack>
							<link>
								<linkclipref>The-one5</linkclipref>
								<mediatype>video</mediatype>
								<trackindex>1</trackindex>
								<clipindex>2</clipindex>
							</link>
							<link>
								<linkclipref>The-one6</linkclipref>
								<mediatype>audio</mediatype>
								<trackindex>1</trackindex>
								<clipindex>2</clipindex>
								<groupindex>1</groupindex>
							</link>
							<link>
								<linkclipref>The-one7</linkclipref>
								<mediatype>audio</mediatype>
								<trackindex>2</trackindex>
								<clipindex>2</clipindex>
								<groupindex>1</groupindex>
							</link>
							<itemhistory>
								<uuid>549AD2F5-A978-4ECA-A99E-FE2F232CEDC6</uuid>
							</itemhistory>
						</clipitem>
						<clipitem id="The-one10">
							<name>The-one</name>
							<duration>5477</duration>
							<rate>
								<ntsc>FALSE</ntsc>
								<timebase>25</timebase>
							</rate>
							<in>450</in>
							<out>509</out>
							<start>118</start>
							<end>177</end>
							<subframeoffset>0</subframeoffset>
							<masterclipid>The-one1</masterclipid>
							<logginginfo>
								<scene/>
								<shottake/>
								<lognote/>
								<good>FALSE</good>
							</logginginfo>
							<labels>
								<label2/>
							</labels>
							<comments>
								<mastercomment1/>
								<mastercomment2/>
								<mastercomment3/>
								<mastercomment4/>
							</comments>
							<file id="The-one2"/>
							<filter>
								<effect>
									<name>Audio Levels</name>
									<effectid>audiolevels</effectid>
									<effectcategory>audiolevels</effectcategory>
									<effecttype>audiolevels</effecttype>
									<mediatype>audio</mediatype>
									<parameter>
										<name>Level</name>
										<parameterid>level</parameterid>
										<valuemin>0</valuemin>
										<valuemax>3.98109</valuemax>
										<value>1</value>
									</parameter>
								</effect>
							</filter>
							<filter>
								<effect>
									<name>Audio Pan</name>
									<effectid>audiopan</effectid>
									<effectcategory>audiopan</effectcategory>
									<effecttype>audiopan</effecttype>
									<mediatype>audio</mediatype>
									<parameter>
										<name>Pan</name>
										<parameterid>pan</parameterid>
										<valuemin>-1</valuemin>
										<valuemax>1</valuemax>
										<value>1</value>
									</parameter>
								</effect>
							</filter>
							<sourcetrack>
								<mediatype>audio</mediatype>
								<trackindex>2</trackindex>
							</sourcetrack>
							<link>
								<linkclipref>The-one8</linkclipref>
								<mediatype>video</mediatype>
								<trackindex>1</trackindex>
								<clipindex>3</clipindex>
							</link>
							<link>
								<linkclipref>The-one9</linkclipref>
								<mediatype>audio</mediatype>
								<trackindex>1</trackindex>
								<clipindex>3</clipindex>
								<groupindex>1</groupindex>
							</link>
							<link>
								<linkclipref>The-one10</linkclipref>
								<mediatype>audio</mediatype>
								<trackindex>2</trackindex>
								<clipindex>3</clipindex>
								<groupindex>1</groupindex>
							</link>
							<itemhistory>
								<uuid>14947DCC-A7F3-4348-8992-EF0C084FDFD4</uuid>
							</itemhistory>
						</clipitem>
						<clipitem id="The-one13">
							<name>The-one</name>
							<duration>5477</duration>
							<rate>
								<ntsc>FALSE</ntsc>
								<timebase>25</timebase>
							</rate>
							<in>563</in>
							<out>614</out>
							<start>177</start>
							<end>228</end>
							<subframeoffset>0</subframeoffset>
							<masterclipid>The-one1</masterclipid>
							<logginginfo>
								<scene/>
								<shottake/>
								<lognote/>
								<good>FALSE</good>
							</logginginfo>
							<labels>
								<label2/>
							</labels>
							<comments>
								<mastercomment1/>
								<mastercomment2/>
								<mastercomment3/>
								<mastercomment4/>
							</comments>
							<file id="The-one2"/>
							<filter>
								<effect>
									<name>Audio Levels</name>
									<effectid>audiolevels</effectid>
									<effectcategory>audiolevels</effectcategory>
									<effecttype>audiolevels</effecttype>
									<mediatype>audio</mediatype>
									<parameter>
										<name>Level</name>
										<parameterid>level</parameterid>
										<valuemin>0</valuemin>
										<valuemax>3.98109</valuemax>
										<value>1</value>
									</parameter>
								</effect>
							</filter>
							<filter>
								<effect>
									<name>Audio Pan</name>
									<effectid>audiopan</effectid>
									<effectcategory>audiopan</effectcategory>
									<effecttype>audiopan</effecttype>
									<mediatype>audio</mediatype>
									<parameter>
										<name>Pan</name>
										<parameterid>pan</parameterid>
										<valuemin>-1</valuemin>
										<valuemax>1</valuemax>
										<value>1</value>
									</parameter>
								</effect>
							</filter>
							<sourcetrack>
								<mediatype>audio</mediatype>
								<trackindex>2</trackindex>
							</sourcetrack>
							<link>
								<linkclipref>The-one11</linkclipref>
								<mediatype>video</mediatype>
								<trackindex>1</trackindex>
								<clipindex>4</clipindex>
							</link>
							<link>
								<linkclipref>The-one12</linkclipref>
								<mediatype>audio</mediatype>
								<trackindex>1</trackindex>
								<clipindex>4</clipindex>
								<groupindex>1</groupindex>
							</link>
							<link>
								<linkclipref>The-one13</linkclipref>
								<mediatype>audio</mediatype>
								<trackindex>2</trackindex>
								<clipindex>4</clipindex>
								<groupindex>1</groupindex>
							</link>
							<itemhistory>
								<uuid>4BC9782D-292C-4160-93C2-347F43BDFC34</uuid>
							</itemhistory>
						</clipitem>
						<clipitem id="The-one16">
							<name>The-one</name>
							<duration>5477</duration>
							<rate>
								<ntsc>FALSE</ntsc>
								<timebase>25</timebase>
							</rate>
							<in>715</in>
							<out>749</out>
							<start>228</start>
							<end>262</end>
							<subframeoffset>0</subframeoffset>
							<masterclipid>The-one1</masterclipid>
							<logginginfo>
								<scene/>
								<shottake/>
								<lognote/>
								<good>FALSE</good>
							</logginginfo>
							<labels>
								<label2/>
							</labels>
							<comments>
								<mastercomment1/>
								<mastercomment2/>
								<mastercomment3/>
								<mastercomment4/>
							</comments>
							<file id="The-one2"/>
							<filter>
								<effect>
									<name>Audio Levels</name>
									<effectid>audiolevels</effectid>
									<effectcategory>audiolevels</effectcategory>
									<effecttype>audiolevels</effecttype>
									<mediatype>audio</mediatype>
									<parameter>
										<name>Level</name>
										<parameterid>level</parameterid>
										<valuemin>0</valuemin>
										<valuemax>3.98109</valuemax>
										<value>1</value>
									</parameter>
								</effect>
							</filter>
							<filter>
								<effect>
									<name>Audio Pan</name>
									<effectid>audiopan</effectid>
									<effectcategory>audiopan</effectcategory>
									<effecttype>audiopan</effecttype>
									<mediatype>audio</mediatype>
									<parameter>
										<name>Pan</name>
										<parameterid>pan</parameterid>
										<valuemin>-1</valuemin>
										<valuemax>1</valuemax>
										<value>1</value>
									</parameter>
								</effect>
							</filter>
							<sourcetrack>
								<mediatype>audio</mediatype>
								<trackindex>2</trackindex>
							</sourcetrack>
							<link>
								<linkclipref>The-one14</linkclipref>
								<mediatype>video</mediatype>
								<trackindex>1</trackindex>
								<clipindex>5</clipindex>
							</link>
							<link>
								<linkclipref>The-one15</linkclipref>
								<mediatype>audio</mediatype>
								<trackindex>1</trackindex>
								<clipindex>5</clipindex>
								<groupindex>1</groupindex>
							</link>
							<link>
								<linkclipref>The-one16</linkclipref>
								<mediatype>audio</mediatype>
								<trackindex>2</trackindex>
								<clipindex>5</clipindex>
								<groupindex>1</groupindex>
							</link>
							<itemhistory>
								<uuid>67C405B0-E98B-450F-9EA3-4D9B6E6AFB39</uuid>
							</itemhistory>
						</clipitem>
						<clipitem id="The-one19">
							<name>The-one</name>
							<duration>5477</duration>
							<rate>
								<ntsc>FALSE</ntsc>
								<timebase>25</timebase>
							</rate>
							<in>1131</in>
							<out>1197</out>
							<start>262</start>
							<end>328</end>
							<subframeoffset>0</subframeoffset>
							<masterclipid>The-one1</masterclipid>
							<logginginfo>
								<scene/>
								<shottake/>
								<lognote/>
								<good>FALSE</good>
							</logginginfo>
							<labels>
								<label2/>
							</labels>
							<comments>
								<mastercomment1/>
								<mastercomment2/>
								<mastercomment3/>
								<mastercomment4/>
							</comments>
							<file id="The-one2"/>
							<filter>
								<effect>
									<name>Audio Levels</name>
									<effectid>audiolevels</effectid>
									<effectcategory>audiolevels</effectcategory>
									<effecttype>audiolevels</effecttype>
									<mediatype>audio</mediatype>
									<parameter>
										<name>Level</name>
										<parameterid>level</parameterid>
										<valuemin>0</valuemin>
										<valuemax>3.98109</valuemax>
										<value>1</value>
									</parameter>
								</effect>
							</filter>
							<filter>
								<effect>
									<name>Audio Pan</name>
									<effectid>audiopan</effectid>
									<effectcategory>audiopan</effectcategory>
									<effecttype>audiopan</effecttype>
									<mediatype>audio</mediatype>
									<parameter>
										<name>Pan</name>
										<parameterid>pan</parameterid>
										<valuemin>-1</valuemin>
										<valuemax>1</valuemax>
										<value>1</value>
									</parameter>
								</effect>
							</filter>
							<sourcetrack>
								<mediatype>audio</mediatype>
								<trackindex>2</trackindex>
							</sourcetrack>
							<link>
								<linkclipref>The-one17</linkclipref>
								<mediatype>video</mediatype>
								<trackindex>1</trackindex>
								<clipindex>6</clipindex>
							</link>
							<link>
								<linkclipref>The-one18</linkclipref>
								<mediatype>audio</mediatype>
								<trackindex>1</trackindex>
								<clipindex>6</clipindex>
								<groupindex>1</groupindex>
							</link>
							<link>
								<linkclipref>The-one19</linkclipref>
								<mediatype>audio</mediatype>
								<trackindex>2</trackindex>
								<clipindex>6</clipindex>
								<groupindex>1</groupindex>
							</link>
							<itemhistory>
								<uuid>A8BDF2BC-0094-4547-A57F-70C61C7F4DEF</uuid>
							</itemhistory>
						</clipitem>
						<clipitem id="The-one22">
							<name>The-one</name>
							<duration>5477</duration>
							<rate>
								<ntsc>FALSE</ntsc>
								<timebase>25</timebase>
							</rate>
							<in>1359</in>
							<out>1414</out>
							<start>328</start>
							<end>383</end>
							<subframeoffset>0</subframeoffset>
							<masterclipid>The-one1</masterclipid>
							<logginginfo>
								<scene/>
								<shottake/>
								<lognote/>
								<good>FALSE</good>
							</logginginfo>
							<labels>
								<label2/>
							</labels>
							<comments>
								<mastercomment1/>
								<mastercomment2/>
								<mastercomment3/>
								<mastercomment4/>
							</comments>
							<file id="The-one2"/>
							<filter>
								<effect>
									<name>Audio Levels</name>
									<effectid>audiolevels</effectid>
									<effectcategory>audiolevels</effectcategory>
									<effecttype>audiolevels</effecttype>
									<mediatype>audio</mediatype>
									<parameter>
										<name>Level</name>
										<parameterid>level</parameterid>
										<valuemin>0</valuemin>
										<valuemax>3.98109</valuemax>
										<value>1</value>
									</parameter>
								</effect>
							</filter>
							<filter>
								<effect>
									<name>Audio Pan</name>
									<effectid>audiopan</effectid>
									<effectcategory>audiopan</effectcategory>
									<effecttype>audiopan</effecttype>
									<mediatype>audio</mediatype>
									<parameter>
										<name>Pan</name>
										<parameterid>pan</parameterid>
										<valuemin>-1</valuemin>
										<valuemax>1</valuemax>
										<value>1</value>
									</parameter>
								</effect>
							</filter>
							<sourcetrack>
								<mediatype>audio</mediatype>
								<trackindex>2</trackindex>
							</sourcetrack>
							<link>
								<linkclipref>The-one20</linkclipref>
								<mediatype>video</mediatype>
								<trackindex>1</trackindex>
								<clipindex>7</clipindex>
							</link>
							<link>
								<linkclipref>The-one21</linkclipref>
								<mediatype>audio</mediatype>
								<trackindex>1</trackindex>
								<clipindex>7</clipindex>
								<groupindex>1</groupindex>
							</link>
							<link>
								<linkclipref>The-one22</linkclipref>
								<mediatype>audio</mediatype>
								<trackindex>2</trackindex>
								<clipindex>7</clipindex>
								<groupindex>1</groupindex>
							</link>
							<itemhistory>
								<uuid>C8BC2F4A-CB9A-4B47-ACB5-250DC0C8ADDD</uuid>
							</itemhistory>
						</clipitem>
						<clipitem id="The-one25">
							<name>The-one</name>
							<duration>5477</duration>
							<rate>
								<ntsc>FALSE</ntsc>
								<timebase>25</timebase>
							</rate>
							<in>2435</in>
							<out>2492</out>
							<start>383</start>
							<end>440</end>
							<subframeoffset>0</subframeoffset>
							<masterclipid>The-one1</masterclipid>
							<logginginfo>
								<scene/>
								<shottake/>
								<lognote/>
								<good>FALSE</good>
							</logginginfo>
							<labels>
								<label2/>
							</labels>
							<comments>
								<mastercomment1/>
								<mastercomment2/>
								<mastercomment3/>
								<mastercomment4/>
							</comments>
							<file id="The-one2"/>
							<filter>
								<effect>
									<name>Audio Levels</name>
									<effectid>audiolevels</effectid>
									<effectcategory>audiolevels</effectcategory>
									<effecttype>audiolevels</effecttype>
									<mediatype>audio</mediatype>
									<parameter>
										<name>Level</name>
										<parameterid>level</parameterid>
										<valuemin>0</valuemin>
										<valuemax>3.98109</valuemax>
										<value>1</value>
									</parameter>
								</effect>
							</filter>
							<filter>
								<effect>
									<name>Audio Pan</name>
									<effectid>audiopan</effectid>
									<effectcategory>audiopan</effectcategory>
									<effecttype>audiopan</effecttype>
									<mediatype>audio</mediatype>
									<parameter>
										<name>Pan</name>
										<parameterid>pan</parameterid>
										<valuemin>-1</valuemin>
										<valuemax>1</valuemax>
										<value>1</value>
									</parameter>
								</effect>
							</filter>
							<sourcetrack>
								<mediatype>audio</mediatype>
								<trackindex>2</trackindex>
							</sourcetrack>
							<link>
								<linkclipref>The-one23</linkclipref>
								<mediatype>video</mediatype>
								<trackindex>1</trackindex>
								<clipindex>8</clipindex>
							</link>
							<link>
								<linkclipref>The-one24</linkclipref>
								<mediatype>audio</mediatype>
								<trackindex>1</trackindex>
								<clipindex>8</clipindex>
								<groupindex>1</groupindex>
							</link>
							<link>
								<linkclipref>The-one25</linkclipref>
								<mediatype>audio</mediatype>
								<trackindex>2</trackindex>
								<clipindex>8</clipindex>
								<groupindex>1</groupindex>
							</link>
							<itemhistory>
								<uuid>F721D85E-EF59-4CBF-BA93-EE897D95CF05</uuid>
							</itemhistory>
						</clipitem>
						<clipitem id="The-one28">
							<name>The-one</name>
							<duration>5477</duration>
							<rate>
								<ntsc>FALSE</ntsc>
								<timebase>25</timebase>
							</rate>
							<in>1469</in>
							<out>1530</out>
							<start>440</start>
							<end>501</end>
							<subframeoffset>0</subframeoffset>
							<masterclipid>The-one1</masterclipid>
							<logginginfo>
								<scene/>
								<shottake/>
								<lognote/>
								<good>FALSE</good>
							</logginginfo>
							<labels>
								<label2/>
							</labels>
							<comments>
								<mastercomment1/>
								<mastercomment2/>
								<mastercomment3/>
								<mastercomment4/>
							</comments>
							<file id="The-one2"/>
							<filter>
								<effect>
									<name>Audio Levels</name>
									<effectid>audiolevels</effectid>
									<effectcategory>audiolevels</effectcategory>
									<effecttype>audiolevels</effecttype>
									<mediatype>audio</mediatype>
									<parameter>
										<name>Level</name>
										<parameterid>level</parameterid>
										<valuemin>0</valuemin>
										<valuemax>3.98109</valuemax>
										<value>1</value>
									</parameter>
								</effect>
							</filter>
							<filter>
								<effect>
									<name>Audio Pan</name>
									<effectid>audiopan</effectid>
									<effectcategory>audiopan</effectcategory>
									<effecttype>audiopan</effecttype>
									<mediatype>audio</mediatype>
									<parameter>
										<name>Pan</name>
										<parameterid>pan</parameterid>
										<valuemin>-1</valuemin>
										<valuemax>1</valuemax>
										<value>1</value>
									</parameter>
								</effect>
							</filter>
							<sourcetrack>
								<mediatype>audio</mediatype>
								<trackindex>2</trackindex>
							</sourcetrack>
							<link>
								<linkclipref>The-one26</linkclipref>
								<mediatype>video</mediatype>
								<trackindex>1</trackindex>
								<clipindex>9</clipindex>
							</link>
							<link>
								<linkclipref>The-one27</linkclipref>
								<mediatype>audio</mediatype>
								<trackindex>1</trackindex>
								<clipindex>9</clipindex>
								<groupindex>1</groupindex>
							</link>
							<link>
								<linkclipref>The-one28</linkclipref>
								<mediatype>audio</mediatype>
								<trackindex>2</trackindex>
								<clipindex>9</clipindex>
								<groupindex>1</groupindex>
							</link>
							<itemhistory>
								<uuid>9CAD971D-6BA3-4D77-9138-BC55C2E0146D</uuid>
							</itemhistory>
						</clipitem>
						<clipitem id="The-one31">
							<name>The-one</name>
							<duration>5477</duration>
							<rate>
								<ntsc>FALSE</ntsc>
								<timebase>25</timebase>
							</rate>
							<in>2886</in>
							<out>2945</out>
							<start>501</start>
							<end>560</end>
							<subframeoffset>0</subframeoffset>
							<enabled>TRUE</enabled>
							<masterclipid>The-one1</masterclipid>
							<logginginfo>
								<scene/>
								<shottake/>
								<lognote/>
								<good>FALSE</good>
							</logginginfo>
							<labels>
								<label2/>
							</labels>
							<comments>
								<mastercomment1/>
								<mastercomment2/>
								<mastercomment3/>
								<mastercomment4/>
							</comments>
							<file id="The-one2"/>
							<filter>
								<effect>
									<name>Audio Levels</name>
									<effectid>audiolevels</effectid>
									<effectcategory>audiolevels</effectcategory>
									<effecttype>audiolevels</effecttype>
									<mediatype>audio</mediatype>
									<parameter>
										<name>Level</name>
										<parameterid>level</parameterid>
										<valuemin>0</valuemin>
										<valuemax>3.98109</valuemax>
										<value>1</value>
									</parameter>
								</effect>
							</filter>
							<filter>
								<effect>
									<name>Audio Pan</name>
									<effectid>audiopan</effectid>
									<effectcategory>audiopan</effectcategory>
									<effecttype>audiopan</effecttype>
									<mediatype>audio</mediatype>
									<parameter>
										<name>Pan</name>
										<parameterid>pan</parameterid>
										<valuemin>-1</valuemin>
										<valuemax>1</valuemax>
										<value>1</value>
									</parameter>
								</effect>
							</filter>
							<sourcetrack>
								<mediatype>audio</mediatype>
								<trackindex>2</trackindex>
							</sourcetrack>
							<link>
								<linkclipref>The-one29</linkclipref>
								<mediatype>video</mediatype>
								<trackindex>1</trackindex>
								<clipindex>10</clipindex>
							</link>
							<link>
								<linkclipref>The-one30</linkclipref>
								<mediatype>audio</mediatype>
								<trackindex>1</trackindex>
								<clipindex>10</clipindex>
								<groupindex>1</groupindex>
							</link>
							<link>
								<linkclipref>The-one31</linkclipref>
								<mediatype>audio</mediatype>
								<trackindex>2</trackindex>
								<clipindex>10</clipindex>
								<groupindex>1</groupindex>
							</link>
							<itemhistory>
								<uuid>26FE7EB8-8E54-450C-8D82-6B5B455E35B2</uuid>
							</itemhistory>
						</clipitem>
						<clipitem id="The-one34">
							<name>The-one</name>
							<duration>5477</duration>
							<rate>
								<ntsc>FALSE</ntsc>
								<timebase>25</timebase>
							</rate>
							<in>1697</in>
							<out>1743</out>
							<start>560</start>
							<end>606</end>
							<subframeoffset>0</subframeoffset>
							<masterclipid>The-one1</masterclipid>
							<logginginfo>
								<scene/>
								<shottake/>
								<lognote/>
								<good>FALSE</good>
							</logginginfo>
							<labels>
								<label2/>
							</labels>
							<comments>
								<mastercomment1/>
								<mastercomment2/>
								<mastercomment3/>
								<mastercomment4/>
							</comments>
							<file id="The-one2"/>
							<filter>
								<effect>
									<name>Audio Levels</name>
									<effectid>audiolevels</effectid>
									<effectcategory>audiolevels</effectcategory>
									<effecttype>audiolevels</effecttype>
									<mediatype>audio</mediatype>
									<parameter>
										<name>Level</name>
										<parameterid>level</parameterid>
										<valuemin>0</valuemin>
										<valuemax>3.98109</valuemax>
										<value>1</value>
									</parameter>
								</effect>
							</filter>
							<filter>
								<effect>
									<name>Audio Pan</name>
									<effectid>audiopan</effectid>
									<effectcategory>audiopan</effectcategory>
									<effecttype>audiopan</effecttype>
									<mediatype>audio</mediatype>
									<parameter>
										<name>Pan</name>
										<parameterid>pan</parameterid>
										<valuemin>-1</valuemin>
										<valuemax>1</valuemax>
										<value>1</value>
									</parameter>
								</effect>
							</filter>
							<sourcetrack>
								<mediatype>audio</mediatype>
								<trackindex>2</trackindex>
							</sourcetrack>
							<link>
								<linkclipref>The-one32</linkclipref>
								<mediatype>video</mediatype>
								<trackindex>1</trackindex>
								<clipindex>11</clipindex>
							</link>
							<link>
								<linkclipref>The-one33</linkclipref>
								<mediatype>audio</mediatype>
								<trackindex>1</trackindex>
								<clipindex>11</clipindex>
								<groupindex>1</groupindex>
							</link>
							<link>
								<linkclipref>The-one34</linkclipref>
								<mediatype>audio</mediatype>
								<trackindex>2</trackindex>
								<clipindex>11</clipindex>
								<groupindex>1</groupindex>
							</link>
							<itemhistory>
								<uuid>99670208-3380-4419-862A-207C9DC1D3CB</uuid>
							</itemhistory>
						</clipitem>
						<clipitem id="The-one37">
							<name>The-one</name>
							<duration>5477</duration>
							<rate>
								<ntsc>FALSE</ntsc>
								<timebase>25</timebase>
							</rate>
							<in>1244</in>
							<out>1302</out>
							<start>606</start>
							<end>664</end>
							<subframeoffset>0</subframeoffset>
							<masterclipid>The-one1</masterclipid>
							<logginginfo>
								<scene/>
								<shottake/>
								<lognote/>
								<good>FALSE</good>
							</logginginfo>
							<labels>
								<label2/>
							</labels>
							<comments>
								<mastercomment1/>
								<mastercomment2/>
								<mastercomment3/>
								<mastercomment4/>
							</comments>
							<file id="The-one2"/>
							<filter>
								<effect>
									<name>Audio Levels</name>
									<effectid>audiolevels</effectid>
									<effectcategory>audiolevels</effectcategory>
									<effecttype>audiolevels</effecttype>
									<mediatype>audio</mediatype>
									<parameter>
										<name>Level</name>
										<parameterid>level</parameterid>
										<valuemin>0</valuemin>
										<valuemax>3.98109</valuemax>
										<value>1</value>
									</parameter>
								</effect>
							</filter>
							<filter>
								<effect>
									<name>Audio Pan</name>
									<effectid>audiopan</effectid>
									<effectcategory>audiopan</effectcategory>
									<effecttype>audiopan</effecttype>
									<mediatype>audio</mediatype>
									<parameter>
										<name>Pan</name>
										<parameterid>pan</parameterid>
										<valuemin>-1</valuemin>
										<valuemax>1</valuemax>
										<value>1</value>
									</parameter>
								</effect>
							</filter>
							<sourcetrack>
								<mediatype>audio</mediatype>
								<trackindex>2</trackindex>
							</sourcetrack>
							<link>
								<linkclipref>The-one35</linkclipref>
								<mediatype>video</mediatype>
								<trackindex>1</trackindex>
								<clipindex>12</clipindex>
							</link>
							<link>
								<linkclipref>The-one36</linkclipref>
								<mediatype>audio</mediatype>
								<trackindex>1</trackindex>
								<clipindex>12</clipindex>
								<groupindex>1</groupindex>
							</link>
							<link>
								<linkclipref>The-one37</linkclipref>
								<mediatype>audio</mediatype>
								<trackindex>2</trackindex>
								<clipindex>12</clipindex>
								<groupindex>1</groupindex>
							</link>
							<itemhistory>
								<uuid>7A966514-A143-4F2E-8F8C-235F65B83426</uuid>
							</itemhistory>
						</clipitem>
						<clipitem id="The-one40">
							<name>The-one</name>
							<duration>5477</duration>
							<rate>
								<ntsc>FALSE</ntsc>
								<timebase>25</timebase>
							</rate>
							<in>2109</in>
							<out>2158</out>
							<start>664</start>
							<end>713</end>
							<subframeoffset>0</subframeoffset>
							<masterclipid>The-one1</masterclipid>
							<logginginfo>
								<scene/>
								<shottake/>
								<lognote/>
								<good>FALSE</good>
							</logginginfo>
							<labels>
								<label2/>
							</labels>
							<comments>
								<mastercomment1/>
								<mastercomment2/>
								<mastercomment3/>
								<mastercomment4/>
							</comments>
							<file id="The-one2"/>
							<filter>
								<effect>
									<name>Audio Levels</name>
									<effectid>audiolevels</effectid>
									<effectcategory>audiolevels</effectcategory>
									<effecttype>audiolevels</effecttype>
									<mediatype>audio</mediatype>
									<parameter>
										<name>Level</name>
										<parameterid>level</parameterid>
										<valuemin>0</valuemin>
										<valuemax>3.98109</valuemax>
										<value>1</value>
									</parameter>
								</effect>
							</filter>
							<filter>
								<effect>
									<name>Audio Pan</name>
									<effectid>audiopan</effectid>
									<effectcategory>audiopan</effectcategory>
									<effecttype>audiopan</effecttype>
									<mediatype>audio</mediatype>
									<parameter>
										<name>Pan</name>
										<parameterid>pan</parameterid>
										<valuemin>-1</valuemin>
										<valuemax>1</valuemax>
										<value>1</value>
									</parameter>
								</effect>
							</filter>
							<sourcetrack>
								<mediatype>audio</mediatype>
								<trackindex>2</trackindex>
							</sourcetrack>
							<link>
								<linkclipref>The-one38</linkclipref>
								<mediatype>video</mediatype>
								<trackindex>1</trackindex>
								<clipindex>13</clipindex>
							</link>
							<link>
								<linkclipref>The-one39</linkclipref>
								<mediatype>audio</mediatype>
								<trackindex>1</trackindex>
								<clipindex>13</clipindex>
								<groupindex>1</groupindex>
							</link>
							<link>
								<linkclipref>The-one40</linkclipref>
								<mediatype>audio</mediatype>
								<trackindex>2</trackindex>
								<clipindex>13</clipindex>
								<groupindex>1</groupindex>
							</link>
							<itemhistory>
								<uuid>B068E335-7363-49A3-93FE-DEDC5CEEA99E</uuid>
							</itemhistory>
						</clipitem>
						<clipitem id="The-one43">
							<name>The-one</name>
							<duration>5477</duration>
							<rate>
								<ntsc>FALSE</ntsc>
								<timebase>25</timebase>
							</rate>
							<in>2771</in>
							<out>2827</out>
							<start>713</start>
							<end>769</end>
							<subframeoffset>0</subframeoffset>
							<enabled>TRUE</enabled>
							<masterclipid>The-one1</masterclipid>
							<logginginfo>
								<scene/>
								<shottake/>
								<lognote/>
								<good>FALSE</good>
							</logginginfo>
							<labels>
								<label2/>
							</labels>
							<comments>
								<mastercomment1/>
								<mastercomment2/>
								<mastercomment3/>
								<mastercomment4/>
							</comments>
							<file id="The-one2"/>
							<filter>
								<effect>
									<name>Audio Levels</name>
									<effectid>audiolevels</effectid>
									<effectcategory>audiolevels</effectcategory>
									<effecttype>audiolevels</effecttype>
									<mediatype>audio</mediatype>
									<parameter>
										<name>Level</name>
										<parameterid>level</parameterid>
										<valuemin>0</valuemin>
										<valuemax>3.98109</valuemax>
										<value>1</value>
									</parameter>
								</effect>
							</filter>
							<filter>
								<effect>
									<name>Audio Pan</name>
									<effectid>audiopan</effectid>
									<effectcategory>audiopan</effectcategory>
									<effecttype>audiopan</effecttype>
									<mediatype>audio</mediatype>
									<parameter>
										<name>Pan</name>
										<parameterid>pan</parameterid>
										<valuemin>-1</valuemin>
										<valuemax>1</valuemax>
										<value>1</value>
									</parameter>
								</effect>
							</filter>
							<sourcetrack>
								<mediatype>audio</mediatype>
								<trackindex>2</trackindex>
							</sourcetrack>
							<link>
								<linkclipref>The-one41</linkclipref>
								<mediatype>video</mediatype>
								<trackindex>1</trackindex>
								<clipindex>14</clipindex>
							</link>
							<link>
								<linkclipref>The-one42</linkclipref>
								<mediatype>audio</mediatype>
								<trackindex>1</trackindex>
								<clipindex>14</clipindex>
								<groupindex>1</groupindex>
							</link>
							<link>
								<linkclipref>The-one43</linkclipref>
								<mediatype>audio</mediatype>
								<trackindex>2</trackindex>
								<clipindex>14</clipindex>
								<groupindex>1</groupindex>
							</link>
							<itemhistory>
								<uuid>AD8035BB-035A-4203-A89E-6E0C245A1AFF</uuid>
							</itemhistory>
						</clipitem>
						<clipitem id="The-one46">
							<name>The-one</name>
							<duration>5477</duration>
							<rate>
								<ntsc>FALSE</ntsc>
								<timebase>25</timebase>
							</rate>
							<in>2995</in>
							<out>3055</out>
							<start>769</start>
							<end>829</end>
							<subframeoffset>0</subframeoffset>
							<enabled>TRUE</enabled>
							<masterclipid>The-one1</masterclipid>
							<logginginfo>
								<scene/>
								<shottake/>
								<lognote/>
								<good>FALSE</good>
							</logginginfo>
							<labels>
								<label2/>
							</labels>
							<comments>
								<mastercomment1/>
								<mastercomment2/>
								<mastercomment3/>
								<mastercomment4/>
							</comments>
							<file id="The-one2"/>
							<filter>
								<effect>
									<name>Audio Levels</name>
									<effectid>audiolevels</effectid>
									<effectcategory>audiolevels</effectcategory>
									<effecttype>audiolevels</effecttype>
									<mediatype>audio</mediatype>
									<parameter>
										<name>Level</name>
										<parameterid>level</parameterid>
										<valuemin>0</valuemin>
										<valuemax>3.98109</valuemax>
										<value>1</value>
									</parameter>
								</effect>
							</filter>
							<filter>
								<effect>
									<name>Audio Pan</name>
									<effectid>audiopan</effectid>
									<effectcategory>audiopan</effectcategory>
									<effecttype>audiopan</effecttype>
									<mediatype>audio</mediatype>
									<parameter>
										<name>Pan</name>
										<parameterid>pan</parameterid>
										<valuemin>-1</valuemin>
										<valuemax>1</valuemax>
										<value>1</value>
									</parameter>
								</effect>
							</filter>
							<sourcetrack>
								<mediatype>audio</mediatype>
								<trackindex>2</trackindex>
							</sourcetrack>
							<link>
								<linkclipref>The-one44</linkclipref>
								<mediatype>video</mediatype>
								<trackindex>1</trackindex>
								<clipindex>15</clipindex>
							</link>
							<link>
								<linkclipref>The-one45</linkclipref>
								<mediatype>audio</mediatype>
								<trackindex>1</trackindex>
								<clipindex>15</clipindex>
								<groupindex>1</groupindex>
							</link>
							<link>
								<linkclipref>The-one46</linkclipref>
								<mediatype>audio</mediatype>
								<trackindex>2</trackindex>
								<clipindex>15</clipindex>
								<groupindex>1</groupindex>
							</link>
							<itemhistory>
								<uuid>887B8313-0BCD-4DC7-84F6-B84CB4937597</uuid>
							</itemhistory>
						</clipitem>
						<clipitem id="The-one49">
							<name>The-one</name>
							<duration>5477</duration>
							<rate>
								<ntsc>FALSE</ntsc>
								<timebase>25</timebase>
							</rate>
							<in>3588</in>
							<out>3693</out>
							<start>829</start>
							<end>934</end>
							<subframeoffset>0</subframeoffset>
							<enabled>TRUE</enabled>
							<masterclipid>The-one1</masterclipid>
							<logginginfo>
								<scene/>
								<shottake/>
								<lognote/>
								<good>FALSE</good>
							</logginginfo>
							<labels>
								<label2/>
							</labels>
							<comments>
								<mastercomment1/>
								<mastercomment2/>
								<mastercomment3/>
								<mastercomment4/>
							</comments>
							<file id="The-one2"/>
							<filter>
								<effect>
									<name>Audio Levels</name>
									<effectid>audiolevels</effectid>
									<effectcategory>audiolevels</effectcategory>
									<effecttype>audiolevels</effecttype>
									<mediatype>audio</mediatype>
									<parameter>
										<name>Level</name>
										<parameterid>level</parameterid>
										<valuemin>0</valuemin>
										<valuemax>3.98109</valuemax>
										<value>1</value>
									</parameter>
								</effect>
							</filter>
							<filter>
								<effect>
									<name>Audio Pan</name>
									<effectid>audiopan</effectid>
									<effectcategory>audiopan</effectcategory>
									<effecttype>audiopan</effecttype>
									<mediatype>audio</mediatype>
									<parameter>
										<name>Pan</name>
										<parameterid>pan</parameterid>
										<valuemin>-1</valuemin>
										<valuemax>1</valuemax>
										<value>1</value>
									</parameter>
								</effect>
							</filter>
							<sourcetrack>
								<mediatype>audio</mediatype>
								<trackindex>2</trackindex>
							</sourcetrack>
							<link>
								<linkclipref>The-one47</linkclipref>
								<mediatype>video</mediatype>
								<trackindex>1</trackindex>
								<clipindex>16</clipindex>
							</link>
							<link>
								<linkclipref>The-one48</linkclipref>
								<mediatype>audio</mediatype>
								<trackindex>1</trackindex>
								<clipindex>16</clipindex>
								<groupindex>1</groupindex>
							</link>
							<link>
								<linkclipref>The-one49</linkclipref>
								<mediatype>audio</mediatype>
								<trackindex>2</trackindex>
								<clipindex>16</clipindex>
								<groupindex>1</groupindex>
							</link>
							<itemhistory>
								<uuid>3C020D26-45E4-4D61-861B-793CE73A92B2</uuid>
							</itemhistory>
						</clipitem>
						<clipitem id="The-one52">
							<name>The-one</name>
							<duration>5477</duration>
							<rate>
								<ntsc>FALSE</ntsc>
								<timebase>25</timebase>
							</rate>
							<in>3905</in>
							<out>3960</out>
							<start>934</start>
							<end>989</end>
							<subframeoffset>0</subframeoffset>
							<masterclipid>The-one1</masterclipid>
							<logginginfo>
								<scene/>
								<shottake/>
								<lognote/>
								<good>FALSE</good>
							</logginginfo>
							<labels>
								<label2/>
							</labels>
							<comments>
								<mastercomment1/>
								<mastercomment2/>
								<mastercomment3/>
								<mastercomment4/>
							</comments>
							<file id="The-one2"/>
							<filter>
								<effect>
									<name>Audio Levels</name>
									<effectid>audiolevels</effectid>
									<effectcategory>audiolevels</effectcategory>
									<effecttype>audiolevels</effecttype>
									<mediatype>audio</mediatype>
									<parameter>
										<name>Level</name>
										<parameterid>level</parameterid>
										<valuemin>0</valuemin>
										<valuemax>3.98109</valuemax>
										<value>1</value>
									</parameter>
								</effect>
							</filter>
							<filter>
								<effect>
									<name>Audio Pan</name>
									<effectid>audiopan</effectid>
									<effectcategory>audiopan</effectcategory>
									<effecttype>audiopan</effecttype>
									<mediatype>audio</mediatype>
									<parameter>
										<name>Pan</name>
										<parameterid>pan</parameterid>
										<valuemin>-1</valuemin>
										<valuemax>1</valuemax>
										<value>1</value>
									</parameter>
								</effect>
							</filter>
							<sourcetrack>
								<mediatype>audio</mediatype>
								<trackindex>2</trackindex>
							</sourcetrack>
							<link>
								<linkclipref>The-one50</linkclipref>
								<mediatype>video</mediatype>
								<trackindex>1</trackindex>
								<clipindex>17</clipindex>
							</link>
							<link>
								<linkclipref>The-one51</linkclipref>
								<mediatype>audio</mediatype>
								<trackindex>1</trackindex>
								<clipindex>17</clipindex>
								<groupindex>1</groupindex>
							</link>
							<link>
								<linkclipref>The-one52</linkclipref>
								<mediatype>audio</mediatype>
								<trackindex>2</trackindex>
								<clipindex>17</clipindex>
								<groupindex>1</groupindex>
							</link>
							<itemhistory>
								<uuid>B2A0F03C-967B-41B2-9A6F-1E4E77D20EAC</uuid>
							</itemhistory>
						</clipitem>
						<clipitem id="The-one55">
							<name>The-one</name>
							<duration>5477</duration>
							<rate>
								<ntsc>FALSE</ntsc>
								<timebase>25</timebase>
							</rate>
							<in>4260</in>
							<out>4309</out>
							<start>989</start>
							<end>1038</end>
							<subframeoffset>0</subframeoffset>
							<enabled>TRUE</enabled>
							<masterclipid>The-one1</masterclipid>
							<logginginfo>
								<scene/>
								<shottake/>
								<lognote/>
								<good>FALSE</good>
							</logginginfo>
							<labels>
								<label2/>
							</labels>
							<comments>
								<mastercomment1/>
								<mastercomment2/>
								<mastercomment3/>
								<mastercomment4/>
							</comments>
							<file id="The-one2"/>
							<filter>
								<effect>
									<name>Audio Levels</name>
									<effectid>audiolevels</effectid>
									<effectcategory>audiolevels</effectcategory>
									<effecttype>audiolevels</effecttype>
									<mediatype>audio</mediatype>
									<parameter>
										<name>Level</name>
										<parameterid>level</parameterid>
										<valuemin>0</valuemin>
										<valuemax>3.98109</valuemax>
										<value>1</value>
									</parameter>
								</effect>
							</filter>
							<filter>
								<effect>
									<name>Audio Pan</name>
									<effectid>audiopan</effectid>
									<effectcategory>audiopan</effectcategory>
									<effecttype>audiopan</effecttype>
									<mediatype>audio</mediatype>
									<parameter>
										<name>Pan</name>
										<parameterid>pan</parameterid>
										<valuemin>-1</valuemin>
										<valuemax>1</valuemax>
										<value>1</value>
									</parameter>
								</effect>
							</filter>
							<sourcetrack>
								<mediatype>audio</mediatype>
								<trackindex>2</trackindex>
							</sourcetrack>
							<link>
								<linkclipref>The-one53</linkclipref>
								<mediatype>video</mediatype>
								<trackindex>1</trackindex>
								<clipindex>18</clipindex>
							</link>
							<link>
								<linkclipref>The-one54</linkclipref>
								<mediatype>audio</mediatype>
								<trackindex>1</trackindex>
								<clipindex>18</clipindex>
								<groupindex>1</groupindex>
							</link>
							<link>
								<linkclipref>The-one55</linkclipref>
								<mediatype>audio</mediatype>
								<trackindex>2</trackindex>
								<clipindex>18</clipindex>
								<groupindex>1</groupindex>
							</link>
							<itemhistory>
								<uuid>94476D1D-1300-4737-A71C-673C517E9DDF</uuid>
							</itemhistory>
						</clipitem>
						<clipitem id="The-one58">
							<name>The-one</name>
							<duration>5477</duration>
							<rate>
								<ntsc>FALSE</ntsc>
								<timebase>25</timebase>
							</rate>
							<in>4481</in>
							<out>4534</out>
							<start>1038</start>
							<end>1091</end>
							<subframeoffset>0</subframeoffset>
							<enabled>TRUE</enabled>
							<masterclipid>The-one1</masterclipid>
							<logginginfo>
								<scene/>
								<shottake/>
								<lognote/>
								<good>FALSE</good>
							</logginginfo>
							<labels>
								<label2/>
							</labels>
							<comments>
								<mastercomment1/>
								<mastercomment2/>
								<mastercomment3/>
								<mastercomment4/>
							</comments>
							<file id="The-one2"/>
							<filter>
								<effect>
									<name>Audio Levels</name>
									<effectid>audiolevels</effectid>
									<effectcategory>audiolevels</effectcategory>
									<effecttype>audiolevels</effecttype>
									<mediatype>audio</mediatype>
									<parameter>
										<name>Level</name>
										<parameterid>level</parameterid>
										<valuemin>0</valuemin>
										<valuemax>3.98109</valuemax>
										<value>1</value>
									</parameter>
								</effect>
							</filter>
							<filter>
								<effect>
									<name>Audio Pan</name>
									<effectid>audiopan</effectid>
									<effectcategory>audiopan</effectcategory>
									<effecttype>audiopan</effecttype>
									<mediatype>audio</mediatype>
									<parameter>
										<name>Pan</name>
										<parameterid>pan</parameterid>
										<valuemin>-1</valuemin>
										<valuemax>1</valuemax>
										<value>1</value>
									</parameter>
								</effect>
							</filter>
							<sourcetrack>
								<mediatype>audio</mediatype>
								<trackindex>2</trackindex>
							</sourcetrack>
							<link>
								<linkclipref>The-one56</linkclipref>
								<mediatype>video</mediatype>
								<trackindex>1</trackindex>
								<clipindex>19</clipindex>
							</link>
							<link>
								<linkclipref>The-one57</linkclipref>
								<mediatype>audio</mediatype>
								<trackindex>1</trackindex>
								<clipindex>19</clipindex>
								<groupindex>1</groupindex>
							</link>
							<link>
								<linkclipref>The-one58</linkclipref>
								<mediatype>audio</mediatype>
								<trackindex>2</trackindex>
								<clipindex>19</clipindex>
								<groupindex>1</groupindex>
							</link>
							<itemhistory>
								<uuid>1DBE503B-3352-4857-9408-8B1A65F0C535</uuid>
							</itemhistory>
						</clipitem>
						<clipitem id="The-one61">
							<name>The-one</name>
							<duration>5477</duration>
							<rate>
								<ntsc>FALSE</ntsc>
								<timebase>25</timebase>
							</rate>
							<in>4599</in>
							<out>4712</out>
							<start>1091</start>
							<end>1204</end>
							<subframeoffset>0</subframeoffset>
							<enabled>TRUE</enabled>
							<masterclipid>The-one1</masterclipid>
							<logginginfo>
								<scene/>
								<shottake/>
								<lognote/>
								<good>FALSE</good>
							</logginginfo>
							<labels>
								<label2/>
							</labels>
							<comments>
								<mastercomment1/>
								<mastercomment2/>
								<mastercomment3/>
								<mastercomment4/>
							</comments>
							<file id="The-one2"/>
							<filter>
								<effect>
									<name>Audio Levels</name>
									<effectid>audiolevels</effectid>
									<effectcategory>audiolevels</effectcategory>
									<effecttype>audiolevels</effecttype>
									<mediatype>audio</mediatype>
									<parameter>
										<name>Level</name>
										<parameterid>level</parameterid>
										<valuemin>0</valuemin>
										<valuemax>3.98109</valuemax>
										<value>1</value>
									</parameter>
								</effect>
							</filter>
							<filter>
								<effect>
									<name>Audio Pan</name>
									<effectid>audiopan</effectid>
									<effectcategory>audiopan</effectcategory>
									<effecttype>audiopan</effecttype>
									<mediatype>audio</mediatype>
									<parameter>
										<name>Pan</name>
										<parameterid>pan</parameterid>
										<valuemin>-1</valuemin>
										<valuemax>1</valuemax>
										<value>1</value>
									</parameter>
								</effect>
							</filter>
							<sourcetrack>
								<mediatype>audio</mediatype>
								<trackindex>2</trackindex>
							</sourcetrack>
							<link>
								<linkclipref>The-one59</linkclipref>
								<mediatype>video</mediatype>
								<trackindex>1</trackindex>
								<clipindex>20</clipindex>
							</link>
							<link>
								<linkclipref>The-one60</linkclipref>
								<mediatype>audio</mediatype>
								<trackindex>1</trackindex>
								<clipindex>20</clipindex>
								<groupindex>1</groupindex>
							</link>
							<link>
								<linkclipref>The-one61</linkclipref>
								<mediatype>audio</mediatype>
								<trackindex>2</trackindex>
								<clipindex>20</clipindex>
								<groupindex>1</groupindex>
							</link>
							<itemhistory>
								<uuid>F2182A36-3CD4-49A2-8F91-C41BD3246B49</uuid>
							</itemhistory>
						</clipitem>
						<clipitem id="The-one64">
							<name>The-one</name>
							<duration>5477</duration>
							<rate>
								<ntsc>FALSE</ntsc>
								<timebase>25</timebase>
							</rate>
							<in>4359</in>
							<out>4416</out>
							<start>1204</start>
							<end>1261</end>
							<subframeoffset>0</subframeoffset>
							<enabled>TRUE</enabled>
							<masterclipid>The-one1</masterclipid>
							<logginginfo>
								<scene/>
								<shottake/>
								<lognote/>
								<good>FALSE</good>
							</logginginfo>
							<labels>
								<label2/>
							</labels>
							<comments>
								<mastercomment1/>
								<mastercomment2/>
								<mastercomment3/>
								<mastercomment4/>
							</comments>
							<file id="The-one2"/>
							<filter>
								<effect>
									<name>Audio Levels</name>
									<effectid>audiolevels</effectid>
									<effectcategory>audiolevels</effectcategory>
									<effecttype>audiolevels</effecttype>
									<mediatype>audio</mediatype>
									<parameter>
										<name>Level</name>
										<parameterid>level</parameterid>
										<valuemin>0</valuemin>
										<valuemax>3.98109</valuemax>
										<value>1</value>
									</parameter>
								</effect>
							</filter>
							<filter>
								<effect>
									<name>Audio Pan</name>
									<effectid>audiopan</effectid>
									<effectcategory>audiopan</effectcategory>
									<effecttype>audiopan</effecttype>
									<mediatype>audio</mediatype>
									<parameter>
										<name>Pan</name>
										<parameterid>pan</parameterid>
										<valuemin>-1</valuemin>
										<valuemax>1</valuemax>
										<value>1</value>
									</parameter>
								</effect>
							</filter>
							<sourcetrack>
								<mediatype>audio</mediatype>
								<trackindex>2</trackindex>
							</sourcetrack>
							<link>
								<linkclipref>The-one62</linkclipref>
								<mediatype>video</mediatype>
								<trackindex>1</trackindex>
								<clipindex>21</clipindex>
							</link>
							<link>
								<linkclipref>The-one63</linkclipref>
								<mediatype>audio</mediatype>
								<trackindex>1</trackindex>
								<clipindex>21</clipindex>
								<groupindex>1</groupindex>
							</link>
							<link>
								<linkclipref>The-one64</linkclipref>
								<mediatype>audio</mediatype>
								<trackindex>2</trackindex>
								<clipindex>21</clipindex>
								<groupindex>1</groupindex>
							</link>
							<itemhistory>
								<uuid>EAE1E09B-ADD4-4CD3-8265-FB5257FDCD40</uuid>
							</itemhistory>
						</clipitem>
						<clipitem id="The-one67">
							<name>The-one</name>
							<duration>5477</duration>
							<rate>
								<ntsc>FALSE</ntsc>
								<timebase>25</timebase>
							</rate>
							<in>4754</in>
							<out>4855</out>
							<start>1261</start>
							<end>1362</end>
							<subframeoffset>0</subframeoffset>
							<enabled>TRUE</enabled>
							<masterclipid>The-one1</masterclipid>
							<logginginfo>
								<scene/>
								<shottake/>
								<lognote/>
								<good>FALSE</good>
							</logginginfo>
							<labels>
								<label2/>
							</labels>
							<comments>
								<mastercomment1/>
								<mastercomment2/>
								<mastercomment3/>
								<mastercomment4/>
							</comments>
							<file id="The-one2"/>
							<filter>
								<effect>
									<name>Audio Levels</name>
									<effectid>audiolevels</effectid>
									<effectcategory>audiolevels</effectcategory>
									<effecttype>audiolevels</effecttype>
									<mediatype>audio</mediatype>
									<parameter>
										<name>Level</name>
										<parameterid>level</parameterid>
										<valuemin>0</valuemin>
										<valuemax>3.98109</valuemax>
										<value>1</value>
									</parameter>
								</effect>
							</filter>
							<filter>
								<effect>
									<name>Audio Pan</name>
									<effectid>audiopan</effectid>
									<effectcategory>audiopan</effectcategory>
									<effecttype>audiopan</effecttype>
									<mediatype>audio</mediatype>
									<parameter>
										<name>Pan</name>
										<parameterid>pan</parameterid>
										<valuemin>-1</valuemin>
										<valuemax>1</valuemax>
										<value>1</value>
									</parameter>
								</effect>
							</filter>
							<sourcetrack>
								<mediatype>audio</mediatype>
								<trackindex>2</trackindex>
							</sourcetrack>
							<link>
								<linkclipref>The-one65</linkclipref>
								<mediatype>video</mediatype>
								<trackindex>1</trackindex>
								<clipindex>22</clipindex>
							</link>
							<link>
								<linkclipref>The-one66</linkclipref>
								<mediatype>audio</mediatype>
								<trackindex>1</trackindex>
								<clipindex>22</clipindex>
								<groupindex>1</groupindex>
							</link>
							<link>
								<linkclipref>The-one67</linkclipref>
								<mediatype>audio</mediatype>
								<trackindex>2</trackindex>
								<clipindex>22</clipindex>
								<groupindex>1</groupindex>
							</link>
							<itemhistory>
								<uuid>ED735119-2A0E-4F89-8A07-93CAF3331D67</uuid>
							</itemhistory>
						</clipitem>
						<clipitem id="The-one70">
							<name>The-one</name>
							<duration>5477</duration>
							<rate>
								<ntsc>FALSE</ntsc>
								<timebase>25</timebase>
							</rate>
							<in>1019</in>
							<out>1073</out>
							<start>1362</start>
							<end>1416</end>
							<subframeoffset>0</subframeoffset>
							<masterclipid>The-one1</masterclipid>
							<logginginfo>
								<scene/>
								<shottake/>
								<lognote/>
								<good>FALSE</good>
							</logginginfo>
							<labels>
								<label2/>
							</labels>
							<comments>
								<mastercomment1/>
								<mastercomment2/>
								<mastercomment3/>
								<mastercomment4/>
							</comments>
							<file id="The-one2"/>
							<filter>
								<effect>
									<name>Audio Levels</name>
									<effectid>audiolevels</effectid>
									<effectcategory>audiolevels</effectcategory>
									<effecttype>audiolevels</effecttype>
									<mediatype>audio</mediatype>
									<parameter>
										<name>Level</name>
										<parameterid>level</parameterid>
										<valuemin>0</valuemin>
										<valuemax>3.98109</valuemax>
										<value>1</value>
									</parameter>
								</effect>
							</filter>
							<filter>
								<effect>
									<name>Audio Pan</name>
									<effectid>audiopan</effectid>
									<effectcategory>audiopan</effectcategory>
									<effecttype>audiopan</effecttype>
									<mediatype>audio</mediatype>
									<parameter>
										<name>Pan</name>
										<parameterid>pan</parameterid>
										<valuemin>-1</valuemin>
										<valuemax>1</valuemax>
										<value>1</value>
									</parameter>
								</effect>
							</filter>
							<sourcetrack>
								<mediatype>audio</mediatype>
								<trackindex>2</trackindex>
							</sourcetrack>
							<link>
								<linkclipref>The-one68</linkclipref>
								<mediatype>video</mediatype>
								<trackindex>1</trackindex>
								<clipindex>23</clipindex>
							</link>
							<link>
								<linkclipref>The-one69</linkclipref>
								<mediatype>audio</mediatype>
								<trackindex>1</trackindex>
								<clipindex>23</clipindex>
								<groupindex>1</groupindex>
							</link>
							<link>
								<linkclipref>The-one70</linkclipref>
								<mediatype>audio</mediatype>
								<trackindex>2</trackindex>
								<clipindex>23</clipindex>
								<groupindex>1</groupindex>
							</link>
							<itemhistory>
								<uuid>4642859E-CB57-494B-B9E4-DE9C1FEFC883</uuid>
							</itemhistory>
						</clipitem>
						<clipitem id="The-one73">
							<name>The-one</name>
							<duration>5477</duration>
							<rate>
								<ntsc>FALSE</ntsc>
								<timebase>25</timebase>
							</rate>
							<in>1583</in>
							<out>1641</out>
							<start>1416</start>
							<end>1474</end>
							<subframeoffset>0</subframeoffset>
							<masterclipid>The-one1</masterclipid>
							<logginginfo>
								<scene/>
								<shottake/>
								<lognote/>
								<good>FALSE</good>
							</logginginfo>
							<labels>
								<label2/>
							</labels>
							<comments>
								<mastercomment1/>
								<mastercomment2/>
								<mastercomment3/>
								<mastercomment4/>
							</comments>
							<file id="The-one2"/>
							<filter>
								<effect>
									<name>Audio Levels</name>
									<effectid>audiolevels</effectid>
									<effectcategory>audiolevels</effectcategory>
									<effecttype>audiolevels</effecttype>
									<mediatype>audio</mediatype>
									<parameter>
										<name>Level</name>
										<parameterid>level</parameterid>
										<valuemin>0</valuemin>
										<valuemax>3.98109</valuemax>
										<value>1</value>
									</parameter>
								</effect>
							</filter>
							<filter>
								<effect>
									<name>Audio Pan</name>
									<effectid>audiopan</effectid>
									<effectcategory>audiopan</effectcategory>
									<effecttype>audiopan</effecttype>
									<mediatype>audio</mediatype>
									<parameter>
										<name>Pan</name>
										<parameterid>pan</parameterid>
										<valuemin>-1</valuemin>
										<valuemax>1</valuemax>
										<value>1</value>
									</parameter>
								</effect>
							</filter>
							<sourcetrack>
								<mediatype>audio</mediatype>
								<trackindex>2</trackindex>
							</sourcetrack>
							<link>
								<linkclipref>The-one71</linkclipref>
								<mediatype>video</mediatype>
								<trackindex>1</trackindex>
								<clipindex>24</clipindex>
							</link>
							<link>
								<linkclipref>The-one72</linkclipref>
								<mediatype>audio</mediatype>
								<trackindex>1</trackindex>
								<clipindex>24</clipindex>
								<groupindex>1</groupindex>
							</link>
							<link>
								<linkclipref>The-one73</linkclipref>
								<mediatype>audio</mediatype>
								<trackindex>2</trackindex>
								<clipindex>24</clipindex>
								<groupindex>1</groupindex>
							</link>
							<itemhistory>
								<uuid>43B901E4-A09D-4A7D-88F4-A9A593E7E23E</uuid>
							</itemhistory>
						</clipitem>
						<clipitem id="The-one76">
							<name>The-one</name>
							<duration>5477</duration>
							<rate>
								<ntsc>FALSE</ntsc>
								<timebase>25</timebase>
							</rate>
							<in>1925</in>
							<out>2026</out>
							<start>1474</start>
							<end>1575</end>
							<subframeoffset>0</subframeoffset>
							<masterclipid>The-one1</masterclipid>
							<logginginfo>
								<scene/>
								<shottake/>
								<lognote/>
								<good>FALSE</good>
							</logginginfo>
							<labels>
								<label2/>
							</labels>
							<comments>
								<mastercomment1/>
								<mastercomment2/>
								<mastercomment3/>
								<mastercomment4/>
							</comments>
							<file id="The-one2"/>
							<filter>
								<effect>
									<name>Audio Levels</name>
									<effectid>audiolevels</effectid>
									<effectcategory>audiolevels</effectcategory>
									<effecttype>audiolevels</effecttype>
									<mediatype>audio</mediatype>
									<parameter>
										<name>Level</name>
										<parameterid>level</parameterid>
										<valuemin>0</valuemin>
										<valuemax>3.98109</valuemax>
										<value>1</value>
									</parameter>
								</effect>
							</filter>
							<filter>
								<effect>
									<name>Audio Pan</name>
									<effectid>audiopan</effectid>
									<effectcategory>audiopan</effectcategory>
									<effecttype>audiopan</effecttype>
									<mediatype>audio</mediatype>
									<parameter>
										<name>Pan</name>
										<parameterid>pan</parameterid>
										<valuemin>-1</valuemin>
										<valuemax>1</valuemax>
										<value>1</value>
									</parameter>
								</effect>
							</filter>
							<sourcetrack>
								<mediatype>audio</mediatype>
								<trackindex>2</trackindex>
							</sourcetrack>
							<link>
								<linkclipref>The-one74</linkclipref>
								<mediatype>video</mediatype>
								<trackindex>1</trackindex>
								<clipindex>25</clipindex>
							</link>
							<link>
								<linkclipref>The-one75</linkclipref>
								<mediatype>audio</mediatype>
								<trackindex>1</trackindex>
								<clipindex>25</clipindex>
								<groupindex>1</groupindex>
							</link>
							<link>
								<linkclipref>The-one76</linkclipref>
								<mediatype>audio</mediatype>
								<trackindex>2</trackindex>
								<clipindex>25</clipindex>
								<groupindex>1</groupindex>
							</link>
							<itemhistory>
								<uuid>2CA46421-B21A-4EFF-8FC8-42E881663ECB</uuid>
							</itemhistory>
						</clipitem>
						<clipitem id="The-one79">
							<name>The-one</name>
							<duration>5477</duration>
							<rate>
								<ntsc>FALSE</ntsc>
								<timebase>25</timebase>
							</rate>
							<in>3223</in>
							<out>3284</out>
							<start>1575</start>
							<end>1636</end>
							<subframeoffset>0</subframeoffset>
							<enabled>TRUE</enabled>
							<masterclipid>The-one1</masterclipid>
							<logginginfo>
								<scene/>
								<shottake/>
								<lognote/>
								<good>FALSE</good>
							</logginginfo>
							<labels>
								<label2/>
							</labels>
							<comments>
								<mastercomment1/>
								<mastercomment2/>
								<mastercomment3/>
								<mastercomment4/>
							</comments>
							<file id="The-one2"/>
							<filter>
								<effect>
									<name>Audio Levels</name>
									<effectid>audiolevels</effectid>
									<effectcategory>audiolevels</effectcategory>
									<effecttype>audiolevels</effecttype>
									<mediatype>audio</mediatype>
									<parameter>
										<name>Level</name>
										<parameterid>level</parameterid>
										<valuemin>0</valuemin>
										<valuemax>3.98109</valuemax>
										<value>1</value>
									</parameter>
								</effect>
							</filter>
							<filter>
								<effect>
									<name>Audio Pan</name>
									<effectid>audiopan</effectid>
									<effectcategory>audiopan</effectcategory>
									<effecttype>audiopan</effecttype>
									<mediatype>audio</mediatype>
									<parameter>
										<name>Pan</name>
										<parameterid>pan</parameterid>
										<valuemin>-1</valuemin>
										<valuemax>1</valuemax>
										<value>1</value>
									</parameter>
								</effect>
							</filter>
							<sourcetrack>
								<mediatype>audio</mediatype>
								<trackindex>2</trackindex>
							</sourcetrack>
							<link>
								<linkclipref>The-one77</linkclipref>
								<mediatype>video</mediatype>
								<trackindex>1</trackindex>
								<clipindex>26</clipindex>
							</link>
							<link>
								<linkclipref>The-one78</linkclipref>
								<mediatype>audio</mediatype>
								<trackindex>1</trackindex>
								<clipindex>26</clipindex>
								<groupindex>1</groupindex>
							</link>
							<link>
								<linkclipref>The-one79</linkclipref>
								<mediatype>audio</mediatype>
								<trackindex>2</trackindex>
								<clipindex>26</clipindex>
								<groupindex>1</groupindex>
							</link>
							<itemhistory>
								<uuid>C27428FC-3DA3-49D1-94B7-FA3B9ACC0BD0</uuid>
							</itemhistory>
						</clipitem>
						<clipitem id="The-one82">
							<name>The-one</name>
							<duration>5477</duration>
							<rate>
								<ntsc>FALSE</ntsc>
								<timebase>25</timebase>
							</rate>
							<in>3338</in>
							<out>3394</out>
							<start>1636</start>
							<end>1692</end>
							<subframeoffset>0</subframeoffset>
							<masterclipid>The-one1</masterclipid>
							<logginginfo>
								<scene/>
								<shottake/>
								<lognote/>
								<good>FALSE</good>
							</logginginfo>
							<labels>
								<label2/>
							</labels>
							<comments>
								<mastercomment1/>
								<mastercomment2/>
								<mastercomment3/>
								<mastercomment4/>
							</comments>
							<file id="The-one2"/>
							<filter>
								<effect>
									<name>Audio Levels</name>
									<effectid>audiolevels</effectid>
									<effectcategory>audiolevels</effectcategory>
									<effecttype>audiolevels</effecttype>
									<mediatype>audio</mediatype>
									<parameter>
										<name>Level</name>
										<parameterid>level</parameterid>
										<valuemin>0</valuemin>
										<valuemax>3.98109</valuemax>
										<value>1</value>
									</parameter>
								</effect>
							</filter>
							<filter>
								<effect>
									<name>Audio Pan</name>
									<effectid>audiopan</effectid>
									<effectcategory>audiopan</effectcategory>
									<effecttype>audiopan</effecttype>
									<mediatype>audio</mediatype>
									<parameter>
										<name>Pan</name>
										<parameterid>pan</parameterid>
										<valuemin>-1</valuemin>
										<valuemax>1</valuemax>
										<value>1</value>
									</parameter>
								</effect>
							</filter>
							<sourcetrack>
								<mediatype>audio</mediatype>
								<trackindex>2</trackindex>
							</sourcetrack>
							<link>
								<linkclipref>The-one80</linkclipref>
								<mediatype>video</mediatype>
								<trackindex>1</trackindex>
								<clipindex>27</clipindex>
							</link>
							<link>
								<linkclipref>The-one81</linkclipref>
								<mediatype>audio</mediatype>
								<trackindex>1</trackindex>
								<clipindex>27</clipindex>
								<groupindex>1</groupindex>
							</link>
							<link>
								<linkclipref>The-one82</linkclipref>
								<mediatype>audio</mediatype>
								<trackindex>2</trackindex>
								<clipindex>27</clipindex>
								<groupindex>1</groupindex>
							</link>
							<itemhistory>
								<uuid>F6DAB83B-DD3D-4261-B12B-5A0569DAE5A6</uuid>
							</itemhistory>
						</clipitem>
						<clipitem id="The-one85">
							<name>The-one</name>
							<duration>5477</duration>
							<rate>
								<ntsc>FALSE</ntsc>
								<timebase>25</timebase>
							</rate>
							<in>3452</in>
							<out>3507</out>
							<start>1692</start>
							<end>1747</end>
							<subframeoffset>0</subframeoffset>
							<masterclipid>The-one1</masterclipid>
							<logginginfo>
								<scene/>
								<shottake/>
								<lognote/>
								<good>FALSE</good>
							</logginginfo>
							<labels>
								<label2/>
							</labels>
							<comments>
								<mastercomment1/>
								<mastercomment2/>
								<mastercomment3/>
								<mastercomment4/>
							</comments>
							<file id="The-one2"/>
							<filter>
								<effect>
									<name>Audio Levels</name>
									<effectid>audiolevels</effectid>
									<effectcategory>audiolevels</effectcategory>
									<effecttype>audiolevels</effecttype>
									<mediatype>audio</mediatype>
									<parameter>
										<name>Level</name>
										<parameterid>level</parameterid>
										<valuemin>0</valuemin>
										<valuemax>3.98109</valuemax>
										<value>1</value>
									</parameter>
								</effect>
							</filter>
							<filter>
								<effect>
									<name>Audio Pan</name>
									<effectid>audiopan</effectid>
									<effectcategory>audiopan</effectcategory>
									<effecttype>audiopan</effecttype>
									<mediatype>audio</mediatype>
									<parameter>
										<name>Pan</name>
										<parameterid>pan</parameterid>
										<valuemin>-1</valuemin>
										<valuemax>1</valuemax>
										<value>1</value>
									</parameter>
								</effect>
							</filter>
							<sourcetrack>
								<mediatype>audio</mediatype>
								<trackindex>2</trackindex>
							</sourcetrack>
							<link>
								<linkclipref>The-one83</linkclipref>
								<mediatype>video</mediatype>
								<trackindex>1</trackindex>
								<clipindex>28</clipindex>
							</link>
							<link>
								<linkclipref>The-one84</linkclipref>
								<mediatype>audio</mediatype>
								<trackindex>1</trackindex>
								<clipindex>28</clipindex>
								<groupindex>1</groupindex>
							</link>
							<link>
								<linkclipref>The-one85</linkclipref>
								<mediatype>audio</mediatype>
								<trackindex>2</trackindex>
								<clipindex>28</clipindex>
								<groupindex>1</groupindex>
							</link>
							<itemhistory>
								<uuid>C9BD0EB4-0554-4E5C-881D-240B870E39FF</uuid>
							</itemhistory>
						</clipitem>
						<clipitem id="The-one88">
							<name>The-one</name>
							<duration>5477</duration>
							<rate>
								<ntsc>FALSE</ntsc>
								<timebase>25</timebase>
							</rate>
							<in>799</in>
							<out>849</out>
							<start>1747</start>
							<end>1797</end>
							<subframeoffset>0</subframeoffset>
							<masterclipid>The-one1</masterclipid>
							<logginginfo>
								<scene/>
								<shottake/>
								<lognote/>
								<good>FALSE</good>
							</logginginfo>
							<labels>
								<label2/>
							</labels>
							<comments>
								<mastercomment1/>
								<mastercomment2/>
								<mastercomment3/>
								<mastercomment4/>
							</comments>
							<file id="The-one2"/>
							<filter>
								<effect>
									<name>Audio Levels</name>
									<effectid>audiolevels</effectid>
									<effectcategory>audiolevels</effectcategory>
									<effecttype>audiolevels</effecttype>
									<mediatype>audio</mediatype>
									<parameter>
										<name>Level</name>
										<parameterid>level</parameterid>
										<valuemin>0</valuemin>
										<valuemax>3.98109</valuemax>
										<value>1</value>
									</parameter>
								</effect>
							</filter>
							<filter>
								<effect>
									<name>Audio Pan</name>
									<effectid>audiopan</effectid>
									<effectcategory>audiopan</effectcategory>
									<effecttype>audiopan</effecttype>
									<mediatype>audio</mediatype>
									<parameter>
										<name>Pan</name>
										<parameterid>pan</parameterid>
										<valuemin>-1</valuemin>
										<valuemax>1</valuemax>
										<value>1</value>
									</parameter>
								</effect>
							</filter>
							<sourcetrack>
								<mediatype>audio</mediatype>
								<trackindex>2</trackindex>
							</sourcetrack>
							<link>
								<linkclipref>The-one86</linkclipref>
								<mediatype>video</mediatype>
								<trackindex>1</trackindex>
								<clipindex>29</clipindex>
							</link>
							<link>
								<linkclipref>The-one87</linkclipref>
								<mediatype>audio</mediatype>
								<trackindex>1</trackindex>
								<clipindex>29</clipindex>
								<groupindex>1</groupindex>
							</link>
							<link>
								<linkclipref>The-one88</linkclipref>
								<mediatype>audio</mediatype>
								<trackindex>2</trackindex>
								<clipindex>29</clipindex>
								<groupindex>1</groupindex>
							</link>
							<itemhistory>
								<uuid>5A0C0E5D-29F5-4CEF-8B9F-37679667ADCD</uuid>
							</itemhistory>
						</clipitem>
						<clipitem id="The-one91">
							<name>The-one</name>
							<duration>5477</duration>
							<rate>
								<ntsc>FALSE</ntsc>
								<timebase>25</timebase>
							</rate>
							<in>1019</in>
							<out>1073</out>
							<start>1797</start>
							<end>1851</end>
							<subframeoffset>0</subframeoffset>
							<masterclipid>The-one1</masterclipid>
							<logginginfo>
								<scene/>
								<shottake/>
								<lognote/>
								<good>FALSE</good>
							</logginginfo>
							<labels>
								<label2/>
							</labels>
							<comments>
								<mastercomment1/>
								<mastercomment2/>
								<mastercomment3/>
								<mastercomment4/>
							</comments>
							<file id="The-one2"/>
							<filter>
								<effect>
									<name>Audio Levels</name>
									<effectid>audiolevels</effectid>
									<effectcategory>audiolevels</effectcategory>
									<effecttype>audiolevels</effecttype>
									<mediatype>audio</mediatype>
									<parameter>
										<name>Level</name>
										<parameterid>level</parameterid>
										<valuemin>0</valuemin>
										<valuemax>3.98109</valuemax>
										<value>1</value>
									</parameter>
								</effect>
							</filter>
							<filter>
								<effect>
									<name>Audio Pan</name>
									<effectid>audiopan</effectid>
									<effectcategory>audiopan</effectcategory>
									<effecttype>audiopan</effecttype>
									<mediatype>audio</mediatype>
									<parameter>
										<name>Pan</name>
										<parameterid>pan</parameterid>
										<valuemin>-1</valuemin>
										<valuemax>1</valuemax>
										<value>1</value>
									</parameter>
								</effect>
							</filter>
							<sourcetrack>
								<mediatype>audio</mediatype>
								<trackindex>2</trackindex>
							</sourcetrack>
							<link>
								<linkclipref>The-one89</linkclipref>
								<mediatype>video</mediatype>
								<trackindex>1</trackindex>
								<clipindex>30</clipindex>
							</link>
							<link>
								<linkclipref>The-one90</linkclipref>
								<mediatype>audio</mediatype>
								<trackindex>1</trackindex>
								<clipindex>30</clipindex>
								<groupindex>1</groupindex>
							</link>
							<link>
								<linkclipref>The-one91</linkclipref>
								<mediatype>audio</mediatype>
								<trackindex>2</trackindex>
								<clipindex>30</clipindex>
								<groupindex>1</groupindex>
							</link>
							<itemhistory>
								<uuid>96A5D405-4E8D-4D22-A993-62597386CBEE</uuid>
							</itemhistory>
						</clipitem>
						<clipitem id="The-one94">
							<name>The-one</name>
							<duration>5477</duration>
							<rate>
								<ntsc>FALSE</ntsc>
								<timebase>25</timebase>
							</rate>
							<in>2655</in>
							<out>2714</out>
							<start>1851</start>
							<end>1910</end>
							<subframeoffset>0</subframeoffset>
							<masterclipid>The-one1</masterclipid>
							<logginginfo>
								<scene/>
								<shottake/>
								<lognote/>
								<good>FALSE</good>
							</logginginfo>
							<labels>
								<label2/>
							</labels>
							<comments>
								<mastercomment1/>
								<mastercomment2/>
								<mastercomment3/>
								<mastercomment4/>
							</comments>
							<file id="The-one2"/>
							<filter>
								<effect>
									<name>Audio Levels</name>
									<effectid>audiolevels</effectid>
									<effectcategory>audiolevels</effectcategory>
									<effecttype>audiolevels</effecttype>
									<mediatype>audio</mediatype>
									<parameter>
										<name>Level</name>
										<parameterid>level</parameterid>
										<valuemin>0</valuemin>
										<valuemax>3.98109</valuemax>
										<value>1</value>
									</parameter>
								</effect>
							</filter>
							<filter>
								<effect>
									<name>Audio Pan</name>
									<effectid>audiopan</effectid>
									<effectcategory>audiopan</effectcategory>
									<effecttype>audiopan</effecttype>
									<mediatype>audio</mediatype>
									<parameter>
										<name>Pan</name>
										<parameterid>pan</parameterid>
										<valuemin>-1</valuemin>
										<valuemax>1</valuemax>
										<value>1</value>
									</parameter>
								</effect>
							</filter>
							<sourcetrack>
								<mediatype>audio</mediatype>
								<trackindex>2</trackindex>
							</sourcetrack>
							<link>
								<linkclipref>The-one92</linkclipref>
								<mediatype>video</mediatype>
								<trackindex>1</trackindex>
								<clipindex>31</clipindex>
							</link>
							<link>
								<linkclipref>The-one93</linkclipref>
								<mediatype>audio</mediatype>
								<trackindex>1</trackindex>
								<clipindex>31</clipindex>
								<groupindex>1</groupindex>
							</link>
							<link>
								<linkclipref>The-one94</linkclipref>
								<mediatype>audio</mediatype>
								<trackindex>2</trackindex>
								<clipindex>31</clipindex>
								<groupindex>1</groupindex>
							</link>
							<itemhistory>
								<uuid>3ACBD699-8856-40E3-BFDC-1BDD38F6154F</uuid>
							</itemhistory>
						</clipitem>
						<clipitem id="The-one97">
							<name>The-one</name>
							<duration>5477</duration>
							<rate>
								<ntsc>FALSE</ntsc>
								<timebase>25</timebase>
							</rate>
							<in>2544</in>
							<out>2601</out>
							<start>1910</start>
							<end>1967</end>
							<subframeoffset>0</subframeoffset>
							<masterclipid>The-one1</masterclipid>
							<logginginfo>
								<scene/>
								<shottake/>
								<lognote/>
								<good>FALSE</good>
							</logginginfo>
							<labels>
								<label2/>
							</labels>
							<comments>
								<mastercomment1/>
								<mastercomment2/>
								<mastercomment3/>
								<mastercomment4/>
							</comments>
							<file id="The-one2"/>
							<filter>
								<effect>
									<name>Audio Levels</name>
									<effectid>audiolevels</effectid>
									<effectcategory>audiolevels</effectcategory>
									<effecttype>audiolevels</effecttype>
									<mediatype>audio</mediatype>
									<parameter>
										<name>Level</name>
										<parameterid>level</parameterid>
										<valuemin>0</valuemin>
										<valuemax>3.98109</valuemax>
										<value>1</value>
									</parameter>
								</effect>
							</filter>
							<filter>
								<effect>
									<name>Audio Pan</name>
									<effectid>audiopan</effectid>
									<effectcategory>audiopan</effectcategory>
									<effecttype>audiopan</effecttype>
									<mediatype>audio</mediatype>
									<parameter>
										<name>Pan</name>
										<parameterid>pan</parameterid>
										<valuemin>-1</valuemin>
										<valuemax>1</valuemax>
										<value>1</value>
									</parameter>
								</effect>
							</filter>
							<sourcetrack>
								<mediatype>audio</mediatype>
								<trackindex>2</trackindex>
							</sourcetrack>
							<link>
								<linkclipref>The-one95</linkclipref>
								<mediatype>video</mediatype>
								<trackindex>1</trackindex>
								<clipindex>32</clipindex>
							</link>
							<link>
								<linkclipref>The-one96</linkclipref>
								<mediatype>audio</mediatype>
								<trackindex>1</trackindex>
								<clipindex>32</clipindex>
								<groupindex>1</groupindex>
							</link>
							<link>
								<linkclipref>The-one97</linkclipref>
								<mediatype>audio</mediatype>
								<trackindex>2</trackindex>
								<clipindex>32</clipindex>
								<groupindex>1</groupindex>
							</link>
							<itemhistory>
								<uuid>027F6419-2964-4865-8F65-74C4A08AD07A</uuid>
							</itemhistory>
						</clipitem>
						<clipitem id="The-one100">
							<name>The-one</name>
							<duration>5477</duration>
							<rate>
								<ntsc>FALSE</ntsc>
								<timebase>25</timebase>
							</rate>
							<in>903</in>
							<out>961</out>
							<start>1967</start>
							<end>2025</end>
							<subframeoffset>0</subframeoffset>
							<masterclipid>The-one1</masterclipid>
							<logginginfo>
								<scene/>
								<shottake/>
								<lognote/>
								<good>FALSE</good>
							</logginginfo>
							<labels>
								<label2/>
							</labels>
							<comments>
								<mastercomment1/>
								<mastercomment2/>
								<mastercomment3/>
								<mastercomment4/>
							</comments>
							<file id="The-one2"/>
							<filter>
								<effect>
									<name>Audio Levels</name>
									<effectid>audiolevels</effectid>
									<effectcategory>audiolevels</effectcategory>
									<effecttype>audiolevels</effecttype>
									<mediatype>audio</mediatype>
									<parameter>
										<name>Level</name>
										<parameterid>level</parameterid>
										<valuemin>0</valuemin>
										<valuemax>3.98109</valuemax>
										<value>1</value>
									</parameter>
								</effect>
							</filter>
							<filter>
								<effect>
									<name>Audio Pan</name>
									<effectid>audiopan</effectid>
									<effectcategory>audiopan</effectcategory>
									<effecttype>audiopan</effecttype>
									<mediatype>audio</mediatype>
									<parameter>
										<name>Pan</name>
										<parameterid>pan</parameterid>
										<valuemin>-1</valuemin>
										<valuemax>1</valuemax>
										<value>1</value>
									</parameter>
								</effect>
							</filter>
							<sourcetrack>
								<mediatype>audio</mediatype>
								<trackindex>2</trackindex>
							</sourcetrack>
							<link>
								<linkclipref>The-one98</linkclipref>
								<mediatype>video</mediatype>
								<trackindex>1</trackindex>
								<clipindex>33</clipindex>
							</link>
							<link>
								<linkclipref>The-one99</linkclipref>
								<mediatype>audio</mediatype>
								<trackindex>1</trackindex>
								<clipindex>33</clipindex>
								<groupindex>1</groupindex>
							</link>
							<link>
								<linkclipref>The-one100</linkclipref>
								<mediatype>audio</mediatype>
								<trackindex>2</trackindex>
								<clipindex>33</clipindex>
								<groupindex>1</groupindex>
							</link>
							<itemhistory>
								<uuid>52090489-7AE5-4484-8902-52F9C70D1244</uuid>
							</itemhistory>
						</clipitem>
						<clipitem id="The-one103">
							<name>The-one</name>
							<duration>5477</duration>
							<rate>
								<ntsc>FALSE</ntsc>
								<timebase>25</timebase>
							</rate>
							<in>3111</in>
							<out>3169</out>
							<start>2025</start>
							<end>2083</end>
							<subframeoffset>0</subframeoffset>
							<masterclipid>The-one1</masterclipid>
							<logginginfo>
								<scene/>
								<shottake/>
								<lognote/>
								<good>FALSE</good>
							</logginginfo>
							<labels>
								<label2/>
							</labels>
							<comments>
								<mastercomment1/>
								<mastercomment2/>
								<mastercomment3/>
								<mastercomment4/>
							</comments>
							<file id="The-one2"/>
							<filter>
								<effect>
									<name>Audio Levels</name>
									<effectid>audiolevels</effectid>
									<effectcategory>audiolevels</effectcategory>
									<effecttype>audiolevels</effecttype>
									<mediatype>audio</mediatype>
									<parameter>
										<name>Level</name>
										<parameterid>level</parameterid>
										<valuemin>0</valuemin>
										<valuemax>3.98109</valuemax>
										<value>1</value>
									</parameter>
								</effect>
							</filter>
							<filter>
								<effect>
									<name>Audio Pan</name>
									<effectid>audiopan</effectid>
									<effectcategory>audiopan</effectcategory>
									<effecttype>audiopan</effecttype>
									<mediatype>audio</mediatype>
									<parameter>
										<name>Pan</name>
										<parameterid>pan</parameterid>
										<valuemin>-1</valuemin>
										<valuemax>1</valuemax>
										<value>1</value>
									</parameter>
								</effect>
							</filter>
							<sourcetrack>
								<mediatype>audio</mediatype>
								<trackindex>2</trackindex>
							</sourcetrack>
							<link>
								<linkclipref>The-one101</linkclipref>
								<mediatype>video</mediatype>
								<trackindex>1</trackindex>
								<clipindex>34</clipindex>
							</link>
							<link>
								<linkclipref>The-one102</linkclipref>
								<mediatype>audio</mediatype>
								<trackindex>1</trackindex>
								<clipindex>34</clipindex>
								<groupindex>1</groupindex>
							</link>
							<link>
								<linkclipref>The-one103</linkclipref>
								<mediatype>audio</mediatype>
								<trackindex>2</trackindex>
								<clipindex>34</clipindex>
								<groupindex>1</groupindex>
							</link>
							<itemhistory>
								<uuid>703EDF52-2026-4CA9-8C3B-8AE5524ADD51</uuid>
							</itemhistory>
						</clipitem>
						<clipitem id="The-one106">
							<name>The-one</name>
							<duration>5477</duration>
							<rate>
								<ntsc>FALSE</ntsc>
								<timebase>25</timebase>
							</rate>
							<in>2995</in>
							<out>3055</out>
							<start>2083</start>
							<end>2143</end>
							<subframeoffset>0</subframeoffset>
							<enabled>TRUE</enabled>
							<masterclipid>The-one1</masterclipid>
							<logginginfo>
								<scene/>
								<shottake/>
								<lognote/>
								<good>FALSE</good>
							</logginginfo>
							<labels>
								<label2/>
							</labels>
							<comments>
								<mastercomment1/>
								<mastercomment2/>
								<mastercomment3/>
								<mastercomment4/>
							</comments>
							<file id="The-one2"/>
							<filter>
								<effect>
									<name>Audio Levels</name>
									<effectid>audiolevels</effectid>
									<effectcategory>audiolevels</effectcategory>
									<effecttype>audiolevels</effecttype>
									<mediatype>audio</mediatype>
									<parameter>
										<name>Level</name>
										<parameterid>level</parameterid>
										<valuemin>0</valuemin>
										<valuemax>3.98109</valuemax>
										<value>1</value>
									</parameter>
								</effect>
							</filter>
							<filter>
								<effect>
									<name>Audio Pan</name>
									<effectid>audiopan</effectid>
									<effectcategory>audiopan</effectcategory>
									<effecttype>audiopan</effecttype>
									<mediatype>audio</mediatype>
									<parameter>
										<name>Pan</name>
										<parameterid>pan</parameterid>
										<valuemin>-1</valuemin>
										<valuemax>1</valuemax>
										<value>1</value>
									</parameter>
								</effect>
							</filter>
							<sourcetrack>
								<mediatype>audio</mediatype>
								<trackindex>2</trackindex>
							</sourcetrack>
							<link>
								<linkclipref>The-one104</linkclipref>
								<mediatype>video</mediatype>
								<trackindex>1</trackindex>
								<clipindex>35</clipindex>
							</link>
							<link>
								<linkclipref>The-one105</linkclipref>
								<mediatype>audio</mediatype>
								<trackindex>1</trackindex>
								<clipindex>35</clipindex>
								<groupindex>1</groupindex>
							</link>
							<link>
								<linkclipref>The-one106</linkclipref>
								<mediatype>audio</mediatype>
								<trackindex>2</trackindex>
								<clipindex>35</clipindex>
								<groupindex>1</groupindex>
							</link>
							<itemhistory>
								<uuid>D47A1FD0-7973-47C4-A99B-01F4EA3A61BE</uuid>
							</itemhistory>
						</clipitem>
						<clipitem id="The-one109">
							<name>The-one</name>
							<duration>5477</duration>
							<rate>
								<ntsc>FALSE</ntsc>
								<timebase>25</timebase>
							</rate>
							<in>4599</in>
							<out>4712</out>
							<start>2143</start>
							<end>2256</end>
							<subframeoffset>0</subframeoffset>
							<enabled>TRUE</enabled>
							<masterclipid>The-one1</masterclipid>
							<logginginfo>
								<scene/>
								<shottake/>
								<lognote/>
								<good>FALSE</good>
							</logginginfo>
							<labels>
								<label2/>
							</labels>
							<comments>
								<mastercomment1/>
								<mastercomment2/>
								<mastercomment3/>
								<mastercomment4/>
							</comments>
							<file id="The-one2"/>
							<filter>
								<effect>
									<name>Audio Levels</name>
									<effectid>audiolevels</effectid>
									<effectcategory>audiolevels</effectcategory>
									<effecttype>audiolevels</effecttype>
									<mediatype>audio</mediatype>
									<parameter>
										<name>Level</name>
										<parameterid>level</parameterid>
										<valuemin>0</valuemin>
										<valuemax>3.98109</valuemax>
										<value>1</value>
									</parameter>
								</effect>
							</filter>
							<filter>
								<effect>
									<name>Audio Pan</name>
									<effectid>audiopan</effectid>
									<effectcategory>audiopan</effectcategory>
									<effecttype>audiopan</effecttype>
									<mediatype>audio</mediatype>
									<parameter>
										<name>Pan</name>
										<parameterid>pan</parameterid>
										<valuemin>-1</valuemin>
										<valuemax>1</valuemax>
										<value>1</value>
									</parameter>
								</effect>
							</filter>
							<sourcetrack>
								<mediatype>audio</mediatype>
								<trackindex>2</trackindex>
							</sourcetrack>
							<link>
								<linkclipref>The-one107</linkclipref>
								<mediatype>video</mediatype>
								<trackindex>1</trackindex>
								<clipindex>36</clipindex>
							</link>
							<link>
								<linkclipref>The-one108</linkclipref>
								<mediatype>audio</mediatype>
								<trackindex>1</trackindex>
								<clipindex>36</clipindex>
								<groupindex>1</groupindex>
							</link>
							<link>
								<linkclipref>The-one109</linkclipref>
								<mediatype>audio</mediatype>
								<trackindex>2</trackindex>
								<clipindex>36</clipindex>
								<groupindex>1</groupindex>
							</link>
							<itemhistory>
								<uuid>F1B4FF22-E745-4409-AB32-28A7C8552220</uuid>
							</itemhistory>
						</clipitem>
						<clipitem id="The-one112">
							<name>The-one</name>
							<duration>5477</duration>
							<rate>
								<ntsc>FALSE</ntsc>
								<timebase>25</timebase>
							</rate>
							<in>4017</in>
							<out>4074</out>
							<start>2256</start>
							<end>2313</end>
							<subframeoffset>0</subframeoffset>
							<masterclipid>The-one1</masterclipid>
							<logginginfo>
								<scene/>
								<shottake/>
								<lognote/>
								<good>FALSE</good>
							</logginginfo>
							<labels>
								<label2/>
							</labels>
							<comments>
								<mastercomment1/>
								<mastercomment2/>
								<mastercomment3/>
								<mastercomment4/>
							</comments>
							<file id="The-one2"/>
							<filter>
								<effect>
									<name>Audio Levels</name>
									<effectid>audiolevels</effectid>
									<effectcategory>audiolevels</effectcategory>
									<effecttype>audiolevels</effecttype>
									<mediatype>audio</mediatype>
									<parameter>
										<name>Level</name>
										<parameterid>level</parameterid>
										<valuemin>0</valuemin>
										<valuemax>3.98109</valuemax>
										<value>1</value>
									</parameter>
								</effect>
							</filter>
							<filter>
								<effect>
									<name>Audio Pan</name>
									<effectid>audiopan</effectid>
									<effectcategory>audiopan</effectcategory>
									<effecttype>audiopan</effecttype>
									<mediatype>audio</mediatype>
									<parameter>
										<name>Pan</name>
										<parameterid>pan</parameterid>
										<valuemin>-1</valuemin>
										<valuemax>1</valuemax>
										<value>1</value>
									</parameter>
								</effect>
							</filter>
							<sourcetrack>
								<mediatype>audio</mediatype>
								<trackindex>2</trackindex>
							</sourcetrack>
							<link>
								<linkclipref>The-one110</linkclipref>
								<mediatype>video</mediatype>
								<trackindex>1</trackindex>
								<clipindex>37</clipindex>
							</link>
							<link>
								<linkclipref>The-one111</linkclipref>
								<mediatype>audio</mediatype>
								<trackindex>1</trackindex>
								<clipindex>37</clipindex>
								<groupindex>1</groupindex>
							</link>
							<link>
								<linkclipref>The-one112</linkclipref>
								<mediatype>audio</mediatype>
								<trackindex>2</trackindex>
								<clipindex>37</clipindex>
								<groupindex>1</groupindex>
							</link>
							<itemhistory>
								<uuid>E30B13DD-9564-4A4A-AE1F-83C9C88866C8</uuid>
							</itemhistory>
						</clipitem>
						<clipitem id="The-one115">
							<name>The-one</name>
							<duration>5477</duration>
							<rate>
								<ntsc>FALSE</ntsc>
								<timebase>25</timebase>
							</rate>
							<in>4125</in>
							<out>4189</out>
							<start>2313</start>
							<end>2377</end>
							<subframeoffset>0</subframeoffset>
							<masterclipid>The-one1</masterclipid>
							<logginginfo>
								<scene/>
								<shottake/>
								<lognote/>
								<good>FALSE</good>
							</logginginfo>
							<labels>
								<label2/>
							</labels>
							<comments>
								<mastercomment1/>
								<mastercomment2/>
								<mastercomment3/>
								<mastercomment4/>
							</comments>
							<file id="The-one2"/>
							<filter>
								<effect>
									<name>Audio Levels</name>
									<effectid>audiolevels</effectid>
									<effectcategory>audiolevels</effectcategory>
									<effecttype>audiolevels</effecttype>
									<mediatype>audio</mediatype>
									<parameter>
										<name>Level</name>
										<parameterid>level</parameterid>
										<valuemin>0</valuemin>
										<valuemax>3.98109</valuemax>
										<value>1</value>
									</parameter>
								</effect>
							</filter>
							<filter>
								<effect>
									<name>Audio Pan</name>
									<effectid>audiopan</effectid>
									<effectcategory>audiopan</effectcategory>
									<effecttype>audiopan</effecttype>
									<mediatype>audio</mediatype>
									<parameter>
										<name>Pan</name>
										<parameterid>pan</parameterid>
										<valuemin>-1</valuemin>
										<valuemax>1</valuemax>
										<value>1</value>
									</parameter>
								</effect>
							</filter>
							<sourcetrack>
								<mediatype>audio</mediatype>
								<trackindex>2</trackindex>
							</sourcetrack>
							<link>
								<linkclipref>The-one113</linkclipref>
								<mediatype>video</mediatype>
								<trackindex>1</trackindex>
								<clipindex>38</clipindex>
							</link>
							<link>
								<linkclipref>The-one114</linkclipref>
								<mediatype>audio</mediatype>
								<trackindex>1</trackindex>
								<clipindex>38</clipindex>
								<groupindex>1</groupindex>
							</link>
							<link>
								<linkclipref>The-one115</linkclipref>
								<mediatype>audio</mediatype>
								<trackindex>2</trackindex>
								<clipindex>38</clipindex>
								<groupindex>1</groupindex>
							</link>
							<itemhistory>
								<uuid>2F74611E-3F46-49DF-A2B9-98C9C98CE039</uuid>
							</itemhistory>
						</clipitem>
						<clipitem id="The-one118">
							<name>The-one</name>
							<duration>5477</duration>
							<rate>
								<ntsc>FALSE</ntsc>
								<timebase>25</timebase>
							</rate>
							<in>4909</in>
							<out>5031</out>
							<start>2377</start>
							<end>2499</end>
							<subframeoffset>0</subframeoffset>
							<masterclipid>The-one1</masterclipid>
							<logginginfo>
								<scene/>
								<shottake/>
								<lognote/>
								<good>FALSE</good>
							</logginginfo>
							<labels>
								<label2/>
							</labels>
							<comments>
								<mastercomment1/>
								<mastercomment2/>
								<mastercomment3/>
								<mastercomment4/>
							</comments>
							<file id="The-one2"/>
							<filter>
								<effect>
									<name>Audio Levels</name>
									<effectid>audiolevels</effectid>
									<effectcategory>audiolevels</effectcategory>
									<effecttype>audiolevels</effecttype>
									<mediatype>audio</mediatype>
									<parameter>
										<name>Level</name>
										<parameterid>level</parameterid>
										<valuemin>0</valuemin>
										<valuemax>3.98109</valuemax>
										<value>1</value>
									</parameter>
								</effect>
							</filter>
							<filter>
								<effect>
									<name>Audio Pan</name>
									<effectid>audiopan</effectid>
									<effectcategory>audiopan</effectcategory>
									<effecttype>audiopan</effecttype>
									<mediatype>audio</mediatype>
									<parameter>
										<name>Pan</name>
										<parameterid>pan</parameterid>
										<valuemin>-1</valuemin>
										<valuemax>1</valuemax>
										<value>1</value>
									</parameter>
								</effect>
							</filter>
							<sourcetrack>
								<mediatype>audio</mediatype>
								<trackindex>2</trackindex>
							</sourcetrack>
							<link>
								<linkclipref>The-one116</linkclipref>
								<mediatype>video</mediatype>
								<trackindex>1</trackindex>
								<clipindex>39</clipindex>
							</link>
							<link>
								<linkclipref>The-one117</linkclipref>
								<mediatype>audio</mediatype>
								<trackindex>1</trackindex>
								<clipindex>39</clipindex>
								<groupindex>1</groupindex>
							</link>
							<link>
								<linkclipref>The-one118</linkclipref>
								<mediatype>audio</mediatype>
								<trackindex>2</trackindex>
								<clipindex>39</clipindex>
								<groupindex>1</groupindex>
							</link>
							<itemhistory>
								<uuid>D0D9C839-05EA-45C3-AC3B-2F3DF5DBBD46</uuid>
							</itemhistory>
						</clipitem>
						<clipitem id="The-one121">
							<name>The-one</name>
							<duration>5477</duration>
							<rate>
								<ntsc>FALSE</ntsc>
								<timebase>25</timebase>
							</rate>
							<in>2092</in>
							<out>2163</out>
							<start>2499</start>
							<end>2570</end>
							<subframeoffset>0</subframeoffset>
							<masterclipid>The-one1</masterclipid>
							<logginginfo>
								<scene/>
								<shottake/>
								<lognote/>
								<good>FALSE</good>
							</logginginfo>
							<labels>
								<label2/>
							</labels>
							<comments>
								<mastercomment1/>
								<mastercomment2/>
								<mastercomment3/>
								<mastercomment4/>
							</comments>
							<file id="The-one2"/>
							<filter>
								<effect>
									<name>Audio Levels</name>
									<effectid>audiolevels</effectid>
									<effectcategory>audiolevels</effectcategory>
									<effecttype>audiolevels</effecttype>
									<mediatype>audio</mediatype>
									<parameter>
										<name>Level</name>
										<parameterid>level</parameterid>
										<valuemin>0</valuemin>
										<valuemax>3.98109</valuemax>
										<value>1</value>
									</parameter>
								</effect>
							</filter>
							<filter>
								<effect>
									<name>Audio Pan</name>
									<effectid>audiopan</effectid>
									<effectcategory>audiopan</effectcategory>
									<effecttype>audiopan</effecttype>
									<mediatype>audio</mediatype>
									<parameter>
										<name>Pan</name>
										<parameterid>pan</parameterid>
										<valuemin>-1</valuemin>
										<valuemax>1</valuemax>
										<value>1</value>
									</parameter>
								</effect>
							</filter>
							<sourcetrack>
								<mediatype>audio</mediatype>
								<trackindex>2</trackindex>
							</sourcetrack>
							<link>
								<linkclipref>The-one119</linkclipref>
								<mediatype>video</mediatype>
								<trackindex>1</trackindex>
								<clipindex>40</clipindex>
							</link>
							<link>
								<linkclipref>The-one120</linkclipref>
								<mediatype>audio</mediatype>
								<trackindex>1</trackindex>
								<clipindex>40</clipindex>
								<groupindex>1</groupindex>
							</link>
							<link>
								<linkclipref>The-one121</linkclipref>
								<mediatype>audio</mediatype>
								<trackindex>2</trackindex>
								<clipindex>40</clipindex>
								<groupindex>1</groupindex>
							</link>
							<itemhistory>
								<uuid>8E485EEA-19BC-4131-9350-C615E9B2A81A</uuid>
							</itemhistory>
						</clipitem>
						<clipitem id="The-one124">
							<name>The-one</name>
							<duration>5477</duration>
							<rate>
								<ntsc>FALSE</ntsc>
								<timebase>25</timebase>
							</rate>
							<in>1812</in>
							<out>1869</out>
							<start>2570</start>
							<end>2627</end>
							<subframeoffset>0</subframeoffset>
							<masterclipid>The-one1</masterclipid>
							<logginginfo>
								<scene/>
								<shottake/>
								<lognote/>
								<good>FALSE</good>
							</logginginfo>
							<labels>
								<label2/>
							</labels>
							<comments>
								<mastercomment1/>
								<mastercomment2/>
								<mastercomment3/>
								<mastercomment4/>
							</comments>
							<file id="The-one2"/>
							<filter>
								<effect>
									<name>Audio Levels</name>
									<effectid>audiolevels</effectid>
									<effectcategory>audiolevels</effectcategory>
									<effecttype>audiolevels</effecttype>
									<mediatype>audio</mediatype>
									<parameter>
										<name>Level</name>
										<parameterid>level</parameterid>
										<valuemin>0</valuemin>
										<valuemax>3.98109</valuemax>
										<value>1</value>
									</parameter>
								</effect>
							</filter>
							<filter>
								<effect>
									<name>Audio Pan</name>
									<effectid>audiopan</effectid>
									<effectcategory>audiopan</effectcategory>
									<effecttype>audiopan</effecttype>
									<mediatype>audio</mediatype>
									<parameter>
										<name>Pan</name>
										<parameterid>pan</parameterid>
										<valuemin>-1</valuemin>
										<valuemax>1</valuemax>
										<value>1</value>
									</parameter>
								</effect>
							</filter>
							<sourcetrack>
								<mediatype>audio</mediatype>
								<trackindex>2</trackindex>
							</sourcetrack>
							<link>
								<linkclipref>The-one122</linkclipref>
								<mediatype>video</mediatype>
								<trackindex>1</trackindex>
								<clipindex>41</clipindex>
							</link>
							<link>
								<linkclipref>The-one123</linkclipref>
								<mediatype>audio</mediatype>
								<trackindex>1</trackindex>
								<clipindex>41</clipindex>
								<groupindex>1</groupindex>
							</link>
							<link>
								<linkclipref>The-one124</linkclipref>
								<mediatype>audio</mediatype>
								<trackindex>2</trackindex>
								<clipindex>41</clipindex>
								<groupindex>1</groupindex>
							</link>
							<itemhistory>
								<uuid>BC0D93B1-3D52-4C07-A9C5-71FCD89A1A3D</uuid>
							</itemhistory>
						</clipitem>
						<clipitem id="The-one127">
							<name>The-one</name>
							<duration>5477</duration>
							<rate>
								<ntsc>FALSE</ntsc>
								<timebase>25</timebase>
							</rate>
							<in>2163</in>
							<out>2225</out>
							<start>2627</start>
							<end>2689</end>
							<subframeoffset>0</subframeoffset>
							<masterclipid>The-one1</masterclipid>
							<logginginfo>
								<scene/>
								<shottake/>
								<lognote/>
								<good>FALSE</good>
							</logginginfo>
							<labels>
								<label2/>
							</labels>
							<comments>
								<mastercomment1/>
								<mastercomment2/>
								<mastercomment3/>
								<mastercomment4/>
							</comments>
							<file id="The-one2"/>
							<filter>
								<effect>
									<name>Audio Levels</name>
									<effectid>audiolevels</effectid>
									<effectcategory>audiolevels</effectcategory>
									<effecttype>audiolevels</effecttype>
									<mediatype>audio</mediatype>
									<parameter>
										<name>Level</name>
										<parameterid>level</parameterid>
										<valuemin>0</valuemin>
										<valuemax>3.98109</valuemax>
										<value>1</value>
									</parameter>
								</effect>
							</filter>
							<filter>
								<effect>
									<name>Audio Pan</name>
									<effectid>audiopan</effectid>
									<effectcategory>audiopan</effectcategory>
									<effecttype>audiopan</effecttype>
									<mediatype>audio</mediatype>
									<parameter>
										<name>Pan</name>
										<parameterid>pan</parameterid>
										<valuemin>-1</valuemin>
										<valuemax>1</valuemax>
										<value>1</value>
									</parameter>
								</effect>
							</filter>
							<sourcetrack>
								<mediatype>audio</mediatype>
								<trackindex>2</trackindex>
							</sourcetrack>
							<link>
								<linkclipref>The-one125</linkclipref>
								<mediatype>video</mediatype>
								<trackindex>1</trackindex>
								<clipindex>42</clipindex>
							</link>
							<link>
								<linkclipref>The-one126</linkclipref>
								<mediatype>audio</mediatype>
								<trackindex>1</trackindex>
								<clipindex>42</clipindex>
								<groupindex>1</groupindex>
							</link>
							<link>
								<linkclipref>The-one127</linkclipref>
								<mediatype>audio</mediatype>
								<trackindex>2</trackindex>
								<clipindex>42</clipindex>
								<groupindex>1</groupindex>
							</link>
							<itemhistory>
								<uuid>E5DDFD74-9A00-4BEC-9472-A1078C3BF479</uuid>
							</itemhistory>
						</clipitem>
						<clipitem id="The-one130">
							<name>The-one</name>
							<duration>5477</duration>
							<rate>
								<ntsc>FALSE</ntsc>
								<timebase>25</timebase>
							</rate>
							<in>2771</in>
							<out>2827</out>
							<start>2689</start>
							<end>2745</end>
							<subframeoffset>0</subframeoffset>
							<enabled>TRUE</enabled>
							<masterclipid>The-one1</masterclipid>
							<logginginfo>
								<scene/>
								<shottake/>
								<lognote/>
								<good>FALSE</good>
							</logginginfo>
							<labels>
								<label2/>
							</labels>
							<comments>
								<mastercomment1/>
								<mastercomment2/>
								<mastercomment3/>
								<mastercomment4/>
							</comments>
							<file id="The-one2"/>
							<filter>
								<effect>
									<name>Audio Levels</name>
									<effectid>audiolevels</effectid>
									<effectcategory>audiolevels</effectcategory>
									<effecttype>audiolevels</effecttype>
									<mediatype>audio</mediatype>
									<parameter>
										<name>Level</name>
										<parameterid>level</parameterid>
										<valuemin>0</valuemin>
										<valuemax>3.98109</valuemax>
										<value>1</value>
									</parameter>
								</effect>
							</filter>
							<filter>
								<effect>
									<name>Audio Pan</name>
									<effectid>audiopan</effectid>
									<effectcategory>audiopan</effectcategory>
									<effecttype>audiopan</effecttype>
									<mediatype>audio</mediatype>
									<parameter>
										<name>Pan</name>
										<parameterid>pan</parameterid>
										<valuemin>-1</valuemin>
										<valuemax>1</valuemax>
										<value>1</value>
									</parameter>
								</effect>
							</filter>
							<sourcetrack>
								<mediatype>audio</mediatype>
								<trackindex>2</trackindex>
							</sourcetrack>
							<link>
								<linkclipref>The-one128</linkclipref>
								<mediatype>video</mediatype>
								<trackindex>1</trackindex>
								<clipindex>43</clipindex>
							</link>
							<link>
								<linkclipref>The-one129</linkclipref>
								<mediatype>audio</mediatype>
								<trackindex>1</trackindex>
								<clipindex>43</clipindex>
								<groupindex>1</groupindex>
							</link>
							<link>
								<linkclipref>The-one130</linkclipref>
								<mediatype>audio</mediatype>
								<trackindex>2</trackindex>
								<clipindex>43</clipindex>
								<groupindex>1</groupindex>
							</link>
							<itemhistory>
								<uuid>32A3E476-EB2E-4D61-9BE3-3F825DE6D340</uuid>
							</itemhistory>
						</clipitem>
						<clipitem id="The-one133">
							<name>The-one</name>
							<duration>5477</duration>
							<rate>
								<ntsc>FALSE</ntsc>
								<timebase>25</timebase>
							</rate>
							<in>2995</in>
							<out>3055</out>
							<start>2745</start>
							<end>2805</end>
							<subframeoffset>0</subframeoffset>
							<enabled>TRUE</enabled>
							<masterclipid>The-one1</masterclipid>
							<logginginfo>
								<scene/>
								<shottake/>
								<lognote/>
								<good>FALSE</good>
							</logginginfo>
							<labels>
								<label2/>
							</labels>
							<comments>
								<mastercomment1/>
								<mastercomment2/>
								<mastercomment3/>
								<mastercomment4/>
							</comments>
							<file id="The-one2"/>
							<filter>
								<effect>
									<name>Audio Levels</name>
									<effectid>audiolevels</effectid>
									<effectcategory>audiolevels</effectcategory>
									<effecttype>audiolevels</effecttype>
									<mediatype>audio</mediatype>
									<parameter>
										<name>Level</name>
										<parameterid>level</parameterid>
										<valuemin>0</valuemin>
										<valuemax>3.98109</valuemax>
										<value>1</value>
									</parameter>
								</effect>
							</filter>
							<filter>
								<effect>
									<name>Audio Pan</name>
									<effectid>audiopan</effectid>
									<effectcategory>audiopan</effectcategory>
									<effecttype>audiopan</effecttype>
									<mediatype>audio</mediatype>
									<parameter>
										<name>Pan</name>
										<parameterid>pan</parameterid>
										<valuemin>-1</valuemin>
										<valuemax>1</valuemax>
										<value>1</value>
									</parameter>
								</effect>
							</filter>
							<sourcetrack>
								<mediatype>audio</mediatype>
								<trackindex>2</trackindex>
							</sourcetrack>
							<link>
								<linkclipref>The-one131</linkclipref>
								<mediatype>video</mediatype>
								<trackindex>1</trackindex>
								<clipindex>44</clipindex>
							</link>
							<link>
								<linkclipref>The-one132</linkclipref>
								<mediatype>audio</mediatype>
								<trackindex>1</trackindex>
								<clipindex>44</clipindex>
								<groupindex>1</groupindex>
							</link>
							<link>
								<linkclipref>The-one133</linkclipref>
								<mediatype>audio</mediatype>
								<trackindex>2</trackindex>
								<clipindex>44</clipindex>
								<groupindex>1</groupindex>
							</link>
							<itemhistory>
								<uuid>41866651-BA03-4ED0-A9C2-F468061D47B5</uuid>
							</itemhistory>
						</clipitem>
						<clipitem id="The-one136">
							<name>The-one</name>
							<duration>5477</duration>
							<rate>
								<ntsc>FALSE</ntsc>
								<timebase>25</timebase>
							</rate>
							<in>5090</in>
							<out>5206</out>
							<start>2805</start>
							<end>2921</end>
							<subframeoffset>0</subframeoffset>
							<masterclipid>The-one1</masterclipid>
							<logginginfo>
								<scene/>
								<shottake/>
								<lognote/>
								<good>FALSE</good>
							</logginginfo>
							<labels>
								<label2/>
							</labels>
							<comments>
								<mastercomment1/>
								<mastercomment2/>
								<mastercomment3/>
								<mastercomment4/>
							</comments>
							<file id="The-one2"/>
							<filter>
								<effect>
									<name>Audio Levels</name>
									<effectid>audiolevels</effectid>
									<effectcategory>audiolevels</effectcategory>
									<effecttype>audiolevels</effecttype>
									<mediatype>audio</mediatype>
									<parameter>
										<name>Level</name>
										<parameterid>level</parameterid>
										<valuemin>0</valuemin>
										<valuemax>3.98109</valuemax>
										<value>1</value>
									</parameter>
								</effect>
							</filter>
							<filter>
								<effect>
									<name>Audio Pan</name>
									<effectid>audiopan</effectid>
									<effectcategory>audiopan</effectcategory>
									<effecttype>audiopan</effecttype>
									<mediatype>audio</mediatype>
									<parameter>
										<name>Pan</name>
										<parameterid>pan</parameterid>
										<valuemin>-1</valuemin>
										<valuemax>1</valuemax>
										<value>1</value>
									</parameter>
								</effect>
							</filter>
							<sourcetrack>
								<mediatype>audio</mediatype>
								<trackindex>2</trackindex>
							</sourcetrack>
							<link>
								<linkclipref>The-one134</linkclipref>
								<mediatype>video</mediatype>
								<trackindex>1</trackindex>
								<clipindex>45</clipindex>
							</link>
							<link>
								<linkclipref>The-one135</linkclipref>
								<mediatype>audio</mediatype>
								<trackindex>1</trackindex>
								<clipindex>45</clipindex>
								<groupindex>1</groupindex>
							</link>
							<link>
								<linkclipref>The-one136</linkclipref>
								<mediatype>audio</mediatype>
								<trackindex>2</trackindex>
								<clipindex>45</clipindex>
								<groupindex>1</groupindex>
							</link>
							<itemhistory>
								<uuid>6CA875DA-4D9B-4DB1-8E59-AD5BE3758559</uuid>
							</itemhistory>
						</clipitem>
						<enabled>TRUE</enabled>
						<locked>FALSE</locked>
						<outputchannelindex>2</outputchannelindex>
					</track>
					<track>
						<enabled>TRUE</enabled>
						<locked>FALSE</locked>
						<outputchannelindex>1</outputchannelindex>
					</track>
					<track>
						<enabled>TRUE</enabled>
						<locked>FALSE</locked>
						<outputchannelindex>2</outputchannelindex>
					</track>
					<filter>
						<effect>
							<name>Audio Levels</name>
							<effectid>audiolevels</effectid>
							<effectcategory>audiolevels</effectcategory>
							<effecttype>audiolevels</effecttype>
							<mediatype>audio</mediatype>
							<parameter>
								<name>Level</name>
								<parameterid>level</parameterid>
								<valuemin>0</valuemin>
								<valuemax>3.98109</valuemax>
								<value>1</value>
							</parameter>
						</effect>
					</filter>
				</audio>
			</media>
			<ismasterclip>FALSE</ismasterclip>
		</sequence>
		<sequence id="Sequence 1 ">
			<uuid>A47795FF-720D-41C8-BD05-365EE95BD91B</uuid>
			<updatebehavior>add</updatebehavior>
			<name>Sequence 1</name>
			<duration>2624</duration>
			<rate>
				<ntsc>FALSE</ntsc>
				<timebase>25</timebase>
			</rate>
			<timecode>
				<rate>
					<ntsc>FALSE</ntsc>
					<timebase>25</timebase>
				</rate>
				<string>01:00:00:00</string>
				<frame>90000</frame>
				<source>source</source>
				<displayformat>NDF</displayformat>
			</timecode>
			<in>-1</in>
			<out>-1</out>
			<media>
				<video>
					<format>
						<samplecharacteristics>
							<width>1920</width>
							<height>1080</height>
							<anamorphic>FALSE</anamorphic>
							<pixelaspectratio>Square</pixelaspectratio>
							<fielddominance>upper</fielddominance>
							<rate>
								<ntsc>FALSE</ntsc>
								<timebase>25</timebase>
							</rate>
							<colordepth>24</colordepth>
							<codec>
								<name>Apple ProRes 422 (HQ)</name>
								<appspecificdata>
									<appname>Final Cut Pro</appname>
									<appmanufacturer>Apple Inc.</appmanufacturer>
									<appversion>7.0</appversion>
									<data>
										<qtcodec>
											<codecname>Apple ProRes 422 (HQ)</codecname>
											<codectypename>Apple ProRes 422 (HQ)</codectypename>
											<codectypecode>apch</codectypecode>
											<codecvendorcode>appl</codecvendorcode>
											<spatialquality>1023</spatialquality>
											<temporalquality>0</temporalquality>
											<keyframerate>0</keyframerate>
											<datarate>0</datarate>
										</qtcodec>
									</data>
								</appspecificdata>
							</codec>
						</samplecharacteristics>
						<appspecificdata>
							<appname>Final Cut Pro</appname>
							<appmanufacturer>Apple Inc.</appmanufacturer>
							<appversion>7.0</appversion>
							<data>
								<fcpimageprocessing>
									<useyuv>TRUE</useyuv>
									<usesuperwhite>FALSE</usesuperwhite>
									<rendermode>Float10BPP</rendermode>
								</fcpimageprocessing>
							</data>
						</appspecificdata>
					</format>
					<track>
						<clipitem id="The-one137">
							<name>The-one</name>
							<duration>5477</duration>
							<rate>
								<ntsc>FALSE</ntsc>
								<timebase>25</timebase>
							</rate>
							<in>223</in>
							<out>277</out>
							<start>0</start>
							<end>54</end>
							<pixelaspectratio>Square</pixelaspectratio>
							<anamorphic>FALSE</anamorphic>
							<alphatype>none</alphatype>
							<masterclipid>The-one1</masterclipid>
							<logginginfo>
								<scene/>
								<shottake/>
								<lognote/>
								<good>FALSE</good>
							</logginginfo>
							<labels>
								<label2/>
							</labels>
							<comments>
								<mastercomment1/>
								<mastercomment2/>
								<mastercomment3/>
								<mastercomment4/>
							</comments>
							<file id="The-one2"/>
							<sourcetrack>
								<mediatype>video</mediatype>
							</sourcetrack>
							<link>
								<linkclipref>The-one137</linkclipref>
								<mediatype>video</mediatype>
								<trackindex>1</trackindex>
								<clipindex>1</clipindex>
							</link>
							<link>
								<linkclipref>The-one138</linkclipref>
								<mediatype>audio</mediatype>
								<trackindex>1</trackindex>
								<clipindex>1</clipindex>
								<groupindex>1</groupindex>
							</link>
							<link>
								<linkclipref>The-one139</linkclipref>
								<mediatype>audio</mediatype>
								<trackindex>2</trackindex>
								<clipindex>1</clipindex>
								<groupindex>1</groupindex>
							</link>
							<fielddominance>upper</fielddominance>
							<itemhistory>
								<uuid>C91729F4-D911-44D3-B115-69D6B215112E</uuid>
							</itemhistory>
						</clipitem>
						<clipitem id="The-one140">
							<name>The-one</name>
							<duration>5477</duration>
							<rate>
								<ntsc>FALSE</ntsc>
								<timebase>25</timebase>
							</rate>
							<in>335</in>
							<out>399</out>
							<start>54</start>
							<end>118</end>
							<pixelaspectratio>Square</pixelaspectratio>
							<anamorphic>FALSE</anamorphic>
							<alphatype>none</alphatype>
							<masterclipid>The-one1</masterclipid>
							<logginginfo>
								<scene/>
								<shottake/>
								<lognote/>
								<good>FALSE</good>
							</logginginfo>
							<labels>
								<label2/>
							</labels>
							<comments>
								<mastercomment1/>
								<mastercomment2/>
								<mastercomment3/>
								<mastercomment4/>
							</comments>
							<file id="The-one2"/>
							<sourcetrack>
								<mediatype>video</mediatype>
							</sourcetrack>
							<link>
								<linkclipref>The-one140</linkclipref>
								<mediatype>video</mediatype>
								<trackindex>1</trackindex>
								<clipindex>2</clipindex>
							</link>
							<link>
								<linkclipref>The-one141</linkclipref>
								<mediatype>audio</mediatype>
								<trackindex>1</trackindex>
								<clipindex>2</clipindex>
								<groupindex>1</groupindex>
							</link>
							<link>
								<linkclipref>The-one142</linkclipref>
								<mediatype>audio</mediatype>
								<trackindex>2</trackindex>
								<clipindex>2</clipindex>
								<groupindex>1</groupindex>
							</link>
							<fielddominance>upper</fielddominance>
							<itemhistory>
								<uuid>8932A0BA-54B3-4C2C-B9FF-A364A6BC87B8</uuid>
							</itemhistory>
						</clipitem>
						<clipitem id="The-one143">
							<name>The-one</name>
							<duration>5477</duration>
							<rate>
								<ntsc>FALSE</ntsc>
								<timebase>25</timebase>
							</rate>
							<in>450</in>
							<out>509</out>
							<start>118</start>
							<end>177</end>
							<pixelaspectratio>Square</pixelaspectratio>
							<enabled>TRUE</enabled>
							<anamorphic>FALSE</anamorphic>
							<alphatype>none</alphatype>
							<masterclipid>The-one1</masterclipid>
							<logginginfo>
								<scene/>
								<shottake/>
								<lognote/>
								<good>FALSE</good>
							</logginginfo>
							<labels>
								<label2/>
							</labels>
							<comments>
								<mastercomment1/>
								<mastercomment2/>
								<mastercomment3/>
								<mastercomment4/>
							</comments>
							<file id="The-one2"/>
							<sourcetrack>
								<mediatype>video</mediatype>
							</sourcetrack>
							<link>
								<linkclipref>The-one143</linkclipref>
								<mediatype>video</mediatype>
								<trackindex>1</trackindex>
								<clipindex>3</clipindex>
							</link>
							<link>
								<linkclipref>The-one144</linkclipref>
								<mediatype>audio</mediatype>
								<trackindex>1</trackindex>
								<clipindex>3</clipindex>
								<groupindex>1</groupindex>
							</link>
							<link>
								<linkclipref>The-one145</linkclipref>
								<mediatype>audio</mediatype>
								<trackindex>2</trackindex>
								<clipindex>3</clipindex>
								<groupindex>1</groupindex>
							</link>
							<fielddominance>upper</fielddominance>
							<itemhistory>
								<uuid>D513543D-B12E-4F13-8316-8DA10CB562A9</uuid>
							</itemhistory>
						</clipitem>
						<clipitem id="The-one146">
							<name>The-one</name>
							<duration>5477</duration>
							<rate>
								<ntsc>FALSE</ntsc>
								<timebase>25</timebase>
							</rate>
							<in>563</in>
							<out>614</out>
							<start>177</start>
							<end>228</end>
							<pixelaspectratio>Square</pixelaspectratio>
							<enabled>TRUE</enabled>
							<anamorphic>FALSE</anamorphic>
							<alphatype>none</alphatype>
							<masterclipid>The-one1</masterclipid>
							<logginginfo>
								<scene/>
								<shottake/>
								<lognote/>
								<good>FALSE</good>
							</logginginfo>
							<labels>
								<label2/>
							</labels>
							<comments>
								<mastercomment1/>
								<mastercomment2/>
								<mastercomment3/>
								<mastercomment4/>
							</comments>
							<file id="The-one2"/>
							<sourcetrack>
								<mediatype>video</mediatype>
							</sourcetrack>
							<link>
								<linkclipref>The-one146</linkclipref>
								<mediatype>video</mediatype>
								<trackindex>1</trackindex>
								<clipindex>4</clipindex>
							</link>
							<link>
								<linkclipref>The-one147</linkclipref>
								<mediatype>audio</mediatype>
								<trackindex>1</trackindex>
								<clipindex>4</clipindex>
								<groupindex>1</groupindex>
							</link>
							<link>
								<linkclipref>The-one148</linkclipref>
								<mediatype>audio</mediatype>
								<trackindex>2</trackindex>
								<clipindex>4</clipindex>
								<groupindex>1</groupindex>
							</link>
							<fielddominance>upper</fielddominance>
							<itemhistory>
								<uuid>326F8F6A-1B7F-4E44-9864-74F5BCAAB229</uuid>
							</itemhistory>
						</clipitem>
						<clipitem id="The-one149">
							<name>The-one</name>
							<duration>5477</duration>
							<rate>
								<ntsc>FALSE</ntsc>
								<timebase>25</timebase>
							</rate>
							<in>715</in>
							<out>749</out>
							<start>228</start>
							<end>262</end>
							<pixelaspectratio>Square</pixelaspectratio>
							<enabled>TRUE</enabled>
							<anamorphic>FALSE</anamorphic>
							<alphatype>none</alphatype>
							<masterclipid>The-one1</masterclipid>
							<logginginfo>
								<scene/>
								<shottake/>
								<lognote/>
								<good>FALSE</good>
							</logginginfo>
							<labels>
								<label2/>
							</labels>
							<comments>
								<mastercomment1/>
								<mastercomment2/>
								<mastercomment3/>
								<mastercomment4/>
							</comments>
							<file id="The-one2"/>
							<sourcetrack>
								<mediatype>video</mediatype>
							</sourcetrack>
							<link>
								<linkclipref>The-one149</linkclipref>
								<mediatype>video</mediatype>
								<trackindex>1</trackindex>
								<clipindex>5</clipindex>
							</link>
							<link>
								<linkclipref>The-one150</linkclipref>
								<mediatype>audio</mediatype>
								<trackindex>1</trackindex>
								<clipindex>5</clipindex>
								<groupindex>1</groupindex>
							</link>
							<link>
								<linkclipref>The-one151</linkclipref>
								<mediatype>audio</mediatype>
								<trackindex>2</trackindex>
								<clipindex>5</clipindex>
								<groupindex>1</groupindex>
							</link>
							<fielddominance>upper</fielddominance>
							<itemhistory>
								<uuid>B9C309DC-7252-4B9C-9967-0D990709BE58</uuid>
							</itemhistory>
						</clipitem>
						<clipitem id="The-one152">
							<name>The-one</name>
							<duration>5477</duration>
							<rate>
								<ntsc>FALSE</ntsc>
								<timebase>25</timebase>
							</rate>
							<in>799</in>
							<out>849</out>
							<start>262</start>
							<end>312</end>
							<pixelaspectratio>Square</pixelaspectratio>
							<anamorphic>FALSE</anamorphic>
							<alphatype>none</alphatype>
							<masterclipid>The-one1</masterclipid>
							<logginginfo>
								<scene/>
								<shottake/>
								<lognote/>
								<good>FALSE</good>
							</logginginfo>
							<labels>
								<label2/>
							</labels>
							<comments>
								<mastercomment1/>
								<mastercomment2/>
								<mastercomment3/>
								<mastercomment4/>
							</comments>
							<file id="The-one2"/>
							<sourcetrack>
								<mediatype>video</mediatype>
							</sourcetrack>
							<link>
								<linkclipref>The-one152</linkclipref>
								<mediatype>video</mediatype>
								<trackindex>1</trackindex>
								<clipindex>6</clipindex>
							</link>
							<link>
								<linkclipref>The-one153</linkclipref>
								<mediatype>audio</mediatype>
								<trackindex>1</trackindex>
								<clipindex>6</clipindex>
								<groupindex>1</groupindex>
							</link>
							<link>
								<linkclipref>The-one154</linkclipref>
								<mediatype>audio</mediatype>
								<trackindex>2</trackindex>
								<clipindex>6</clipindex>
								<groupindex>1</groupindex>
							</link>
							<fielddominance>upper</fielddominance>
							<itemhistory>
								<uuid>C55049A5-E3C1-4F8E-BF63-73E23996C403</uuid>
							</itemhistory>
						</clipitem>
						<clipitem id="The-one155">
							<name>The-one</name>
							<duration>5477</duration>
							<rate>
								<ntsc>FALSE</ntsc>
								<timebase>25</timebase>
							</rate>
							<in>903</in>
							<out>961</out>
							<start>312</start>
							<end>370</end>
							<pixelaspectratio>Square</pixelaspectratio>
							<enabled>TRUE</enabled>
							<anamorphic>FALSE</anamorphic>
							<alphatype>none</alphatype>
							<masterclipid>The-one1</masterclipid>
							<logginginfo>
								<scene/>
								<shottake/>
								<lognote/>
								<good>FALSE</good>
							</logginginfo>
							<labels>
								<label2/>
							</labels>
							<comments>
								<mastercomment1/>
								<mastercomment2/>
								<mastercomment3/>
								<mastercomment4/>
							</comments>
							<file id="The-one2"/>
							<sourcetrack>
								<mediatype>video</mediatype>
							</sourcetrack>
							<link>
								<linkclipref>The-one155</linkclipref>
								<mediatype>video</mediatype>
								<trackindex>1</trackindex>
								<clipindex>7</clipindex>
							</link>
							<link>
								<linkclipref>The-one156</linkclipref>
								<mediatype>audio</mediatype>
								<trackindex>1</trackindex>
								<clipindex>7</clipindex>
								<groupindex>1</groupindex>
							</link>
							<link>
								<linkclipref>The-one157</linkclipref>
								<mediatype>audio</mediatype>
								<trackindex>2</trackindex>
								<clipindex>7</clipindex>
								<groupindex>1</groupindex>
							</link>
							<fielddominance>upper</fielddominance>
							<itemhistory>
								<uuid>97AE6B93-74DD-4EC0-9E12-11A96B398D3A</uuid>
							</itemhistory>
						</clipitem>
						<clipitem id="The-one158">
							<name>The-one</name>
							<duration>5477</duration>
							<rate>
								<ntsc>FALSE</ntsc>
								<timebase>25</timebase>
							</rate>
							<in>1019</in>
							<out>1073</out>
							<start>370</start>
							<end>424</end>
							<pixelaspectratio>Square</pixelaspectratio>
							<anamorphic>FALSE</anamorphic>
							<alphatype>none</alphatype>
							<masterclipid>The-one1</masterclipid>
							<logginginfo>
								<scene/>
								<shottake/>
								<lognote/>
								<good>FALSE</good>
							</logginginfo>
							<labels>
								<label2/>
							</labels>
							<comments>
								<mastercomment1/>
								<mastercomment2/>
								<mastercomment3/>
								<mastercomment4/>
							</comments>
							<file id="The-one2"/>
							<sourcetrack>
								<mediatype>video</mediatype>
							</sourcetrack>
							<link>
								<linkclipref>The-one158</linkclipref>
								<mediatype>video</mediatype>
								<trackindex>1</trackindex>
								<clipindex>8</clipindex>
							</link>
							<link>
								<linkclipref>The-one159</linkclipref>
								<mediatype>audio</mediatype>
								<trackindex>1</trackindex>
								<clipindex>8</clipindex>
								<groupindex>1</groupindex>
							</link>
							<link>
								<linkclipref>The-one160</linkclipref>
								<mediatype>audio</mediatype>
								<trackindex>2</trackindex>
								<clipindex>8</clipindex>
								<groupindex>1</groupindex>
							</link>
							<fielddominance>upper</fielddominance>
							<itemhistory>
								<uuid>E5895466-5745-480F-9793-567F8277BBBB</uuid>
							</itemhistory>
						</clipitem>
						<clipitem id="The-one161">
							<name>The-one</name>
							<duration>5477</duration>
							<rate>
								<ntsc>FALSE</ntsc>
								<timebase>25</timebase>
							</rate>
							<in>1131</in>
							<out>1197</out>
							<start>424</start>
							<end>490</end>
							<pixelaspectratio>Square</pixelaspectratio>
							<enabled>TRUE</enabled>
							<anamorphic>FALSE</anamorphic>
							<alphatype>none</alphatype>
							<masterclipid>The-one1</masterclipid>
							<logginginfo>
								<scene/>
								<shottake/>
								<lognote/>
								<good>FALSE</good>
							</logginginfo>
							<labels>
								<label2/>
							</labels>
							<comments>
								<mastercomment1/>
								<mastercomment2/>
								<mastercomment3/>
								<mastercomment4/>
							</comments>
							<file id="The-one2"/>
							<sourcetrack>
								<mediatype>video</mediatype>
							</sourcetrack>
							<link>
								<linkclipref>The-one161</linkclipref>
								<mediatype>video</mediatype>
								<trackindex>1</trackindex>
								<clipindex>9</clipindex>
							</link>
							<link>
								<linkclipref>The-one162</linkclipref>
								<mediatype>audio</mediatype>
								<trackindex>1</trackindex>
								<clipindex>9</clipindex>
								<groupindex>1</groupindex>
							</link>
							<link>
								<linkclipref>The-one163</linkclipref>
								<mediatype>audio</mediatype>
								<trackindex>2</trackindex>
								<clipindex>9</clipindex>
								<groupindex>1</groupindex>
							</link>
							<fielddominance>upper</fielddominance>
							<itemhistory>
								<uuid>ABA1D378-D498-4478-93FE-4894105348E5</uuid>
							</itemhistory>
						</clipitem>
						<clipitem id="The-one164">
							<name>The-one</name>
							<duration>5477</duration>
							<rate>
								<ntsc>FALSE</ntsc>
								<timebase>25</timebase>
							</rate>
							<in>1244</in>
							<out>1302</out>
							<start>490</start>
							<end>548</end>
							<pixelaspectratio>Square</pixelaspectratio>
							<anamorphic>FALSE</anamorphic>
							<alphatype>none</alphatype>
							<masterclipid>The-one1</masterclipid>
							<logginginfo>
								<scene/>
								<shottake/>
								<lognote/>
								<good>FALSE</good>
							</logginginfo>
							<labels>
								<label2/>
							</labels>
							<comments>
								<mastercomment1/>
								<mastercomment2/>
								<mastercomment3/>
								<mastercomment4/>
							</comments>
							<file id="The-one2"/>
							<sourcetrack>
								<mediatype>video</mediatype>
							</sourcetrack>
							<link>
								<linkclipref>The-one164</linkclipref>
								<mediatype>video</mediatype>
								<trackindex>1</trackindex>
								<clipindex>10</clipindex>
							</link>
							<link>
								<linkclipref>The-one165</linkclipref>
								<mediatype>audio</mediatype>
								<trackindex>1</trackindex>
								<clipindex>10</clipindex>
								<groupindex>1</groupindex>
							</link>
							<link>
								<linkclipref>The-one166</linkclipref>
								<mediatype>audio</mediatype>
								<trackindex>2</trackindex>
								<clipindex>10</clipindex>
								<groupindex>1</groupindex>
							</link>
							<fielddominance>upper</fielddominance>
							<itemhistory>
								<uuid>B868965A-4EA1-485B-8758-2AC199D4FC73</uuid>
							</itemhistory>
						</clipitem>
						<clipitem id="The-one167">
							<name>The-one</name>
							<duration>5477</duration>
							<rate>
								<ntsc>FALSE</ntsc>
								<timebase>25</timebase>
							</rate>
							<in>1359</in>
							<out>1414</out>
							<start>548</start>
							<end>603</end>
							<pixelaspectratio>Square</pixelaspectratio>
							<anamorphic>FALSE</anamorphic>
							<alphatype>none</alphatype>
							<masterclipid>The-one1</masterclipid>
							<logginginfo>
								<scene/>
								<shottake/>
								<lognote/>
								<good>FALSE</good>
							</logginginfo>
							<labels>
								<label2/>
							</labels>
							<comments>
								<mastercomment1/>
								<mastercomment2/>
								<mastercomment3/>
								<mastercomment4/>
							</comments>
							<file id="The-one2"/>
							<sourcetrack>
								<mediatype>video</mediatype>
							</sourcetrack>
							<link>
								<linkclipref>The-one167</linkclipref>
								<mediatype>video</mediatype>
								<trackindex>1</trackindex>
								<clipindex>11</clipindex>
							</link>
							<link>
								<linkclipref>The-one168</linkclipref>
								<mediatype>audio</mediatype>
								<trackindex>1</trackindex>
								<clipindex>11</clipindex>
								<groupindex>1</groupindex>
							</link>
							<link>
								<linkclipref>The-one169</linkclipref>
								<mediatype>audio</mediatype>
								<trackindex>2</trackindex>
								<clipindex>11</clipindex>
								<groupindex>1</groupindex>
							</link>
							<fielddominance>upper</fielddominance>
							<itemhistory>
								<uuid>7B6F1130-6D5E-4254-A3D5-9F4E5F49613D</uuid>
							</itemhistory>
						</clipitem>
						<clipitem id="The-one170">
							<name>The-one</name>
							<duration>5477</duration>
							<rate>
								<ntsc>FALSE</ntsc>
								<timebase>25</timebase>
							</rate>
							<in>1469</in>
							<out>1530</out>
							<start>603</start>
							<end>664</end>
							<pixelaspectratio>Square</pixelaspectratio>
							<enabled>TRUE</enabled>
							<anamorphic>FALSE</anamorphic>
							<alphatype>none</alphatype>
							<masterclipid>The-one1</masterclipid>
							<logginginfo>
								<scene/>
								<shottake/>
								<lognote/>
								<good>FALSE</good>
							</logginginfo>
							<labels>
								<label2/>
							</labels>
							<comments>
								<mastercomment1/>
								<mastercomment2/>
								<mastercomment3/>
								<mastercomment4/>
							</comments>
							<file id="The-one2"/>
							<sourcetrack>
								<mediatype>video</mediatype>
							</sourcetrack>
							<link>
								<linkclipref>The-one170</linkclipref>
								<mediatype>video</mediatype>
								<trackindex>1</trackindex>
								<clipindex>12</clipindex>
							</link>
							<link>
								<linkclipref>The-one171</linkclipref>
								<mediatype>audio</mediatype>
								<trackindex>1</trackindex>
								<clipindex>12</clipindex>
								<groupindex>1</groupindex>
							</link>
							<link>
								<linkclipref>The-one172</linkclipref>
								<mediatype>audio</mediatype>
								<trackindex>2</trackindex>
								<clipindex>12</clipindex>
								<groupindex>1</groupindex>
							</link>
							<fielddominance>upper</fielddominance>
							<itemhistory>
								<uuid>13CB0B1E-8116-44C2-856A-36BC057C29AF</uuid>
							</itemhistory>
						</clipitem>
						<clipitem id="The-one173">
							<name>The-one</name>
							<duration>5477</duration>
							<rate>
								<ntsc>FALSE</ntsc>
								<timebase>25</timebase>
							</rate>
							<in>1583</in>
							<out>1641</out>
							<start>664</start>
							<end>722</end>
							<pixelaspectratio>Square</pixelaspectratio>
							<enabled>TRUE</enabled>
							<anamorphic>FALSE</anamorphic>
							<alphatype>none</alphatype>
							<masterclipid>The-one1</masterclipid>
							<logginginfo>
								<scene/>
								<shottake/>
								<lognote/>
								<good>FALSE</good>
							</logginginfo>
							<labels>
								<label2/>
							</labels>
							<comments>
								<mastercomment1/>
								<mastercomment2/>
								<mastercomment3/>
								<mastercomment4/>
							</comments>
							<file id="The-one2"/>
							<sourcetrack>
								<mediatype>video</mediatype>
							</sourcetrack>
							<link>
								<linkclipref>The-one173</linkclipref>
								<mediatype>video</mediatype>
								<trackindex>1</trackindex>
								<clipindex>13</clipindex>
							</link>
							<link>
								<linkclipref>The-one174</linkclipref>
								<mediatype>audio</mediatype>
								<trackindex>1</trackindex>
								<clipindex>13</clipindex>
								<groupindex>1</groupindex>
							</link>
							<link>
								<linkclipref>The-one175</linkclipref>
								<mediatype>audio</mediatype>
								<trackindex>2</trackindex>
								<clipindex>13</clipindex>
								<groupindex>1</groupindex>
							</link>
							<fielddominance>upper</fielddominance>
							<itemhistory>
								<uuid>F336BDFC-06EF-4194-8117-3E8156A526B4</uuid>
							</itemhistory>
						</clipitem>
						<clipitem id="The-one176">
							<name>The-one</name>
							<duration>5477</duration>
							<rate>
								<ntsc>FALSE</ntsc>
								<timebase>25</timebase>
							</rate>
							<in>2092</in>
							<out>2158</out>
							<start>722</start>
							<end>788</end>
							<pixelaspectratio>Square</pixelaspectratio>
							<enabled>TRUE</enabled>
							<anamorphic>FALSE</anamorphic>
							<alphatype>none</alphatype>
							<masterclipid>The-one1</masterclipid>
							<logginginfo>
								<scene/>
								<shottake/>
								<lognote/>
								<good>FALSE</good>
							</logginginfo>
							<labels>
								<label2/>
							</labels>
							<comments>
								<mastercomment1/>
								<mastercomment2/>
								<mastercomment3/>
								<mastercomment4/>
							</comments>
							<file id="The-one2"/>
							<sourcetrack>
								<mediatype>video</mediatype>
							</sourcetrack>
							<link>
								<linkclipref>The-one176</linkclipref>
								<mediatype>video</mediatype>
								<trackindex>1</trackindex>
								<clipindex>14</clipindex>
							</link>
							<link>
								<linkclipref>The-one177</linkclipref>
								<mediatype>audio</mediatype>
								<trackindex>1</trackindex>
								<clipindex>14</clipindex>
								<groupindex>1</groupindex>
							</link>
							<link>
								<linkclipref>The-one178</linkclipref>
								<mediatype>audio</mediatype>
								<trackindex>2</trackindex>
								<clipindex>14</clipindex>
								<groupindex>1</groupindex>
							</link>
							<fielddominance>upper</fielddominance>
							<itemhistory>
								<uuid>73EB3CBA-B27E-42D9-B4A3-C37FF89F83F3</uuid>
							</itemhistory>
						</clipitem>
						<clipitem id="The-one179">
							<name>The-one</name>
							<duration>5477</duration>
							<rate>
								<ntsc>FALSE</ntsc>
								<timebase>25</timebase>
							</rate>
							<in>1019</in>
							<out>1073</out>
							<start>788</start>
							<end>842</end>
							<pixelaspectratio>Square</pixelaspectratio>
							<enabled>TRUE</enabled>
							<anamorphic>FALSE</anamorphic>
							<alphatype>none</alphatype>
							<masterclipid>The-one1</masterclipid>
							<logginginfo>
								<scene/>
								<shottake/>
								<lognote/>
								<good>FALSE</good>
							</logginginfo>
							<labels>
								<label2/>
							</labels>
							<comments>
								<mastercomment1/>
								<mastercomment2/>
								<mastercomment3/>
								<mastercomment4/>
							</comments>
							<file id="The-one2"/>
							<sourcetrack>
								<mediatype>video</mediatype>
							</sourcetrack>
							<link>
								<linkclipref>The-one179</linkclipref>
								<mediatype>video</mediatype>
								<trackindex>1</trackindex>
								<clipindex>15</clipindex>
							</link>
							<link>
								<linkclipref>The-one180</linkclipref>
								<mediatype>audio</mediatype>
								<trackindex>1</trackindex>
								<clipindex>15</clipindex>
								<groupindex>1</groupindex>
							</link>
							<link>
								<linkclipref>The-one181</linkclipref>
								<mediatype>audio</mediatype>
								<trackindex>2</trackindex>
								<clipindex>15</clipindex>
								<groupindex>1</groupindex>
							</link>
							<fielddominance>upper</fielddominance>
							<itemhistory>
								<uuid>3B0AFD7A-9A0C-40FF-A2D3-F8AE2F6CEC9A</uuid>
							</itemhistory>
						</clipitem>
						<clipitem id="The-one182">
							<name>The-one</name>
							<duration>5477</duration>
							<rate>
								<ntsc>FALSE</ntsc>
								<timebase>25</timebase>
							</rate>
							<in>1697</in>
							<out>1743</out>
							<start>842</start>
							<end>888</end>
							<pixelaspectratio>Square</pixelaspectratio>
							<enabled>TRUE</enabled>
							<anamorphic>FALSE</anamorphic>
							<alphatype>none</alphatype>
							<masterclipid>The-one1</masterclipid>
							<logginginfo>
								<scene/>
								<shottake/>
								<lognote/>
								<good>FALSE</good>
							</logginginfo>
							<labels>
								<label2/>
							</labels>
							<comments>
								<mastercomment1/>
								<mastercomment2/>
								<mastercomment3/>
								<mastercomment4/>
							</comments>
							<file id="The-one2"/>
							<sourcetrack>
								<mediatype>video</mediatype>
							</sourcetrack>
							<link>
								<linkclipref>The-one182</linkclipref>
								<mediatype>video</mediatype>
								<trackindex>1</trackindex>
								<clipindex>16</clipindex>
							</link>
							<link>
								<linkclipref>The-one183</linkclipref>
								<mediatype>audio</mediatype>
								<trackindex>1</trackindex>
								<clipindex>16</clipindex>
								<groupindex>1</groupindex>
							</link>
							<link>
								<linkclipref>The-one184</linkclipref>
								<mediatype>audio</mediatype>
								<trackindex>2</trackindex>
								<clipindex>16</clipindex>
								<groupindex>1</groupindex>
							</link>
							<fielddominance>upper</fielddominance>
							<itemhistory>
								<uuid>5E80FEFF-D560-4560-BE6B-512F3FE62B6C</uuid>
							</itemhistory>
						</clipitem>
						<clipitem id="The-one185">
							<name>The-one</name>
							<duration>5477</duration>
							<rate>
								<ntsc>FALSE</ntsc>
								<timebase>25</timebase>
							</rate>
							<in>1925</in>
							<out>2033</out>
							<start>888</start>
							<end>996</end>
							<pixelaspectratio>Square</pixelaspectratio>
							<enabled>TRUE</enabled>
							<anamorphic>FALSE</anamorphic>
							<alphatype>none</alphatype>
							<masterclipid>The-one1</masterclipid>
							<logginginfo>
								<scene/>
								<shottake/>
								<lognote/>
								<good>FALSE</good>
							</logginginfo>
							<labels>
								<label2/>
							</labels>
							<comments>
								<mastercomment1/>
								<mastercomment2/>
								<mastercomment3/>
								<mastercomment4/>
							</comments>
							<file id="The-one2"/>
							<sourcetrack>
								<mediatype>video</mediatype>
							</sourcetrack>
							<link>
								<linkclipref>The-one185</linkclipref>
								<mediatype>video</mediatype>
								<trackindex>1</trackindex>
								<clipindex>17</clipindex>
							</link>
							<link>
								<linkclipref>The-one186</linkclipref>
								<mediatype>audio</mediatype>
								<trackindex>1</trackindex>
								<clipindex>17</clipindex>
								<groupindex>1</groupindex>
							</link>
							<link>
								<linkclipref>The-one187</linkclipref>
								<mediatype>audio</mediatype>
								<trackindex>2</trackindex>
								<clipindex>17</clipindex>
								<groupindex>1</groupindex>
							</link>
							<fielddominance>upper</fielddominance>
							<itemhistory>
								<uuid>967EB0F6-110F-41D0-AE75-E28C04448682</uuid>
							</itemhistory>
						</clipitem>
						<clipitem id="The-one188">
							<name>The-one</name>
							<duration>5477</duration>
							<rate>
								<ntsc>FALSE</ntsc>
								<timebase>25</timebase>
							</rate>
							<in>2435</in>
							<out>2492</out>
							<start>996</start>
							<end>1053</end>
							<pixelaspectratio>Square</pixelaspectratio>
							<anamorphic>FALSE</anamorphic>
							<alphatype>none</alphatype>
							<masterclipid>The-one1</masterclipid>
							<logginginfo>
								<scene/>
								<shottake/>
								<lognote/>
								<good>FALSE</good>
							</logginginfo>
							<labels>
								<label2/>
							</labels>
							<comments>
								<mastercomment1/>
								<mastercomment2/>
								<mastercomment3/>
								<mastercomment4/>
							</comments>
							<file id="The-one2"/>
							<sourcetrack>
								<mediatype>video</mediatype>
							</sourcetrack>
							<link>
								<linkclipref>The-one188</linkclipref>
								<mediatype>video</mediatype>
								<trackindex>1</trackindex>
								<clipindex>18</clipindex>
							</link>
							<link>
								<linkclipref>The-one189</linkclipref>
								<mediatype>audio</mediatype>
								<trackindex>1</trackindex>
								<clipindex>18</clipindex>
								<groupindex>1</groupindex>
							</link>
							<link>
								<linkclipref>The-one190</linkclipref>
								<mediatype>audio</mediatype>
								<trackindex>2</trackindex>
								<clipindex>18</clipindex>
								<groupindex>1</groupindex>
							</link>
							<fielddominance>upper</fielddominance>
							<itemhistory>
								<uuid>0DFCBF59-AB4D-4AC8-8783-BDA319FDF603</uuid>
							</itemhistory>
						</clipitem>
						<clipitem id="The-one191">
							<name>The-one</name>
							<duration>5477</duration>
							<rate>
								<ntsc>FALSE</ntsc>
								<timebase>25</timebase>
							</rate>
							<in>2544</in>
							<out>2601</out>
							<start>1053</start>
							<end>1110</end>
							<pixelaspectratio>Square</pixelaspectratio>
							<anamorphic>FALSE</anamorphic>
							<alphatype>none</alphatype>
							<masterclipid>The-one1</masterclipid>
							<logginginfo>
								<scene/>
								<shottake/>
								<lognote/>
								<good>FALSE</good>
							</logginginfo>
							<labels>
								<label2/>
							</labels>
							<comments>
								<mastercomment1/>
								<mastercomment2/>
								<mastercomment3/>
								<mastercomment4/>
							</comments>
							<file id="The-one2"/>
							<sourcetrack>
								<mediatype>video</mediatype>
							</sourcetrack>
							<link>
								<linkclipref>The-one191</linkclipref>
								<mediatype>video</mediatype>
								<trackindex>1</trackindex>
								<clipindex>19</clipindex>
							</link>
							<link>
								<linkclipref>The-one192</linkclipref>
								<mediatype>audio</mediatype>
								<trackindex>1</trackindex>
								<clipindex>19</clipindex>
								<groupindex>1</groupindex>
							</link>
							<link>
								<linkclipref>The-one193</linkclipref>
								<mediatype>audio</mediatype>
								<trackindex>2</trackindex>
								<clipindex>19</clipindex>
								<groupindex>1</groupindex>
							</link>
							<fielddominance>upper</fielddominance>
							<itemhistory>
								<uuid>4A3B8750-C842-4BBD-B64B-A178B89EB3BF</uuid>
							</itemhistory>
						</clipitem>
						<clipitem id="The-one194">
							<name>The-one</name>
							<duration>5477</duration>
							<rate>
								<ntsc>FALSE</ntsc>
								<timebase>25</timebase>
							</rate>
							<in>2655</in>
							<out>2714</out>
							<start>1110</start>
							<end>1169</end>
							<pixelaspectratio>Square</pixelaspectratio>
							<anamorphic>FALSE</anamorphic>
							<alphatype>none</alphatype>
							<masterclipid>The-one1</masterclipid>
							<logginginfo>
								<scene/>
								<shottake/>
								<lognote/>
								<good>FALSE</good>
							</logginginfo>
							<labels>
								<label2/>
							</labels>
							<comments>
								<mastercomment1/>
								<mastercomment2/>
								<mastercomment3/>
								<mastercomment4/>
							</comments>
							<file id="The-one2"/>
							<sourcetrack>
								<mediatype>video</mediatype>
							</sourcetrack>
							<link>
								<linkclipref>The-one194</linkclipref>
								<mediatype>video</mediatype>
								<trackindex>1</trackindex>
								<clipindex>20</clipindex>
							</link>
							<link>
								<linkclipref>The-one195</linkclipref>
								<mediatype>audio</mediatype>
								<trackindex>1</trackindex>
								<clipindex>20</clipindex>
								<groupindex>1</groupindex>
							</link>
							<link>
								<linkclipref>The-one196</linkclipref>
								<mediatype>audio</mediatype>
								<trackindex>2</trackindex>
								<clipindex>20</clipindex>
								<groupindex>1</groupindex>
							</link>
							<fielddominance>upper</fielddominance>
							<itemhistory>
								<uuid>9E529B88-9B2D-47BB-AC1C-8567F843C33C</uuid>
							</itemhistory>
						</clipitem>
						<clipitem id="The-one197">
							<name>The-one</name>
							<duration>5477</duration>
							<rate>
								<ntsc>FALSE</ntsc>
								<timebase>25</timebase>
							</rate>
							<in>2771</in>
							<out>2827</out>
							<start>1169</start>
							<end>1225</end>
							<pixelaspectratio>Square</pixelaspectratio>
							<anamorphic>FALSE</anamorphic>
							<alphatype>none</alphatype>
							<masterclipid>The-one1</masterclipid>
							<logginginfo>
								<scene/>
								<shottake/>
								<lognote/>
								<good>FALSE</good>
							</logginginfo>
							<labels>
								<label2/>
							</labels>
							<comments>
								<mastercomment1/>
								<mastercomment2/>
								<mastercomment3/>
								<mastercomment4/>
							</comments>
							<file id="The-one2"/>
							<sourcetrack>
								<mediatype>video</mediatype>
							</sourcetrack>
							<link>
								<linkclipref>The-one197</linkclipref>
								<mediatype>video</mediatype>
								<trackindex>1</trackindex>
								<clipindex>21</clipindex>
							</link>
							<link>
								<linkclipref>The-one198</linkclipref>
								<mediatype>audio</mediatype>
								<trackindex>1</trackindex>
								<clipindex>21</clipindex>
								<groupindex>1</groupindex>
							</link>
							<link>
								<linkclipref>The-one199</linkclipref>
								<mediatype>audio</mediatype>
								<trackindex>2</trackindex>
								<clipindex>21</clipindex>
								<groupindex>1</groupindex>
							</link>
							<fielddominance>upper</fielddominance>
							<itemhistory>
								<uuid>9166EC98-C022-4C7F-95DB-D2E3FE236E35</uuid>
							</itemhistory>
						</clipitem>
						<clipitem id="The-one200">
							<name>The-one</name>
							<duration>5477</duration>
							<rate>
								<ntsc>FALSE</ntsc>
								<timebase>25</timebase>
							</rate>
							<in>2886</in>
							<out>2945</out>
							<start>1225</start>
							<end>1284</end>
							<pixelaspectratio>Square</pixelaspectratio>
							<anamorphic>FALSE</anamorphic>
							<alphatype>none</alphatype>
							<masterclipid>The-one1</masterclipid>
							<logginginfo>
								<scene/>
								<shottake/>
								<lognote/>
								<good>FALSE</good>
							</logginginfo>
							<labels>
								<label2/>
							</labels>
							<comments>
								<mastercomment1/>
								<mastercomment2/>
								<mastercomment3/>
								<mastercomment4/>
							</comments>
							<file id="The-one2"/>
							<sourcetrack>
								<mediatype>video</mediatype>
							</sourcetrack>
							<link>
								<linkclipref>The-one200</linkclipref>
								<mediatype>video</mediatype>
								<trackindex>1</trackindex>
								<clipindex>22</clipindex>
							</link>
							<link>
								<linkclipref>The-one201</linkclipref>
								<mediatype>audio</mediatype>
								<trackindex>1</trackindex>
								<clipindex>22</clipindex>
								<groupindex>1</groupindex>
							</link>
							<link>
								<linkclipref>The-one202</linkclipref>
								<mediatype>audio</mediatype>
								<trackindex>2</trackindex>
								<clipindex>22</clipindex>
								<groupindex>1</groupindex>
							</link>
							<fielddominance>upper</fielddominance>
							<itemhistory>
								<uuid>5549090C-B15F-4D93-A5E4-123F63738A77</uuid>
							</itemhistory>
						</clipitem>
						<clipitem id="The-one203">
							<name>The-one</name>
							<duration>5477</duration>
							<rate>
								<ntsc>FALSE</ntsc>
								<timebase>25</timebase>
							</rate>
							<in>2995</in>
							<out>3055</out>
							<start>1284</start>
							<end>1344</end>
							<pixelaspectratio>Square</pixelaspectratio>
							<anamorphic>FALSE</anamorphic>
							<alphatype>none</alphatype>
							<masterclipid>The-one1</masterclipid>
							<logginginfo>
								<scene/>
								<shottake/>
								<lognote/>
								<good>FALSE</good>
							</logginginfo>
							<labels>
								<label2/>
							</labels>
							<comments>
								<mastercomment1/>
								<mastercomment2/>
								<mastercomment3/>
								<mastercomment4/>
							</comments>
							<file id="The-one2"/>
							<sourcetrack>
								<mediatype>video</mediatype>
							</sourcetrack>
							<link>
								<linkclipref>The-one203</linkclipref>
								<mediatype>video</mediatype>
								<trackindex>1</trackindex>
								<clipindex>23</clipindex>
							</link>
							<link>
								<linkclipref>The-one204</linkclipref>
								<mediatype>audio</mediatype>
								<trackindex>1</trackindex>
								<clipindex>23</clipindex>
								<groupindex>1</groupindex>
							</link>
							<link>
								<linkclipref>The-one205</linkclipref>
								<mediatype>audio</mediatype>
								<trackindex>2</trackindex>
								<clipindex>23</clipindex>
								<groupindex>1</groupindex>
							</link>
							<fielddominance>upper</fielddominance>
							<itemhistory>
								<uuid>6A7DA3A9-8D03-4CD0-A18F-9B399A802DBF</uuid>
							</itemhistory>
						</clipitem>
						<clipitem id="The-one206">
							<name>The-one</name>
							<duration>5477</duration>
							<rate>
								<ntsc>FALSE</ntsc>
								<timebase>25</timebase>
							</rate>
							<in>3111</in>
							<out>3169</out>
							<start>1344</start>
							<end>1402</end>
							<pixelaspectratio>Square</pixelaspectratio>
							<anamorphic>FALSE</anamorphic>
							<alphatype>none</alphatype>
							<masterclipid>The-one1</masterclipid>
							<logginginfo>
								<scene/>
								<shottake/>
								<lognote/>
								<good>FALSE</good>
							</logginginfo>
							<labels>
								<label2/>
							</labels>
							<comments>
								<mastercomment1/>
								<mastercomment2/>
								<mastercomment3/>
								<mastercomment4/>
							</comments>
							<file id="The-one2"/>
							<sourcetrack>
								<mediatype>video</mediatype>
							</sourcetrack>
							<link>
								<linkclipref>The-one206</linkclipref>
								<mediatype>video</mediatype>
								<trackindex>1</trackindex>
								<clipindex>24</clipindex>
							</link>
							<link>
								<linkclipref>The-one207</linkclipref>
								<mediatype>audio</mediatype>
								<trackindex>1</trackindex>
								<clipindex>24</clipindex>
								<groupindex>1</groupindex>
							</link>
							<link>
								<linkclipref>The-one208</linkclipref>
								<mediatype>audio</mediatype>
								<trackindex>2</trackindex>
								<clipindex>24</clipindex>
								<groupindex>1</groupindex>
							</link>
							<fielddominance>upper</fielddominance>
							<itemhistory>
								<uuid>8D6481D6-F964-44E4-A545-160E10E1A414</uuid>
							</itemhistory>
						</clipitem>
						<clipitem id="The-one209">
							<name>The-one</name>
							<duration>5477</duration>
							<rate>
								<ntsc>FALSE</ntsc>
								<timebase>25</timebase>
							</rate>
							<in>3223</in>
							<out>3284</out>
							<start>1402</start>
							<end>1463</end>
							<pixelaspectratio>Square</pixelaspectratio>
							<enabled>TRUE</enabled>
							<anamorphic>FALSE</anamorphic>
							<alphatype>none</alphatype>
							<masterclipid>The-one1</masterclipid>
							<logginginfo>
								<scene/>
								<shottake/>
								<lognote/>
								<good>FALSE</good>
							</logginginfo>
							<labels>
								<label2/>
							</labels>
							<comments>
								<mastercomment1/>
								<mastercomment2/>
								<mastercomment3/>
								<mastercomment4/>
							</comments>
							<file id="The-one2"/>
							<sourcetrack>
								<mediatype>video</mediatype>
							</sourcetrack>
							<link>
								<linkclipref>The-one209</linkclipref>
								<mediatype>video</mediatype>
								<trackindex>1</trackindex>
								<clipindex>25</clipindex>
							</link>
							<link>
								<linkclipref>The-one210</linkclipref>
								<mediatype>audio</mediatype>
								<trackindex>1</trackindex>
								<clipindex>25</clipindex>
								<groupindex>1</groupindex>
							</link>
							<link>
								<linkclipref>The-one211</linkclipref>
								<mediatype>audio</mediatype>
								<trackindex>2</trackindex>
								<clipindex>25</clipindex>
								<groupindex>1</groupindex>
							</link>
							<fielddominance>upper</fielddominance>
							<itemhistory>
								<uuid>8F257E9D-293C-4A5E-85FC-9C36662363E2</uuid>
							</itemhistory>
						</clipitem>
						<clipitem id="The-one212">
							<name>The-one</name>
							<duration>5477</duration>
							<rate>
								<ntsc>FALSE</ntsc>
								<timebase>25</timebase>
							</rate>
							<in>3338</in>
							<out>3394</out>
							<start>1463</start>
							<end>1519</end>
							<pixelaspectratio>Square</pixelaspectratio>
							<anamorphic>FALSE</anamorphic>
							<alphatype>none</alphatype>
							<masterclipid>The-one1</masterclipid>
							<logginginfo>
								<scene/>
								<shottake/>
								<lognote/>
								<good>FALSE</good>
							</logginginfo>
							<labels>
								<label2/>
							</labels>
							<comments>
								<mastercomment1/>
								<mastercomment2/>
								<mastercomment3/>
								<mastercomment4/>
							</comments>
							<file id="The-one2"/>
							<sourcetrack>
								<mediatype>video</mediatype>
							</sourcetrack>
							<link>
								<linkclipref>The-one212</linkclipref>
								<mediatype>video</mediatype>
								<trackindex>1</trackindex>
								<clipindex>26</clipindex>
							</link>
							<link>
								<linkclipref>The-one213</linkclipref>
								<mediatype>audio</mediatype>
								<trackindex>1</trackindex>
								<clipindex>26</clipindex>
								<groupindex>1</groupindex>
							</link>
							<link>
								<linkclipref>The-one214</linkclipref>
								<mediatype>audio</mediatype>
								<trackindex>2</trackindex>
								<clipindex>26</clipindex>
								<groupindex>1</groupindex>
							</link>
							<fielddominance>upper</fielddominance>
							<itemhistory>
								<uuid>E82D3C48-477F-42AA-927D-DFDE60DFAB6D</uuid>
							</itemhistory>
						</clipitem>
						<clipitem id="The-one215">
							<name>The-one</name>
							<duration>5477</duration>
							<rate>
								<ntsc>FALSE</ntsc>
								<timebase>25</timebase>
							</rate>
							<in>3452</in>
							<out>3507</out>
							<start>1519</start>
							<end>1574</end>
							<pixelaspectratio>Square</pixelaspectratio>
							<anamorphic>FALSE</anamorphic>
							<alphatype>none</alphatype>
							<masterclipid>The-one1</masterclipid>
							<logginginfo>
								<scene/>
								<shottake/>
								<lognote/>
								<good>FALSE</good>
							</logginginfo>
							<labels>
								<label2/>
							</labels>
							<comments>
								<mastercomment1/>
								<mastercomment2/>
								<mastercomment3/>
								<mastercomment4/>
							</comments>
							<file id="The-one2"/>
							<sourcetrack>
								<mediatype>video</mediatype>
							</sourcetrack>
							<link>
								<linkclipref>The-one215</linkclipref>
								<mediatype>video</mediatype>
								<trackindex>1</trackindex>
								<clipindex>27</clipindex>
							</link>
							<link>
								<linkclipref>The-one216</linkclipref>
								<mediatype>audio</mediatype>
								<trackindex>1</trackindex>
								<clipindex>27</clipindex>
								<groupindex>1</groupindex>
							</link>
							<link>
								<linkclipref>The-one217</linkclipref>
								<mediatype>audio</mediatype>
								<trackindex>2</trackindex>
								<clipindex>27</clipindex>
								<groupindex>1</groupindex>
							</link>
							<fielddominance>upper</fielddominance>
							<itemhistory>
								<uuid>A7CBE61D-9B8E-4B33-84F5-CD35C3313B8F</uuid>
							</itemhistory>
						</clipitem>
						<clipitem id="The-one218">
							<name>The-one</name>
							<duration>5477</duration>
							<rate>
								<ntsc>FALSE</ntsc>
								<timebase>25</timebase>
							</rate>
							<in>3565</in>
							<out>3711</out>
							<start>1574</start>
							<end>1720</end>
							<pixelaspectratio>Square</pixelaspectratio>
							<anamorphic>FALSE</anamorphic>
							<alphatype>none</alphatype>
							<masterclipid>The-one1</masterclipid>
							<logginginfo>
								<scene/>
								<shottake/>
								<lognote/>
								<good>FALSE</good>
							</logginginfo>
							<labels>
								<label2/>
							</labels>
							<comments>
								<mastercomment1/>
								<mastercomment2/>
								<mastercomment3/>
								<mastercomment4/>
							</comments>
							<file id="The-one2"/>
							<sourcetrack>
								<mediatype>video</mediatype>
							</sourcetrack>
							<link>
								<linkclipref>The-one218</linkclipref>
								<mediatype>video</mediatype>
								<trackindex>1</trackindex>
								<clipindex>28</clipindex>
							</link>
							<link>
								<linkclipref>The-one219</linkclipref>
								<mediatype>audio</mediatype>
								<trackindex>1</trackindex>
								<clipindex>28</clipindex>
								<groupindex>1</groupindex>
							</link>
							<link>
								<linkclipref>The-one220</linkclipref>
								<mediatype>audio</mediatype>
								<trackindex>2</trackindex>
								<clipindex>28</clipindex>
								<groupindex>1</groupindex>
							</link>
							<fielddominance>upper</fielddominance>
							<itemhistory>
								<uuid>B4B73E90-7AF1-44CB-B84F-EABCC840292A</uuid>
							</itemhistory>
						</clipitem>
						<clipitem id="The-one221">
							<name>The-one</name>
							<duration>5477</duration>
							<rate>
								<ntsc>FALSE</ntsc>
								<timebase>25</timebase>
							</rate>
							<in>3905</in>
							<out>3960</out>
							<start>1720</start>
							<end>1775</end>
							<pixelaspectratio>Square</pixelaspectratio>
							<anamorphic>FALSE</anamorphic>
							<alphatype>none</alphatype>
							<masterclipid>The-one1</masterclipid>
							<logginginfo>
								<scene/>
								<shottake/>
								<lognote/>
								<good>FALSE</good>
							</logginginfo>
							<labels>
								<label2/>
							</labels>
							<comments>
								<mastercomment1/>
								<mastercomment2/>
								<mastercomment3/>
								<mastercomment4/>
							</comments>
							<file id="The-one2"/>
							<sourcetrack>
								<mediatype>video</mediatype>
							</sourcetrack>
							<link>
								<linkclipref>The-one221</linkclipref>
								<mediatype>video</mediatype>
								<trackindex>1</trackindex>
								<clipindex>29</clipindex>
							</link>
							<link>
								<linkclipref>The-one222</linkclipref>
								<mediatype>audio</mediatype>
								<trackindex>1</trackindex>
								<clipindex>29</clipindex>
								<groupindex>1</groupindex>
							</link>
							<link>
								<linkclipref>The-one223</linkclipref>
								<mediatype>audio</mediatype>
								<trackindex>2</trackindex>
								<clipindex>29</clipindex>
								<groupindex>1</groupindex>
							</link>
							<fielddominance>upper</fielddominance>
							<itemhistory>
								<uuid>116AB72E-4DDB-4ED1-BC46-A7E1E5CAEDDF</uuid>
							</itemhistory>
						</clipitem>
						<clipitem id="The-one224">
							<name>The-one</name>
							<duration>5477</duration>
							<rate>
								<ntsc>FALSE</ntsc>
								<timebase>25</timebase>
							</rate>
							<in>4017</in>
							<out>4074</out>
							<start>1775</start>
							<end>1832</end>
							<pixelaspectratio>Square</pixelaspectratio>
							<anamorphic>FALSE</anamorphic>
							<alphatype>none</alphatype>
							<masterclipid>The-one1</masterclipid>
							<logginginfo>
								<scene/>
								<shottake/>
								<lognote/>
								<good>FALSE</good>
							</logginginfo>
							<labels>
								<label2/>
							</labels>
							<comments>
								<mastercomment1/>
								<mastercomment2/>
								<mastercomment3/>
								<mastercomment4/>
							</comments>
							<file id="The-one2"/>
							<sourcetrack>
								<mediatype>video</mediatype>
							</sourcetrack>
							<link>
								<linkclipref>The-one224</linkclipref>
								<mediatype>video</mediatype>
								<trackindex>1</trackindex>
								<clipindex>30</clipindex>
							</link>
							<link>
								<linkclipref>The-one225</linkclipref>
								<mediatype>audio</mediatype>
								<trackindex>1</trackindex>
								<clipindex>30</clipindex>
								<groupindex>1</groupindex>
							</link>
							<link>
								<linkclipref>The-one226</linkclipref>
								<mediatype>audio</mediatype>
								<trackindex>2</trackindex>
								<clipindex>30</clipindex>
								<groupindex>1</groupindex>
							</link>
							<fielddominance>upper</fielddominance>
							<itemhistory>
								<uuid>B9C0F4E6-4884-4CB0-8B91-F3729CFF7755</uuid>
							</itemhistory>
						</clipitem>
						<clipitem id="The-one227">
							<name>The-one</name>
							<duration>5477</duration>
							<rate>
								<ntsc>FALSE</ntsc>
								<timebase>25</timebase>
							</rate>
							<in>4125</in>
							<out>4189</out>
							<start>1832</start>
							<end>1896</end>
							<pixelaspectratio>Square</pixelaspectratio>
							<anamorphic>FALSE</anamorphic>
							<alphatype>none</alphatype>
							<masterclipid>The-one1</masterclipid>
							<logginginfo>
								<scene/>
								<shottake/>
								<lognote/>
								<good>FALSE</good>
							</logginginfo>
							<labels>
								<label2/>
							</labels>
							<comments>
								<mastercomment1/>
								<mastercomment2/>
								<mastercomment3/>
								<mastercomment4/>
							</comments>
							<file id="The-one2"/>
							<sourcetrack>
								<mediatype>video</mediatype>
							</sourcetrack>
							<link>
								<linkclipref>The-one227</linkclipref>
								<mediatype>video</mediatype>
								<trackindex>1</trackindex>
								<clipindex>31</clipindex>
							</link>
							<link>
								<linkclipref>The-one228</linkclipref>
								<mediatype>audio</mediatype>
								<trackindex>1</trackindex>
								<clipindex>31</clipindex>
								<groupindex>1</groupindex>
							</link>
							<link>
								<linkclipref>The-one229</linkclipref>
								<mediatype>audio</mediatype>
								<trackindex>2</trackindex>
								<clipindex>31</clipindex>
								<groupindex>1</groupindex>
							</link>
							<fielddominance>upper</fielddominance>
							<itemhistory>
								<uuid>D6231E2B-77F0-423E-AB5D-0EF6AB8AFBBA</uuid>
							</itemhistory>
						</clipitem>
						<clipitem id="The-one230">
							<name>The-one</name>
							<duration>5477</duration>
							<rate>
								<ntsc>FALSE</ntsc>
								<timebase>25</timebase>
							</rate>
							<in>4248</in>
							<out>4309</out>
							<start>1896</start>
							<end>1957</end>
							<pixelaspectratio>Square</pixelaspectratio>
							<anamorphic>FALSE</anamorphic>
							<alphatype>none</alphatype>
							<masterclipid>The-one1</masterclipid>
							<logginginfo>
								<scene/>
								<shottake/>
								<lognote/>
								<good>FALSE</good>
							</logginginfo>
							<labels>
								<label2/>
							</labels>
							<comments>
								<mastercomment1/>
								<mastercomment2/>
								<mastercomment3/>
								<mastercomment4/>
							</comments>
							<file id="The-one2"/>
							<sourcetrack>
								<mediatype>video</mediatype>
							</sourcetrack>
							<link>
								<linkclipref>The-one230</linkclipref>
								<mediatype>video</mediatype>
								<trackindex>1</trackindex>
								<clipindex>32</clipindex>
							</link>
							<link>
								<linkclipref>The-one231</linkclipref>
								<mediatype>audio</mediatype>
								<trackindex>1</trackindex>
								<clipindex>32</clipindex>
								<groupindex>1</groupindex>
							</link>
							<link>
								<linkclipref>The-one232</linkclipref>
								<mediatype>audio</mediatype>
								<trackindex>2</trackindex>
								<clipindex>32</clipindex>
								<groupindex>1</groupindex>
							</link>
							<fielddominance>upper</fielddominance>
							<itemhistory>
								<uuid>44DE82BA-216A-4963-8DF2-67649FD858D2</uuid>
							</itemhistory>
						</clipitem>
						<clipitem id="The-one233">
							<name>The-one</name>
							<duration>5477</duration>
							<rate>
								<ntsc>FALSE</ntsc>
								<timebase>25</timebase>
							</rate>
							<in>4359</in>
							<out>4416</out>
							<start>1957</start>
							<end>2014</end>
							<pixelaspectratio>Square</pixelaspectratio>
							<anamorphic>FALSE</anamorphic>
							<alphatype>none</alphatype>
							<masterclipid>The-one1</masterclipid>
							<logginginfo>
								<scene/>
								<shottake/>
								<lognote/>
								<good>FALSE</good>
							</logginginfo>
							<labels>
								<label2/>
							</labels>
							<comments>
								<mastercomment1/>
								<mastercomment2/>
								<mastercomment3/>
								<mastercomment4/>
							</comments>
							<file id="The-one2"/>
							<sourcetrack>
								<mediatype>video</mediatype>
							</sourcetrack>
							<link>
								<linkclipref>The-one233</linkclipref>
								<mediatype>video</mediatype>
								<trackindex>1</trackindex>
								<clipindex>33</clipindex>
							</link>
							<link>
								<linkclipref>The-one234</linkclipref>
								<mediatype>audio</mediatype>
								<trackindex>1</trackindex>
								<clipindex>33</clipindex>
								<groupindex>1</groupindex>
							</link>
							<link>
								<linkclipref>The-one235</linkclipref>
								<mediatype>audio</mediatype>
								<trackindex>2</trackindex>
								<clipindex>33</clipindex>
								<groupindex>1</groupindex>
							</link>
							<fielddominance>upper</fielddominance>
							<itemhistory>
								<uuid>DA630324-C4AC-487A-B300-D825DF54A4BB</uuid>
							</itemhistory>
						</clipitem>
						<clipitem id="The-one236">
							<name>The-one</name>
							<duration>5477</duration>
							<rate>
								<ntsc>FALSE</ntsc>
								<timebase>25</timebase>
							</rate>
							<in>4472</in>
							<out>4534</out>
							<start>2014</start>
							<end>2076</end>
							<pixelaspectratio>Square</pixelaspectratio>
							<anamorphic>FALSE</anamorphic>
							<alphatype>none</alphatype>
							<masterclipid>The-one1</masterclipid>
							<logginginfo>
								<scene/>
								<shottake/>
								<lognote/>
								<good>FALSE</good>
							</logginginfo>
							<labels>
								<label2/>
							</labels>
							<comments>
								<mastercomment1/>
								<mastercomment2/>
								<mastercomment3/>
								<mastercomment4/>
							</comments>
							<file id="The-one2"/>
							<sourcetrack>
								<mediatype>video</mediatype>
							</sourcetrack>
							<link>
								<linkclipref>The-one236</linkclipref>
								<mediatype>video</mediatype>
								<trackindex>1</trackindex>
								<clipindex>34</clipindex>
							</link>
							<link>
								<linkclipref>The-one237</linkclipref>
								<mediatype>audio</mediatype>
								<trackindex>1</trackindex>
								<clipindex>34</clipindex>
								<groupindex>1</groupindex>
							</link>
							<link>
								<linkclipref>The-one238</linkclipref>
								<mediatype>audio</mediatype>
								<trackindex>2</trackindex>
								<clipindex>34</clipindex>
								<groupindex>1</groupindex>
							</link>
							<fielddominance>upper</fielddominance>
							<itemhistory>
								<uuid>BE0CADD0-5FDC-4517-B49F-54AE327FC175</uuid>
							</itemhistory>
						</clipitem>
						<clipitem id="The-one239">
							<name>The-one</name>
							<duration>5477</duration>
							<rate>
								<ntsc>FALSE</ntsc>
								<timebase>25</timebase>
							</rate>
							<in>4586</in>
							<out>4712</out>
							<start>2076</start>
							<end>2202</end>
							<pixelaspectratio>Square</pixelaspectratio>
							<anamorphic>FALSE</anamorphic>
							<alphatype>none</alphatype>
							<masterclipid>The-one1</masterclipid>
							<logginginfo>
								<scene/>
								<shottake/>
								<lognote/>
								<good>FALSE</good>
							</logginginfo>
							<labels>
								<label2/>
							</labels>
							<comments>
								<mastercomment1/>
								<mastercomment2/>
								<mastercomment3/>
								<mastercomment4/>
							</comments>
							<file id="The-one2"/>
							<sourcetrack>
								<mediatype>video</mediatype>
							</sourcetrack>
							<link>
								<linkclipref>The-one239</linkclipref>
								<mediatype>video</mediatype>
								<trackindex>1</trackindex>
								<clipindex>35</clipindex>
							</link>
							<link>
								<linkclipref>The-one240</linkclipref>
								<mediatype>audio</mediatype>
								<trackindex>1</trackindex>
								<clipindex>35</clipindex>
								<groupindex>1</groupindex>
							</link>
							<link>
								<linkclipref>The-one241</linkclipref>
								<mediatype>audio</mediatype>
								<trackindex>2</trackindex>
								<clipindex>35</clipindex>
								<groupindex>1</groupindex>
							</link>
							<fielddominance>upper</fielddominance>
							<itemhistory>
								<uuid>AD94FBB2-E5F7-4C26-9CDF-4E343DCEE12B</uuid>
							</itemhistory>
						</clipitem>
						<clipitem id="The-one242">
							<name>The-one</name>
							<duration>5477</duration>
							<rate>
								<ntsc>FALSE</ntsc>
								<timebase>25</timebase>
							</rate>
							<in>4754</in>
							<out>4855</out>
							<start>2211</start>
							<end>2312</end>
							<pixelaspectratio>Square</pixelaspectratio>
							<enabled>TRUE</enabled>
							<anamorphic>FALSE</anamorphic>
							<alphatype>none</alphatype>
							<masterclipid>The-one1</masterclipid>
							<logginginfo>
								<scene/>
								<shottake/>
								<lognote/>
								<good>FALSE</good>
							</logginginfo>
							<labels>
								<label2/>
							</labels>
							<comments>
								<mastercomment1/>
								<mastercomment2/>
								<mastercomment3/>
								<mastercomment4/>
							</comments>
							<file id="The-one2"/>
							<sourcetrack>
								<mediatype>video</mediatype>
							</sourcetrack>
							<link>
								<linkclipref>The-one242</linkclipref>
								<mediatype>video</mediatype>
								<trackindex>1</trackindex>
								<clipindex>36</clipindex>
							</link>
							<link>
								<linkclipref>The-one243</linkclipref>
								<mediatype>audio</mediatype>
								<trackindex>1</trackindex>
								<clipindex>36</clipindex>
								<groupindex>1</groupindex>
							</link>
							<link>
								<linkclipref>The-one244</linkclipref>
								<mediatype>audio</mediatype>
								<trackindex>2</trackindex>
								<clipindex>36</clipindex>
								<groupindex>1</groupindex>
							</link>
							<fielddominance>upper</fielddominance>
							<itemhistory>
								<uuid>2004E678-DA7D-4B9B-B699-2FC5B8FBF083</uuid>
							</itemhistory>
						</clipitem>
						<clipitem id="The-one245">
							<name>The-one</name>
							<duration>5477</duration>
							<rate>
								<ntsc>FALSE</ntsc>
								<timebase>25</timebase>
							</rate>
							<in>4909</in>
							<out>5031</out>
							<start>2312</start>
							<end>2434</end>
							<pixelaspectratio>Square</pixelaspectratio>
							<enabled>TRUE</enabled>
							<anamorphic>FALSE</anamorphic>
							<alphatype>none</alphatype>
							<masterclipid>The-one1</masterclipid>
							<logginginfo>
								<scene/>
								<shottake/>
								<lognote/>
								<good>FALSE</good>
							</logginginfo>
							<labels>
								<label2/>
							</labels>
							<comments>
								<mastercomment1/>
								<mastercomment2/>
								<mastercomment3/>
								<mastercomment4/>
							</comments>
							<file id="The-one2"/>
							<sourcetrack>
								<mediatype>video</mediatype>
							</sourcetrack>
							<link>
								<linkclipref>The-one245</linkclipref>
								<mediatype>video</mediatype>
								<trackindex>1</trackindex>
								<clipindex>37</clipindex>
							</link>
							<link>
								<linkclipref>The-one246</linkclipref>
								<mediatype>audio</mediatype>
								<trackindex>1</trackindex>
								<clipindex>37</clipindex>
								<groupindex>1</groupindex>
							</link>
							<link>
								<linkclipref>The-one247</linkclipref>
								<mediatype>audio</mediatype>
								<trackindex>2</trackindex>
								<clipindex>37</clipindex>
								<groupindex>1</groupindex>
							</link>
							<fielddominance>upper</fielddominance>
							<itemhistory>
								<uuid>DDD44751-24A3-4CBB-B8CE-F41C36CACD21</uuid>
							</itemhistory>
						</clipitem>
						<clipitem id="The-one248">
							<name>The-one</name>
							<duration>5477</duration>
							<rate>
								<ntsc>FALSE</ntsc>
								<timebase>25</timebase>
							</rate>
							<in>2092</in>
							<out>2225</out>
							<start>2434</start>
							<end>2567</end>
							<pixelaspectratio>Square</pixelaspectratio>
							<enabled>TRUE</enabled>
							<anamorphic>FALSE</anamorphic>
							<alphatype>none</alphatype>
							<masterclipid>The-one1</masterclipid>
							<logginginfo>
								<scene/>
								<shottake/>
								<lognote/>
								<good>FALSE</good>
							</logginginfo>
							<labels>
								<label2/>
							</labels>
							<comments>
								<mastercomment1/>
								<mastercomment2/>
								<mastercomment3/>
								<mastercomment4/>
							</comments>
							<file id="The-one2"/>
							<sourcetrack>
								<mediatype>video</mediatype>
							</sourcetrack>
							<link>
								<linkclipref>The-one248</linkclipref>
								<mediatype>video</mediatype>
								<trackindex>1</trackindex>
								<clipindex>38</clipindex>
							</link>
							<link>
								<linkclipref>The-one249</linkclipref>
								<mediatype>audio</mediatype>
								<trackindex>1</trackindex>
								<clipindex>38</clipindex>
								<groupindex>1</groupindex>
							</link>
							<link>
								<linkclipref>The-one250</linkclipref>
								<mediatype>audio</mediatype>
								<trackindex>2</trackindex>
								<clipindex>38</clipindex>
								<groupindex>1</groupindex>
							</link>
							<fielddominance>upper</fielddominance>
							<itemhistory>
								<uuid>96ABD172-D72B-4043-9551-45EFA3ECB956</uuid>
							</itemhistory>
						</clipitem>
						<clipitem id="The-one251">
							<name>The-one</name>
							<duration>5477</duration>
							<rate>
								<ntsc>FALSE</ntsc>
								<timebase>25</timebase>
							</rate>
							<in>1812</in>
							<out>1869</out>
							<start>2567</start>
							<end>2624</end>
							<pixelaspectratio>Square</pixelaspectratio>
							<enabled>TRUE</enabled>
							<anamorphic>FALSE</anamorphic>
							<alphatype>none</alphatype>
							<masterclipid>The-one1</masterclipid>
							<logginginfo>
								<scene/>
								<shottake/>
								<lognote/>
								<good>FALSE</good>
							</logginginfo>
							<labels>
								<label2/>
							</labels>
							<comments>
								<mastercomment1/>
								<mastercomment2/>
								<mastercomment3/>
								<mastercomment4/>
							</comments>
							<file id="The-one2"/>
							<sourcetrack>
								<mediatype>video</mediatype>
							</sourcetrack>
							<link>
								<linkclipref>The-one251</linkclipref>
								<mediatype>video</mediatype>
								<trackindex>1</trackindex>
								<clipindex>39</clipindex>
							</link>
							<link>
								<linkclipref>The-one252</linkclipref>
								<mediatype>audio</mediatype>
								<trackindex>1</trackindex>
								<clipindex>39</clipindex>
								<groupindex>1</groupindex>
							</link>
							<link>
								<linkclipref>The-one253</linkclipref>
								<mediatype>audio</mediatype>
								<trackindex>2</trackindex>
								<clipindex>39</clipindex>
								<groupindex>1</groupindex>
							</link>
							<fielddominance>upper</fielddominance>
							<itemhistory>
								<uuid>2E9DC703-D328-41E9-B1AB-792659906AF1</uuid>
							</itemhistory>
						</clipitem>
						<enabled>TRUE</enabled>
						<locked>FALSE</locked>
					</track>
					<track>
						<enabled>TRUE</enabled>
						<locked>FALSE</locked>
					</track>
				</video>
				<audio>
					<format>
						<samplecharacteristics>
							<depth>16</depth>
							<samplerate>48000</samplerate>
						</samplecharacteristics>
					</format>
					<outputs>
						<group>
							<index>1</index>
							<numchannels>2</numchannels>
							<downmix>0</downmix>
							<channel>
								<index>1</index>
							</channel>
							<channel>
								<index>2</index>
							</channel>
						</group>
					</outputs>
					<in>-1</in>
					<out>-1</out>
					<track>
						<clipitem id="The-one138">
							<name>The-one</name>
							<duration>5477</duration>
							<rate>
								<ntsc>FALSE</ntsc>
								<timebase>25</timebase>
							</rate>
							<in>223</in>
							<out>277</out>
							<start>0</start>
							<end>54</end>
							<subframeoffset>0</subframeoffset>
							<masterclipid>The-one1</masterclipid>
							<logginginfo>
								<scene/>
								<shottake/>
								<lognote/>
								<good>FALSE</good>
							</logginginfo>
							<labels>
								<label2/>
							</labels>
							<comments>
								<mastercomment1/>
								<mastercomment2/>
								<mastercomment3/>
								<mastercomment4/>
							</comments>
							<file id="The-one2"/>
							<filter>
								<effect>
									<name>Audio Levels</name>
									<effectid>audiolevels</effectid>
									<effectcategory>audiolevels</effectcategory>
									<effecttype>audiolevels</effecttype>
									<mediatype>audio</mediatype>
									<parameter>
										<name>Level</name>
										<parameterid>level</parameterid>
										<valuemin>0</valuemin>
										<valuemax>3.98109</valuemax>
										<value>1</value>
									</parameter>
								</effect>
							</filter>
							<filter>
								<effect>
									<name>Audio Pan</name>
									<effectid>audiopan</effectid>
									<effectcategory>audiopan</effectcategory>
									<effecttype>audiopan</effecttype>
									<mediatype>audio</mediatype>
									<parameter>
										<name>Pan</name>
										<parameterid>pan</parameterid>
										<valuemin>-1</valuemin>
										<valuemax>1</valuemax>
										<value>-1</value>
									</parameter>
								</effect>
							</filter>
							<sourcetrack>
								<mediatype>audio</mediatype>
								<trackindex>1</trackindex>
							</sourcetrack>
							<link>
								<linkclipref>The-one137</linkclipref>
								<mediatype>video</mediatype>
								<trackindex>1</trackindex>
								<clipindex>1</clipindex>
							</link>
							<link>
								<linkclipref>The-one138</linkclipref>
								<mediatype>audio</mediatype>
								<trackindex>1</trackindex>
								<clipindex>1</clipindex>
								<groupindex>1</groupindex>
							</link>
							<link>
								<linkclipref>The-one139</linkclipref>
								<mediatype>audio</mediatype>
								<trackindex>2</trackindex>
								<clipindex>1</clipindex>
								<groupindex>1</groupindex>
							</link>
							<itemhistory>
								<uuid>D9C4F569-B7C6-4E5A-B0B8-C62A7B02ED4A</uuid>
							</itemhistory>
						</clipitem>
						<clipitem id="The-one141">
							<name>The-one</name>
							<duration>5477</duration>
							<rate>
								<ntsc>FALSE</ntsc>
								<timebase>25</timebase>
							</rate>
							<in>335</in>
							<out>399</out>
							<start>54</start>
							<end>118</end>
							<subframeoffset>0</subframeoffset>
							<masterclipid>The-one1</masterclipid>
							<logginginfo>
								<scene/>
								<shottake/>
								<lognote/>
								<good>FALSE</good>
							</logginginfo>
							<labels>
								<label2/>
							</labels>
							<comments>
								<mastercomment1/>
								<mastercomment2/>
								<mastercomment3/>
								<mastercomment4/>
							</comments>
							<file id="The-one2"/>
							<filter>
								<effect>
									<name>Audio Levels</name>
									<effectid>audiolevels</effectid>
									<effectcategory>audiolevels</effectcategory>
									<effecttype>audiolevels</effecttype>
									<mediatype>audio</mediatype>
									<parameter>
										<name>Level</name>
										<parameterid>level</parameterid>
										<valuemin>0</valuemin>
										<valuemax>3.98109</valuemax>
										<value>1</value>
									</parameter>
								</effect>
							</filter>
							<filter>
								<effect>
									<name>Audio Pan</name>
									<effectid>audiopan</effectid>
									<effectcategory>audiopan</effectcategory>
									<effecttype>audiopan</effecttype>
									<mediatype>audio</mediatype>
									<parameter>
										<name>Pan</name>
										<parameterid>pan</parameterid>
										<valuemin>-1</valuemin>
										<valuemax>1</valuemax>
										<value>-1</value>
									</parameter>
								</effect>
							</filter>
							<sourcetrack>
								<mediatype>audio</mediatype>
								<trackindex>1</trackindex>
							</sourcetrack>
							<link>
								<linkclipref>The-one140</linkclipref>
								<mediatype>video</mediatype>
								<trackindex>1</trackindex>
								<clipindex>2</clipindex>
							</link>
							<link>
								<linkclipref>The-one141</linkclipref>
								<mediatype>audio</mediatype>
								<trackindex>1</trackindex>
								<clipindex>2</clipindex>
								<groupindex>1</groupindex>
							</link>
							<link>
								<linkclipref>The-one142</linkclipref>
								<mediatype>audio</mediatype>
								<trackindex>2</trackindex>
								<clipindex>2</clipindex>
								<groupindex>1</groupindex>
							</link>
							<itemhistory>
								<uuid>BD063F12-2E88-41A9-9685-136EECDA1EFB</uuid>
							</itemhistory>
						</clipitem>
						<clipitem id="The-one144">
							<name>The-one</name>
							<duration>5477</duration>
							<rate>
								<ntsc>FALSE</ntsc>
								<timebase>25</timebase>
							</rate>
							<in>450</in>
							<out>509</out>
							<start>118</start>
							<end>177</end>
							<subframeoffset>0</subframeoffset>
							<masterclipid>The-one1</masterclipid>
							<logginginfo>
								<scene/>
								<shottake/>
								<lognote/>
								<good>FALSE</good>
							</logginginfo>
							<labels>
								<label2/>
							</labels>
							<comments>
								<mastercomment1/>
								<mastercomment2/>
								<mastercomment3/>
								<mastercomment4/>
							</comments>
							<file id="The-one2"/>
							<filter>
								<effect>
									<name>Audio Levels</name>
									<effectid>audiolevels</effectid>
									<effectcategory>audiolevels</effectcategory>
									<effecttype>audiolevels</effecttype>
									<mediatype>audio</mediatype>
									<parameter>
										<name>Level</name>
										<parameterid>level</parameterid>
										<valuemin>0</valuemin>
										<valuemax>3.98109</valuemax>
										<value>1</value>
									</parameter>
								</effect>
							</filter>
							<filter>
								<effect>
									<name>Audio Pan</name>
									<effectid>audiopan</effectid>
									<effectcategory>audiopan</effectcategory>
									<effecttype>audiopan</effecttype>
									<mediatype>audio</mediatype>
									<parameter>
										<name>Pan</name>
										<parameterid>pan</parameterid>
										<valuemin>-1</valuemin>
										<valuemax>1</valuemax>
										<value>-1</value>
									</parameter>
								</effect>
							</filter>
							<sourcetrack>
								<mediatype>audio</mediatype>
								<trackindex>1</trackindex>
							</sourcetrack>
							<link>
								<linkclipref>The-one143</linkclipref>
								<mediatype>video</mediatype>
								<trackindex>1</trackindex>
								<clipindex>3</clipindex>
							</link>
							<link>
								<linkclipref>The-one144</linkclipref>
								<mediatype>audio</mediatype>
								<trackindex>1</trackindex>
								<clipindex>3</clipindex>
								<groupindex>1</groupindex>
							</link>
							<link>
								<linkclipref>The-one145</linkclipref>
								<mediatype>audio</mediatype>
								<trackindex>2</trackindex>
								<clipindex>3</clipindex>
								<groupindex>1</groupindex>
							</link>
							<itemhistory>
								<uuid>E14D279F-B91E-48D3-9A91-FF5530E7ACFB</uuid>
							</itemhistory>
						</clipitem>
						<clipitem id="The-one147">
							<name>The-one</name>
							<duration>5477</duration>
							<rate>
								<ntsc>FALSE</ntsc>
								<timebase>25</timebase>
							</rate>
							<in>563</in>
							<out>614</out>
							<start>177</start>
							<end>228</end>
							<subframeoffset>0</subframeoffset>
							<masterclipid>The-one1</masterclipid>
							<logginginfo>
								<scene/>
								<shottake/>
								<lognote/>
								<good>FALSE</good>
							</logginginfo>
							<labels>
								<label2/>
							</labels>
							<comments>
								<mastercomment1/>
								<mastercomment2/>
								<mastercomment3/>
								<mastercomment4/>
							</comments>
							<file id="The-one2"/>
							<filter>
								<effect>
									<name>Audio Levels</name>
									<effectid>audiolevels</effectid>
									<effectcategory>audiolevels</effectcategory>
									<effecttype>audiolevels</effecttype>
									<mediatype>audio</mediatype>
									<parameter>
										<name>Level</name>
										<parameterid>level</parameterid>
										<valuemin>0</valuemin>
										<valuemax>3.98109</valuemax>
										<value>1</value>
									</parameter>
								</effect>
							</filter>
							<filter>
								<effect>
									<name>Audio Pan</name>
									<effectid>audiopan</effectid>
									<effectcategory>audiopan</effectcategory>
									<effecttype>audiopan</effecttype>
									<mediatype>audio</mediatype>
									<parameter>
										<name>Pan</name>
										<parameterid>pan</parameterid>
										<valuemin>-1</valuemin>
										<valuemax>1</valuemax>
										<value>-1</value>
									</parameter>
								</effect>
							</filter>
							<sourcetrack>
								<mediatype>audio</mediatype>
								<trackindex>1</trackindex>
							</sourcetrack>
							<link>
								<linkclipref>The-one146</linkclipref>
								<mediatype>video</mediatype>
								<trackindex>1</trackindex>
								<clipindex>4</clipindex>
							</link>
							<link>
								<linkclipref>The-one147</linkclipref>
								<mediatype>audio</mediatype>
								<trackindex>1</trackindex>
								<clipindex>4</clipindex>
								<groupindex>1</groupindex>
							</link>
							<link>
								<linkclipref>The-one148</linkclipref>
								<mediatype>audio</mediatype>
								<trackindex>2</trackindex>
								<clipindex>4</clipindex>
								<groupindex>1</groupindex>
							</link>
							<itemhistory>
								<uuid>0B3FD5E7-8BD9-4C7B-95D9-D20B2BABDA42</uuid>
							</itemhistory>
						</clipitem>
						<clipitem id="The-one150">
							<name>The-one</name>
							<duration>5477</duration>
							<rate>
								<ntsc>FALSE</ntsc>
								<timebase>25</timebase>
							</rate>
							<in>715</in>
							<out>749</out>
							<start>228</start>
							<end>262</end>
							<subframeoffset>0</subframeoffset>
							<masterclipid>The-one1</masterclipid>
							<logginginfo>
								<scene/>
								<shottake/>
								<lognote/>
								<good>FALSE</good>
							</logginginfo>
							<labels>
								<label2/>
							</labels>
							<comments>
								<mastercomment1/>
								<mastercomment2/>
								<mastercomment3/>
								<mastercomment4/>
							</comments>
							<file id="The-one2"/>
							<filter>
								<effect>
									<name>Audio Levels</name>
									<effectid>audiolevels</effectid>
									<effectcategory>audiolevels</effectcategory>
									<effecttype>audiolevels</effecttype>
									<mediatype>audio</mediatype>
									<parameter>
										<name>Level</name>
										<parameterid>level</parameterid>
										<valuemin>0</valuemin>
										<valuemax>3.98109</valuemax>
										<value>1</value>
									</parameter>
								</effect>
							</filter>
							<filter>
								<effect>
									<name>Audio Pan</name>
									<effectid>audiopan</effectid>
									<effectcategory>audiopan</effectcategory>
									<effecttype>audiopan</effecttype>
									<mediatype>audio</mediatype>
									<parameter>
										<name>Pan</name>
										<parameterid>pan</parameterid>
										<valuemin>-1</valuemin>
										<valuemax>1</valuemax>
										<value>-1</value>
									</parameter>
								</effect>
							</filter>
							<sourcetrack>
								<mediatype>audio</mediatype>
								<trackindex>1</trackindex>
							</sourcetrack>
							<link>
								<linkclipref>The-one149</linkclipref>
								<mediatype>video</mediatype>
								<trackindex>1</trackindex>
								<clipindex>5</clipindex>
							</link>
							<link>
								<linkclipref>The-one150</linkclipref>
								<mediatype>audio</mediatype>
								<trackindex>1</trackindex>
								<clipindex>5</clipindex>
								<groupindex>1</groupindex>
							</link>
							<link>
								<linkclipref>The-one151</linkclipref>
								<mediatype>audio</mediatype>
								<trackindex>2</trackindex>
								<clipindex>5</clipindex>
								<groupindex>1</groupindex>
							</link>
							<itemhistory>
								<uuid>CAB37CBC-5A40-469C-B718-086E24827284</uuid>
							</itemhistory>
						</clipitem>
						<clipitem id="The-one153">
							<name>The-one</name>
							<duration>5477</duration>
							<rate>
								<ntsc>FALSE</ntsc>
								<timebase>25</timebase>
							</rate>
							<in>799</in>
							<out>849</out>
							<start>262</start>
							<end>312</end>
							<subframeoffset>0</subframeoffset>
							<masterclipid>The-one1</masterclipid>
							<logginginfo>
								<scene/>
								<shottake/>
								<lognote/>
								<good>FALSE</good>
							</logginginfo>
							<labels>
								<label2/>
							</labels>
							<comments>
								<mastercomment1/>
								<mastercomment2/>
								<mastercomment3/>
								<mastercomment4/>
							</comments>
							<file id="The-one2"/>
							<filter>
								<effect>
									<name>Audio Levels</name>
									<effectid>audiolevels</effectid>
									<effectcategory>audiolevels</effectcategory>
									<effecttype>audiolevels</effecttype>
									<mediatype>audio</mediatype>
									<parameter>
										<name>Level</name>
										<parameterid>level</parameterid>
										<valuemin>0</valuemin>
										<valuemax>3.98109</valuemax>
										<value>1</value>
									</parameter>
								</effect>
							</filter>
							<filter>
								<effect>
									<name>Audio Pan</name>
									<effectid>audiopan</effectid>
									<effectcategory>audiopan</effectcategory>
									<effecttype>audiopan</effecttype>
									<mediatype>audio</mediatype>
									<parameter>
										<name>Pan</name>
										<parameterid>pan</parameterid>
										<valuemin>-1</valuemin>
										<valuemax>1</valuemax>
										<value>-1</value>
									</parameter>
								</effect>
							</filter>
							<sourcetrack>
								<mediatype>audio</mediatype>
								<trackindex>1</trackindex>
							</sourcetrack>
							<link>
								<linkclipref>The-one152</linkclipref>
								<mediatype>video</mediatype>
								<trackindex>1</trackindex>
								<clipindex>6</clipindex>
							</link>
							<link>
								<linkclipref>The-one153</linkclipref>
								<mediatype>audio</mediatype>
								<trackindex>1</trackindex>
								<clipindex>6</clipindex>
								<groupindex>1</groupindex>
							</link>
							<link>
								<linkclipref>The-one154</linkclipref>
								<mediatype>audio</mediatype>
								<trackindex>2</trackindex>
								<clipindex>6</clipindex>
								<groupindex>1</groupindex>
							</link>
							<itemhistory>
								<uuid>9C885AB6-AC31-4459-BDCC-D2EF1FDE8298</uuid>
							</itemhistory>
						</clipitem>
						<clipitem id="The-one156">
							<name>The-one</name>
							<duration>5477</duration>
							<rate>
								<ntsc>FALSE</ntsc>
								<timebase>25</timebase>
							</rate>
							<in>903</in>
							<out>961</out>
							<start>312</start>
							<end>370</end>
							<subframeoffset>0</subframeoffset>
							<masterclipid>The-one1</masterclipid>
							<logginginfo>
								<scene/>
								<shottake/>
								<lognote/>
								<good>FALSE</good>
							</logginginfo>
							<labels>
								<label2/>
							</labels>
							<comments>
								<mastercomment1/>
								<mastercomment2/>
								<mastercomment3/>
								<mastercomment4/>
							</comments>
							<file id="The-one2"/>
							<filter>
								<effect>
									<name>Audio Levels</name>
									<effectid>audiolevels</effectid>
									<effectcategory>audiolevels</effectcategory>
									<effecttype>audiolevels</effecttype>
									<mediatype>audio</mediatype>
									<parameter>
										<name>Level</name>
										<parameterid>level</parameterid>
										<valuemin>0</valuemin>
										<valuemax>3.98109</valuemax>
										<value>1</value>
									</parameter>
								</effect>
							</filter>
							<filter>
								<effect>
									<name>Audio Pan</name>
									<effectid>audiopan</effectid>
									<effectcategory>audiopan</effectcategory>
									<effecttype>audiopan</effecttype>
									<mediatype>audio</mediatype>
									<parameter>
										<name>Pan</name>
										<parameterid>pan</parameterid>
										<valuemin>-1</valuemin>
										<valuemax>1</valuemax>
										<value>-1</value>
									</parameter>
								</effect>
							</filter>
							<sourcetrack>
								<mediatype>audio</mediatype>
								<trackindex>1</trackindex>
							</sourcetrack>
							<link>
								<linkclipref>The-one155</linkclipref>
								<mediatype>video</mediatype>
								<trackindex>1</trackindex>
								<clipindex>7</clipindex>
							</link>
							<link>
								<linkclipref>The-one156</linkclipref>
								<mediatype>audio</mediatype>
								<trackindex>1</trackindex>
								<clipindex>7</clipindex>
								<groupindex>1</groupindex>
							</link>
							<link>
								<linkclipref>The-one157</linkclipref>
								<mediatype>audio</mediatype>
								<trackindex>2</trackindex>
								<clipindex>7</clipindex>
								<groupindex>1</groupindex>
							</link>
							<itemhistory>
								<uuid>1948A865-6F16-4156-84F4-689D1CD0206F</uuid>
							</itemhistory>
						</clipitem>
						<clipitem id="The-one159">
							<name>The-one</name>
							<duration>5477</duration>
							<rate>
								<ntsc>FALSE</ntsc>
								<timebase>25</timebase>
							</rate>
							<in>1019</in>
							<out>1073</out>
							<start>370</start>
							<end>424</end>
							<subframeoffset>0</subframeoffset>
							<masterclipid>The-one1</masterclipid>
							<logginginfo>
								<scene/>
								<shottake/>
								<lognote/>
								<good>FALSE</good>
							</logginginfo>
							<labels>
								<label2/>
							</labels>
							<comments>
								<mastercomment1/>
								<mastercomment2/>
								<mastercomment3/>
								<mastercomment4/>
							</comments>
							<file id="The-one2"/>
							<filter>
								<effect>
									<name>Audio Levels</name>
									<effectid>audiolevels</effectid>
									<effectcategory>audiolevels</effectcategory>
									<effecttype>audiolevels</effecttype>
									<mediatype>audio</mediatype>
									<parameter>
										<name>Level</name>
										<parameterid>level</parameterid>
										<valuemin>0</valuemin>
										<valuemax>3.98109</valuemax>
										<value>1</value>
									</parameter>
								</effect>
							</filter>
							<filter>
								<effect>
									<name>Audio Pan</name>
									<effectid>audiopan</effectid>
									<effectcategory>audiopan</effectcategory>
									<effecttype>audiopan</effecttype>
									<mediatype>audio</mediatype>
									<parameter>
										<name>Pan</name>
										<parameterid>pan</parameterid>
										<valuemin>-1</valuemin>
										<valuemax>1</valuemax>
										<value>-1</value>
									</parameter>
								</effect>
							</filter>
							<sourcetrack>
								<mediatype>audio</mediatype>
								<trackindex>1</trackindex>
							</sourcetrack>
							<link>
								<linkclipref>The-one158</linkclipref>
								<mediatype>video</mediatype>
								<trackindex>1</trackindex>
								<clipindex>8</clipindex>
							</link>
							<link>
								<linkclipref>The-one159</linkclipref>
								<mediatype>audio</mediatype>
								<trackindex>1</trackindex>
								<clipindex>8</clipindex>
								<groupindex>1</groupindex>
							</link>
							<link>
								<linkclipref>The-one160</linkclipref>
								<mediatype>audio</mediatype>
								<trackindex>2</trackindex>
								<clipindex>8</clipindex>
								<groupindex>1</groupindex>
							</link>
							<itemhistory>
								<uuid>645DCC2B-6E6B-4A13-96C4-0ACFB6E6E9B6</uuid>
							</itemhistory>
						</clipitem>
						<clipitem id="The-one162">
							<name>The-one</name>
							<duration>5477</duration>
							<rate>
								<ntsc>FALSE</ntsc>
								<timebase>25</timebase>
							</rate>
							<in>1131</in>
							<out>1197</out>
							<start>424</start>
							<end>490</end>
							<subframeoffset>0</subframeoffset>
							<masterclipid>The-one1</masterclipid>
							<logginginfo>
								<scene/>
								<shottake/>
								<lognote/>
								<good>FALSE</good>
							</logginginfo>
							<labels>
								<label2/>
							</labels>
							<comments>
								<mastercomment1/>
								<mastercomment2/>
								<mastercomment3/>
								<mastercomment4/>
							</comments>
							<file id="The-one2"/>
							<filter>
								<effect>
									<name>Audio Levels</name>
									<effectid>audiolevels</effectid>
									<effectcategory>audiolevels</effectcategory>
									<effecttype>audiolevels</effecttype>
									<mediatype>audio</mediatype>
									<parameter>
										<name>Level</name>
										<parameterid>level</parameterid>
										<valuemin>0</valuemin>
										<valuemax>3.98109</valuemax>
										<value>1</value>
									</parameter>
								</effect>
							</filter>
							<filter>
								<effect>
									<name>Audio Pan</name>
									<effectid>audiopan</effectid>
									<effectcategory>audiopan</effectcategory>
									<effecttype>audiopan</effecttype>
									<mediatype>audio</mediatype>
									<parameter>
										<name>Pan</name>
										<parameterid>pan</parameterid>
										<valuemin>-1</valuemin>
										<valuemax>1</valuemax>
										<value>-1</value>
									</parameter>
								</effect>
							</filter>
							<sourcetrack>
								<mediatype>audio</mediatype>
								<trackindex>1</trackindex>
							</sourcetrack>
							<link>
								<linkclipref>The-one161</linkclipref>
								<mediatype>video</mediatype>
								<trackindex>1</trackindex>
								<clipindex>9</clipindex>
							</link>
							<link>
								<linkclipref>The-one162</linkclipref>
								<mediatype>audio</mediatype>
								<trackindex>1</trackindex>
								<clipindex>9</clipindex>
								<groupindex>1</groupindex>
							</link>
							<link>
								<linkclipref>The-one163</linkclipref>
								<mediatype>audio</mediatype>
								<trackindex>2</trackindex>
								<clipindex>9</clipindex>
								<groupindex>1</groupindex>
							</link>
							<itemhistory>
								<uuid>85916E18-AD26-4642-81D6-81BAAC311613</uuid>
							</itemhistory>
						</clipitem>
						<clipitem id="The-one165">
							<name>The-one</name>
							<duration>5477</duration>
							<rate>
								<ntsc>FALSE</ntsc>
								<timebase>25</timebase>
							</rate>
							<in>1244</in>
							<out>1302</out>
							<start>490</start>
							<end>548</end>
							<subframeoffset>0</subframeoffset>
							<masterclipid>The-one1</masterclipid>
							<logginginfo>
								<scene/>
								<shottake/>
								<lognote/>
								<good>FALSE</good>
							</logginginfo>
							<labels>
								<label2/>
							</labels>
							<comments>
								<mastercomment1/>
								<mastercomment2/>
								<mastercomment3/>
								<mastercomment4/>
							</comments>
							<file id="The-one2"/>
							<filter>
								<effect>
									<name>Audio Levels</name>
									<effectid>audiolevels</effectid>
									<effectcategory>audiolevels</effectcategory>
									<effecttype>audiolevels</effecttype>
									<mediatype>audio</mediatype>
									<parameter>
										<name>Level</name>
										<parameterid>level</parameterid>
										<valuemin>0</valuemin>
										<valuemax>3.98109</valuemax>
										<value>1</value>
									</parameter>
								</effect>
							</filter>
							<filter>
								<effect>
									<name>Audio Pan</name>
									<effectid>audiopan</effectid>
									<effectcategory>audiopan</effectcategory>
									<effecttype>audiopan</effecttype>
									<mediatype>audio</mediatype>
									<parameter>
										<name>Pan</name>
										<parameterid>pan</parameterid>
										<valuemin>-1</valuemin>
										<valuemax>1</valuemax>
										<value>-1</value>
									</parameter>
								</effect>
							</filter>
							<sourcetrack>
								<mediatype>audio</mediatype>
								<trackindex>1</trackindex>
							</sourcetrack>
							<link>
								<linkclipref>The-one164</linkclipref>
								<mediatype>video</mediatype>
								<trackindex>1</trackindex>
								<clipindex>10</clipindex>
							</link>
							<link>
								<linkclipref>The-one165</linkclipref>
								<mediatype>audio</mediatype>
								<trackindex>1</trackindex>
								<clipindex>10</clipindex>
								<groupindex>1</groupindex>
							</link>
							<link>
								<linkclipref>The-one166</linkclipref>
								<mediatype>audio</mediatype>
								<trackindex>2</trackindex>
								<clipindex>10</clipindex>
								<groupindex>1</groupindex>
							</link>
							<itemhistory>
								<uuid>5B3357DE-6A8D-4782-A810-297C2DAEC274</uuid>
							</itemhistory>
						</clipitem>
						<clipitem id="The-one168">
							<name>The-one</name>
							<duration>5477</duration>
							<rate>
								<ntsc>FALSE</ntsc>
								<timebase>25</timebase>
							</rate>
							<in>1359</in>
							<out>1414</out>
							<start>548</start>
							<end>603</end>
							<subframeoffset>0</subframeoffset>
							<masterclipid>The-one1</masterclipid>
							<logginginfo>
								<scene/>
								<shottake/>
								<lognote/>
								<good>FALSE</good>
							</logginginfo>
							<labels>
								<label2/>
							</labels>
							<comments>
								<mastercomment1/>
								<mastercomment2/>
								<mastercomment3/>
								<mastercomment4/>
							</comments>
							<file id="The-one2"/>
							<filter>
								<effect>
									<name>Audio Levels</name>
									<effectid>audiolevels</effectid>
									<effectcategory>audiolevels</effectcategory>
									<effecttype>audiolevels</effecttype>
									<mediatype>audio</mediatype>
									<parameter>
										<name>Level</name>
										<parameterid>level</parameterid>
										<valuemin>0</valuemin>
										<valuemax>3.98109</valuemax>
										<value>1</value>
									</parameter>
								</effect>
							</filter>
							<filter>
								<effect>
									<name>Audio Pan</name>
									<effectid>audiopan</effectid>
									<effectcategory>audiopan</effectcategory>
									<effecttype>audiopan</effecttype>
									<mediatype>audio</mediatype>
									<parameter>
										<name>Pan</name>
										<parameterid>pan</parameterid>
										<valuemin>-1</valuemin>
										<valuemax>1</valuemax>
										<value>-1</value>
									</parameter>
								</effect>
							</filter>
							<sourcetrack>
								<mediatype>audio</mediatype>
								<trackindex>1</trackindex>
							</sourcetrack>
							<link>
								<linkclipref>The-one167</linkclipref>
								<mediatype>video</mediatype>
								<trackindex>1</trackindex>
								<clipindex>11</clipindex>
							</link>
							<link>
								<linkclipref>The-one168</linkclipref>
								<mediatype>audio</mediatype>
								<trackindex>1</trackindex>
								<clipindex>11</clipindex>
								<groupindex>1</groupindex>
							</link>
							<link>
								<linkclipref>The-one169</linkclipref>
								<mediatype>audio</mediatype>
								<trackindex>2</trackindex>
								<clipindex>11</clipindex>
								<groupindex>1</groupindex>
							</link>
							<itemhistory>
								<uuid>241DF9AA-B4CB-48B2-8F05-C4550130D25A</uuid>
							</itemhistory>
						</clipitem>
						<clipitem id="The-one171">
							<name>The-one</name>
							<duration>5477</duration>
							<rate>
								<ntsc>FALSE</ntsc>
								<timebase>25</timebase>
							</rate>
							<in>1469</in>
							<out>1530</out>
							<start>603</start>
							<end>664</end>
							<subframeoffset>0</subframeoffset>
							<masterclipid>The-one1</masterclipid>
							<logginginfo>
								<scene/>
								<shottake/>
								<lognote/>
								<good>FALSE</good>
							</logginginfo>
							<labels>
								<label2/>
							</labels>
							<comments>
								<mastercomment1/>
								<mastercomment2/>
								<mastercomment3/>
								<mastercomment4/>
							</comments>
							<file id="The-one2"/>
							<filter>
								<effect>
									<name>Audio Levels</name>
									<effectid>audiolevels</effectid>
									<effectcategory>audiolevels</effectcategory>
									<effecttype>audiolevels</effecttype>
									<mediatype>audio</mediatype>
									<parameter>
										<name>Level</name>
										<parameterid>level</parameterid>
										<valuemin>0</valuemin>
										<valuemax>3.98109</valuemax>
										<value>1</value>
									</parameter>
								</effect>
							</filter>
							<filter>
								<effect>
									<name>Audio Pan</name>
									<effectid>audiopan</effectid>
									<effectcategory>audiopan</effectcategory>
									<effecttype>audiopan</effecttype>
									<mediatype>audio</mediatype>
									<parameter>
										<name>Pan</name>
										<parameterid>pan</parameterid>
										<valuemin>-1</valuemin>
										<valuemax>1</valuemax>
										<value>-1</value>
									</parameter>
								</effect>
							</filter>
							<sourcetrack>
								<mediatype>audio</mediatype>
								<trackindex>1</trackindex>
							</sourcetrack>
							<link>
								<linkclipref>The-one170</linkclipref>
								<mediatype>video</mediatype>
								<trackindex>1</trackindex>
								<clipindex>12</clipindex>
							</link>
							<link>
								<linkclipref>The-one171</linkclipref>
								<mediatype>audio</mediatype>
								<trackindex>1</trackindex>
								<clipindex>12</clipindex>
								<groupindex>1</groupindex>
							</link>
							<link>
								<linkclipref>The-one172</linkclipref>
								<mediatype>audio</mediatype>
								<trackindex>2</trackindex>
								<clipindex>12</clipindex>
								<groupindex>1</groupindex>
							</link>
							<itemhistory>
								<uuid>A5A434BA-1265-4AA5-8CA6-2B4403BD7CB4</uuid>
							</itemhistory>
						</clipitem>
						<clipitem id="The-one174">
							<name>The-one</name>
							<duration>5477</duration>
							<rate>
								<ntsc>FALSE</ntsc>
								<timebase>25</timebase>
							</rate>
							<in>1583</in>
							<out>1641</out>
							<start>664</start>
							<end>722</end>
							<subframeoffset>0</subframeoffset>
							<masterclipid>The-one1</masterclipid>
							<logginginfo>
								<scene/>
								<shottake/>
								<lognote/>
								<good>FALSE</good>
							</logginginfo>
							<labels>
								<label2/>
							</labels>
							<comments>
								<mastercomment1/>
								<mastercomment2/>
								<mastercomment3/>
								<mastercomment4/>
							</comments>
							<file id="The-one2"/>
							<filter>
								<effect>
									<name>Audio Levels</name>
									<effectid>audiolevels</effectid>
									<effectcategory>audiolevels</effectcategory>
									<effecttype>audiolevels</effecttype>
									<mediatype>audio</mediatype>
									<parameter>
										<name>Level</name>
										<parameterid>level</parameterid>
										<valuemin>0</valuemin>
										<valuemax>3.98109</valuemax>
										<value>1</value>
									</parameter>
								</effect>
							</filter>
							<filter>
								<effect>
									<name>Audio Pan</name>
									<effectid>audiopan</effectid>
									<effectcategory>audiopan</effectcategory>
									<effecttype>audiopan</effecttype>
									<mediatype>audio</mediatype>
									<parameter>
										<name>Pan</name>
										<parameterid>pan</parameterid>
										<valuemin>-1</valuemin>
										<valuemax>1</valuemax>
										<value>-1</value>
									</parameter>
								</effect>
							</filter>
							<sourcetrack>
								<mediatype>audio</mediatype>
								<trackindex>1</trackindex>
							</sourcetrack>
							<link>
								<linkclipref>The-one173</linkclipref>
								<mediatype>video</mediatype>
								<trackindex>1</trackindex>
								<clipindex>13</clipindex>
							</link>
							<link>
								<linkclipref>The-one174</linkclipref>
								<mediatype>audio</mediatype>
								<trackindex>1</trackindex>
								<clipindex>13</clipindex>
								<groupindex>1</groupindex>
							</link>
							<link>
								<linkclipref>The-one175</linkclipref>
								<mediatype>audio</mediatype>
								<trackindex>2</trackindex>
								<clipindex>13</clipindex>
								<groupindex>1</groupindex>
							</link>
							<itemhistory>
								<uuid>C729DE7E-D62F-4C81-8311-BAA4D480ABC1</uuid>
							</itemhistory>
						</clipitem>
						<clipitem id="The-one177">
							<name>The-one</name>
							<duration>5477</duration>
							<rate>
								<ntsc>FALSE</ntsc>
								<timebase>25</timebase>
							</rate>
							<in>2092</in>
							<out>2158</out>
							<start>722</start>
							<end>788</end>
							<subframeoffset>0</subframeoffset>
							<masterclipid>The-one1</masterclipid>
							<logginginfo>
								<scene/>
								<shottake/>
								<lognote/>
								<good>FALSE</good>
							</logginginfo>
							<labels>
								<label2/>
							</labels>
							<comments>
								<mastercomment1/>
								<mastercomment2/>
								<mastercomment3/>
								<mastercomment4/>
							</comments>
							<file id="The-one2"/>
							<filter>
								<effect>
									<name>Audio Levels</name>
									<effectid>audiolevels</effectid>
									<effectcategory>audiolevels</effectcategory>
									<effecttype>audiolevels</effecttype>
									<mediatype>audio</mediatype>
									<parameter>
										<name>Level</name>
										<parameterid>level</parameterid>
										<valuemin>0</valuemin>
										<valuemax>3.98109</valuemax>
										<value>1</value>
									</parameter>
								</effect>
							</filter>
							<filter>
								<effect>
									<name>Audio Pan</name>
									<effectid>audiopan</effectid>
									<effectcategory>audiopan</effectcategory>
									<effecttype>audiopan</effecttype>
									<mediatype>audio</mediatype>
									<parameter>
										<name>Pan</name>
										<parameterid>pan</parameterid>
										<valuemin>-1</valuemin>
										<valuemax>1</valuemax>
										<value>-1</value>
									</parameter>
								</effect>
							</filter>
							<sourcetrack>
								<mediatype>audio</mediatype>
								<trackindex>1</trackindex>
							</sourcetrack>
							<link>
								<linkclipref>The-one176</linkclipref>
								<mediatype>video</mediatype>
								<trackindex>1</trackindex>
								<clipindex>14</clipindex>
							</link>
							<link>
								<linkclipref>The-one177</linkclipref>
								<mediatype>audio</mediatype>
								<trackindex>1</trackindex>
								<clipindex>14</clipindex>
								<groupindex>1</groupindex>
							</link>
							<link>
								<linkclipref>The-one178</linkclipref>
								<mediatype>audio</mediatype>
								<trackindex>2</trackindex>
								<clipindex>14</clipindex>
								<groupindex>1</groupindex>
							</link>
							<itemhistory>
								<uuid>2AF35465-7D2C-4A48-B187-AC85BE822FAC</uuid>
							</itemhistory>
						</clipitem>
						<clipitem id="The-one180">
							<name>The-one</name>
							<duration>5477</duration>
							<rate>
								<ntsc>FALSE</ntsc>
								<timebase>25</timebase>
							</rate>
							<in>1019</in>
							<out>1073</out>
							<start>788</start>
							<end>842</end>
							<subframeoffset>0</subframeoffset>
							<masterclipid>The-one1</masterclipid>
							<logginginfo>
								<scene/>
								<shottake/>
								<lognote/>
								<good>FALSE</good>
							</logginginfo>
							<labels>
								<label2/>
							</labels>
							<comments>
								<mastercomment1/>
								<mastercomment2/>
								<mastercomment3/>
								<mastercomment4/>
							</comments>
							<file id="The-one2"/>
							<filter>
								<effect>
									<name>Audio Levels</name>
									<effectid>audiolevels</effectid>
									<effectcategory>audiolevels</effectcategory>
									<effecttype>audiolevels</effecttype>
									<mediatype>audio</mediatype>
									<parameter>
										<name>Level</name>
										<parameterid>level</parameterid>
										<valuemin>0</valuemin>
										<valuemax>3.98109</valuemax>
										<value>1</value>
									</parameter>
								</effect>
							</filter>
							<filter>
								<effect>
									<name>Audio Pan</name>
									<effectid>audiopan</effectid>
									<effectcategory>audiopan</effectcategory>
									<effecttype>audiopan</effecttype>
									<mediatype>audio</mediatype>
									<parameter>
										<name>Pan</name>
										<parameterid>pan</parameterid>
										<valuemin>-1</valuemin>
										<valuemax>1</valuemax>
										<value>-1</value>
									</parameter>
								</effect>
							</filter>
							<sourcetrack>
								<mediatype>audio</mediatype>
								<trackindex>1</trackindex>
							</sourcetrack>
							<link>
								<linkclipref>The-one179</linkclipref>
								<mediatype>video</mediatype>
								<trackindex>1</trackindex>
								<clipindex>15</clipindex>
							</link>
							<link>
								<linkclipref>The-one180</linkclipref>
								<mediatype>audio</mediatype>
								<trackindex>1</trackindex>
								<clipindex>15</clipindex>
								<groupindex>1</groupindex>
							</link>
							<link>
								<linkclipref>The-one181</linkclipref>
								<mediatype>audio</mediatype>
								<trackindex>2</trackindex>
								<clipindex>15</clipindex>
								<groupindex>1</groupindex>
							</link>
							<itemhistory>
								<uuid>A5DF7878-546F-45F5-BEE1-7CA5B746F634</uuid>
							</itemhistory>
						</clipitem>
						<clipitem id="The-one183">
							<name>The-one</name>
							<duration>5477</duration>
							<rate>
								<ntsc>FALSE</ntsc>
								<timebase>25</timebase>
							</rate>
							<in>1697</in>
							<out>1743</out>
							<start>842</start>
							<end>888</end>
							<subframeoffset>0</subframeoffset>
							<masterclipid>The-one1</masterclipid>
							<logginginfo>
								<scene/>
								<shottake/>
								<lognote/>
								<good>FALSE</good>
							</logginginfo>
							<labels>
								<label2/>
							</labels>
							<comments>
								<mastercomment1/>
								<mastercomment2/>
								<mastercomment3/>
								<mastercomment4/>
							</comments>
							<file id="The-one2"/>
							<filter>
								<effect>
									<name>Audio Levels</name>
									<effectid>audiolevels</effectid>
									<effectcategory>audiolevels</effectcategory>
									<effecttype>audiolevels</effecttype>
									<mediatype>audio</mediatype>
									<parameter>
										<name>Level</name>
										<parameterid>level</parameterid>
										<valuemin>0</valuemin>
										<valuemax>3.98109</valuemax>
										<value>1</value>
									</parameter>
								</effect>
							</filter>
							<filter>
								<effect>
									<name>Audio Pan</name>
									<effectid>audiopan</effectid>
									<effectcategory>audiopan</effectcategory>
									<effecttype>audiopan</effecttype>
									<mediatype>audio</mediatype>
									<parameter>
										<name>Pan</name>
										<parameterid>pan</parameterid>
										<valuemin>-1</valuemin>
										<valuemax>1</valuemax>
										<value>-1</value>
									</parameter>
								</effect>
							</filter>
							<sourcetrack>
								<mediatype>audio</mediatype>
								<trackindex>1</trackindex>
							</sourcetrack>
							<link>
								<linkclipref>The-one182</linkclipref>
								<mediatype>video</mediatype>
								<trackindex>1</trackindex>
								<clipindex>16</clipindex>
							</link>
							<link>
								<linkclipref>The-one183</linkclipref>
								<mediatype>audio</mediatype>
								<trackindex>1</trackindex>
								<clipindex>16</clipindex>
								<groupindex>1</groupindex>
							</link>
							<link>
								<linkclipref>The-one184</linkclipref>
								<mediatype>audio</mediatype>
								<trackindex>2</trackindex>
								<clipindex>16</clipindex>
								<groupindex>1</groupindex>
							</link>
							<itemhistory>
								<uuid>591A742B-0FE6-4BD6-9E96-5566019A37D0</uuid>
							</itemhistory>
						</clipitem>
						<clipitem id="The-one186">
							<name>The-one</name>
							<duration>5477</duration>
							<rate>
								<ntsc>FALSE</ntsc>
								<timebase>25</timebase>
							</rate>
							<in>1925</in>
							<out>2033</out>
							<start>888</start>
							<end>996</end>
							<subframeoffset>0</subframeoffset>
							<masterclipid>The-one1</masterclipid>
							<logginginfo>
								<scene/>
								<shottake/>
								<lognote/>
								<good>FALSE</good>
							</logginginfo>
							<labels>
								<label2/>
							</labels>
							<comments>
								<mastercomment1/>
								<mastercomment2/>
								<mastercomment3/>
								<mastercomment4/>
							</comments>
							<file id="The-one2"/>
							<filter>
								<effect>
									<name>Audio Levels</name>
									<effectid>audiolevels</effectid>
									<effectcategory>audiolevels</effectcategory>
									<effecttype>audiolevels</effecttype>
									<mediatype>audio</mediatype>
									<parameter>
										<name>Level</name>
										<parameterid>level</parameterid>
										<valuemin>0</valuemin>
										<valuemax>3.98109</valuemax>
										<value>1</value>
									</parameter>
								</effect>
							</filter>
							<filter>
								<effect>
									<name>Audio Pan</name>
									<effectid>audiopan</effectid>
									<effectcategory>audiopan</effectcategory>
									<effecttype>audiopan</effecttype>
									<mediatype>audio</mediatype>
									<parameter>
										<name>Pan</name>
										<parameterid>pan</parameterid>
										<valuemin>-1</valuemin>
										<valuemax>1</valuemax>
										<value>-1</value>
									</parameter>
								</effect>
							</filter>
							<sourcetrack>
								<mediatype>audio</mediatype>
								<trackindex>1</trackindex>
							</sourcetrack>
							<link>
								<linkclipref>The-one185</linkclipref>
								<mediatype>video</mediatype>
								<trackindex>1</trackindex>
								<clipindex>17</clipindex>
							</link>
							<link>
								<linkclipref>The-one186</linkclipref>
								<mediatype>audio</mediatype>
								<trackindex>1</trackindex>
								<clipindex>17</clipindex>
								<groupindex>1</groupindex>
							</link>
							<link>
								<linkclipref>The-one187</linkclipref>
								<mediatype>audio</mediatype>
								<trackindex>2</trackindex>
								<clipindex>17</clipindex>
								<groupindex>1</groupindex>
							</link>
							<itemhistory>
								<uuid>785936F9-3B17-4A4A-991F-370C52F5A553</uuid>
							</itemhistory>
						</clipitem>
						<clipitem id="The-one189">
							<name>The-one</name>
							<duration>5477</duration>
							<rate>
								<ntsc>FALSE</ntsc>
								<timebase>25</timebase>
							</rate>
							<in>2435</in>
							<out>2492</out>
							<start>996</start>
							<end>1053</end>
							<subframeoffset>0</subframeoffset>
							<masterclipid>The-one1</masterclipid>
							<logginginfo>
								<scene/>
								<shottake/>
								<lognote/>
								<good>FALSE</good>
							</logginginfo>
							<labels>
								<label2/>
							</labels>
							<comments>
								<mastercomment1/>
								<mastercomment2/>
								<mastercomment3/>
								<mastercomment4/>
							</comments>
							<file id="The-one2"/>
							<filter>
								<effect>
									<name>Audio Levels</name>
									<effectid>audiolevels</effectid>
									<effectcategory>audiolevels</effectcategory>
									<effecttype>audiolevels</effecttype>
									<mediatype>audio</mediatype>
									<parameter>
										<name>Level</name>
										<parameterid>level</parameterid>
										<valuemin>0</valuemin>
										<valuemax>3.98109</valuemax>
										<value>1</value>
									</parameter>
								</effect>
							</filter>
							<filter>
								<effect>
									<name>Audio Pan</name>
									<effectid>audiopan</effectid>
									<effectcategory>audiopan</effectcategory>
									<effecttype>audiopan</effecttype>
									<mediatype>audio</mediatype>
									<parameter>
										<name>Pan</name>
										<parameterid>pan</parameterid>
										<valuemin>-1</valuemin>
										<valuemax>1</valuemax>
										<value>-1</value>
									</parameter>
								</effect>
							</filter>
							<sourcetrack>
								<mediatype>audio</mediatype>
								<trackindex>1</trackindex>
							</sourcetrack>
							<link>
								<linkclipref>The-one188</linkclipref>
								<mediatype>video</mediatype>
								<trackindex>1</trackindex>
								<clipindex>18</clipindex>
							</link>
							<link>
								<linkclipref>The-one189</linkclipref>
								<mediatype>audio</mediatype>
								<trackindex>1</trackindex>
								<clipindex>18</clipindex>
								<groupindex>1</groupindex>
							</link>
							<link>
								<linkclipref>The-one190</linkclipref>
								<mediatype>audio</mediatype>
								<trackindex>2</trackindex>
								<clipindex>18</clipindex>
								<groupindex>1</groupindex>
							</link>
							<itemhistory>
								<uuid>10827794-DA6E-4F6C-A45A-5AD933A4F883</uuid>
							</itemhistory>
						</clipitem>
						<clipitem id="The-one192">
							<name>The-one</name>
							<duration>5477</duration>
							<rate>
								<ntsc>FALSE</ntsc>
								<timebase>25</timebase>
							</rate>
							<in>2544</in>
							<out>2601</out>
							<start>1053</start>
							<end>1110</end>
							<subframeoffset>0</subframeoffset>
							<masterclipid>The-one1</masterclipid>
							<logginginfo>
								<scene/>
								<shottake/>
								<lognote/>
								<good>FALSE</good>
							</logginginfo>
							<labels>
								<label2/>
							</labels>
							<comments>
								<mastercomment1/>
								<mastercomment2/>
								<mastercomment3/>
								<mastercomment4/>
							</comments>
							<file id="The-one2"/>
							<filter>
								<effect>
									<name>Audio Levels</name>
									<effectid>audiolevels</effectid>
									<effectcategory>audiolevels</effectcategory>
									<effecttype>audiolevels</effecttype>
									<mediatype>audio</mediatype>
									<parameter>
										<name>Level</name>
										<parameterid>level</parameterid>
										<valuemin>0</valuemin>
										<valuemax>3.98109</valuemax>
										<value>1</value>
									</parameter>
								</effect>
							</filter>
							<filter>
								<effect>
									<name>Audio Pan</name>
									<effectid>audiopan</effectid>
									<effectcategory>audiopan</effectcategory>
									<effecttype>audiopan</effecttype>
									<mediatype>audio</mediatype>
									<parameter>
										<name>Pan</name>
										<parameterid>pan</parameterid>
										<valuemin>-1</valuemin>
										<valuemax>1</valuemax>
										<value>-1</value>
									</parameter>
								</effect>
							</filter>
							<sourcetrack>
								<mediatype>audio</mediatype>
								<trackindex>1</trackindex>
							</sourcetrack>
							<link>
								<linkclipref>The-one191</linkclipref>
								<mediatype>video</mediatype>
								<trackindex>1</trackindex>
								<clipindex>19</clipindex>
							</link>
							<link>
								<linkclipref>The-one192</linkclipref>
								<mediatype>audio</mediatype>
								<trackindex>1</trackindex>
								<clipindex>19</clipindex>
								<groupindex>1</groupindex>
							</link>
							<link>
								<linkclipref>The-one193</linkclipref>
								<mediatype>audio</mediatype>
								<trackindex>2</trackindex>
								<clipindex>19</clipindex>
								<groupindex>1</groupindex>
							</link>
							<itemhistory>
								<uuid>46B2FD1C-038C-4DF1-8E3E-28D3A0A57833</uuid>
							</itemhistory>
						</clipitem>
						<clipitem id="The-one195">
							<name>The-one</name>
							<duration>5477</duration>
							<rate>
								<ntsc>FALSE</ntsc>
								<timebase>25</timebase>
							</rate>
							<in>2655</in>
							<out>2714</out>
							<start>1110</start>
							<end>1169</end>
							<subframeoffset>0</subframeoffset>
							<masterclipid>The-one1</masterclipid>
							<logginginfo>
								<scene/>
								<shottake/>
								<lognote/>
								<good>FALSE</good>
							</logginginfo>
							<labels>
								<label2/>
							</labels>
							<comments>
								<mastercomment1/>
								<mastercomment2/>
								<mastercomment3/>
								<mastercomment4/>
							</comments>
							<file id="The-one2"/>
							<filter>
								<effect>
									<name>Audio Levels</name>
									<effectid>audiolevels</effectid>
									<effectcategory>audiolevels</effectcategory>
									<effecttype>audiolevels</effecttype>
									<mediatype>audio</mediatype>
									<parameter>
										<name>Level</name>
										<parameterid>level</parameterid>
										<valuemin>0</valuemin>
										<valuemax>3.98109</valuemax>
										<value>1</value>
									</parameter>
								</effect>
							</filter>
							<filter>
								<effect>
									<name>Audio Pan</name>
									<effectid>audiopan</effectid>
									<effectcategory>audiopan</effectcategory>
									<effecttype>audiopan</effecttype>
									<mediatype>audio</mediatype>
									<parameter>
										<name>Pan</name>
										<parameterid>pan</parameterid>
										<valuemin>-1</valuemin>
										<valuemax>1</valuemax>
										<value>-1</value>
									</parameter>
								</effect>
							</filter>
							<sourcetrack>
								<mediatype>audio</mediatype>
								<trackindex>1</trackindex>
							</sourcetrack>
							<link>
								<linkclipref>The-one194</linkclipref>
								<mediatype>video</mediatype>
								<trackindex>1</trackindex>
								<clipindex>20</clipindex>
							</link>
							<link>
								<linkclipref>The-one195</linkclipref>
								<mediatype>audio</mediatype>
								<trackindex>1</trackindex>
								<clipindex>20</clipindex>
								<groupindex>1</groupindex>
							</link>
							<link>
								<linkclipref>The-one196</linkclipref>
								<mediatype>audio</mediatype>
								<trackindex>2</trackindex>
								<clipindex>20</clipindex>
								<groupindex>1</groupindex>
							</link>
							<itemhistory>
								<uuid>452CABDF-F713-4B38-AFD7-3D7AE9391B81</uuid>
							</itemhistory>
						</clipitem>
						<clipitem id="The-one198">
							<name>The-one</name>
							<duration>5477</duration>
							<rate>
								<ntsc>FALSE</ntsc>
								<timebase>25</timebase>
							</rate>
							<in>2771</in>
							<out>2827</out>
							<start>1169</start>
							<end>1225</end>
							<subframeoffset>0</subframeoffset>
							<masterclipid>The-one1</masterclipid>
							<logginginfo>
								<scene/>
								<shottake/>
								<lognote/>
								<good>FALSE</good>
							</logginginfo>
							<labels>
								<label2/>
							</labels>
							<comments>
								<mastercomment1/>
								<mastercomment2/>
								<mastercomment3/>
								<mastercomment4/>
							</comments>
							<file id="The-one2"/>
							<filter>
								<effect>
									<name>Audio Levels</name>
									<effectid>audiolevels</effectid>
									<effectcategory>audiolevels</effectcategory>
									<effecttype>audiolevels</effecttype>
									<mediatype>audio</mediatype>
									<parameter>
										<name>Level</name>
										<parameterid>level</parameterid>
										<valuemin>0</valuemin>
										<valuemax>3.98109</valuemax>
										<value>1</value>
									</parameter>
								</effect>
							</filter>
							<filter>
								<effect>
									<name>Audio Pan</name>
									<effectid>audiopan</effectid>
									<effectcategory>audiopan</effectcategory>
									<effecttype>audiopan</effecttype>
									<mediatype>audio</mediatype>
									<parameter>
										<name>Pan</name>
										<parameterid>pan</parameterid>
										<valuemin>-1</valuemin>
										<valuemax>1</valuemax>
										<value>-1</value>
									</parameter>
								</effect>
							</filter>
							<sourcetrack>
								<mediatype>audio</mediatype>
								<trackindex>1</trackindex>
							</sourcetrack>
							<link>
								<linkclipref>The-one197</linkclipref>
								<mediatype>video</mediatype>
								<trackindex>1</trackindex>
								<clipindex>21</clipindex>
							</link>
							<link>
								<linkclipref>The-one198</linkclipref>
								<mediatype>audio</mediatype>
								<trackindex>1</trackindex>
								<clipindex>21</clipindex>
								<groupindex>1</groupindex>
							</link>
							<link>
								<linkclipref>The-one199</linkclipref>
								<mediatype>audio</mediatype>
								<trackindex>2</trackindex>
								<clipindex>21</clipindex>
								<groupindex>1</groupindex>
							</link>
							<itemhistory>
								<uuid>1A40863D-1A16-4D17-8F2A-567E6F7007A8</uuid>
							</itemhistory>
						</clipitem>
						<clipitem id="The-one201">
							<name>The-one</name>
							<duration>5477</duration>
							<rate>
								<ntsc>FALSE</ntsc>
								<timebase>25</timebase>
							</rate>
							<in>2886</in>
							<out>2945</out>
							<start>1225</start>
							<end>1284</end>
							<subframeoffset>0</subframeoffset>
							<masterclipid>The-one1</masterclipid>
							<logginginfo>
								<scene/>
								<shottake/>
								<lognote/>
								<good>FALSE</good>
							</logginginfo>
							<labels>
								<label2/>
							</labels>
							<comments>
								<mastercomment1/>
								<mastercomment2/>
								<mastercomment3/>
								<mastercomment4/>
							</comments>
							<file id="The-one2"/>
							<filter>
								<effect>
									<name>Audio Levels</name>
									<effectid>audiolevels</effectid>
									<effectcategory>audiolevels</effectcategory>
									<effecttype>audiolevels</effecttype>
									<mediatype>audio</mediatype>
									<parameter>
										<name>Level</name>
										<parameterid>level</parameterid>
										<valuemin>0</valuemin>
										<valuemax>3.98109</valuemax>
										<value>1</value>
									</parameter>
								</effect>
							</filter>
							<filter>
								<effect>
									<name>Audio Pan</name>
									<effectid>audiopan</effectid>
									<effectcategory>audiopan</effectcategory>
									<effecttype>audiopan</effecttype>
									<mediatype>audio</mediatype>
									<parameter>
										<name>Pan</name>
										<parameterid>pan</parameterid>
										<valuemin>-1</valuemin>
										<valuemax>1</valuemax>
										<value>-1</value>
									</parameter>
								</effect>
							</filter>
							<sourcetrack>
								<mediatype>audio</mediatype>
								<trackindex>1</trackindex>
							</sourcetrack>
							<link>
								<linkclipref>The-one200</linkclipref>
								<mediatype>video</mediatype>
								<trackindex>1</trackindex>
								<clipindex>22</clipindex>
							</link>
							<link>
								<linkclipref>The-one201</linkclipref>
								<mediatype>audio</mediatype>
								<trackindex>1</trackindex>
								<clipindex>22</clipindex>
								<groupindex>1</groupindex>
							</link>
							<link>
								<linkclipref>The-one202</linkclipref>
								<mediatype>audio</mediatype>
								<trackindex>2</trackindex>
								<clipindex>22</clipindex>
								<groupindex>1</groupindex>
							</link>
							<itemhistory>
								<uuid>2FF76C8D-FBBA-4B53-8CCC-D6A012B5D2A0</uuid>
							</itemhistory>
						</clipitem>
						<clipitem id="The-one204">
							<name>The-one</name>
							<duration>5477</duration>
							<rate>
								<ntsc>FALSE</ntsc>
								<timebase>25</timebase>
							</rate>
							<in>2995</in>
							<out>3055</out>
							<start>1284</start>
							<end>1344</end>
							<subframeoffset>0</subframeoffset>
							<masterclipid>The-one1</masterclipid>
							<logginginfo>
								<scene/>
								<shottake/>
								<lognote/>
								<good>FALSE</good>
							</logginginfo>
							<labels>
								<label2/>
							</labels>
							<comments>
								<mastercomment1/>
								<mastercomment2/>
								<mastercomment3/>
								<mastercomment4/>
							</comments>
							<file id="The-one2"/>
							<filter>
								<effect>
									<name>Audio Levels</name>
									<effectid>audiolevels</effectid>
									<effectcategory>audiolevels</effectcategory>
									<effecttype>audiolevels</effecttype>
									<mediatype>audio</mediatype>
									<parameter>
										<name>Level</name>
										<parameterid>level</parameterid>
										<valuemin>0</valuemin>
										<valuemax>3.98109</valuemax>
										<value>1</value>
									</parameter>
								</effect>
							</filter>
							<filter>
								<effect>
									<name>Audio Pan</name>
									<effectid>audiopan</effectid>
									<effectcategory>audiopan</effectcategory>
									<effecttype>audiopan</effecttype>
									<mediatype>audio</mediatype>
									<parameter>
										<name>Pan</name>
										<parameterid>pan</parameterid>
										<valuemin>-1</valuemin>
										<valuemax>1</valuemax>
										<value>-1</value>
									</parameter>
								</effect>
							</filter>
							<sourcetrack>
								<mediatype>audio</mediatype>
								<trackindex>1</trackindex>
							</sourcetrack>
							<link>
								<linkclipref>The-one203</linkclipref>
								<mediatype>video</mediatype>
								<trackindex>1</trackindex>
								<clipindex>23</clipindex>
							</link>
							<link>
								<linkclipref>The-one204</linkclipref>
								<mediatype>audio</mediatype>
								<trackindex>1</trackindex>
								<clipindex>23</clipindex>
								<groupindex>1</groupindex>
							</link>
							<link>
								<linkclipref>The-one205</linkclipref>
								<mediatype>audio</mediatype>
								<trackindex>2</trackindex>
								<clipindex>23</clipindex>
								<groupindex>1</groupindex>
							</link>
							<itemhistory>
								<uuid>E86F8F59-4EF7-4CFA-ACA8-8781D26AE1F8</uuid>
							</itemhistory>
						</clipitem>
						<clipitem id="The-one207">
							<name>The-one</name>
							<duration>5477</duration>
							<rate>
								<ntsc>FALSE</ntsc>
								<timebase>25</timebase>
							</rate>
							<in>3111</in>
							<out>3169</out>
							<start>1344</start>
							<end>1402</end>
							<subframeoffset>0</subframeoffset>
							<masterclipid>The-one1</masterclipid>
							<logginginfo>
								<scene/>
								<shottake/>
								<lognote/>
								<good>FALSE</good>
							</logginginfo>
							<labels>
								<label2/>
							</labels>
							<comments>
								<mastercomment1/>
								<mastercomment2/>
								<mastercomment3/>
								<mastercomment4/>
							</comments>
							<file id="The-one2"/>
							<filter>
								<effect>
									<name>Audio Levels</name>
									<effectid>audiolevels</effectid>
									<effectcategory>audiolevels</effectcategory>
									<effecttype>audiolevels</effecttype>
									<mediatype>audio</mediatype>
									<parameter>
										<name>Level</name>
										<parameterid>level</parameterid>
										<valuemin>0</valuemin>
										<valuemax>3.98109</valuemax>
										<value>1</value>
									</parameter>
								</effect>
							</filter>
							<filter>
								<effect>
									<name>Audio Pan</name>
									<effectid>audiopan</effectid>
									<effectcategory>audiopan</effectcategory>
									<effecttype>audiopan</effecttype>
									<mediatype>audio</mediatype>
									<parameter>
										<name>Pan</name>
										<parameterid>pan</parameterid>
										<valuemin>-1</valuemin>
										<valuemax>1</valuemax>
										<value>-1</value>
									</parameter>
								</effect>
							</filter>
							<sourcetrack>
								<mediatype>audio</mediatype>
								<trackindex>1</trackindex>
							</sourcetrack>
							<link>
								<linkclipref>The-one206</linkclipref>
								<mediatype>video</mediatype>
								<trackindex>1</trackindex>
								<clipindex>24</clipindex>
							</link>
							<link>
								<linkclipref>The-one207</linkclipref>
								<mediatype>audio</mediatype>
								<trackindex>1</trackindex>
								<clipindex>24</clipindex>
								<groupindex>1</groupindex>
							</link>
							<link>
								<linkclipref>The-one208</linkclipref>
								<mediatype>audio</mediatype>
								<trackindex>2</trackindex>
								<clipindex>24</clipindex>
								<groupindex>1</groupindex>
							</link>
							<itemhistory>
								<uuid>3EAD2B4D-1DD0-4A5B-BFDD-17CFE99BE7DE</uuid>
							</itemhistory>
						</clipitem>
						<clipitem id="The-one210">
							<name>The-one</name>
							<duration>5477</duration>
							<rate>
								<ntsc>FALSE</ntsc>
								<timebase>25</timebase>
							</rate>
							<in>3223</in>
							<out>3284</out>
							<start>1402</start>
							<end>1463</end>
							<subframeoffset>0</subframeoffset>
							<masterclipid>The-one1</masterclipid>
							<logginginfo>
								<scene/>
								<shottake/>
								<lognote/>
								<good>FALSE</good>
							</logginginfo>
							<labels>
								<label2/>
							</labels>
							<comments>
								<mastercomment1/>
								<mastercomment2/>
								<mastercomment3/>
								<mastercomment4/>
							</comments>
							<file id="The-one2"/>
							<filter>
								<effect>
									<name>Audio Levels</name>
									<effectid>audiolevels</effectid>
									<effectcategory>audiolevels</effectcategory>
									<effecttype>audiolevels</effecttype>
									<mediatype>audio</mediatype>
									<parameter>
										<name>Level</name>
										<parameterid>level</parameterid>
										<valuemin>0</valuemin>
										<valuemax>3.98109</valuemax>
										<value>1</value>
									</parameter>
								</effect>
							</filter>
							<filter>
								<effect>
									<name>Audio Pan</name>
									<effectid>audiopan</effectid>
									<effectcategory>audiopan</effectcategory>
									<effecttype>audiopan</effecttype>
									<mediatype>audio</mediatype>
									<parameter>
										<name>Pan</name>
										<parameterid>pan</parameterid>
										<valuemin>-1</valuemin>
										<valuemax>1</valuemax>
										<value>-1</value>
									</parameter>
								</effect>
							</filter>
							<sourcetrack>
								<mediatype>audio</mediatype>
								<trackindex>1</trackindex>
							</sourcetrack>
							<link>
								<linkclipref>The-one209</linkclipref>
								<mediatype>video</mediatype>
								<trackindex>1</trackindex>
								<clipindex>25</clipindex>
							</link>
							<link>
								<linkclipref>The-one210</linkclipref>
								<mediatype>audio</mediatype>
								<trackindex>1</trackindex>
								<clipindex>25</clipindex>
								<groupindex>1</groupindex>
							</link>
							<link>
								<linkclipref>The-one211</linkclipref>
								<mediatype>audio</mediatype>
								<trackindex>2</trackindex>
								<clipindex>25</clipindex>
								<groupindex>1</groupindex>
							</link>
							<itemhistory>
								<uuid>33C9E0E1-CA25-4B7A-B2F5-578AD3F3DD64</uuid>
							</itemhistory>
						</clipitem>
						<clipitem id="The-one213">
							<name>The-one</name>
							<duration>5477</duration>
							<rate>
								<ntsc>FALSE</ntsc>
								<timebase>25</timebase>
							</rate>
							<in>3338</in>
							<out>3394</out>
							<start>1463</start>
							<end>1519</end>
							<subframeoffset>0</subframeoffset>
							<masterclipid>The-one1</masterclipid>
							<logginginfo>
								<scene/>
								<shottake/>
								<lognote/>
								<good>FALSE</good>
							</logginginfo>
							<labels>
								<label2/>
							</labels>
							<comments>
								<mastercomment1/>
								<mastercomment2/>
								<mastercomment3/>
								<mastercomment4/>
							</comments>
							<file id="The-one2"/>
							<filter>
								<effect>
									<name>Audio Levels</name>
									<effectid>audiolevels</effectid>
									<effectcategory>audiolevels</effectcategory>
									<effecttype>audiolevels</effecttype>
									<mediatype>audio</mediatype>
									<parameter>
										<name>Level</name>
										<parameterid>level</parameterid>
										<valuemin>0</valuemin>
										<valuemax>3.98109</valuemax>
										<value>1</value>
									</parameter>
								</effect>
							</filter>
							<filter>
								<effect>
									<name>Audio Pan</name>
									<effectid>audiopan</effectid>
									<effectcategory>audiopan</effectcategory>
									<effecttype>audiopan</effecttype>
									<mediatype>audio</mediatype>
									<parameter>
										<name>Pan</name>
										<parameterid>pan</parameterid>
										<valuemin>-1</valuemin>
										<valuemax>1</valuemax>
										<value>-1</value>
									</parameter>
								</effect>
							</filter>
							<sourcetrack>
								<mediatype>audio</mediatype>
								<trackindex>1</trackindex>
							</sourcetrack>
							<link>
								<linkclipref>The-one212</linkclipref>
								<mediatype>video</mediatype>
								<trackindex>1</trackindex>
								<clipindex>26</clipindex>
							</link>
							<link>
								<linkclipref>The-one213</linkclipref>
								<mediatype>audio</mediatype>
								<trackindex>1</trackindex>
								<clipindex>26</clipindex>
								<groupindex>1</groupindex>
							</link>
							<link>
								<linkclipref>The-one214</linkclipref>
								<mediatype>audio</mediatype>
								<trackindex>2</trackindex>
								<clipindex>26</clipindex>
								<groupindex>1</groupindex>
							</link>
							<itemhistory>
								<uuid>1FC57E29-D808-4D58-B34D-A496215E0285</uuid>
							</itemhistory>
						</clipitem>
						<clipitem id="The-one216">
							<name>The-one</name>
							<duration>5477</duration>
							<rate>
								<ntsc>FALSE</ntsc>
								<timebase>25</timebase>
							</rate>
							<in>3452</in>
							<out>3507</out>
							<start>1519</start>
							<end>1574</end>
							<subframeoffset>0</subframeoffset>
							<masterclipid>The-one1</masterclipid>
							<logginginfo>
								<scene/>
								<shottake/>
								<lognote/>
								<good>FALSE</good>
							</logginginfo>
							<labels>
								<label2/>
							</labels>
							<comments>
								<mastercomment1/>
								<mastercomment2/>
								<mastercomment3/>
								<mastercomment4/>
							</comments>
							<file id="The-one2"/>
							<filter>
								<effect>
									<name>Audio Levels</name>
									<effectid>audiolevels</effectid>
									<effectcategory>audiolevels</effectcategory>
									<effecttype>audiolevels</effecttype>
									<mediatype>audio</mediatype>
									<parameter>
										<name>Level</name>
										<parameterid>level</parameterid>
										<valuemin>0</valuemin>
										<valuemax>3.98109</valuemax>
										<value>1</value>
									</parameter>
								</effect>
							</filter>
							<filter>
								<effect>
									<name>Audio Pan</name>
									<effectid>audiopan</effectid>
									<effectcategory>audiopan</effectcategory>
									<effecttype>audiopan</effecttype>
									<mediatype>audio</mediatype>
									<parameter>
										<name>Pan</name>
										<parameterid>pan</parameterid>
										<valuemin>-1</valuemin>
										<valuemax>1</valuemax>
										<value>-1</value>
									</parameter>
								</effect>
							</filter>
							<sourcetrack>
								<mediatype>audio</mediatype>
								<trackindex>1</trackindex>
							</sourcetrack>
							<link>
								<linkclipref>The-one215</linkclipref>
								<mediatype>video</mediatype>
								<trackindex>1</trackindex>
								<clipindex>27</clipindex>
							</link>
							<link>
								<linkclipref>The-one216</linkclipref>
								<mediatype>audio</mediatype>
								<trackindex>1</trackindex>
								<clipindex>27</clipindex>
								<groupindex>1</groupindex>
							</link>
							<link>
								<linkclipref>The-one217</linkclipref>
								<mediatype>audio</mediatype>
								<trackindex>2</trackindex>
								<clipindex>27</clipindex>
								<groupindex>1</groupindex>
							</link>
							<itemhistory>
								<uuid>4466A367-9E55-4273-A329-653DAD3834E2</uuid>
							</itemhistory>
						</clipitem>
						<clipitem id="The-one219">
							<name>The-one</name>
							<duration>5477</duration>
							<rate>
								<ntsc>FALSE</ntsc>
								<timebase>25</timebase>
							</rate>
							<in>3565</in>
							<out>3711</out>
							<start>1574</start>
							<end>1720</end>
							<subframeoffset>0</subframeoffset>
							<masterclipid>The-one1</masterclipid>
							<logginginfo>
								<scene/>
								<shottake/>
								<lognote/>
								<good>FALSE</good>
							</logginginfo>
							<labels>
								<label2/>
							</labels>
							<comments>
								<mastercomment1/>
								<mastercomment2/>
								<mastercomment3/>
								<mastercomment4/>
							</comments>
							<file id="The-one2"/>
							<filter>
								<effect>
									<name>Audio Levels</name>
									<effectid>audiolevels</effectid>
									<effectcategory>audiolevels</effectcategory>
									<effecttype>audiolevels</effecttype>
									<mediatype>audio</mediatype>
									<parameter>
										<name>Level</name>
										<parameterid>level</parameterid>
										<valuemin>0</valuemin>
										<valuemax>3.98109</valuemax>
										<value>1</value>
									</parameter>
								</effect>
							</filter>
							<filter>
								<effect>
									<name>Audio Pan</name>
									<effectid>audiopan</effectid>
									<effectcategory>audiopan</effectcategory>
									<effecttype>audiopan</effecttype>
									<mediatype>audio</mediatype>
									<parameter>
										<name>Pan</name>
										<parameterid>pan</parameterid>
										<valuemin>-1</valuemin>
										<valuemax>1</valuemax>
										<value>-1</value>
									</parameter>
								</effect>
							</filter>
							<sourcetrack>
								<mediatype>audio</mediatype>
								<trackindex>1</trackindex>
							</sourcetrack>
							<link>
								<linkclipref>The-one218</linkclipref>
								<mediatype>video</mediatype>
								<trackindex>1</trackindex>
								<clipindex>28</clipindex>
							</link>
							<link>
								<linkclipref>The-one219</linkclipref>
								<mediatype>audio</mediatype>
								<trackindex>1</trackindex>
								<clipindex>28</clipindex>
								<groupindex>1</groupindex>
							</link>
							<link>
								<linkclipref>The-one220</linkclipref>
								<mediatype>audio</mediatype>
								<trackindex>2</trackindex>
								<clipindex>28</clipindex>
								<groupindex>1</groupindex>
							</link>
							<itemhistory>
								<uuid>C76F2CCB-B141-480D-B48C-AE3460CAADE3</uuid>
							</itemhistory>
						</clipitem>
						<clipitem id="The-one222">
							<name>The-one</name>
							<duration>5477</duration>
							<rate>
								<ntsc>FALSE</ntsc>
								<timebase>25</timebase>
							</rate>
							<in>3905</in>
							<out>3960</out>
							<start>1720</start>
							<end>1775</end>
							<subframeoffset>0</subframeoffset>
							<masterclipid>The-one1</masterclipid>
							<logginginfo>
								<scene/>
								<shottake/>
								<lognote/>
								<good>FALSE</good>
							</logginginfo>
							<labels>
								<label2/>
							</labels>
							<comments>
								<mastercomment1/>
								<mastercomment2/>
								<mastercomment3/>
								<mastercomment4/>
							</comments>
							<file id="The-one2"/>
							<filter>
								<effect>
									<name>Audio Levels</name>
									<effectid>audiolevels</effectid>
									<effectcategory>audiolevels</effectcategory>
									<effecttype>audiolevels</effecttype>
									<mediatype>audio</mediatype>
									<parameter>
										<name>Level</name>
										<parameterid>level</parameterid>
										<valuemin>0</valuemin>
										<valuemax>3.98109</valuemax>
										<value>1</value>
									</parameter>
								</effect>
							</filter>
							<filter>
								<effect>
									<name>Audio Pan</name>
									<effectid>audiopan</effectid>
									<effectcategory>audiopan</effectcategory>
									<effecttype>audiopan</effecttype>
									<mediatype>audio</mediatype>
									<parameter>
										<name>Pan</name>
										<parameterid>pan</parameterid>
										<valuemin>-1</valuemin>
										<valuemax>1</valuemax>
										<value>-1</value>
									</parameter>
								</effect>
							</filter>
							<sourcetrack>
								<mediatype>audio</mediatype>
								<trackindex>1</trackindex>
							</sourcetrack>
							<link>
								<linkclipref>The-one221</linkclipref>
								<mediatype>video</mediatype>
								<trackindex>1</trackindex>
								<clipindex>29</clipindex>
							</link>
							<link>
								<linkclipref>The-one222</linkclipref>
								<mediatype>audio</mediatype>
								<trackindex>1</trackindex>
								<clipindex>29</clipindex>
								<groupindex>1</groupindex>
							</link>
							<link>
								<linkclipref>The-one223</linkclipref>
								<mediatype>audio</mediatype>
								<trackindex>2</trackindex>
								<clipindex>29</clipindex>
								<groupindex>1</groupindex>
							</link>
							<itemhistory>
								<uuid>674197A8-B78D-4975-8B5C-583A0641ED55</uuid>
							</itemhistory>
						</clipitem>
						<clipitem id="The-one225">
							<name>The-one</name>
							<duration>5477</duration>
							<rate>
								<ntsc>FALSE</ntsc>
								<timebase>25</timebase>
							</rate>
							<in>4017</in>
							<out>4074</out>
							<start>1775</start>
							<end>1832</end>
							<subframeoffset>0</subframeoffset>
							<masterclipid>The-one1</masterclipid>
							<logginginfo>
								<scene/>
								<shottake/>
								<lognote/>
								<good>FALSE</good>
							</logginginfo>
							<labels>
								<label2/>
							</labels>
							<comments>
								<mastercomment1/>
								<mastercomment2/>
								<mastercomment3/>
								<mastercomment4/>
							</comments>
							<file id="The-one2"/>
							<filter>
								<effect>
									<name>Audio Levels</name>
									<effectid>audiolevels</effectid>
									<effectcategory>audiolevels</effectcategory>
									<effecttype>audiolevels</effecttype>
									<mediatype>audio</mediatype>
									<parameter>
										<name>Level</name>
										<parameterid>level</parameterid>
										<valuemin>0</valuemin>
										<valuemax>3.98109</valuemax>
										<value>1</value>
									</parameter>
								</effect>
							</filter>
							<filter>
								<effect>
									<name>Audio Pan</name>
									<effectid>audiopan</effectid>
									<effectcategory>audiopan</effectcategory>
									<effecttype>audiopan</effecttype>
									<mediatype>audio</mediatype>
									<parameter>
										<name>Pan</name>
										<parameterid>pan</parameterid>
										<valuemin>-1</valuemin>
										<valuemax>1</valuemax>
										<value>-1</value>
									</parameter>
								</effect>
							</filter>
							<sourcetrack>
								<mediatype>audio</mediatype>
								<trackindex>1</trackindex>
							</sourcetrack>
							<link>
								<linkclipref>The-one224</linkclipref>
								<mediatype>video</mediatype>
								<trackindex>1</trackindex>
								<clipindex>30</clipindex>
							</link>
							<link>
								<linkclipref>The-one225</linkclipref>
								<mediatype>audio</mediatype>
								<trackindex>1</trackindex>
								<clipindex>30</clipindex>
								<groupindex>1</groupindex>
							</link>
							<link>
								<linkclipref>The-one226</linkclipref>
								<mediatype>audio</mediatype>
								<trackindex>2</trackindex>
								<clipindex>30</clipindex>
								<groupindex>1</groupindex>
							</link>
							<itemhistory>
								<uuid>5500FFCC-B5EE-4CC1-A711-F3164E60DC68</uuid>
							</itemhistory>
						</clipitem>
						<clipitem id="The-one228">
							<name>The-one</name>
							<duration>5477</duration>
							<rate>
								<ntsc>FALSE</ntsc>
								<timebase>25</timebase>
							</rate>
							<in>4125</in>
							<out>4189</out>
							<start>1832</start>
							<end>1896</end>
							<subframeoffset>0</subframeoffset>
							<masterclipid>The-one1</masterclipid>
							<logginginfo>
								<scene/>
								<shottake/>
								<lognote/>
								<good>FALSE</good>
							</logginginfo>
							<labels>
								<label2/>
							</labels>
							<comments>
								<mastercomment1/>
								<mastercomment2/>
								<mastercomment3/>
								<mastercomment4/>
							</comments>
							<file id="The-one2"/>
							<filter>
								<effect>
									<name>Audio Levels</name>
									<effectid>audiolevels</effectid>
									<effectcategory>audiolevels</effectcategory>
									<effecttype>audiolevels</effecttype>
									<mediatype>audio</mediatype>
									<parameter>
										<name>Level</name>
										<parameterid>level</parameterid>
										<valuemin>0</valuemin>
										<valuemax>3.98109</valuemax>
										<value>1</value>
									</parameter>
								</effect>
							</filter>
							<filter>
								<effect>
									<name>Audio Pan</name>
									<effectid>audiopan</effectid>
									<effectcategory>audiopan</effectcategory>
									<effecttype>audiopan</effecttype>
									<mediatype>audio</mediatype>
									<parameter>
										<name>Pan</name>
										<parameterid>pan</parameterid>
										<valuemin>-1</valuemin>
										<valuemax>1</valuemax>
										<value>-1</value>
									</parameter>
								</effect>
							</filter>
							<sourcetrack>
								<mediatype>audio</mediatype>
								<trackindex>1</trackindex>
							</sourcetrack>
							<link>
								<linkclipref>The-one227</linkclipref>
								<mediatype>video</mediatype>
								<trackindex>1</trackindex>
								<clipindex>31</clipindex>
							</link>
							<link>
								<linkclipref>The-one228</linkclipref>
								<mediatype>audio</mediatype>
								<trackindex>1</trackindex>
								<clipindex>31</clipindex>
								<groupindex>1</groupindex>
							</link>
							<link>
								<linkclipref>The-one229</linkclipref>
								<mediatype>audio</mediatype>
								<trackindex>2</trackindex>
								<clipindex>31</clipindex>
								<groupindex>1</groupindex>
							</link>
							<itemhistory>
								<uuid>03AAE3BF-1FCD-445C-9A6E-3FDC2F5564D1</uuid>
							</itemhistory>
						</clipitem>
						<clipitem id="The-one231">
							<name>The-one</name>
							<duration>5477</duration>
							<rate>
								<ntsc>FALSE</ntsc>
								<timebase>25</timebase>
							</rate>
							<in>4248</in>
							<out>4309</out>
							<start>1896</start>
							<end>1957</end>
							<subframeoffset>0</subframeoffset>
							<masterclipid>The-one1</masterclipid>
							<logginginfo>
								<scene/>
								<shottake/>
								<lognote/>
								<good>FALSE</good>
							</logginginfo>
							<labels>
								<label2/>
							</labels>
							<comments>
								<mastercomment1/>
								<mastercomment2/>
								<mastercomment3/>
								<mastercomment4/>
							</comments>
							<file id="The-one2"/>
							<filter>
								<effect>
									<name>Audio Levels</name>
									<effectid>audiolevels</effectid>
									<effectcategory>audiolevels</effectcategory>
									<effecttype>audiolevels</effecttype>
									<mediatype>audio</mediatype>
									<parameter>
										<name>Level</name>
										<parameterid>level</parameterid>
										<valuemin>0</valuemin>
										<valuemax>3.98109</valuemax>
										<value>1</value>
									</parameter>
								</effect>
							</filter>
							<filter>
								<effect>
									<name>Audio Pan</name>
									<effectid>audiopan</effectid>
									<effectcategory>audiopan</effectcategory>
									<effecttype>audiopan</effecttype>
									<mediatype>audio</mediatype>
									<parameter>
										<name>Pan</name>
										<parameterid>pan</parameterid>
										<valuemin>-1</valuemin>
										<valuemax>1</valuemax>
										<value>-1</value>
									</parameter>
								</effect>
							</filter>
							<sourcetrack>
								<mediatype>audio</mediatype>
								<trackindex>1</trackindex>
							</sourcetrack>
							<link>
								<linkclipref>The-one230</linkclipref>
								<mediatype>video</mediatype>
								<trackindex>1</trackindex>
								<clipindex>32</clipindex>
							</link>
							<link>
								<linkclipref>The-one231</linkclipref>
								<mediatype>audio</mediatype>
								<trackindex>1</trackindex>
								<clipindex>32</clipindex>
								<groupindex>1</groupindex>
							</link>
							<link>
								<linkclipref>The-one232</linkclipref>
								<mediatype>audio</mediatype>
								<trackindex>2</trackindex>
								<clipindex>32</clipindex>
								<groupindex>1</groupindex>
							</link>
							<itemhistory>
								<uuid>6C136E2D-4901-44BE-977C-B2CBDB0C70C5</uuid>
							</itemhistory>
						</clipitem>
						<clipitem id="The-one234">
							<name>The-one</name>
							<duration>5477</duration>
							<rate>
								<ntsc>FALSE</ntsc>
								<timebase>25</timebase>
							</rate>
							<in>4359</in>
							<out>4416</out>
							<start>1957</start>
							<end>2014</end>
							<subframeoffset>0</subframeoffset>
							<masterclipid>The-one1</masterclipid>
							<logginginfo>
								<scene/>
								<shottake/>
								<lognote/>
								<good>FALSE</good>
							</logginginfo>
							<labels>
								<label2/>
							</labels>
							<comments>
								<mastercomment1/>
								<mastercomment2/>
								<mastercomment3/>
								<mastercomment4/>
							</comments>
							<file id="The-one2"/>
							<filter>
								<effect>
									<name>Audio Levels</name>
									<effectid>audiolevels</effectid>
									<effectcategory>audiolevels</effectcategory>
									<effecttype>audiolevels</effecttype>
									<mediatype>audio</mediatype>
									<parameter>
										<name>Level</name>
										<parameterid>level</parameterid>
										<valuemin>0</valuemin>
										<valuemax>3.98109</valuemax>
										<value>1</value>
									</parameter>
								</effect>
							</filter>
							<filter>
								<effect>
									<name>Audio Pan</name>
									<effectid>audiopan</effectid>
									<effectcategory>audiopan</effectcategory>
									<effecttype>audiopan</effecttype>
									<mediatype>audio</mediatype>
									<parameter>
										<name>Pan</name>
										<parameterid>pan</parameterid>
										<valuemin>-1</valuemin>
										<valuemax>1</valuemax>
										<value>-1</value>
									</parameter>
								</effect>
							</filter>
							<sourcetrack>
								<mediatype>audio</mediatype>
								<trackindex>1</trackindex>
							</sourcetrack>
							<link>
								<linkclipref>The-one233</linkclipref>
								<mediatype>video</mediatype>
								<trackindex>1</trackindex>
								<clipindex>33</clipindex>
							</link>
							<link>
								<linkclipref>The-one234</linkclipref>
								<mediatype>audio</mediatype>
								<trackindex>1</trackindex>
								<clipindex>33</clipindex>
								<groupindex>1</groupindex>
							</link>
							<link>
								<linkclipref>The-one235</linkclipref>
								<mediatype>audio</mediatype>
								<trackindex>2</trackindex>
								<clipindex>33</clipindex>
								<groupindex>1</groupindex>
							</link>
							<itemhistory>
								<uuid>5C92DF56-1452-4C8A-A2CE-240E22B83D53</uuid>
							</itemhistory>
						</clipitem>
						<clipitem id="The-one237">
							<name>The-one</name>
							<duration>5477</duration>
							<rate>
								<ntsc>FALSE</ntsc>
								<timebase>25</timebase>
							</rate>
							<in>4472</in>
							<out>4534</out>
							<start>2014</start>
							<end>2076</end>
							<subframeoffset>0</subframeoffset>
							<masterclipid>The-one1</masterclipid>
							<logginginfo>
								<scene/>
								<shottake/>
								<lognote/>
								<good>FALSE</good>
							</logginginfo>
							<labels>
								<label2/>
							</labels>
							<comments>
								<mastercomment1/>
								<mastercomment2/>
								<mastercomment3/>
								<mastercomment4/>
							</comments>
							<file id="The-one2"/>
							<filter>
								<effect>
									<name>Audio Levels</name>
									<effectid>audiolevels</effectid>
									<effectcategory>audiolevels</effectcategory>
									<effecttype>audiolevels</effecttype>
									<mediatype>audio</mediatype>
									<parameter>
										<name>Level</name>
										<parameterid>level</parameterid>
										<valuemin>0</valuemin>
										<valuemax>3.98109</valuemax>
										<value>1</value>
									</parameter>
								</effect>
							</filter>
							<filter>
								<effect>
									<name>Audio Pan</name>
									<effectid>audiopan</effectid>
									<effectcategory>audiopan</effectcategory>
									<effecttype>audiopan</effecttype>
									<mediatype>audio</mediatype>
									<parameter>
										<name>Pan</name>
										<parameterid>pan</parameterid>
										<valuemin>-1</valuemin>
										<valuemax>1</valuemax>
										<value>-1</value>
									</parameter>
								</effect>
							</filter>
							<sourcetrack>
								<mediatype>audio</mediatype>
								<trackindex>1</trackindex>
							</sourcetrack>
							<link>
								<linkclipref>The-one236</linkclipref>
								<mediatype>video</mediatype>
								<trackindex>1</trackindex>
								<clipindex>34</clipindex>
							</link>
							<link>
								<linkclipref>The-one237</linkclipref>
								<mediatype>audio</mediatype>
								<trackindex>1</trackindex>
								<clipindex>34</clipindex>
								<groupindex>1</groupindex>
							</link>
							<link>
								<linkclipref>The-one238</linkclipref>
								<mediatype>audio</mediatype>
								<trackindex>2</trackindex>
								<clipindex>34</clipindex>
								<groupindex>1</groupindex>
							</link>
							<itemhistory>
								<uuid>47F2EE74-62DC-4B5E-B86F-0801AF1E6832</uuid>
							</itemhistory>
						</clipitem>
						<clipitem id="The-one240">
							<name>The-one</name>
							<duration>5477</duration>
							<rate>
								<ntsc>FALSE</ntsc>
								<timebase>25</timebase>
							</rate>
							<in>4586</in>
							<out>4712</out>
							<start>2076</start>
							<end>2202</end>
							<subframeoffset>0</subframeoffset>
							<masterclipid>The-one1</masterclipid>
							<logginginfo>
								<scene/>
								<shottake/>
								<lognote/>
								<good>FALSE</good>
							</logginginfo>
							<labels>
								<label2/>
							</labels>
							<comments>
								<mastercomment1/>
								<mastercomment2/>
								<mastercomment3/>
								<mastercomment4/>
							</comments>
							<file id="The-one2"/>
							<filter>
								<effect>
									<name>Audio Levels</name>
									<effectid>audiolevels</effectid>
									<effectcategory>audiolevels</effectcategory>
									<effecttype>audiolevels</effecttype>
									<mediatype>audio</mediatype>
									<parameter>
										<name>Level</name>
										<parameterid>level</parameterid>
										<valuemin>0</valuemin>
										<valuemax>3.98109</valuemax>
										<value>1</value>
									</parameter>
								</effect>
							</filter>
							<filter>
								<effect>
									<name>Audio Pan</name>
									<effectid>audiopan</effectid>
									<effectcategory>audiopan</effectcategory>
									<effecttype>audiopan</effecttype>
									<mediatype>audio</mediatype>
									<parameter>
										<name>Pan</name>
										<parameterid>pan</parameterid>
										<valuemin>-1</valuemin>
										<valuemax>1</valuemax>
										<value>-1</value>
									</parameter>
								</effect>
							</filter>
							<sourcetrack>
								<mediatype>audio</mediatype>
								<trackindex>1</trackindex>
							</sourcetrack>
							<link>
								<linkclipref>The-one239</linkclipref>
								<mediatype>video</mediatype>
								<trackindex>1</trackindex>
								<clipindex>35</clipindex>
							</link>
							<link>
								<linkclipref>The-one240</linkclipref>
								<mediatype>audio</mediatype>
								<trackindex>1</trackindex>
								<clipindex>35</clipindex>
								<groupindex>1</groupindex>
							</link>
							<link>
								<linkclipref>The-one241</linkclipref>
								<mediatype>audio</mediatype>
								<trackindex>2</trackindex>
								<clipindex>35</clipindex>
								<groupindex>1</groupindex>
							</link>
							<itemhistory>
								<uuid>B55F4DE1-634D-460C-944C-531315777CB1</uuid>
							</itemhistory>
						</clipitem>
						<clipitem id="The-one243">
							<name>The-one</name>
							<duration>5477</duration>
							<rate>
								<ntsc>FALSE</ntsc>
								<timebase>25</timebase>
							</rate>
							<in>4754</in>
							<out>4855</out>
							<start>2211</start>
							<end>2312</end>
							<subframeoffset>0</subframeoffset>
							<masterclipid>The-one1</masterclipid>
							<logginginfo>
								<scene/>
								<shottake/>
								<lognote/>
								<good>FALSE</good>
							</logginginfo>
							<labels>
								<label2/>
							</labels>
							<comments>
								<mastercomment1/>
								<mastercomment2/>
								<mastercomment3/>
								<mastercomment4/>
							</comments>
							<file id="The-one2"/>
							<filter>
								<effect>
									<name>Audio Levels</name>
									<effectid>audiolevels</effectid>
									<effectcategory>audiolevels</effectcategory>
									<effecttype>audiolevels</effecttype>
									<mediatype>audio</mediatype>
									<parameter>
										<name>Level</name>
										<parameterid>level</parameterid>
										<valuemin>0</valuemin>
										<valuemax>3.98109</valuemax>
										<value>1</value>
									</parameter>
								</effect>
							</filter>
							<filter>
								<effect>
									<name>Audio Pan</name>
									<effectid>audiopan</effectid>
									<effectcategory>audiopan</effectcategory>
									<effecttype>audiopan</effecttype>
									<mediatype>audio</mediatype>
									<parameter>
										<name>Pan</name>
										<parameterid>pan</parameterid>
										<valuemin>-1</valuemin>
										<valuemax>1</valuemax>
										<value>-1</value>
									</parameter>
								</effect>
							</filter>
							<sourcetrack>
								<mediatype>audio</mediatype>
								<trackindex>1</trackindex>
							</sourcetrack>
							<link>
								<linkclipref>The-one242</linkclipref>
								<mediatype>video</mediatype>
								<trackindex>1</trackindex>
								<clipindex>36</clipindex>
							</link>
							<link>
								<linkclipref>The-one243</linkclipref>
								<mediatype>audio</mediatype>
								<trackindex>1</trackindex>
								<clipindex>36</clipindex>
								<groupindex>1</groupindex>
							</link>
							<link>
								<linkclipref>The-one244</linkclipref>
								<mediatype>audio</mediatype>
								<trackindex>2</trackindex>
								<clipindex>36</clipindex>
								<groupindex>1</groupindex>
							</link>
							<itemhistory>
								<uuid>1392930A-E57A-4DEA-8D60-C8B2FC12EB38</uuid>
							</itemhistory>
						</clipitem>
						<clipitem id="The-one246">
							<name>The-one</name>
							<duration>5477</duration>
							<rate>
								<ntsc>FALSE</ntsc>
								<timebase>25</timebase>
							</rate>
							<in>4909</in>
							<out>5031</out>
							<start>2312</start>
							<end>2434</end>
							<subframeoffset>0</subframeoffset>
							<masterclipid>The-one1</masterclipid>
							<logginginfo>
								<scene/>
								<shottake/>
								<lognote/>
								<good>FALSE</good>
							</logginginfo>
							<labels>
								<label2/>
							</labels>
							<comments>
								<mastercomment1/>
								<mastercomment2/>
								<mastercomment3/>
								<mastercomment4/>
							</comments>
							<file id="The-one2"/>
							<filter>
								<effect>
									<name>Audio Levels</name>
									<effectid>audiolevels</effectid>
									<effectcategory>audiolevels</effectcategory>
									<effecttype>audiolevels</effecttype>
									<mediatype>audio</mediatype>
									<parameter>
										<name>Level</name>
										<parameterid>level</parameterid>
										<valuemin>0</valuemin>
										<valuemax>3.98109</valuemax>
										<value>1</value>
									</parameter>
								</effect>
							</filter>
							<filter>
								<effect>
									<name>Audio Pan</name>
									<effectid>audiopan</effectid>
									<effectcategory>audiopan</effectcategory>
									<effecttype>audiopan</effecttype>
									<mediatype>audio</mediatype>
									<parameter>
										<name>Pan</name>
										<parameterid>pan</parameterid>
										<valuemin>-1</valuemin>
										<valuemax>1</valuemax>
										<value>-1</value>
									</parameter>
								</effect>
							</filter>
							<sourcetrack>
								<mediatype>audio</mediatype>
								<trackindex>1</trackindex>
							</sourcetrack>
							<link>
								<linkclipref>The-one245</linkclipref>
								<mediatype>video</mediatype>
								<trackindex>1</trackindex>
								<clipindex>37</clipindex>
							</link>
							<link>
								<linkclipref>The-one246</linkclipref>
								<mediatype>audio</mediatype>
								<trackindex>1</trackindex>
								<clipindex>37</clipindex>
								<groupindex>1</groupindex>
							</link>
							<link>
								<linkclipref>The-one247</linkclipref>
								<mediatype>audio</mediatype>
								<trackindex>2</trackindex>
								<clipindex>37</clipindex>
								<groupindex>1</groupindex>
							</link>
							<itemhistory>
								<uuid>2774E374-A6B1-4C34-95B3-FF3DC9E768FB</uuid>
							</itemhistory>
						</clipitem>
						<clipitem id="The-one249">
							<name>The-one</name>
							<duration>5477</duration>
							<rate>
								<ntsc>FALSE</ntsc>
								<timebase>25</timebase>
							</rate>
							<in>2092</in>
							<out>2225</out>
							<start>2434</start>
							<end>2567</end>
							<subframeoffset>0</subframeoffset>
							<masterclipid>The-one1</masterclipid>
							<logginginfo>
								<scene/>
								<shottake/>
								<lognote/>
								<good>FALSE</good>
							</logginginfo>
							<labels>
								<label2/>
							</labels>
							<comments>
								<mastercomment1/>
								<mastercomment2/>
								<mastercomment3/>
								<mastercomment4/>
							</comments>
							<file id="The-one2"/>
							<filter>
								<effect>
									<name>Audio Levels</name>
									<effectid>audiolevels</effectid>
									<effectcategory>audiolevels</effectcategory>
									<effecttype>audiolevels</effecttype>
									<mediatype>audio</mediatype>
									<parameter>
										<name>Level</name>
										<parameterid>level</parameterid>
										<valuemin>0</valuemin>
										<valuemax>3.98109</valuemax>
										<value>1</value>
									</parameter>
								</effect>
							</filter>
							<filter>
								<effect>
									<name>Audio Pan</name>
									<effectid>audiopan</effectid>
									<effectcategory>audiopan</effectcategory>
									<effecttype>audiopan</effecttype>
									<mediatype>audio</mediatype>
									<parameter>
										<name>Pan</name>
										<parameterid>pan</parameterid>
										<valuemin>-1</valuemin>
										<valuemax>1</valuemax>
										<value>-1</value>
									</parameter>
								</effect>
							</filter>
							<sourcetrack>
								<mediatype>audio</mediatype>
								<trackindex>1</trackindex>
							</sourcetrack>
							<link>
								<linkclipref>The-one248</linkclipref>
								<mediatype>video</mediatype>
								<trackindex>1</trackindex>
								<clipindex>38</clipindex>
							</link>
							<link>
								<linkclipref>The-one249</linkclipref>
								<mediatype>audio</mediatype>
								<trackindex>1</trackindex>
								<clipindex>38</clipindex>
								<groupindex>1</groupindex>
							</link>
							<link>
								<linkclipref>The-one250</linkclipref>
								<mediatype>audio</mediatype>
								<trackindex>2</trackindex>
								<clipindex>38</clipindex>
								<groupindex>1</groupindex>
							</link>
							<itemhistory>
								<uuid>2504797E-5782-45B6-A05B-0697AA16F097</uuid>
							</itemhistory>
						</clipitem>
						<clipitem id="The-one252">
							<name>The-one</name>
							<duration>5477</duration>
							<rate>
								<ntsc>FALSE</ntsc>
								<timebase>25</timebase>
							</rate>
							<in>1812</in>
							<out>1869</out>
							<start>2567</start>
							<end>2624</end>
							<subframeoffset>0</subframeoffset>
							<masterclipid>The-one1</masterclipid>
							<logginginfo>
								<scene/>
								<shottake/>
								<lognote/>
								<good>FALSE</good>
							</logginginfo>
							<labels>
								<label2/>
							</labels>
							<comments>
								<mastercomment1/>
								<mastercomment2/>
								<mastercomment3/>
								<mastercomment4/>
							</comments>
							<file id="The-one2"/>
							<filter>
								<effect>
									<name>Audio Levels</name>
									<effectid>audiolevels</effectid>
									<effectcategory>audiolevels</effectcategory>
									<effecttype>audiolevels</effecttype>
									<mediatype>audio</mediatype>
									<parameter>
										<name>Level</name>
										<parameterid>level</parameterid>
										<valuemin>0</valuemin>
										<valuemax>3.98109</valuemax>
										<value>1</value>
									</parameter>
								</effect>
							</filter>
							<filter>
								<effect>
									<name>Audio Pan</name>
									<effectid>audiopan</effectid>
									<effectcategory>audiopan</effectcategory>
									<effecttype>audiopan</effecttype>
									<mediatype>audio</mediatype>
									<parameter>
										<name>Pan</name>
										<parameterid>pan</parameterid>
										<valuemin>-1</valuemin>
										<valuemax>1</valuemax>
										<value>-1</value>
									</parameter>
								</effect>
							</filter>
							<sourcetrack>
								<mediatype>audio</mediatype>
								<trackindex>1</trackindex>
							</sourcetrack>
							<link>
								<linkclipref>The-one251</linkclipref>
								<mediatype>video</mediatype>
								<trackindex>1</trackindex>
								<clipindex>39</clipindex>
							</link>
							<link>
								<linkclipref>The-one252</linkclipref>
								<mediatype>audio</mediatype>
								<trackindex>1</trackindex>
								<clipindex>39</clipindex>
								<groupindex>1</groupindex>
							</link>
							<link>
								<linkclipref>The-one253</linkclipref>
								<mediatype>audio</mediatype>
								<trackindex>2</trackindex>
								<clipindex>39</clipindex>
								<groupindex>1</groupindex>
							</link>
							<itemhistory>
								<uuid>4DFEC71C-4280-4242-B8C0-2C8B9387980C</uuid>
							</itemhistory>
						</clipitem>
						<enabled>TRUE</enabled>
						<locked>FALSE</locked>
						<outputchannelindex>1</outputchannelindex>
					</track>
					<track>
						<clipitem id="The-one139">
							<name>The-one</name>
							<duration>5477</duration>
							<rate>
								<ntsc>FALSE</ntsc>
								<timebase>25</timebase>
							</rate>
							<in>223</in>
							<out>277</out>
							<start>0</start>
							<end>54</end>
							<subframeoffset>0</subframeoffset>
							<masterclipid>The-one1</masterclipid>
							<logginginfo>
								<scene/>
								<shottake/>
								<lognote/>
								<good>FALSE</good>
							</logginginfo>
							<labels>
								<label2/>
							</labels>
							<comments>
								<mastercomment1/>
								<mastercomment2/>
								<mastercomment3/>
								<mastercomment4/>
							</comments>
							<file id="The-one2"/>
							<filter>
								<effect>
									<name>Audio Levels</name>
									<effectid>audiolevels</effectid>
									<effectcategory>audiolevels</effectcategory>
									<effecttype>audiolevels</effecttype>
									<mediatype>audio</mediatype>
									<parameter>
										<name>Level</name>
										<parameterid>level</parameterid>
										<valuemin>0</valuemin>
										<valuemax>3.98109</valuemax>
										<value>1</value>
									</parameter>
								</effect>
							</filter>
							<filter>
								<effect>
									<name>Audio Pan</name>
									<effectid>audiopan</effectid>
									<effectcategory>audiopan</effectcategory>
									<effecttype>audiopan</effecttype>
									<mediatype>audio</mediatype>
									<parameter>
										<name>Pan</name>
										<parameterid>pan</parameterid>
										<valuemin>-1</valuemin>
										<valuemax>1</valuemax>
										<value>1</value>
									</parameter>
								</effect>
							</filter>
							<sourcetrack>
								<mediatype>audio</mediatype>
								<trackindex>2</trackindex>
							</sourcetrack>
							<link>
								<linkclipref>The-one137</linkclipref>
								<mediatype>video</mediatype>
								<trackindex>1</trackindex>
								<clipindex>1</clipindex>
							</link>
							<link>
								<linkclipref>The-one138</linkclipref>
								<mediatype>audio</mediatype>
								<trackindex>1</trackindex>
								<clipindex>1</clipindex>
								<groupindex>1</groupindex>
							</link>
							<link>
								<linkclipref>The-one139</linkclipref>
								<mediatype>audio</mediatype>
								<trackindex>2</trackindex>
								<clipindex>1</clipindex>
								<groupindex>1</groupindex>
							</link>
							<itemhistory>
								<uuid>F61E5126-F3CB-4959-A39B-C15E70A63C56</uuid>
							</itemhistory>
						</clipitem>
						<clipitem id="The-one142">
							<name>The-one</name>
							<duration>5477</duration>
							<rate>
								<ntsc>FALSE</ntsc>
								<timebase>25</timebase>
							</rate>
							<in>335</in>
							<out>399</out>
							<start>54</start>
							<end>118</end>
							<subframeoffset>0</subframeoffset>
							<masterclipid>The-one1</masterclipid>
							<logginginfo>
								<scene/>
								<shottake/>
								<lognote/>
								<good>FALSE</good>
							</logginginfo>
							<labels>
								<label2/>
							</labels>
							<comments>
								<mastercomment1/>
								<mastercomment2/>
								<mastercomment3/>
								<mastercomment4/>
							</comments>
							<file id="The-one2"/>
							<filter>
								<effect>
									<name>Audio Levels</name>
									<effectid>audiolevels</effectid>
									<effectcategory>audiolevels</effectcategory>
									<effecttype>audiolevels</effecttype>
									<mediatype>audio</mediatype>
									<parameter>
										<name>Level</name>
										<parameterid>level</parameterid>
										<valuemin>0</valuemin>
										<valuemax>3.98109</valuemax>
										<value>1</value>
									</parameter>
								</effect>
							</filter>
							<filter>
								<effect>
									<name>Audio Pan</name>
									<effectid>audiopan</effectid>
									<effectcategory>audiopan</effectcategory>
									<effecttype>audiopan</effecttype>
									<mediatype>audio</mediatype>
									<parameter>
										<name>Pan</name>
										<parameterid>pan</parameterid>
										<valuemin>-1</valuemin>
										<valuemax>1</valuemax>
										<value>1</value>
									</parameter>
								</effect>
							</filter>
							<sourcetrack>
								<mediatype>audio</mediatype>
								<trackindex>2</trackindex>
							</sourcetrack>
							<link>
								<linkclipref>The-one140</linkclipref>
								<mediatype>video</mediatype>
								<trackindex>1</trackindex>
								<clipindex>2</clipindex>
							</link>
							<link>
								<linkclipref>The-one141</linkclipref>
								<mediatype>audio</mediatype>
								<trackindex>1</trackindex>
								<clipindex>2</clipindex>
								<groupindex>1</groupindex>
							</link>
							<link>
								<linkclipref>The-one142</linkclipref>
								<mediatype>audio</mediatype>
								<trackindex>2</trackindex>
								<clipindex>2</clipindex>
								<groupindex>1</groupindex>
							</link>
							<itemhistory>
								<uuid>74445A50-00D7-48D3-9120-D2F3C0E6C7C8</uuid>
							</itemhistory>
						</clipitem>
						<clipitem id="The-one145">
							<name>The-one</name>
							<duration>5477</duration>
							<rate>
								<ntsc>FALSE</ntsc>
								<timebase>25</timebase>
							</rate>
							<in>450</in>
							<out>509</out>
							<start>118</start>
							<end>177</end>
							<subframeoffset>0</subframeoffset>
							<masterclipid>The-one1</masterclipid>
							<logginginfo>
								<scene/>
								<shottake/>
								<lognote/>
								<good>FALSE</good>
							</logginginfo>
							<labels>
								<label2/>
							</labels>
							<comments>
								<mastercomment1/>
								<mastercomment2/>
								<mastercomment3/>
								<mastercomment4/>
							</comments>
							<file id="The-one2"/>
							<filter>
								<effect>
									<name>Audio Levels</name>
									<effectid>audiolevels</effectid>
									<effectcategory>audiolevels</effectcategory>
									<effecttype>audiolevels</effecttype>
									<mediatype>audio</mediatype>
									<parameter>
										<name>Level</name>
										<parameterid>level</parameterid>
										<valuemin>0</valuemin>
										<valuemax>3.98109</valuemax>
										<value>1</value>
									</parameter>
								</effect>
							</filter>
							<filter>
								<effect>
									<name>Audio Pan</name>
									<effectid>audiopan</effectid>
									<effectcategory>audiopan</effectcategory>
									<effecttype>audiopan</effecttype>
									<mediatype>audio</mediatype>
									<parameter>
										<name>Pan</name>
										<parameterid>pan</parameterid>
										<valuemin>-1</valuemin>
										<valuemax>1</valuemax>
										<value>1</value>
									</parameter>
								</effect>
							</filter>
							<sourcetrack>
								<mediatype>audio</mediatype>
								<trackindex>2</trackindex>
							</sourcetrack>
							<link>
								<linkclipref>The-one143</linkclipref>
								<mediatype>video</mediatype>
								<trackindex>1</trackindex>
								<clipindex>3</clipindex>
							</link>
							<link>
								<linkclipref>The-one144</linkclipref>
								<mediatype>audio</mediatype>
								<trackindex>1</trackindex>
								<clipindex>3</clipindex>
								<groupindex>1</groupindex>
							</link>
							<link>
								<linkclipref>The-one145</linkclipref>
								<mediatype>audio</mediatype>
								<trackindex>2</trackindex>
								<clipindex>3</clipindex>
								<groupindex>1</groupindex>
							</link>
							<itemhistory>
								<uuid>31C750F5-A0EE-4D6F-9EFC-EC9C03404CE4</uuid>
							</itemhistory>
						</clipitem>
						<clipitem id="The-one148">
							<name>The-one</name>
							<duration>5477</duration>
							<rate>
								<ntsc>FALSE</ntsc>
								<timebase>25</timebase>
							</rate>
							<in>563</in>
							<out>614</out>
							<start>177</start>
							<end>228</end>
							<subframeoffset>0</subframeoffset>
							<masterclipid>The-one1</masterclipid>
							<logginginfo>
								<scene/>
								<shottake/>
								<lognote/>
								<good>FALSE</good>
							</logginginfo>
							<labels>
								<label2/>
							</labels>
							<comments>
								<mastercomment1/>
								<mastercomment2/>
								<mastercomment3/>
								<mastercomment4/>
							</comments>
							<file id="The-one2"/>
							<filter>
								<effect>
									<name>Audio Levels</name>
									<effectid>audiolevels</effectid>
									<effectcategory>audiolevels</effectcategory>
									<effecttype>audiolevels</effecttype>
									<mediatype>audio</mediatype>
									<parameter>
										<name>Level</name>
										<parameterid>level</parameterid>
										<valuemin>0</valuemin>
										<valuemax>3.98109</valuemax>
										<value>1</value>
									</parameter>
								</effect>
							</filter>
							<filter>
								<effect>
									<name>Audio Pan</name>
									<effectid>audiopan</effectid>
									<effectcategory>audiopan</effectcategory>
									<effecttype>audiopan</effecttype>
									<mediatype>audio</mediatype>
									<parameter>
										<name>Pan</name>
										<parameterid>pan</parameterid>
										<valuemin>-1</valuemin>
										<valuemax>1</valuemax>
										<value>1</value>
									</parameter>
								</effect>
							</filter>
							<sourcetrack>
								<mediatype>audio</mediatype>
								<trackindex>2</trackindex>
							</sourcetrack>
							<link>
								<linkclipref>The-one146</linkclipref>
								<mediatype>video</mediatype>
								<trackindex>1</trackindex>
								<clipindex>4</clipindex>
							</link>
							<link>
								<linkclipref>The-one147</linkclipref>
								<mediatype>audio</mediatype>
								<trackindex>1</trackindex>
								<clipindex>4</clipindex>
								<groupindex>1</groupindex>
							</link>
							<link>
								<linkclipref>The-one148</linkclipref>
								<mediatype>audio</mediatype>
								<trackindex>2</trackindex>
								<clipindex>4</clipindex>
								<groupindex>1</groupindex>
							</link>
							<itemhistory>
								<uuid>6CF310FA-CC4F-412D-81C5-BD60BF002F2D</uuid>
							</itemhistory>
						</clipitem>
						<clipitem id="The-one151">
							<name>The-one</name>
							<duration>5477</duration>
							<rate>
								<ntsc>FALSE</ntsc>
								<timebase>25</timebase>
							</rate>
							<in>715</in>
							<out>749</out>
							<start>228</start>
							<end>262</end>
							<subframeoffset>0</subframeoffset>
							<masterclipid>The-one1</masterclipid>
							<logginginfo>
								<scene/>
								<shottake/>
								<lognote/>
								<good>FALSE</good>
							</logginginfo>
							<labels>
								<label2/>
							</labels>
							<comments>
								<mastercomment1/>
								<mastercomment2/>
								<mastercomment3/>
								<mastercomment4/>
							</comments>
							<file id="The-one2"/>
							<filter>
								<effect>
									<name>Audio Levels</name>
									<effectid>audiolevels</effectid>
									<effectcategory>audiolevels</effectcategory>
									<effecttype>audiolevels</effecttype>
									<mediatype>audio</mediatype>
									<parameter>
										<name>Level</name>
										<parameterid>level</parameterid>
										<valuemin>0</valuemin>
										<valuemax>3.98109</valuemax>
										<value>1</value>
									</parameter>
								</effect>
							</filter>
							<filter>
								<effect>
									<name>Audio Pan</name>
									<effectid>audiopan</effectid>
									<effectcategory>audiopan</effectcategory>
									<effecttype>audiopan</effecttype>
									<mediatype>audio</mediatype>
									<parameter>
										<name>Pan</name>
										<parameterid>pan</parameterid>
										<valuemin>-1</valuemin>
										<valuemax>1</valuemax>
										<value>1</value>
									</parameter>
								</effect>
							</filter>
							<sourcetrack>
								<mediatype>audio</mediatype>
								<trackindex>2</trackindex>
							</sourcetrack>
							<link>
								<linkclipref>The-one149</linkclipref>
								<mediatype>video</mediatype>
								<trackindex>1</trackindex>
								<clipindex>5</clipindex>
							</link>
							<link>
								<linkclipref>The-one150</linkclipref>
								<mediatype>audio</mediatype>
								<trackindex>1</trackindex>
								<clipindex>5</clipindex>
								<groupindex>1</groupindex>
							</link>
							<link>
								<linkclipref>The-one151</linkclipref>
								<mediatype>audio</mediatype>
								<trackindex>2</trackindex>
								<clipindex>5</clipindex>
								<groupindex>1</groupindex>
							</link>
							<itemhistory>
								<uuid>8976BEFE-C1A0-4BF3-86E5-E7BA1A8F5395</uuid>
							</itemhistory>
						</clipitem>
						<clipitem id="The-one154">
							<name>The-one</name>
							<duration>5477</duration>
							<rate>
								<ntsc>FALSE</ntsc>
								<timebase>25</timebase>
							</rate>
							<in>799</in>
							<out>849</out>
							<start>262</start>
							<end>312</end>
							<subframeoffset>0</subframeoffset>
							<masterclipid>The-one1</masterclipid>
							<logginginfo>
								<scene/>
								<shottake/>
								<lognote/>
								<good>FALSE</good>
							</logginginfo>
							<labels>
								<label2/>
							</labels>
							<comments>
								<mastercomment1/>
								<mastercomment2/>
								<mastercomment3/>
								<mastercomment4/>
							</comments>
							<file id="The-one2"/>
							<filter>
								<effect>
									<name>Audio Levels</name>
									<effectid>audiolevels</effectid>
									<effectcategory>audiolevels</effectcategory>
									<effecttype>audiolevels</effecttype>
									<mediatype>audio</mediatype>
									<parameter>
										<name>Level</name>
										<parameterid>level</parameterid>
										<valuemin>0</valuemin>
										<valuemax>3.98109</valuemax>
										<value>1</value>
									</parameter>
								</effect>
							</filter>
							<filter>
								<effect>
									<name>Audio Pan</name>
									<effectid>audiopan</effectid>
									<effectcategory>audiopan</effectcategory>
									<effecttype>audiopan</effecttype>
									<mediatype>audio</mediatype>
									<parameter>
										<name>Pan</name>
										<parameterid>pan</parameterid>
										<valuemin>-1</valuemin>
										<valuemax>1</valuemax>
										<value>1</value>
									</parameter>
								</effect>
							</filter>
							<sourcetrack>
								<mediatype>audio</mediatype>
								<trackindex>2</trackindex>
							</sourcetrack>
							<link>
								<linkclipref>The-one152</linkclipref>
								<mediatype>video</mediatype>
								<trackindex>1</trackindex>
								<clipindex>6</clipindex>
							</link>
							<link>
								<linkclipref>The-one153</linkclipref>
								<mediatype>audio</mediatype>
								<trackindex>1</trackindex>
								<clipindex>6</clipindex>
								<groupindex>1</groupindex>
							</link>
							<link>
								<linkclipref>The-one154</linkclipref>
								<mediatype>audio</mediatype>
								<trackindex>2</trackindex>
								<clipindex>6</clipindex>
								<groupindex>1</groupindex>
							</link>
							<itemhistory>
								<uuid>91D1420E-9DBA-46F2-A879-E34A42F6A21D</uuid>
							</itemhistory>
						</clipitem>
						<clipitem id="The-one157">
							<name>The-one</name>
							<duration>5477</duration>
							<rate>
								<ntsc>FALSE</ntsc>
								<timebase>25</timebase>
							</rate>
							<in>903</in>
							<out>961</out>
							<start>312</start>
							<end>370</end>
							<subframeoffset>0</subframeoffset>
							<masterclipid>The-one1</masterclipid>
							<logginginfo>
								<scene/>
								<shottake/>
								<lognote/>
								<good>FALSE</good>
							</logginginfo>
							<labels>
								<label2/>
							</labels>
							<comments>
								<mastercomment1/>
								<mastercomment2/>
								<mastercomment3/>
								<mastercomment4/>
							</comments>
							<file id="The-one2"/>
							<filter>
								<effect>
									<name>Audio Levels</name>
									<effectid>audiolevels</effectid>
									<effectcategory>audiolevels</effectcategory>
									<effecttype>audiolevels</effecttype>
									<mediatype>audio</mediatype>
									<parameter>
										<name>Level</name>
										<parameterid>level</parameterid>
										<valuemin>0</valuemin>
										<valuemax>3.98109</valuemax>
										<value>1</value>
									</parameter>
								</effect>
							</filter>
							<filter>
								<effect>
									<name>Audio Pan</name>
									<effectid>audiopan</effectid>
									<effectcategory>audiopan</effectcategory>
									<effecttype>audiopan</effecttype>
									<mediatype>audio</mediatype>
									<parameter>
										<name>Pan</name>
										<parameterid>pan</parameterid>
										<valuemin>-1</valuemin>
										<valuemax>1</valuemax>
										<value>1</value>
									</parameter>
								</effect>
							</filter>
							<sourcetrack>
								<mediatype>audio</mediatype>
								<trackindex>2</trackindex>
							</sourcetrack>
							<link>
								<linkclipref>The-one155</linkclipref>
								<mediatype>video</mediatype>
								<trackindex>1</trackindex>
								<clipindex>7</clipindex>
							</link>
							<link>
								<linkclipref>The-one156</linkclipref>
								<mediatype>audio</mediatype>
								<trackindex>1</trackindex>
								<clipindex>7</clipindex>
								<groupindex>1</groupindex>
							</link>
							<link>
								<linkclipref>The-one157</linkclipref>
								<mediatype>audio</mediatype>
								<trackindex>2</trackindex>
								<clipindex>7</clipindex>
								<groupindex>1</groupindex>
							</link>
							<itemhistory>
								<uuid>78C82C32-130D-4165-B4B4-22C18E58219B</uuid>
							</itemhistory>
						</clipitem>
						<clipitem id="The-one160">
							<name>The-one</name>
							<duration>5477</duration>
							<rate>
								<ntsc>FALSE</ntsc>
								<timebase>25</timebase>
							</rate>
							<in>1019</in>
							<out>1073</out>
							<start>370</start>
							<end>424</end>
							<subframeoffset>0</subframeoffset>
							<masterclipid>The-one1</masterclipid>
							<logginginfo>
								<scene/>
								<shottake/>
								<lognote/>
								<good>FALSE</good>
							</logginginfo>
							<labels>
								<label2/>
							</labels>
							<comments>
								<mastercomment1/>
								<mastercomment2/>
								<mastercomment3/>
								<mastercomment4/>
							</comments>
							<file id="The-one2"/>
							<filter>
								<effect>
									<name>Audio Levels</name>
									<effectid>audiolevels</effectid>
									<effectcategory>audiolevels</effectcategory>
									<effecttype>audiolevels</effecttype>
									<mediatype>audio</mediatype>
									<parameter>
										<name>Level</name>
										<parameterid>level</parameterid>
										<valuemin>0</valuemin>
										<valuemax>3.98109</valuemax>
										<value>1</value>
									</parameter>
								</effect>
							</filter>
							<filter>
								<effect>
									<name>Audio Pan</name>
									<effectid>audiopan</effectid>
									<effectcategory>audiopan</effectcategory>
									<effecttype>audiopan</effecttype>
									<mediatype>audio</mediatype>
									<parameter>
										<name>Pan</name>
										<parameterid>pan</parameterid>
										<valuemin>-1</valuemin>
										<valuemax>1</valuemax>
										<value>1</value>
									</parameter>
								</effect>
							</filter>
							<sourcetrack>
								<mediatype>audio</mediatype>
								<trackindex>2</trackindex>
							</sourcetrack>
							<link>
								<linkclipref>The-one158</linkclipref>
								<mediatype>video</mediatype>
								<trackindex>1</trackindex>
								<clipindex>8</clipindex>
							</link>
							<link>
								<linkclipref>The-one159</linkclipref>
								<mediatype>audio</mediatype>
								<trackindex>1</trackindex>
								<clipindex>8</clipindex>
								<groupindex>1</groupindex>
							</link>
							<link>
								<linkclipref>The-one160</linkclipref>
								<mediatype>audio</mediatype>
								<trackindex>2</trackindex>
								<clipindex>8</clipindex>
								<groupindex>1</groupindex>
							</link>
							<itemhistory>
								<uuid>3EC99F9E-D747-41B8-B3C1-BC21C154F419</uuid>
							</itemhistory>
						</clipitem>
						<clipitem id="The-one163">
							<name>The-one</name>
							<duration>5477</duration>
							<rate>
								<ntsc>FALSE</ntsc>
								<timebase>25</timebase>
							</rate>
							<in>1131</in>
							<out>1197</out>
							<start>424</start>
							<end>490</end>
							<subframeoffset>0</subframeoffset>
							<masterclipid>The-one1</masterclipid>
							<logginginfo>
								<scene/>
								<shottake/>
								<lognote/>
								<good>FALSE</good>
							</logginginfo>
							<labels>
								<label2/>
							</labels>
							<comments>
								<mastercomment1/>
								<mastercomment2/>
								<mastercomment3/>
								<mastercomment4/>
							</comments>
							<file id="The-one2"/>
							<filter>
								<effect>
									<name>Audio Levels</name>
									<effectid>audiolevels</effectid>
									<effectcategory>audiolevels</effectcategory>
									<effecttype>audiolevels</effecttype>
									<mediatype>audio</mediatype>
									<parameter>
										<name>Level</name>
										<parameterid>level</parameterid>
										<valuemin>0</valuemin>
										<valuemax>3.98109</valuemax>
										<value>1</value>
									</parameter>
								</effect>
							</filter>
							<filter>
								<effect>
									<name>Audio Pan</name>
									<effectid>audiopan</effectid>
									<effectcategory>audiopan</effectcategory>
									<effecttype>audiopan</effecttype>
									<mediatype>audio</mediatype>
									<parameter>
										<name>Pan</name>
										<parameterid>pan</parameterid>
										<valuemin>-1</valuemin>
										<valuemax>1</valuemax>
										<value>1</value>
									</parameter>
								</effect>
							</filter>
							<sourcetrack>
								<mediatype>audio</mediatype>
								<trackindex>2</trackindex>
							</sourcetrack>
							<link>
								<linkclipref>The-one161</linkclipref>
								<mediatype>video</mediatype>
								<trackindex>1</trackindex>
								<clipindex>9</clipindex>
							</link>
							<link>
								<linkclipref>The-one162</linkclipref>
								<mediatype>audio</mediatype>
								<trackindex>1</trackindex>
								<clipindex>9</clipindex>
								<groupindex>1</groupindex>
							</link>
							<link>
								<linkclipref>The-one163</linkclipref>
								<mediatype>audio</mediatype>
								<trackindex>2</trackindex>
								<clipindex>9</clipindex>
								<groupindex>1</groupindex>
							</link>
							<itemhistory>
								<uuid>6AB0D518-AEDF-432B-AFC9-C8AA3AEEC342</uuid>
							</itemhistory>
						</clipitem>
						<clipitem id="The-one166">
							<name>The-one</name>
							<duration>5477</duration>
							<rate>
								<ntsc>FALSE</ntsc>
								<timebase>25</timebase>
							</rate>
							<in>1244</in>
							<out>1302</out>
							<start>490</start>
							<end>548</end>
							<subframeoffset>0</subframeoffset>
							<masterclipid>The-one1</masterclipid>
							<logginginfo>
								<scene/>
								<shottake/>
								<lognote/>
								<good>FALSE</good>
							</logginginfo>
							<labels>
								<label2/>
							</labels>
							<comments>
								<mastercomment1/>
								<mastercomment2/>
								<mastercomment3/>
								<mastercomment4/>
							</comments>
							<file id="The-one2"/>
							<filter>
								<effect>
									<name>Audio Levels</name>
									<effectid>audiolevels</effectid>
									<effectcategory>audiolevels</effectcategory>
									<effecttype>audiolevels</effecttype>
									<mediatype>audio</mediatype>
									<parameter>
										<name>Level</name>
										<parameterid>level</parameterid>
										<valuemin>0</valuemin>
										<valuemax>3.98109</valuemax>
										<value>1</value>
									</parameter>
								</effect>
							</filter>
							<filter>
								<effect>
									<name>Audio Pan</name>
									<effectid>audiopan</effectid>
									<effectcategory>audiopan</effectcategory>
									<effecttype>audiopan</effecttype>
									<mediatype>audio</mediatype>
									<parameter>
										<name>Pan</name>
										<parameterid>pan</parameterid>
										<valuemin>-1</valuemin>
										<valuemax>1</valuemax>
										<value>1</value>
									</parameter>
								</effect>
							</filter>
							<sourcetrack>
								<mediatype>audio</mediatype>
								<trackindex>2</trackindex>
							</sourcetrack>
							<link>
								<linkclipref>The-one164</linkclipref>
								<mediatype>video</mediatype>
								<trackindex>1</trackindex>
								<clipindex>10</clipindex>
							</link>
							<link>
								<linkclipref>The-one165</linkclipref>
								<mediatype>audio</mediatype>
								<trackindex>1</trackindex>
								<clipindex>10</clipindex>
								<groupindex>1</groupindex>
							</link>
							<link>
								<linkclipref>The-one166</linkclipref>
								<mediatype>audio</mediatype>
								<trackindex>2</trackindex>
								<clipindex>10</clipindex>
								<groupindex>1</groupindex>
							</link>
							<itemhistory>
								<uuid>69B72451-8645-4C98-8321-B6C3926406E9</uuid>
							</itemhistory>
						</clipitem>
						<clipitem id="The-one169">
							<name>The-one</name>
							<duration>5477</duration>
							<rate>
								<ntsc>FALSE</ntsc>
								<timebase>25</timebase>
							</rate>
							<in>1359</in>
							<out>1414</out>
							<start>548</start>
							<end>603</end>
							<subframeoffset>0</subframeoffset>
							<masterclipid>The-one1</masterclipid>
							<logginginfo>
								<scene/>
								<shottake/>
								<lognote/>
								<good>FALSE</good>
							</logginginfo>
							<labels>
								<label2/>
							</labels>
							<comments>
								<mastercomment1/>
								<mastercomment2/>
								<mastercomment3/>
								<mastercomment4/>
							</comments>
							<file id="The-one2"/>
							<filter>
								<effect>
									<name>Audio Levels</name>
									<effectid>audiolevels</effectid>
									<effectcategory>audiolevels</effectcategory>
									<effecttype>audiolevels</effecttype>
									<mediatype>audio</mediatype>
									<parameter>
										<name>Level</name>
										<parameterid>level</parameterid>
										<valuemin>0</valuemin>
										<valuemax>3.98109</valuemax>
										<value>1</value>
									</parameter>
								</effect>
							</filter>
							<filter>
								<effect>
									<name>Audio Pan</name>
									<effectid>audiopan</effectid>
									<effectcategory>audiopan</effectcategory>
									<effecttype>audiopan</effecttype>
									<mediatype>audio</mediatype>
									<parameter>
										<name>Pan</name>
										<parameterid>pan</parameterid>
										<valuemin>-1</valuemin>
										<valuemax>1</valuemax>
										<value>1</value>
									</parameter>
								</effect>
							</filter>
							<sourcetrack>
								<mediatype>audio</mediatype>
								<trackindex>2</trackindex>
							</sourcetrack>
							<link>
								<linkclipref>The-one167</linkclipref>
								<mediatype>video</mediatype>
								<trackindex>1</trackindex>
								<clipindex>11</clipindex>
							</link>
							<link>
								<linkclipref>The-one168</linkclipref>
								<mediatype>audio</mediatype>
								<trackindex>1</trackindex>
								<clipindex>11</clipindex>
								<groupindex>1</groupindex>
							</link>
							<link>
								<linkclipref>The-one169</linkclipref>
								<mediatype>audio</mediatype>
								<trackindex>2</trackindex>
								<clipindex>11</clipindex>
								<groupindex>1</groupindex>
							</link>
							<itemhistory>
								<uuid>080A5568-1613-4BDF-BD4B-FB8ED030E74A</uuid>
							</itemhistory>
						</clipitem>
						<clipitem id="The-one172">
							<name>The-one</name>
							<duration>5477</duration>
							<rate>
								<ntsc>FALSE</ntsc>
								<timebase>25</timebase>
							</rate>
							<in>1469</in>
							<out>1530</out>
							<start>603</start>
							<end>664</end>
							<subframeoffset>0</subframeoffset>
							<masterclipid>The-one1</masterclipid>
							<logginginfo>
								<scene/>
								<shottake/>
								<lognote/>
								<good>FALSE</good>
							</logginginfo>
							<labels>
								<label2/>
							</labels>
							<comments>
								<mastercomment1/>
								<mastercomment2/>
								<mastercomment3/>
								<mastercomment4/>
							</comments>
							<file id="The-one2"/>
							<filter>
								<effect>
									<name>Audio Levels</name>
									<effectid>audiolevels</effectid>
									<effectcategory>audiolevels</effectcategory>
									<effecttype>audiolevels</effecttype>
									<mediatype>audio</mediatype>
									<parameter>
										<name>Level</name>
										<parameterid>level</parameterid>
										<valuemin>0</valuemin>
										<valuemax>3.98109</valuemax>
										<value>1</value>
									</parameter>
								</effect>
							</filter>
							<filter>
								<effect>
									<name>Audio Pan</name>
									<effectid>audiopan</effectid>
									<effectcategory>audiopan</effectcategory>
									<effecttype>audiopan</effecttype>
									<mediatype>audio</mediatype>
									<parameter>
										<name>Pan</name>
										<parameterid>pan</parameterid>
										<valuemin>-1</valuemin>
										<valuemax>1</valuemax>
										<value>1</value>
									</parameter>
								</effect>
							</filter>
							<sourcetrack>
								<mediatype>audio</mediatype>
								<trackindex>2</trackindex>
							</sourcetrack>
							<link>
								<linkclipref>The-one170</linkclipref>
								<mediatype>video</mediatype>
								<trackindex>1</trackindex>
								<clipindex>12</clipindex>
							</link>
							<link>
								<linkclipref>The-one171</linkclipref>
								<mediatype>audio</mediatype>
								<trackindex>1</trackindex>
								<clipindex>12</clipindex>
								<groupindex>1</groupindex>
							</link>
							<link>
								<linkclipref>The-one172</linkclipref>
								<mediatype>audio</mediatype>
								<trackindex>2</trackindex>
								<clipindex>12</clipindex>
								<groupindex>1</groupindex>
							</link>
							<itemhistory>
								<uuid>F2126553-27E2-421A-8B2D-75DD4D06C4E8</uuid>
							</itemhistory>
						</clipitem>
						<clipitem id="The-one175">
							<name>The-one</name>
							<duration>5477</duration>
							<rate>
								<ntsc>FALSE</ntsc>
								<timebase>25</timebase>
							</rate>
							<in>1583</in>
							<out>1641</out>
							<start>664</start>
							<end>722</end>
							<subframeoffset>0</subframeoffset>
							<masterclipid>The-one1</masterclipid>
							<logginginfo>
								<scene/>
								<shottake/>
								<lognote/>
								<good>FALSE</good>
							</logginginfo>
							<labels>
								<label2/>
							</labels>
							<comments>
								<mastercomment1/>
								<mastercomment2/>
								<mastercomment3/>
								<mastercomment4/>
							</comments>
							<file id="The-one2"/>
							<filter>
								<effect>
									<name>Audio Levels</name>
									<effectid>audiolevels</effectid>
									<effectcategory>audiolevels</effectcategory>
									<effecttype>audiolevels</effecttype>
									<mediatype>audio</mediatype>
									<parameter>
										<name>Level</name>
										<parameterid>level</parameterid>
										<valuemin>0</valuemin>
										<valuemax>3.98109</valuemax>
										<value>1</value>
									</parameter>
								</effect>
							</filter>
							<filter>
								<effect>
									<name>Audio Pan</name>
									<effectid>audiopan</effectid>
									<effectcategory>audiopan</effectcategory>
									<effecttype>audiopan</effecttype>
									<mediatype>audio</mediatype>
									<parameter>
										<name>Pan</name>
										<parameterid>pan</parameterid>
										<valuemin>-1</valuemin>
										<valuemax>1</valuemax>
										<value>1</value>
									</parameter>
								</effect>
							</filter>
							<sourcetrack>
								<mediatype>audio</mediatype>
								<trackindex>2</trackindex>
							</sourcetrack>
							<link>
								<linkclipref>The-one173</linkclipref>
								<mediatype>video</mediatype>
								<trackindex>1</trackindex>
								<clipindex>13</clipindex>
							</link>
							<link>
								<linkclipref>The-one174</linkclipref>
								<mediatype>audio</mediatype>
								<trackindex>1</trackindex>
								<clipindex>13</clipindex>
								<groupindex>1</groupindex>
							</link>
							<link>
								<linkclipref>The-one175</linkclipref>
								<mediatype>audio</mediatype>
								<trackindex>2</trackindex>
								<clipindex>13</clipindex>
								<groupindex>1</groupindex>
							</link>
							<itemhistory>
								<uuid>D5907BE2-4D4A-41BE-83E2-12B42258656A</uuid>
							</itemhistory>
						</clipitem>
						<clipitem id="The-one178">
							<name>The-one</name>
							<duration>5477</duration>
							<rate>
								<ntsc>FALSE</ntsc>
								<timebase>25</timebase>
							</rate>
							<in>2092</in>
							<out>2158</out>
							<start>722</start>
							<end>788</end>
							<subframeoffset>0</subframeoffset>
							<masterclipid>The-one1</masterclipid>
							<logginginfo>
								<scene/>
								<shottake/>
								<lognote/>
								<good>FALSE</good>
							</logginginfo>
							<labels>
								<label2/>
							</labels>
							<comments>
								<mastercomment1/>
								<mastercomment2/>
								<mastercomment3/>
								<mastercomment4/>
							</comments>
							<file id="The-one2"/>
							<filter>
								<effect>
									<name>Audio Levels</name>
									<effectid>audiolevels</effectid>
									<effectcategory>audiolevels</effectcategory>
									<effecttype>audiolevels</effecttype>
									<mediatype>audio</mediatype>
									<parameter>
										<name>Level</name>
										<parameterid>level</parameterid>
										<valuemin>0</valuemin>
										<valuemax>3.98109</valuemax>
										<value>1</value>
									</parameter>
								</effect>
							</filter>
							<filter>
								<effect>
									<name>Audio Pan</name>
									<effectid>audiopan</effectid>
									<effectcategory>audiopan</effectcategory>
									<effecttype>audiopan</effecttype>
									<mediatype>audio</mediatype>
									<parameter>
										<name>Pan</name>
										<parameterid>pan</parameterid>
										<valuemin>-1</valuemin>
										<valuemax>1</valuemax>
										<value>1</value>
									</parameter>
								</effect>
							</filter>
							<sourcetrack>
								<mediatype>audio</mediatype>
								<trackindex>2</trackindex>
							</sourcetrack>
							<link>
								<linkclipref>The-one176</linkclipref>
								<mediatype>video</mediatype>
								<trackindex>1</trackindex>
								<clipindex>14</clipindex>
							</link>
							<link>
								<linkclipref>The-one177</linkclipref>
								<mediatype>audio</mediatype>
								<trackindex>1</trackindex>
								<clipindex>14</clipindex>
								<groupindex>1</groupindex>
							</link>
							<link>
								<linkclipref>The-one178</linkclipref>
								<mediatype>audio</mediatype>
								<trackindex>2</trackindex>
								<clipindex>14</clipindex>
								<groupindex>1</groupindex>
							</link>
							<itemhistory>
								<uuid>800BDAF3-0A2C-4937-B9EE-9C9B4881C936</uuid>
							</itemhistory>
						</clipitem>
						<clipitem id="The-one181">
							<name>The-one</name>
							<duration>5477</duration>
							<rate>
								<ntsc>FALSE</ntsc>
								<timebase>25</timebase>
							</rate>
							<in>1019</in>
							<out>1073</out>
							<start>788</start>
							<end>842</end>
							<subframeoffset>0</subframeoffset>
							<masterclipid>The-one1</masterclipid>
							<logginginfo>
								<scene/>
								<shottake/>
								<lognote/>
								<good>FALSE</good>
							</logginginfo>
							<labels>
								<label2/>
							</labels>
							<comments>
								<mastercomment1/>
								<mastercomment2/>
								<mastercomment3/>
								<mastercomment4/>
							</comments>
							<file id="The-one2"/>
							<filter>
								<effect>
									<name>Audio Levels</name>
									<effectid>audiolevels</effectid>
									<effectcategory>audiolevels</effectcategory>
									<effecttype>audiolevels</effecttype>
									<mediatype>audio</mediatype>
									<parameter>
										<name>Level</name>
										<parameterid>level</parameterid>
										<valuemin>0</valuemin>
										<valuemax>3.98109</valuemax>
										<value>1</value>
									</parameter>
								</effect>
							</filter>
							<filter>
								<effect>
									<name>Audio Pan</name>
									<effectid>audiopan</effectid>
									<effectcategory>audiopan</effectcategory>
									<effecttype>audiopan</effecttype>
									<mediatype>audio</mediatype>
									<parameter>
										<name>Pan</name>
										<parameterid>pan</parameterid>
										<valuemin>-1</valuemin>
										<valuemax>1</valuemax>
										<value>1</value>
									</parameter>
								</effect>
							</filter>
							<sourcetrack>
								<mediatype>audio</mediatype>
								<trackindex>2</trackindex>
							</sourcetrack>
							<link>
								<linkclipref>The-one179</linkclipref>
								<mediatype>video</mediatype>
								<trackindex>1</trackindex>
								<clipindex>15</clipindex>
							</link>
							<link>
								<linkclipref>The-one180</linkclipref>
								<mediatype>audio</mediatype>
								<trackindex>1</trackindex>
								<clipindex>15</clipindex>
								<groupindex>1</groupindex>
							</link>
							<link>
								<linkclipref>The-one181</linkclipref>
								<mediatype>audio</mediatype>
								<trackindex>2</trackindex>
								<clipindex>15</clipindex>
								<groupindex>1</groupindex>
							</link>
							<itemhistory>
								<uuid>F71EC67B-0826-4E54-B1F7-A8D4896A86C8</uuid>
							</itemhistory>
						</clipitem>
						<clipitem id="The-one184">
							<name>The-one</name>
							<duration>5477</duration>
							<rate>
								<ntsc>FALSE</ntsc>
								<timebase>25</timebase>
							</rate>
							<in>1697</in>
							<out>1743</out>
							<start>842</start>
							<end>888</end>
							<subframeoffset>0</subframeoffset>
							<masterclipid>The-one1</masterclipid>
							<logginginfo>
								<scene/>
								<shottake/>
								<lognote/>
								<good>FALSE</good>
							</logginginfo>
							<labels>
								<label2/>
							</labels>
							<comments>
								<mastercomment1/>
								<mastercomment2/>
								<mastercomment3/>
								<mastercomment4/>
							</comments>
							<file id="The-one2"/>
							<filter>
								<effect>
									<name>Audio Levels</name>
									<effectid>audiolevels</effectid>
									<effectcategory>audiolevels</effectcategory>
									<effecttype>audiolevels</effecttype>
									<mediatype>audio</mediatype>
									<parameter>
										<name>Level</name>
										<parameterid>level</parameterid>
										<valuemin>0</valuemin>
										<valuemax>3.98109</valuemax>
										<value>1</value>
									</parameter>
								</effect>
							</filter>
							<filter>
								<effect>
									<name>Audio Pan</name>
									<effectid>audiopan</effectid>
									<effectcategory>audiopan</effectcategory>
									<effecttype>audiopan</effecttype>
									<mediatype>audio</mediatype>
									<parameter>
										<name>Pan</name>
										<parameterid>pan</parameterid>
										<valuemin>-1</valuemin>
										<valuemax>1</valuemax>
										<value>1</value>
									</parameter>
								</effect>
							</filter>
							<sourcetrack>
								<mediatype>audio</mediatype>
								<trackindex>2</trackindex>
							</sourcetrack>
							<link>
								<linkclipref>The-one182</linkclipref>
								<mediatype>video</mediatype>
								<trackindex>1</trackindex>
								<clipindex>16</clipindex>
							</link>
							<link>
								<linkclipref>The-one183</linkclipref>
								<mediatype>audio</mediatype>
								<trackindex>1</trackindex>
								<clipindex>16</clipindex>
								<groupindex>1</groupindex>
							</link>
							<link>
								<linkclipref>The-one184</linkclipref>
								<mediatype>audio</mediatype>
								<trackindex>2</trackindex>
								<clipindex>16</clipindex>
								<groupindex>1</groupindex>
							</link>
							<itemhistory>
								<uuid>9BB971E7-9A92-4743-89AB-D26E7FC53CC5</uuid>
							</itemhistory>
						</clipitem>
						<clipitem id="The-one187">
							<name>The-one</name>
							<duration>5477</duration>
							<rate>
								<ntsc>FALSE</ntsc>
								<timebase>25</timebase>
							</rate>
							<in>1925</in>
							<out>2033</out>
							<start>888</start>
							<end>996</end>
							<subframeoffset>0</subframeoffset>
							<masterclipid>The-one1</masterclipid>
							<logginginfo>
								<scene/>
								<shottake/>
								<lognote/>
								<good>FALSE</good>
							</logginginfo>
							<labels>
								<label2/>
							</labels>
							<comments>
								<mastercomment1/>
								<mastercomment2/>
								<mastercomment3/>
								<mastercomment4/>
							</comments>
							<file id="The-one2"/>
							<filter>
								<effect>
									<name>Audio Levels</name>
									<effectid>audiolevels</effectid>
									<effectcategory>audiolevels</effectcategory>
									<effecttype>audiolevels</effecttype>
									<mediatype>audio</mediatype>
									<parameter>
										<name>Level</name>
										<parameterid>level</parameterid>
										<valuemin>0</valuemin>
										<valuemax>3.98109</valuemax>
										<value>1</value>
									</parameter>
								</effect>
							</filter>
							<filter>
								<effect>
									<name>Audio Pan</name>
									<effectid>audiopan</effectid>
									<effectcategory>audiopan</effectcategory>
									<effecttype>audiopan</effecttype>
									<mediatype>audio</mediatype>
									<parameter>
										<name>Pan</name>
										<parameterid>pan</parameterid>
										<valuemin>-1</valuemin>
										<valuemax>1</valuemax>
										<value>1</value>
									</parameter>
								</effect>
							</filter>
							<sourcetrack>
								<mediatype>audio</mediatype>
								<trackindex>2</trackindex>
							</sourcetrack>
							<link>
								<linkclipref>The-one185</linkclipref>
								<mediatype>video</mediatype>
								<trackindex>1</trackindex>
								<clipindex>17</clipindex>
							</link>
							<link>
								<linkclipref>The-one186</linkclipref>
								<mediatype>audio</mediatype>
								<trackindex>1</trackindex>
								<clipindex>17</clipindex>
								<groupindex>1</groupindex>
							</link>
							<link>
								<linkclipref>The-one187</linkclipref>
								<mediatype>audio</mediatype>
								<trackindex>2</trackindex>
								<clipindex>17</clipindex>
								<groupindex>1</groupindex>
							</link>
							<itemhistory>
								<uuid>F5710D6E-237E-4F6A-BD9D-981694D25E0D</uuid>
							</itemhistory>
						</clipitem>
						<clipitem id="The-one190">
							<name>The-one</name>
							<duration>5477</duration>
							<rate>
								<ntsc>FALSE</ntsc>
								<timebase>25</timebase>
							</rate>
							<in>2435</in>
							<out>2492</out>
							<start>996</start>
							<end>1053</end>
							<subframeoffset>0</subframeoffset>
							<masterclipid>The-one1</masterclipid>
							<logginginfo>
								<scene/>
								<shottake/>
								<lognote/>
								<good>FALSE</good>
							</logginginfo>
							<labels>
								<label2/>
							</labels>
							<comments>
								<mastercomment1/>
								<mastercomment2/>
								<mastercomment3/>
								<mastercomment4/>
							</comments>
							<file id="The-one2"/>
							<filter>
								<effect>
									<name>Audio Levels</name>
									<effectid>audiolevels</effectid>
									<effectcategory>audiolevels</effectcategory>
									<effecttype>audiolevels</effecttype>
									<mediatype>audio</mediatype>
									<parameter>
										<name>Level</name>
										<parameterid>level</parameterid>
										<valuemin>0</valuemin>
										<valuemax>3.98109</valuemax>
										<value>1</value>
									</parameter>
								</effect>
							</filter>
							<filter>
								<effect>
									<name>Audio Pan</name>
									<effectid>audiopan</effectid>
									<effectcategory>audiopan</effectcategory>
									<effecttype>audiopan</effecttype>
									<mediatype>audio</mediatype>
									<parameter>
										<name>Pan</name>
										<parameterid>pan</parameterid>
										<valuemin>-1</valuemin>
										<valuemax>1</valuemax>
										<value>1</value>
									</parameter>
								</effect>
							</filter>
							<sourcetrack>
								<mediatype>audio</mediatype>
								<trackindex>2</trackindex>
							</sourcetrack>
							<link>
								<linkclipref>The-one188</linkclipref>
								<mediatype>video</mediatype>
								<trackindex>1</trackindex>
								<clipindex>18</clipindex>
							</link>
							<link>
								<linkclipref>The-one189</linkclipref>
								<mediatype>audio</mediatype>
								<trackindex>1</trackindex>
								<clipindex>18</clipindex>
								<groupindex>1</groupindex>
							</link>
							<link>
								<linkclipref>The-one190</linkclipref>
								<mediatype>audio</mediatype>
								<trackindex>2</trackindex>
								<clipindex>18</clipindex>
								<groupindex>1</groupindex>
							</link>
							<itemhistory>
								<uuid>31B53FAA-4CBE-47C8-B881-A8FF7D333891</uuid>
							</itemhistory>
						</clipitem>
						<clipitem id="The-one193">
							<name>The-one</name>
							<duration>5477</duration>
							<rate>
								<ntsc>FALSE</ntsc>
								<timebase>25</timebase>
							</rate>
							<in>2544</in>
							<out>2601</out>
							<start>1053</start>
							<end>1110</end>
							<subframeoffset>0</subframeoffset>
							<masterclipid>The-one1</masterclipid>
							<logginginfo>
								<scene/>
								<shottake/>
								<lognote/>
								<good>FALSE</good>
							</logginginfo>
							<labels>
								<label2/>
							</labels>
							<comments>
								<mastercomment1/>
								<mastercomment2/>
								<mastercomment3/>
								<mastercomment4/>
							</comments>
							<file id="The-one2"/>
							<filter>
								<effect>
									<name>Audio Levels</name>
									<effectid>audiolevels</effectid>
									<effectcategory>audiolevels</effectcategory>
									<effecttype>audiolevels</effecttype>
									<mediatype>audio</mediatype>
									<parameter>
										<name>Level</name>
										<parameterid>level</parameterid>
										<valuemin>0</valuemin>
										<valuemax>3.98109</valuemax>
										<value>1</value>
									</parameter>
								</effect>
							</filter>
							<filter>
								<effect>
									<name>Audio Pan</name>
									<effectid>audiopan</effectid>
									<effectcategory>audiopan</effectcategory>
									<effecttype>audiopan</effecttype>
									<mediatype>audio</mediatype>
									<parameter>
										<name>Pan</name>
										<parameterid>pan</parameterid>
										<valuemin>-1</valuemin>
										<valuemax>1</valuemax>
										<value>1</value>
									</parameter>
								</effect>
							</filter>
							<sourcetrack>
								<mediatype>audio</mediatype>
								<trackindex>2</trackindex>
							</sourcetrack>
							<link>
								<linkclipref>The-one191</linkclipref>
								<mediatype>video</mediatype>
								<trackindex>1</trackindex>
								<clipindex>19</clipindex>
							</link>
							<link>
								<linkclipref>The-one192</linkclipref>
								<mediatype>audio</mediatype>
								<trackindex>1</trackindex>
								<clipindex>19</clipindex>
								<groupindex>1</groupindex>
							</link>
							<link>
								<linkclipref>The-one193</linkclipref>
								<mediatype>audio</mediatype>
								<trackindex>2</trackindex>
								<clipindex>19</clipindex>
								<groupindex>1</groupindex>
							</link>
							<itemhistory>
								<uuid>1D33F492-BB8D-4DF3-92FB-4DE4DECCDD59</uuid>
							</itemhistory>
						</clipitem>
						<clipitem id="The-one196">
							<name>The-one</name>
							<duration>5477</duration>
							<rate>
								<ntsc>FALSE</ntsc>
								<timebase>25</timebase>
							</rate>
							<in>2655</in>
							<out>2714</out>
							<start>1110</start>
							<end>1169</end>
							<subframeoffset>0</subframeoffset>
							<masterclipid>The-one1</masterclipid>
							<logginginfo>
								<scene/>
								<shottake/>
								<lognote/>
								<good>FALSE</good>
							</logginginfo>
							<labels>
								<label2/>
							</labels>
							<comments>
								<mastercomment1/>
								<mastercomment2/>
								<mastercomment3/>
								<mastercomment4/>
							</comments>
							<file id="The-one2"/>
							<filter>
								<effect>
									<name>Audio Levels</name>
									<effectid>audiolevels</effectid>
									<effectcategory>audiolevels</effectcategory>
									<effecttype>audiolevels</effecttype>
									<mediatype>audio</mediatype>
									<parameter>
										<name>Level</name>
										<parameterid>level</parameterid>
										<valuemin>0</valuemin>
										<valuemax>3.98109</valuemax>
										<value>1</value>
									</parameter>
								</effect>
							</filter>
							<filter>
								<effect>
									<name>Audio Pan</name>
									<effectid>audiopan</effectid>
									<effectcategory>audiopan</effectcategory>
									<effecttype>audiopan</effecttype>
									<mediatype>audio</mediatype>
									<parameter>
										<name>Pan</name>
										<parameterid>pan</parameterid>
										<valuemin>-1</valuemin>
										<valuemax>1</valuemax>
										<value>1</value>
									</parameter>
								</effect>
							</filter>
							<sourcetrack>
								<mediatype>audio</mediatype>
								<trackindex>2</trackindex>
							</sourcetrack>
							<link>
								<linkclipref>The-one194</linkclipref>
								<mediatype>video</mediatype>
								<trackindex>1</trackindex>
								<clipindex>20</clipindex>
							</link>
							<link>
								<linkclipref>The-one195</linkclipref>
								<mediatype>audio</mediatype>
								<trackindex>1</trackindex>
								<clipindex>20</clipindex>
								<groupindex>1</groupindex>
							</link>
							<link>
								<linkclipref>The-one196</linkclipref>
								<mediatype>audio</mediatype>
								<trackindex>2</trackindex>
								<clipindex>20</clipindex>
								<groupindex>1</groupindex>
							</link>
							<itemhistory>
								<uuid>54A294A6-B0F2-4136-AC2C-A2E0CA56600D</uuid>
							</itemhistory>
						</clipitem>
						<clipitem id="The-one199">
							<name>The-one</name>
							<duration>5477</duration>
							<rate>
								<ntsc>FALSE</ntsc>
								<timebase>25</timebase>
							</rate>
							<in>2771</in>
							<out>2827</out>
							<start>1169</start>
							<end>1225</end>
							<subframeoffset>0</subframeoffset>
							<masterclipid>The-one1</masterclipid>
							<logginginfo>
								<scene/>
								<shottake/>
								<lognote/>
								<good>FALSE</good>
							</logginginfo>
							<labels>
								<label2/>
							</labels>
							<comments>
								<mastercomment1/>
								<mastercomment2/>
								<mastercomment3/>
								<mastercomment4/>
							</comments>
							<file id="The-one2"/>
							<filter>
								<effect>
									<name>Audio Levels</name>
									<effectid>audiolevels</effectid>
									<effectcategory>audiolevels</effectcategory>
									<effecttype>audiolevels</effecttype>
									<mediatype>audio</mediatype>
									<parameter>
										<name>Level</name>
										<parameterid>level</parameterid>
										<valuemin>0</valuemin>
										<valuemax>3.98109</valuemax>
										<value>1</value>
									</parameter>
								</effect>
							</filter>
							<filter>
								<effect>
									<name>Audio Pan</name>
									<effectid>audiopan</effectid>
									<effectcategory>audiopan</effectcategory>
									<effecttype>audiopan</effecttype>
									<mediatype>audio</mediatype>
									<parameter>
										<name>Pan</name>
										<parameterid>pan</parameterid>
										<valuemin>-1</valuemin>
										<valuemax>1</valuemax>
										<value>1</value>
									</parameter>
								</effect>
							</filter>
							<sourcetrack>
								<mediatype>audio</mediatype>
								<trackindex>2</trackindex>
							</sourcetrack>
							<link>
								<linkclipref>The-one197</linkclipref>
								<mediatype>video</mediatype>
								<trackindex>1</trackindex>
								<clipindex>21</clipindex>
							</link>
							<link>
								<linkclipref>The-one198</linkclipref>
								<mediatype>audio</mediatype>
								<trackindex>1</trackindex>
								<clipindex>21</clipindex>
								<groupindex>1</groupindex>
							</link>
							<link>
								<linkclipref>The-one199</linkclipref>
								<mediatype>audio</mediatype>
								<trackindex>2</trackindex>
								<clipindex>21</clipindex>
								<groupindex>1</groupindex>
							</link>
							<itemhistory>
								<uuid>B72BAF89-F9B2-4721-AB4E-F65E8002237C</uuid>
							</itemhistory>
						</clipitem>
						<clipitem id="The-one202">
							<name>The-one</name>
							<duration>5477</duration>
							<rate>
								<ntsc>FALSE</ntsc>
								<timebase>25</timebase>
							</rate>
							<in>2886</in>
							<out>2945</out>
							<start>1225</start>
							<end>1284</end>
							<subframeoffset>0</subframeoffset>
							<masterclipid>The-one1</masterclipid>
							<logginginfo>
								<scene/>
								<shottake/>
								<lognote/>
								<good>FALSE</good>
							</logginginfo>
							<labels>
								<label2/>
							</labels>
							<comments>
								<mastercomment1/>
								<mastercomment2/>
								<mastercomment3/>
								<mastercomment4/>
							</comments>
							<file id="The-one2"/>
							<filter>
								<effect>
									<name>Audio Levels</name>
									<effectid>audiolevels</effectid>
									<effectcategory>audiolevels</effectcategory>
									<effecttype>audiolevels</effecttype>
									<mediatype>audio</mediatype>
									<parameter>
										<name>Level</name>
										<parameterid>level</parameterid>
										<valuemin>0</valuemin>
										<valuemax>3.98109</valuemax>
										<value>1</value>
									</parameter>
								</effect>
							</filter>
							<filter>
								<effect>
									<name>Audio Pan</name>
									<effectid>audiopan</effectid>
									<effectcategory>audiopan</effectcategory>
									<effecttype>audiopan</effecttype>
									<mediatype>audio</mediatype>
									<parameter>
										<name>Pan</name>
										<parameterid>pan</parameterid>
										<valuemin>-1</valuemin>
										<valuemax>1</valuemax>
										<value>1</value>
									</parameter>
								</effect>
							</filter>
							<sourcetrack>
								<mediatype>audio</mediatype>
								<trackindex>2</trackindex>
							</sourcetrack>
							<link>
								<linkclipref>The-one200</linkclipref>
								<mediatype>video</mediatype>
								<trackindex>1</trackindex>
								<clipindex>22</clipindex>
							</link>
							<link>
								<linkclipref>The-one201</linkclipref>
								<mediatype>audio</mediatype>
								<trackindex>1</trackindex>
								<clipindex>22</clipindex>
								<groupindex>1</groupindex>
							</link>
							<link>
								<linkclipref>The-one202</linkclipref>
								<mediatype>audio</mediatype>
								<trackindex>2</trackindex>
								<clipindex>22</clipindex>
								<groupindex>1</groupindex>
							</link>
							<itemhistory>
								<uuid>46FF17D3-58F2-4D41-8A67-579144EB40EC</uuid>
							</itemhistory>
						</clipitem>
						<clipitem id="The-one205">
							<name>The-one</name>
							<duration>5477</duration>
							<rate>
								<ntsc>FALSE</ntsc>
								<timebase>25</timebase>
							</rate>
							<in>2995</in>
							<out>3055</out>
							<start>1284</start>
							<end>1344</end>
							<subframeoffset>0</subframeoffset>
							<masterclipid>The-one1</masterclipid>
							<logginginfo>
								<scene/>
								<shottake/>
								<lognote/>
								<good>FALSE</good>
							</logginginfo>
							<labels>
								<label2/>
							</labels>
							<comments>
								<mastercomment1/>
								<mastercomment2/>
								<mastercomment3/>
								<mastercomment4/>
							</comments>
							<file id="The-one2"/>
							<filter>
								<effect>
									<name>Audio Levels</name>
									<effectid>audiolevels</effectid>
									<effectcategory>audiolevels</effectcategory>
									<effecttype>audiolevels</effecttype>
									<mediatype>audio</mediatype>
									<parameter>
										<name>Level</name>
										<parameterid>level</parameterid>
										<valuemin>0</valuemin>
										<valuemax>3.98109</valuemax>
										<value>1</value>
									</parameter>
								</effect>
							</filter>
							<filter>
								<effect>
									<name>Audio Pan</name>
									<effectid>audiopan</effectid>
									<effectcategory>audiopan</effectcategory>
									<effecttype>audiopan</effecttype>
									<mediatype>audio</mediatype>
									<parameter>
										<name>Pan</name>
										<parameterid>pan</parameterid>
										<valuemin>-1</valuemin>
										<valuemax>1</valuemax>
										<value>1</value>
									</parameter>
								</effect>
							</filter>
							<sourcetrack>
								<mediatype>audio</mediatype>
								<trackindex>2</trackindex>
							</sourcetrack>
							<link>
								<linkclipref>The-one203</linkclipref>
								<mediatype>video</mediatype>
								<trackindex>1</trackindex>
								<clipindex>23</clipindex>
							</link>
							<link>
								<linkclipref>The-one204</linkclipref>
								<mediatype>audio</mediatype>
								<trackindex>1</trackindex>
								<clipindex>23</clipindex>
								<groupindex>1</groupindex>
							</link>
							<link>
								<linkclipref>The-one205</linkclipref>
								<mediatype>audio</mediatype>
								<trackindex>2</trackindex>
								<clipindex>23</clipindex>
								<groupindex>1</groupindex>
							</link>
							<itemhistory>
								<uuid>DA57861B-6431-4731-A98A-00F2D7C5F581</uuid>
							</itemhistory>
						</clipitem>
						<clipitem id="The-one208">
							<name>The-one</name>
							<duration>5477</duration>
							<rate>
								<ntsc>FALSE</ntsc>
								<timebase>25</timebase>
							</rate>
							<in>3111</in>
							<out>3169</out>
							<start>1344</start>
							<end>1402</end>
							<subframeoffset>0</subframeoffset>
							<masterclipid>The-one1</masterclipid>
							<logginginfo>
								<scene/>
								<shottake/>
								<lognote/>
								<good>FALSE</good>
							</logginginfo>
							<labels>
								<label2/>
							</labels>
							<comments>
								<mastercomment1/>
								<mastercomment2/>
								<mastercomment3/>
								<mastercomment4/>
							</comments>
							<file id="The-one2"/>
							<filter>
								<effect>
									<name>Audio Levels</name>
									<effectid>audiolevels</effectid>
									<effectcategory>audiolevels</effectcategory>
									<effecttype>audiolevels</effecttype>
									<mediatype>audio</mediatype>
									<parameter>
										<name>Level</name>
										<parameterid>level</parameterid>
										<valuemin>0</valuemin>
										<valuemax>3.98109</valuemax>
										<value>1</value>
									</parameter>
								</effect>
							</filter>
							<filter>
								<effect>
									<name>Audio Pan</name>
									<effectid>audiopan</effectid>
									<effectcategory>audiopan</effectcategory>
									<effecttype>audiopan</effecttype>
									<mediatype>audio</mediatype>
									<parameter>
										<name>Pan</name>
										<parameterid>pan</parameterid>
										<valuemin>-1</valuemin>
										<valuemax>1</valuemax>
										<value>1</value>
									</parameter>
								</effect>
							</filter>
							<sourcetrack>
								<mediatype>audio</mediatype>
								<trackindex>2</trackindex>
							</sourcetrack>
							<link>
								<linkclipref>The-one206</linkclipref>
								<mediatype>video</mediatype>
								<trackindex>1</trackindex>
								<clipindex>24</clipindex>
							</link>
							<link>
								<linkclipref>The-one207</linkclipref>
								<mediatype>audio</mediatype>
								<trackindex>1</trackindex>
								<clipindex>24</clipindex>
								<groupindex>1</groupindex>
							</link>
							<link>
								<linkclipref>The-one208</linkclipref>
								<mediatype>audio</mediatype>
								<trackindex>2</trackindex>
								<clipindex>24</clipindex>
								<groupindex>1</groupindex>
							</link>
							<itemhistory>
								<uuid>0EB35185-A9C1-4ADD-A59F-33E9485699AF</uuid>
							</itemhistory>
						</clipitem>
						<clipitem id="The-one211">
							<name>The-one</name>
							<duration>5477</duration>
							<rate>
								<ntsc>FALSE</ntsc>
								<timebase>25</timebase>
							</rate>
							<in>3223</in>
							<out>3284</out>
							<start>1402</start>
							<end>1463</end>
							<subframeoffset>0</subframeoffset>
							<masterclipid>The-one1</masterclipid>
							<logginginfo>
								<scene/>
								<shottake/>
								<lognote/>
								<good>FALSE</good>
							</logginginfo>
							<labels>
								<label2/>
							</labels>
							<comments>
								<mastercomment1/>
								<mastercomment2/>
								<mastercomment3/>
								<mastercomment4/>
							</comments>
							<file id="The-one2"/>
							<filter>
								<effect>
									<name>Audio Levels</name>
									<effectid>audiolevels</effectid>
									<effectcategory>audiolevels</effectcategory>
									<effecttype>audiolevels</effecttype>
									<mediatype>audio</mediatype>
									<parameter>
										<name>Level</name>
										<parameterid>level</parameterid>
										<valuemin>0</valuemin>
										<valuemax>3.98109</valuemax>
										<value>1</value>
									</parameter>
								</effect>
							</filter>
							<filter>
								<effect>
									<name>Audio Pan</name>
									<effectid>audiopan</effectid>
									<effectcategory>audiopan</effectcategory>
									<effecttype>audiopan</effecttype>
									<mediatype>audio</mediatype>
									<parameter>
										<name>Pan</name>
										<parameterid>pan</parameterid>
										<valuemin>-1</valuemin>
										<valuemax>1</valuemax>
										<value>1</value>
									</parameter>
								</effect>
							</filter>
							<sourcetrack>
								<mediatype>audio</mediatype>
								<trackindex>2</trackindex>
							</sourcetrack>
							<link>
								<linkclipref>The-one209</linkclipref>
								<mediatype>video</mediatype>
								<trackindex>1</trackindex>
								<clipindex>25</clipindex>
							</link>
							<link>
								<linkclipref>The-one210</linkclipref>
								<mediatype>audio</mediatype>
								<trackindex>1</trackindex>
								<clipindex>25</clipindex>
								<groupindex>1</groupindex>
							</link>
							<link>
								<linkclipref>The-one211</linkclipref>
								<mediatype>audio</mediatype>
								<trackindex>2</trackindex>
								<clipindex>25</clipindex>
								<groupindex>1</groupindex>
							</link>
							<itemhistory>
								<uuid>ABC1DE67-87E9-45B1-912A-0257B5620B3E</uuid>
							</itemhistory>
						</clipitem>
						<clipitem id="The-one214">
							<name>The-one</name>
							<duration>5477</duration>
							<rate>
								<ntsc>FALSE</ntsc>
								<timebase>25</timebase>
							</rate>
							<in>3338</in>
							<out>3394</out>
							<start>1463</start>
							<end>1519</end>
							<subframeoffset>0</subframeoffset>
							<masterclipid>The-one1</masterclipid>
							<logginginfo>
								<scene/>
								<shottake/>
								<lognote/>
								<good>FALSE</good>
							</logginginfo>
							<labels>
								<label2/>
							</labels>
							<comments>
								<mastercomment1/>
								<mastercomment2/>
								<mastercomment3/>
								<mastercomment4/>
							</comments>
							<file id="The-one2"/>
							<filter>
								<effect>
									<name>Audio Levels</name>
									<effectid>audiolevels</effectid>
									<effectcategory>audiolevels</effectcategory>
									<effecttype>audiolevels</effecttype>
									<mediatype>audio</mediatype>
									<parameter>
										<name>Level</name>
										<parameterid>level</parameterid>
										<valuemin>0</valuemin>
										<valuemax>3.98109</valuemax>
										<value>1</value>
									</parameter>
								</effect>
							</filter>
							<filter>
								<effect>
									<name>Audio Pan</name>
									<effectid>audiopan</effectid>
									<effectcategory>audiopan</effectcategory>
									<effecttype>audiopan</effecttype>
									<mediatype>audio</mediatype>
									<parameter>
										<name>Pan</name>
										<parameterid>pan</parameterid>
										<valuemin>-1</valuemin>
										<valuemax>1</valuemax>
										<value>1</value>
									</parameter>
								</effect>
							</filter>
							<sourcetrack>
								<mediatype>audio</mediatype>
								<trackindex>2</trackindex>
							</sourcetrack>
							<link>
								<linkclipref>The-one212</linkclipref>
								<mediatype>video</mediatype>
								<trackindex>1</trackindex>
								<clipindex>26</clipindex>
							</link>
							<link>
								<linkclipref>The-one213</linkclipref>
								<mediatype>audio</mediatype>
								<trackindex>1</trackindex>
								<clipindex>26</clipindex>
								<groupindex>1</groupindex>
							</link>
							<link>
								<linkclipref>The-one214</linkclipref>
								<mediatype>audio</mediatype>
								<trackindex>2</trackindex>
								<clipindex>26</clipindex>
								<groupindex>1</groupindex>
							</link>
							<itemhistory>
								<uuid>62500E3C-D3A5-4C17-9F11-B014F33F0039</uuid>
							</itemhistory>
						</clipitem>
						<clipitem id="The-one217">
							<name>The-one</name>
							<duration>5477</duration>
							<rate>
								<ntsc>FALSE</ntsc>
								<timebase>25</timebase>
							</rate>
							<in>3452</in>
							<out>3507</out>
							<start>1519</start>
							<end>1574</end>
							<subframeoffset>0</subframeoffset>
							<masterclipid>The-one1</masterclipid>
							<logginginfo>
								<scene/>
								<shottake/>
								<lognote/>
								<good>FALSE</good>
							</logginginfo>
							<labels>
								<label2/>
							</labels>
							<comments>
								<mastercomment1/>
								<mastercomment2/>
								<mastercomment3/>
								<mastercomment4/>
							</comments>
							<file id="The-one2"/>
							<filter>
								<effect>
									<name>Audio Levels</name>
									<effectid>audiolevels</effectid>
									<effectcategory>audiolevels</effectcategory>
									<effecttype>audiolevels</effecttype>
									<mediatype>audio</mediatype>
									<parameter>
										<name>Level</name>
										<parameterid>level</parameterid>
										<valuemin>0</valuemin>
										<valuemax>3.98109</valuemax>
										<value>1</value>
									</parameter>
								</effect>
							</filter>
							<filter>
								<effect>
									<name>Audio Pan</name>
									<effectid>audiopan</effectid>
									<effectcategory>audiopan</effectcategory>
									<effecttype>audiopan</effecttype>
									<mediatype>audio</mediatype>
									<parameter>
										<name>Pan</name>
										<parameterid>pan</parameterid>
										<valuemin>-1</valuemin>
										<valuemax>1</valuemax>
										<value>1</value>
									</parameter>
								</effect>
							</filter>
							<sourcetrack>
								<mediatype>audio</mediatype>
								<trackindex>2</trackindex>
							</sourcetrack>
							<link>
								<linkclipref>The-one215</linkclipref>
								<mediatype>video</mediatype>
								<trackindex>1</trackindex>
								<clipindex>27</clipindex>
							</link>
							<link>
								<linkclipref>The-one216</linkclipref>
								<mediatype>audio</mediatype>
								<trackindex>1</trackindex>
								<clipindex>27</clipindex>
								<groupindex>1</groupindex>
							</link>
							<link>
								<linkclipref>The-one217</linkclipref>
								<mediatype>audio</mediatype>
								<trackindex>2</trackindex>
								<clipindex>27</clipindex>
								<groupindex>1</groupindex>
							</link>
							<itemhistory>
								<uuid>9B04D472-23FA-4D21-A683-675077FA3BD1</uuid>
							</itemhistory>
						</clipitem>
						<clipitem id="The-one220">
							<name>The-one</name>
							<duration>5477</duration>
							<rate>
								<ntsc>FALSE</ntsc>
								<timebase>25</timebase>
							</rate>
							<in>3565</in>
							<out>3711</out>
							<start>1574</start>
							<end>1720</end>
							<subframeoffset>0</subframeoffset>
							<masterclipid>The-one1</masterclipid>
							<logginginfo>
								<scene/>
								<shottake/>
								<lognote/>
								<good>FALSE</good>
							</logginginfo>
							<labels>
								<label2/>
							</labels>
							<comments>
								<mastercomment1/>
								<mastercomment2/>
								<mastercomment3/>
								<mastercomment4/>
							</comments>
							<file id="The-one2"/>
							<filter>
								<effect>
									<name>Audio Levels</name>
									<effectid>audiolevels</effectid>
									<effectcategory>audiolevels</effectcategory>
									<effecttype>audiolevels</effecttype>
									<mediatype>audio</mediatype>
									<parameter>
										<name>Level</name>
										<parameterid>level</parameterid>
										<valuemin>0</valuemin>
										<valuemax>3.98109</valuemax>
										<value>1</value>
									</parameter>
								</effect>
							</filter>
							<filter>
								<effect>
									<name>Audio Pan</name>
									<effectid>audiopan</effectid>
									<effectcategory>audiopan</effectcategory>
									<effecttype>audiopan</effecttype>
									<mediatype>audio</mediatype>
									<parameter>
										<name>Pan</name>
										<parameterid>pan</parameterid>
										<valuemin>-1</valuemin>
										<valuemax>1</valuemax>
										<value>1</value>
									</parameter>
								</effect>
							</filter>
							<sourcetrack>
								<mediatype>audio</mediatype>
								<trackindex>2</trackindex>
							</sourcetrack>
							<link>
								<linkclipref>The-one218</linkclipref>
								<mediatype>video</mediatype>
								<trackindex>1</trackindex>
								<clipindex>28</clipindex>
							</link>
							<link>
								<linkclipref>The-one219</linkclipref>
								<mediatype>audio</mediatype>
								<trackindex>1</trackindex>
								<clipindex>28</clipindex>
								<groupindex>1</groupindex>
							</link>
							<link>
								<linkclipref>The-one220</linkclipref>
								<mediatype>audio</mediatype>
								<trackindex>2</trackindex>
								<clipindex>28</clipindex>
								<groupindex>1</groupindex>
							</link>
							<itemhistory>
								<uuid>9790CCDA-B640-4460-9B93-D1C8EDA59F9B</uuid>
							</itemhistory>
						</clipitem>
						<clipitem id="The-one223">
							<name>The-one</name>
							<duration>5477</duration>
							<rate>
								<ntsc>FALSE</ntsc>
								<timebase>25</timebase>
							</rate>
							<in>3905</in>
							<out>3960</out>
							<start>1720</start>
							<end>1775</end>
							<subframeoffset>0</subframeoffset>
							<masterclipid>The-one1</masterclipid>
							<logginginfo>
								<scene/>
								<shottake/>
								<lognote/>
								<good>FALSE</good>
							</logginginfo>
							<labels>
								<label2/>
							</labels>
							<comments>
								<mastercomment1/>
								<mastercomment2/>
								<mastercomment3/>
								<mastercomment4/>
							</comments>
							<file id="The-one2"/>
							<filter>
								<effect>
									<name>Audio Levels</name>
									<effectid>audiolevels</effectid>
									<effectcategory>audiolevels</effectcategory>
									<effecttype>audiolevels</effecttype>
									<mediatype>audio</mediatype>
									<parameter>
										<name>Level</name>
										<parameterid>level</parameterid>
										<valuemin>0</valuemin>
										<valuemax>3.98109</valuemax>
										<value>1</value>
									</parameter>
								</effect>
							</filter>
							<filter>
								<effect>
									<name>Audio Pan</name>
									<effectid>audiopan</effectid>
									<effectcategory>audiopan</effectcategory>
									<effecttype>audiopan</effecttype>
									<mediatype>audio</mediatype>
									<parameter>
										<name>Pan</name>
										<parameterid>pan</parameterid>
										<valuemin>-1</valuemin>
										<valuemax>1</valuemax>
										<value>1</value>
									</parameter>
								</effect>
							</filter>
							<sourcetrack>
								<mediatype>audio</mediatype>
								<trackindex>2</trackindex>
							</sourcetrack>
							<link>
								<linkclipref>The-one221</linkclipref>
								<mediatype>video</mediatype>
								<trackindex>1</trackindex>
								<clipindex>29</clipindex>
							</link>
							<link>
								<linkclipref>The-one222</linkclipref>
								<mediatype>audio</mediatype>
								<trackindex>1</trackindex>
								<clipindex>29</clipindex>
								<groupindex>1</groupindex>
							</link>
							<link>
								<linkclipref>The-one223</linkclipref>
								<mediatype>audio</mediatype>
								<trackindex>2</trackindex>
								<clipindex>29</clipindex>
								<groupindex>1</groupindex>
							</link>
							<itemhistory>
								<uuid>F5A1250E-6111-44E1-8DCC-3690D2F6E719</uuid>
							</itemhistory>
						</clipitem>
						<clipitem id="The-one226">
							<name>The-one</name>
							<duration>5477</duration>
							<rate>
								<ntsc>FALSE</ntsc>
								<timebase>25</timebase>
							</rate>
							<in>4017</in>
							<out>4074</out>
							<start>1775</start>
							<end>1832</end>
							<subframeoffset>0</subframeoffset>
							<masterclipid>The-one1</masterclipid>
							<logginginfo>
								<scene/>
								<shottake/>
								<lognote/>
								<good>FALSE</good>
							</logginginfo>
							<labels>
								<label2/>
							</labels>
							<comments>
								<mastercomment1/>
								<mastercomment2/>
								<mastercomment3/>
								<mastercomment4/>
							</comments>
							<file id="The-one2"/>
							<filter>
								<effect>
									<name>Audio Levels</name>
									<effectid>audiolevels</effectid>
									<effectcategory>audiolevels</effectcategory>
									<effecttype>audiolevels</effecttype>
									<mediatype>audio</mediatype>
									<parameter>
										<name>Level</name>
										<parameterid>level</parameterid>
										<valuemin>0</valuemin>
										<valuemax>3.98109</valuemax>
										<value>1</value>
									</parameter>
								</effect>
							</filter>
							<filter>
								<effect>
									<name>Audio Pan</name>
									<effectid>audiopan</effectid>
									<effectcategory>audiopan</effectcategory>
									<effecttype>audiopan</effecttype>
									<mediatype>audio</mediatype>
									<parameter>
										<name>Pan</name>
										<parameterid>pan</parameterid>
										<valuemin>-1</valuemin>
										<valuemax>1</valuemax>
										<value>1</value>
									</parameter>
								</effect>
							</filter>
							<sourcetrack>
								<mediatype>audio</mediatype>
								<trackindex>2</trackindex>
							</sourcetrack>
							<link>
								<linkclipref>The-one224</linkclipref>
								<mediatype>video</mediatype>
								<trackindex>1</trackindex>
								<clipindex>30</clipindex>
							</link>
							<link>
								<linkclipref>The-one225</linkclipref>
								<mediatype>audio</mediatype>
								<trackindex>1</trackindex>
								<clipindex>30</clipindex>
								<groupindex>1</groupindex>
							</link>
							<link>
								<linkclipref>The-one226</linkclipref>
								<mediatype>audio</mediatype>
								<trackindex>2</trackindex>
								<clipindex>30</clipindex>
								<groupindex>1</groupindex>
							</link>
							<itemhistory>
								<uuid>C34E95FC-5230-43AB-9E53-D69ECCB2743F</uuid>
							</itemhistory>
						</clipitem>
						<clipitem id="The-one229">
							<name>The-one</name>
							<duration>5477</duration>
							<rate>
								<ntsc>FALSE</ntsc>
								<timebase>25</timebase>
							</rate>
							<in>4125</in>
							<out>4189</out>
							<start>1832</start>
							<end>1896</end>
							<subframeoffset>0</subframeoffset>
							<masterclipid>The-one1</masterclipid>
							<logginginfo>
								<scene/>
								<shottake/>
								<lognote/>
								<good>FALSE</good>
							</logginginfo>
							<labels>
								<label2/>
							</labels>
							<comments>
								<mastercomment1/>
								<mastercomment2/>
								<mastercomment3/>
								<mastercomment4/>
							</comments>
							<file id="The-one2"/>
							<filter>
								<effect>
									<name>Audio Levels</name>
									<effectid>audiolevels</effectid>
									<effectcategory>audiolevels</effectcategory>
									<effecttype>audiolevels</effecttype>
									<mediatype>audio</mediatype>
									<parameter>
										<name>Level</name>
										<parameterid>level</parameterid>
										<valuemin>0</valuemin>
										<valuemax>3.98109</valuemax>
										<value>1</value>
									</parameter>
								</effect>
							</filter>
							<filter>
								<effect>
									<name>Audio Pan</name>
									<effectid>audiopan</effectid>
									<effectcategory>audiopan</effectcategory>
									<effecttype>audiopan</effecttype>
									<mediatype>audio</mediatype>
									<parameter>
										<name>Pan</name>
										<parameterid>pan</parameterid>
										<valuemin>-1</valuemin>
										<valuemax>1</valuemax>
										<value>1</value>
									</parameter>
								</effect>
							</filter>
							<sourcetrack>
								<mediatype>audio</mediatype>
								<trackindex>2</trackindex>
							</sourcetrack>
							<link>
								<linkclipref>The-one227</linkclipref>
								<mediatype>video</mediatype>
								<trackindex>1</trackindex>
								<clipindex>31</clipindex>
							</link>
							<link>
								<linkclipref>The-one228</linkclipref>
								<mediatype>audio</mediatype>
								<trackindex>1</trackindex>
								<clipindex>31</clipindex>
								<groupindex>1</groupindex>
							</link>
							<link>
								<linkclipref>The-one229</linkclipref>
								<mediatype>audio</mediatype>
								<trackindex>2</trackindex>
								<clipindex>31</clipindex>
								<groupindex>1</groupindex>
							</link>
							<itemhistory>
								<uuid>06ECA39B-247A-45A5-AD61-6463D3BC2961</uuid>
							</itemhistory>
						</clipitem>
						<clipitem id="The-one232">
							<name>The-one</name>
							<duration>5477</duration>
							<rate>
								<ntsc>FALSE</ntsc>
								<timebase>25</timebase>
							</rate>
							<in>4248</in>
							<out>4309</out>
							<start>1896</start>
							<end>1957</end>
							<subframeoffset>0</subframeoffset>
							<masterclipid>The-one1</masterclipid>
							<logginginfo>
								<scene/>
								<shottake/>
								<lognote/>
								<good>FALSE</good>
							</logginginfo>
							<labels>
								<label2/>
							</labels>
							<comments>
								<mastercomment1/>
								<mastercomment2/>
								<mastercomment3/>
								<mastercomment4/>
							</comments>
							<file id="The-one2"/>
							<filter>
								<effect>
									<name>Audio Levels</name>
									<effectid>audiolevels</effectid>
									<effectcategory>audiolevels</effectcategory>
									<effecttype>audiolevels</effecttype>
									<mediatype>audio</mediatype>
									<parameter>
										<name>Level</name>
										<parameterid>level</parameterid>
										<valuemin>0</valuemin>
										<valuemax>3.98109</valuemax>
										<value>1</value>
									</parameter>
								</effect>
							</filter>
							<filter>
								<effect>
									<name>Audio Pan</name>
									<effectid>audiopan</effectid>
									<effectcategory>audiopan</effectcategory>
									<effecttype>audiopan</effecttype>
									<mediatype>audio</mediatype>
									<parameter>
										<name>Pan</name>
										<parameterid>pan</parameterid>
										<valuemin>-1</valuemin>
										<valuemax>1</valuemax>
										<value>1</value>
									</parameter>
								</effect>
							</filter>
							<sourcetrack>
								<mediatype>audio</mediatype>
								<trackindex>2</trackindex>
							</sourcetrack>
							<link>
								<linkclipref>The-one230</linkclipref>
								<mediatype>video</mediatype>
								<trackindex>1</trackindex>
								<clipindex>32</clipindex>
							</link>
							<link>
								<linkclipref>The-one231</linkclipref>
								<mediatype>audio</mediatype>
								<trackindex>1</trackindex>
								<clipindex>32</clipindex>
								<groupindex>1</groupindex>
							</link>
							<link>
								<linkclipref>The-one232</linkclipref>
								<mediatype>audio</mediatype>
								<trackindex>2</trackindex>
								<clipindex>32</clipindex>
								<groupindex>1</groupindex>
							</link>
							<itemhistory>
								<uuid>340C713E-C25B-4F26-AAD9-871B5ED9F7E1</uuid>
							</itemhistory>
						</clipitem>
						<clipitem id="The-one235">
							<name>The-one</name>
							<duration>5477</duration>
							<rate>
								<ntsc>FALSE</ntsc>
								<timebase>25</timebase>
							</rate>
							<in>4359</in>
							<out>4416</out>
							<start>1957</start>
							<end>2014</end>
							<subframeoffset>0</subframeoffset>
							<masterclipid>The-one1</masterclipid>
							<logginginfo>
								<scene/>
								<shottake/>
								<lognote/>
								<good>FALSE</good>
							</logginginfo>
							<labels>
								<label2/>
							</labels>
							<comments>
								<mastercomment1/>
								<mastercomment2/>
								<mastercomment3/>
								<mastercomment4/>
							</comments>
							<file id="The-one2"/>
							<filter>
								<effect>
									<name>Audio Levels</name>
									<effectid>audiolevels</effectid>
									<effectcategory>audiolevels</effectcategory>
									<effecttype>audiolevels</effecttype>
									<mediatype>audio</mediatype>
									<parameter>
										<name>Level</name>
										<parameterid>level</parameterid>
										<valuemin>0</valuemin>
										<valuemax>3.98109</valuemax>
										<value>1</value>
									</parameter>
								</effect>
							</filter>
							<filter>
								<effect>
									<name>Audio Pan</name>
									<effectid>audiopan</effectid>
									<effectcategory>audiopan</effectcategory>
									<effecttype>audiopan</effecttype>
									<mediatype>audio</mediatype>
									<parameter>
										<name>Pan</name>
										<parameterid>pan</parameterid>
										<valuemin>-1</valuemin>
										<valuemax>1</valuemax>
										<value>1</value>
									</parameter>
								</effect>
							</filter>
							<sourcetrack>
								<mediatype>audio</mediatype>
								<trackindex>2</trackindex>
							</sourcetrack>
							<link>
								<linkclipref>The-one233</linkclipref>
								<mediatype>video</mediatype>
								<trackindex>1</trackindex>
								<clipindex>33</clipindex>
							</link>
							<link>
								<linkclipref>The-one234</linkclipref>
								<mediatype>audio</mediatype>
								<trackindex>1</trackindex>
								<clipindex>33</clipindex>
								<groupindex>1</groupindex>
							</link>
							<link>
								<linkclipref>The-one235</linkclipref>
								<mediatype>audio</mediatype>
								<trackindex>2</trackindex>
								<clipindex>33</clipindex>
								<groupindex>1</groupindex>
							</link>
							<itemhistory>
								<uuid>04724579-09B5-43D5-BBED-C8B216BD88E4</uuid>
							</itemhistory>
						</clipitem>
						<clipitem id="The-one238">
							<name>The-one</name>
							<duration>5477</duration>
							<rate>
								<ntsc>FALSE</ntsc>
								<timebase>25</timebase>
							</rate>
							<in>4472</in>
							<out>4534</out>
							<start>2014</start>
							<end>2076</end>
							<subframeoffset>0</subframeoffset>
							<masterclipid>The-one1</masterclipid>
							<logginginfo>
								<scene/>
								<shottake/>
								<lognote/>
								<good>FALSE</good>
							</logginginfo>
							<labels>
								<label2/>
							</labels>
							<comments>
								<mastercomment1/>
								<mastercomment2/>
								<mastercomment3/>
								<mastercomment4/>
							</comments>
							<file id="The-one2"/>
							<filter>
								<effect>
									<name>Audio Levels</name>
									<effectid>audiolevels</effectid>
									<effectcategory>audiolevels</effectcategory>
									<effecttype>audiolevels</effecttype>
									<mediatype>audio</mediatype>
									<parameter>
										<name>Level</name>
										<parameterid>level</parameterid>
										<valuemin>0</valuemin>
										<valuemax>3.98109</valuemax>
										<value>1</value>
									</parameter>
								</effect>
							</filter>
							<filter>
								<effect>
									<name>Audio Pan</name>
									<effectid>audiopan</effectid>
									<effectcategory>audiopan</effectcategory>
									<effecttype>audiopan</effecttype>
									<mediatype>audio</mediatype>
									<parameter>
										<name>Pan</name>
										<parameterid>pan</parameterid>
										<valuemin>-1</valuemin>
										<valuemax>1</valuemax>
										<value>1</value>
									</parameter>
								</effect>
							</filter>
							<sourcetrack>
								<mediatype>audio</mediatype>
								<trackindex>2</trackindex>
							</sourcetrack>
							<link>
								<linkclipref>The-one236</linkclipref>
								<mediatype>video</mediatype>
								<trackindex>1</trackindex>
								<clipindex>34</clipindex>
							</link>
							<link>
								<linkclipref>The-one237</linkclipref>
								<mediatype>audio</mediatype>
								<trackindex>1</trackindex>
								<clipindex>34</clipindex>
								<groupindex>1</groupindex>
							</link>
							<link>
								<linkclipref>The-one238</linkclipref>
								<mediatype>audio</mediatype>
								<trackindex>2</trackindex>
								<clipindex>34</clipindex>
								<groupindex>1</groupindex>
							</link>
							<itemhistory>
								<uuid>A8D8A745-3FF5-4BF1-BAC3-5EF2037C6B1C</uuid>
							</itemhistory>
						</clipitem>
						<clipitem id="The-one241">
							<name>The-one</name>
							<duration>5477</duration>
							<rate>
								<ntsc>FALSE</ntsc>
								<timebase>25</timebase>
							</rate>
							<in>4586</in>
							<out>4712</out>
							<start>2076</start>
							<end>2202</end>
							<subframeoffset>0</subframeoffset>
							<masterclipid>The-one1</masterclipid>
							<logginginfo>
								<scene/>
								<shottake/>
								<lognote/>
								<good>FALSE</good>
							</logginginfo>
							<labels>
								<label2/>
							</labels>
							<comments>
								<mastercomment1/>
								<mastercomment2/>
								<mastercomment3/>
								<mastercomment4/>
							</comments>
							<file id="The-one2"/>
							<filter>
								<effect>
									<name>Audio Levels</name>
									<effectid>audiolevels</effectid>
									<effectcategory>audiolevels</effectcategory>
									<effecttype>audiolevels</effecttype>
									<mediatype>audio</mediatype>
									<parameter>
										<name>Level</name>
										<parameterid>level</parameterid>
										<valuemin>0</valuemin>
										<valuemax>3.98109</valuemax>
										<value>1</value>
									</parameter>
								</effect>
							</filter>
							<filter>
								<effect>
									<name>Audio Pan</name>
									<effectid>audiopan</effectid>
									<effectcategory>audiopan</effectcategory>
									<effecttype>audiopan</effecttype>
									<mediatype>audio</mediatype>
									<parameter>
										<name>Pan</name>
										<parameterid>pan</parameterid>
										<valuemin>-1</valuemin>
										<valuemax>1</valuemax>
										<value>1</value>
									</parameter>
								</effect>
							</filter>
							<sourcetrack>
								<mediatype>audio</mediatype>
								<trackindex>2</trackindex>
							</sourcetrack>
							<link>
								<linkclipref>The-one239</linkclipref>
								<mediatype>video</mediatype>
								<trackindex>1</trackindex>
								<clipindex>35</clipindex>
							</link>
							<link>
								<linkclipref>The-one240</linkclipref>
								<mediatype>audio</mediatype>
								<trackindex>1</trackindex>
								<clipindex>35</clipindex>
								<groupindex>1</groupindex>
							</link>
							<link>
								<linkclipref>The-one241</linkclipref>
								<mediatype>audio</mediatype>
								<trackindex>2</trackindex>
								<clipindex>35</clipindex>
								<groupindex>1</groupindex>
							</link>
							<itemhistory>
								<uuid>C695582A-1B7D-472A-AF21-5F9C6857BBAD</uuid>
							</itemhistory>
						</clipitem>
						<clipitem id="The-one244">
							<name>The-one</name>
							<duration>5477</duration>
							<rate>
								<ntsc>FALSE</ntsc>
								<timebase>25</timebase>
							</rate>
							<in>4754</in>
							<out>4855</out>
							<start>2211</start>
							<end>2312</end>
							<subframeoffset>0</subframeoffset>
							<masterclipid>The-one1</masterclipid>
							<logginginfo>
								<scene/>
								<shottake/>
								<lognote/>
								<good>FALSE</good>
							</logginginfo>
							<labels>
								<label2/>
							</labels>
							<comments>
								<mastercomment1/>
								<mastercomment2/>
								<mastercomment3/>
								<mastercomment4/>
							</comments>
							<file id="The-one2"/>
							<filter>
								<effect>
									<name>Audio Levels</name>
									<effectid>audiolevels</effectid>
									<effectcategory>audiolevels</effectcategory>
									<effecttype>audiolevels</effecttype>
									<mediatype>audio</mediatype>
									<parameter>
										<name>Level</name>
										<parameterid>level</parameterid>
										<valuemin>0</valuemin>
										<valuemax>3.98109</valuemax>
										<value>1</value>
									</parameter>
								</effect>
							</filter>
							<filter>
								<effect>
									<name>Audio Pan</name>
									<effectid>audiopan</effectid>
									<effectcategory>audiopan</effectcategory>
									<effecttype>audiopan</effecttype>
									<mediatype>audio</mediatype>
									<parameter>
										<name>Pan</name>
										<parameterid>pan</parameterid>
										<valuemin>-1</valuemin>
										<valuemax>1</valuemax>
										<value>1</value>
									</parameter>
								</effect>
							</filter>
							<sourcetrack>
								<mediatype>audio</mediatype>
								<trackindex>2</trackindex>
							</sourcetrack>
							<link>
								<linkclipref>The-one242</linkclipref>
								<mediatype>video</mediatype>
								<trackindex>1</trackindex>
								<clipindex>36</clipindex>
							</link>
							<link>
								<linkclipref>The-one243</linkclipref>
								<mediatype>audio</mediatype>
								<trackindex>1</trackindex>
								<clipindex>36</clipindex>
								<groupindex>1</groupindex>
							</link>
							<link>
								<linkclipref>The-one244</linkclipref>
								<mediatype>audio</mediatype>
								<trackindex>2</trackindex>
								<clipindex>36</clipindex>
								<groupindex>1</groupindex>
							</link>
							<itemhistory>
								<uuid>709E2278-DCC8-4804-8105-77E95486AAE6</uuid>
							</itemhistory>
						</clipitem>
						<clipitem id="The-one247">
							<name>The-one</name>
							<duration>5477</duration>
							<rate>
								<ntsc>FALSE</ntsc>
								<timebase>25</timebase>
							</rate>
							<in>4909</in>
							<out>5031</out>
							<start>2312</start>
							<end>2434</end>
							<subframeoffset>0</subframeoffset>
							<masterclipid>The-one1</masterclipid>
							<logginginfo>
								<scene/>
								<shottake/>
								<lognote/>
								<good>FALSE</good>
							</logginginfo>
							<labels>
								<label2/>
							</labels>
							<comments>
								<mastercomment1/>
								<mastercomment2/>
								<mastercomment3/>
								<mastercomment4/>
							</comments>
							<file id="The-one2"/>
							<filter>
								<effect>
									<name>Audio Levels</name>
									<effectid>audiolevels</effectid>
									<effectcategory>audiolevels</effectcategory>
									<effecttype>audiolevels</effecttype>
									<mediatype>audio</mediatype>
									<parameter>
										<name>Level</name>
										<parameterid>level</parameterid>
										<valuemin>0</valuemin>
										<valuemax>3.98109</valuemax>
										<value>1</value>
									</parameter>
								</effect>
							</filter>
							<filter>
								<effect>
									<name>Audio Pan</name>
									<effectid>audiopan</effectid>
									<effectcategory>audiopan</effectcategory>
									<effecttype>audiopan</effecttype>
									<mediatype>audio</mediatype>
									<parameter>
										<name>Pan</name>
										<parameterid>pan</parameterid>
										<valuemin>-1</valuemin>
										<valuemax>1</valuemax>
										<value>1</value>
									</parameter>
								</effect>
							</filter>
							<sourcetrack>
								<mediatype>audio</mediatype>
								<trackindex>2</trackindex>
							</sourcetrack>
							<link>
								<linkclipref>The-one245</linkclipref>
								<mediatype>video</mediatype>
								<trackindex>1</trackindex>
								<clipindex>37</clipindex>
							</link>
							<link>
								<linkclipref>The-one246</linkclipref>
								<mediatype>audio</mediatype>
								<trackindex>1</trackindex>
								<clipindex>37</clipindex>
								<groupindex>1</groupindex>
							</link>
							<link>
								<linkclipref>The-one247</linkclipref>
								<mediatype>audio</mediatype>
								<trackindex>2</trackindex>
								<clipindex>37</clipindex>
								<groupindex>1</groupindex>
							</link>
							<itemhistory>
								<uuid>76ED58B5-A09C-4FD6-B674-6902D631687D</uuid>
							</itemhistory>
						</clipitem>
						<clipitem id="The-one250">
							<name>The-one</name>
							<duration>5477</duration>
							<rate>
								<ntsc>FALSE</ntsc>
								<timebase>25</timebase>
							</rate>
							<in>2092</in>
							<out>2225</out>
							<start>2434</start>
							<end>2567</end>
							<subframeoffset>0</subframeoffset>
							<masterclipid>The-one1</masterclipid>
							<logginginfo>
								<scene/>
								<shottake/>
								<lognote/>
								<good>FALSE</good>
							</logginginfo>
							<labels>
								<label2/>
							</labels>
							<comments>
								<mastercomment1/>
								<mastercomment2/>
								<mastercomment3/>
								<mastercomment4/>
							</comments>
							<file id="The-one2"/>
							<filter>
								<effect>
									<name>Audio Levels</name>
									<effectid>audiolevels</effectid>
									<effectcategory>audiolevels</effectcategory>
									<effecttype>audiolevels</effecttype>
									<mediatype>audio</mediatype>
									<parameter>
										<name>Level</name>
										<parameterid>level</parameterid>
										<valuemin>0</valuemin>
										<valuemax>3.98109</valuemax>
										<value>1</value>
									</parameter>
								</effect>
							</filter>
							<filter>
								<effect>
									<name>Audio Pan</name>
									<effectid>audiopan</effectid>
									<effectcategory>audiopan</effectcategory>
									<effecttype>audiopan</effecttype>
									<mediatype>audio</mediatype>
									<parameter>
										<name>Pan</name>
										<parameterid>pan</parameterid>
										<valuemin>-1</valuemin>
										<valuemax>1</valuemax>
										<value>1</value>
									</parameter>
								</effect>
							</filter>
							<sourcetrack>
								<mediatype>audio</mediatype>
								<trackindex>2</trackindex>
							</sourcetrack>
							<link>
								<linkclipref>The-one248</linkclipref>
								<mediatype>video</mediatype>
								<trackindex>1</trackindex>
								<clipindex>38</clipindex>
							</link>
							<link>
								<linkclipref>The-one249</linkclipref>
								<mediatype>audio</mediatype>
								<trackindex>1</trackindex>
								<clipindex>38</clipindex>
								<groupindex>1</groupindex>
							</link>
							<link>
								<linkclipref>The-one250</linkclipref>
								<mediatype>audio</mediatype>
								<trackindex>2</trackindex>
								<clipindex>38</clipindex>
								<groupindex>1</groupindex>
							</link>
							<itemhistory>
								<uuid>E15A9D2E-7D96-4999-A2AF-3AD63EC47CE2</uuid>
							</itemhistory>
						</clipitem>
						<clipitem id="The-one253">
							<name>The-one</name>
							<duration>5477</duration>
							<rate>
								<ntsc>FALSE</ntsc>
								<timebase>25</timebase>
							</rate>
							<in>1812</in>
							<out>1869</out>
							<start>2567</start>
							<end>2624</end>
							<subframeoffset>0</subframeoffset>
							<masterclipid>The-one1</masterclipid>
							<logginginfo>
								<scene/>
								<shottake/>
								<lognote/>
								<good>FALSE</good>
							</logginginfo>
							<labels>
								<label2/>
							</labels>
							<comments>
								<mastercomment1/>
								<mastercomment2/>
								<mastercomment3/>
								<mastercomment4/>
							</comments>
							<file id="The-one2"/>
							<filter>
								<effect>
									<name>Audio Levels</name>
									<effectid>audiolevels</effectid>
									<effectcategory>audiolevels</effectcategory>
									<effecttype>audiolevels</effecttype>
									<mediatype>audio</mediatype>
									<parameter>
										<name>Level</name>
										<parameterid>level</parameterid>
										<valuemin>0</valuemin>
										<valuemax>3.98109</valuemax>
										<value>1</value>
									</parameter>
								</effect>
							</filter>
							<filter>
								<effect>
									<name>Audio Pan</name>
									<effectid>audiopan</effectid>
									<effectcategory>audiopan</effectcategory>
									<effecttype>audiopan</effecttype>
									<mediatype>audio</mediatype>
									<parameter>
										<name>Pan</name>
										<parameterid>pan</parameterid>
										<valuemin>-1</valuemin>
										<valuemax>1</valuemax>
										<value>1</value>
									</parameter>
								</effect>
							</filter>
							<sourcetrack>
								<mediatype>audio</mediatype>
								<trackindex>2</trackindex>
							</sourcetrack>
							<link>
								<linkclipref>The-one251</linkclipref>
								<mediatype>video</mediatype>
								<trackindex>1</trackindex>
								<clipindex>39</clipindex>
							</link>
							<link>
								<linkclipref>The-one252</linkclipref>
								<mediatype>audio</mediatype>
								<trackindex>1</trackindex>
								<clipindex>39</clipindex>
								<groupindex>1</groupindex>
							</link>
							<link>
								<linkclipref>The-one253</linkclipref>
								<mediatype>audio</mediatype>
								<trackindex>2</trackindex>
								<clipindex>39</clipindex>
								<groupindex>1</groupindex>
							</link>
							<itemhistory>
								<uuid>8E89C807-20DC-4776-9F53-BB3A9C7E7965</uuid>
							</itemhistory>
						</clipitem>
						<enabled>TRUE</enabled>
						<locked>FALSE</locked>
						<outputchannelindex>2</outputchannelindex>
					</track>
					<track>
						<enabled>TRUE</enabled>
						<locked>FALSE</locked>
						<outputchannelindex>1</outputchannelindex>
					</track>
					<track>
						<enabled>TRUE</enabled>
						<locked>FALSE</locked>
						<outputchannelindex>2</outputchannelindex>
					</track>
					<filter>
						<effect>
							<name>Audio Levels</name>
							<effectid>audiolevels</effectid>
							<effectcategory>audiolevels</effectcategory>
							<effecttype>audiolevels</effecttype>
							<mediatype>audio</mediatype>
							<parameter>
								<name>Level</name>
								<parameterid>level</parameterid>
								<valuemin>0</valuemin>
								<valuemax>3.98109</valuemax>
								<value>1</value>
							</parameter>
						</effect>
					</filter>
				</audio>
			</media>
			<ismasterclip>FALSE</ismasterclip>
		</sequence>
		<clip id="The-one1">
			<uuid>20ADED69-C2EF-42D8-BA2E-FF9FDA8D3812</uuid>
			<updatebehavior>add</updatebehavior>
			<name>The-one</name>
			<duration>5477</duration>
			<rate>
				<ntsc>FALSE</ntsc>
				<timebase>25</timebase>
			</rate>
			<in>5090</in>
			<out>5206</out>
			<masterclipid>The-one1</masterclipid>
			<ismasterclip>TRUE</ismasterclip>
			<logginginfo>
				<scene/>
				<shottake/>
				<lognote/>
				<good>FALSE</good>
			</logginginfo>
			<labels>
				<label2/>
			</labels>
			<comments>
				<mastercomment1/>
				<mastercomment2/>
				<mastercomment3/>
				<mastercomment4/>
			</comments>
			<media>
				<video>
					<track>
						<clipitem id="The-one254">
							<name>The-one</name>
							<duration>5477</duration>
							<rate>
								<ntsc>FALSE</ntsc>
								<timebase>25</timebase>
							</rate>
							<in>0</in>
							<out>5477</out>
							<start>0</start>
							<end>5477</end>
							<pixelaspectratio>Square</pixelaspectratio>
							<anamorphic>FALSE</anamorphic>
							<alphatype>none</alphatype>
							<masterclipid>The-one1</masterclipid>
							<logginginfo>
								<scene/>
								<shottake/>
								<lognote/>
								<good>FALSE</good>
							</logginginfo>
							<labels>
								<label2/>
							</labels>
							<comments>
								<mastercomment1/>
								<mastercomment2/>
								<mastercomment3/>
								<mastercomment4/>
							</comments>
							<file id="The-one2"/>
							<sourcetrack>
								<mediatype>video</mediatype>
							</sourcetrack>
							<link>
								<linkclipref>The-one254</linkclipref>
								<mediatype>video</mediatype>
								<trackindex>1</trackindex>
								<clipindex>1</clipindex>
							</link>
							<link>
								<linkclipref>The-one255</linkclipref>
								<mediatype>audio</mediatype>
								<trackindex>1</trackindex>
								<clipindex>1</clipindex>
								<groupindex>1</groupindex>
							</link>
							<link>
								<linkclipref>The-one256</linkclipref>
								<mediatype>audio</mediatype>
								<trackindex>2</trackindex>
								<clipindex>1</clipindex>
								<groupindex>1</groupindex>
							</link>
							<fielddominance>upper</fielddominance>
							<itemhistory>
								<uuid>141BEF2C-C92B-4658-B0BD-F2AA3DA814E7</uuid>
							</itemhistory>
						</clipitem>
						<enabled>TRUE</enabled>
						<locked>FALSE</locked>
					</track>
				</video>
				<audio>
					<in>5090</in>
					<out>5206</out>
					<track>
						<clipitem id="The-one255">
							<name>The-one</name>
							<duration>5477</duration>
							<rate>
								<ntsc>FALSE</ntsc>
								<timebase>25</timebase>
							</rate>
							<in>0</in>
							<out>5477</out>
							<start>0</start>
							<end>5477</end>
							<subframeoffset>0</subframeoffset>
							<masterclipid>The-one1</masterclipid>
							<logginginfo>
								<scene/>
								<shottake/>
								<lognote/>
								<good>FALSE</good>
							</logginginfo>
							<labels>
								<label2/>
							</labels>
							<comments>
								<mastercomment1/>
								<mastercomment2/>
								<mastercomment3/>
								<mastercomment4/>
							</comments>
							<file id="The-one2"/>
							<filter>
								<effect>
									<name>Audio Levels</name>
									<effectid>audiolevels</effectid>
									<effectcategory>audiolevels</effectcategory>
									<effecttype>audiolevels</effecttype>
									<mediatype>audio</mediatype>
									<parameter>
										<name>Level</name>
										<parameterid>level</parameterid>
										<valuemin>0</valuemin>
										<valuemax>3.98109</valuemax>
										<value>1</value>
									</parameter>
								</effect>
							</filter>
							<filter>
								<effect>
									<name>Audio Pan</name>
									<effectid>audiopan</effectid>
									<effectcategory>audiopan</effectcategory>
									<effecttype>audiopan</effecttype>
									<mediatype>audio</mediatype>
									<parameter>
										<name>Pan</name>
										<parameterid>pan</parameterid>
										<valuemin>-1</valuemin>
										<valuemax>1</valuemax>
										<value>-1</value>
									</parameter>
								</effect>
							</filter>
							<sourcetrack>
								<mediatype>audio</mediatype>
								<trackindex>1</trackindex>
							</sourcetrack>
							<link>
								<linkclipref>The-one254</linkclipref>
								<mediatype>video</mediatype>
								<trackindex>1</trackindex>
								<clipindex>1</clipindex>
							</link>
							<link>
								<linkclipref>The-one255</linkclipref>
								<mediatype>audio</mediatype>
								<trackindex>1</trackindex>
								<clipindex>1</clipindex>
								<groupindex>1</groupindex>
							</link>
							<link>
								<linkclipref>The-one256</linkclipref>
								<mediatype>audio</mediatype>
								<trackindex>2</trackindex>
								<clipindex>1</clipindex>
								<groupindex>1</groupindex>
							</link>
							<itemhistory>
								<uuid>D098B452-4151-4996-9C08-4240428AD40E</uuid>
							</itemhistory>
						</clipitem>
						<enabled>TRUE</enabled>
						<locked>FALSE</locked>
					</track>
					<track>
						<clipitem id="The-one256">
							<name>The-one</name>
							<duration>5477</duration>
							<rate>
								<ntsc>FALSE</ntsc>
								<timebase>25</timebase>
							</rate>
							<in>0</in>
							<out>5477</out>
							<start>0</start>
							<end>5477</end>
							<subframeoffset>0</subframeoffset>
							<masterclipid>The-one1</masterclipid>
							<logginginfo>
								<scene/>
								<shottake/>
								<lognote/>
								<good>FALSE</good>
							</logginginfo>
							<labels>
								<label2/>
							</labels>
							<comments>
								<mastercomment1/>
								<mastercomment2/>
								<mastercomment3/>
								<mastercomment4/>
							</comments>
							<file id="The-one2"/>
							<filter>
								<effect>
									<name>Audio Levels</name>
									<effectid>audiolevels</effectid>
									<effectcategory>audiolevels</effectcategory>
									<effecttype>audiolevels</effecttype>
									<mediatype>audio</mediatype>
									<parameter>
										<name>Level</name>
										<parameterid>level</parameterid>
										<valuemin>0</valuemin>
										<valuemax>3.98109</valuemax>
										<value>1</value>
									</parameter>
								</effect>
							</filter>
							<filter>
								<effect>
									<name>Audio Pan</name>
									<effectid>audiopan</effectid>
									<effectcategory>audiopan</effectcategory>
									<effecttype>audiopan</effecttype>
									<mediatype>audio</mediatype>
									<parameter>
										<name>Pan</name>
										<parameterid>pan</parameterid>
										<valuemin>-1</valuemin>
										<valuemax>1</valuemax>
										<value>1</value>
									</parameter>
								</effect>
							</filter>
							<sourcetrack>
								<mediatype>audio</mediatype>
								<trackindex>2</trackindex>
							</sourcetrack>
							<link>
								<linkclipref>The-one254</linkclipref>
								<mediatype>video</mediatype>
								<trackindex>1</trackindex>
								<clipindex>1</clipindex>
							</link>
							<link>
								<linkclipref>The-one255</linkclipref>
								<mediatype>audio</mediatype>
								<trackindex>1</trackindex>
								<clipindex>1</clipindex>
								<groupindex>1</groupindex>
							</link>
							<link>
								<linkclipref>The-one256</linkclipref>
								<mediatype>audio</mediatype>
								<trackindex>2</trackindex>
								<clipindex>1</clipindex>
								<groupindex>1</groupindex>
							</link>
							<itemhistory>
								<uuid>5930F7ED-7BC6-46FD-A909-0611D9398B4B</uuid>
							</itemhistory>
						</clipitem>
						<enabled>TRUE</enabled>
						<locked>FALSE</locked>
					</track>
					<filter>
						<effect>
							<name>Audio Levels</name>
							<effectid>audiolevels</effectid>
							<effectcategory>audiolevels</effectcategory>
							<effecttype>audiolevels</effecttype>
							<mediatype>audio</mediatype>
							<parameter>
								<name>Level</name>
								<parameterid>level</parameterid>
								<valuemin>0</valuemin>
								<valuemax>3.98109</valuemax>
								<value>1</value>
							</parameter>
						</effect>
					</filter>
				</audio>
			</media>
		</clip>
	</children>
</project>
</xmeml>


